<svg width="399" height="403" viewBox="0 0 399 403" fill="none" xmlns="http://www.w3.org/2000/svg">
<g id="Boy">
<path id="Fill 29 Copy" fill-rule="evenodd" clip-rule="evenodd" d="M99.0055 268.641C98.8876 287.431 100.663 305.333 105.52 321.451L105.531 321.487C119.146 366.606 156.998 397.698 245.509 394.815C365.64 390.905 387.462 279.25 397.537 174.853C405.721 90.1457 380.246 27.7989 303.772 7.28215C285.989 2.50952 265.44 0 241.927 0C133.822 0 99.4609 197.203 99.0055 268.641Z" fill="#E0E7FF"/>
<path id="Fill 30 Copy" fill-rule="evenodd" clip-rule="evenodd" d="M105 321.434C118.64 366.586 156.56 397.7 245.231 394.815C365.58 390.902 387.441 279.166 397.535 174.693C405.733 89.9239 380.212 27.5316 303.6 7C369.393 47.0488 385.734 120.01 358.843 230.999C331.963 341.988 264.124 374.27 220.189 374.341C176.27 374.423 121.132 360.104 105 321.434Z" fill="#B7C7FF"/>
<path id="Fill 31 Copy" fill-rule="evenodd" clip-rule="evenodd" d="M272.558 103.977C358.987 119.312 321.282 242.359 302.177 276.815C283.072 311.27 274.93 352.072 230.786 353.885C186.642 355.699 130.239 335.752 124.78 321.243C119.322 306.737 144.297 231.117 144.297 231.117C144.297 231.117 147.751 154.59 171.674 134.491C195.596 114.393 243.85 98.8827 272.558 103.977Z" fill="#BFCEFF"/>
<path id="Fill 32 Copy" fill-rule="evenodd" clip-rule="evenodd" d="M157.971 312.637C173.62 342.212 226.957 352.606 245.233 347.925C255.991 345.165 268.899 335.288 280.634 321.111C288.131 307.76 294.136 292.204 302.027 277.761C304.995 272.333 308.408 264.734 311.728 255.707C318.256 223.937 318.063 186.209 305.792 173.354C289.131 155.922 272.959 143.642 271.799 132.844C270.9 124.371 280.408 113.194 278.498 105.248C276.632 104.766 274.688 104.341 272.675 103.983C249.235 99.7637 212.662 109.595 187.233 124.486C184.787 133.857 184.571 146.413 178.816 150.484C169.969 156.715 156.287 195.8 152.819 214.15C149.362 232.502 157.971 312.637 157.971 312.637Z" fill="#A2B7FF"/>
<path id="Fill 33 Copy" fill-rule="evenodd" clip-rule="evenodd" d="M41.157 359.473C40.4584 370.896 8.26334 356.317 4 350C4 350 21.6315 402 30.808 402C39.9832 402 65 374.917 65 374.917L61.9971 359.473H41.157Z" fill="#AF2F48"/>
<path id="Fill 34 Copy" fill-rule="evenodd" clip-rule="evenodd" d="M30.6318 398.793C40.8841 403.039 15.2636 340.616 3.11284 342.023C-9.03656 343.431 17.3928 393.311 30.6318 398.793Z" fill="#D35473"/>
<path id="Fill 35 Copy" fill-rule="evenodd" clip-rule="evenodd" d="M38.0224 285.945C38.6627 318.116 46.9977 358 46.9977 358H67.5417C67.5417 358 80.1683 330.854 86.0861 303.534C87.5748 296.681 88.6327 289.815 88.9702 283.371C88.9702 283.371 120.803 293.02 151.602 287.228C164.414 284.826 178.924 280.748 191.504 276.796C209.153 271.271 223 266.002 223 266.002L199.49 236.187L139.034 227.073L131.953 226L88.9702 239.358C50.8464 243.483 37.3714 253.776 38.0224 285.945Z" fill="#31344C"/>
<path id="Fill 39 Copy" fill-rule="evenodd" clip-rule="evenodd" d="M85.4034 304C86.8909 296.92 87.9479 289.826 88.2851 283.167C88.2851 283.167 91.8505 284.285 97.7511 285.548C101.795 278.555 105.993 271.767 110.263 265.511C117.376 255.083 128.889 248.833 141.202 248.833C141.274 248.833 141.346 248.833 141.417 248.833C156.986 248.924 179.906 250.096 201 255.136L175.71 230.831L150.999 226.979L144.793 226.011L138.305 225L95.3359 237.675C105.722 257.016 84.8223 279.889 80.2346 286.767C79.095 288.474 77.4329 289.073 75.4536 289.073C73.1291 289.073 70.3674 288.249 67.4937 287.424C64.6187 286.601 61.6331 285.777 58.8634 285.777C57.2587 285.777 55.7259 286.054 54.329 286.767C46.0586 290.995 78.8284 288.97 85.4034 304Z" fill="#292B3E"/>
<path id="Fill 40 Copy" fill-rule="evenodd" clip-rule="evenodd" d="M72 375.674C62.5253 395.942 48.4864 405.617 41 402.39L44.2742 368.759L57.8394 363L72 375.674Z" fill="#AF2F48"/>
<path id="Fill 41 Copy" fill-rule="evenodd" clip-rule="evenodd" d="M41.6614 402.831C59.3963 405.62 56.0958 373.252 55.0996 357.529C54.1033 341.807 40.167 343.215 38.6741 355.42C37.1811 367.625 29.7148 400.954 41.6614 402.831Z" fill="#D35473"/>
<path id="Fill 42 Copy" fill-rule="evenodd" clip-rule="evenodd" d="M59 362.221L73.1263 375C130.937 358.389 164.974 306.001 164.974 306.001C197.091 343.052 233.06 351.363 262 306.001C262 306.001 260.173 285.836 236.702 270.292C232.153 267.258 226.777 264.412 220.446 261.923C195.345 252.038 161.96 250.116 141.386 250.001C128.97 249.93 117.345 255.949 110.178 266.031C98.0755 283.047 86.5435 304.148 77.491 322.252C66.3662 344.512 59 362.221 59 362.221Z" fill="#383952"/>
<path id="Fill 43 Copy" fill-rule="evenodd" clip-rule="evenodd" d="M71.3077 374C89.5195 368.824 105.405 360.178 118.645 350.723C120.633 349.303 122.556 347.87 124.423 346.424C140.202 334.199 151.657 321.312 158.144 313.191C162.217 308.09 164.335 304.867 164.335 304.867C181.412 324.355 199.57 335.909 217.203 335.911C232.17 335.913 246.757 327.596 260 308.742L213.144 266C228.63 297.064 212.513 305.908 193.776 305.908C180.091 305.908 165.009 301.193 159.808 296.968C147.387 286.868 135.66 276.755 130.108 276.197C130.038 276.191 129.972 276.187 129.912 276.187C125.296 276.187 153.571 297.232 133.185 321.15C121.69 334.651 101.816 345.319 88.3363 345.319C77.6163 345.319 70.9398 338.577 75.7285 321.15C64.4608 343.452 57 361.196 57 361.196L71.3077 374Z" fill="#2D2E41"/>
<path id="Fill 44 Copy" fill-rule="evenodd" clip-rule="evenodd" d="M201.064 87.062H201.935C201.935 87.062 210.593 120.668 225.355 133.194C228.014 135.449 230.873 137.024 233.919 137.597C253.834 141.331 271.184 118.318 274.467 102.535C276.301 93.7064 273.067 88.2899 269.855 85.2483C267.339 82.8146 264.822 81.8728 264.822 81.8728C264.822 81.8728 263.515 56.9737 254.964 57.4282C246.741 57.858 248.118 61.1624 248.223 61.4129C247.694 60.697 229.801 36.5754 217.497 39.1995C205.005 41.8714 213.768 60.53 213.768 60.53C213.768 60.53 197.995 44.3175 192.735 53.6461C187.478 62.9761 203.028 74.3086 203.028 74.3086C203.028 74.3086 189.666 74.0937 188.349 78.9859C187.044 83.8645 189.007 88.5404 201.064 87.062Z" fill="#6D3744"/>
<path id="Fill 45 Copy" fill-rule="evenodd" clip-rule="evenodd" d="M226 128.263C228.571 130.485 231.335 132.038 234.28 132.602C253.535 136.283 270.311 113.598 273.485 98.0407C275.258 89.3375 272.131 83.9982 269.025 81C266.16 84.8456 262.327 92.5597 253.581 82.7879H249.521L226 128.263Z" fill="#542633"/>
<path id="Fill 46 Copy" fill-rule="evenodd" clip-rule="evenodd" d="M172 228.184L261.229 311C265.568 307.093 269.343 303.014 272.609 298.774H272.621C278.681 290.94 283.043 282.573 286.136 273.849C288.457 267.298 290.071 260.549 291.133 253.673C293.58 237.982 293.245 221.573 292.253 205.281C289.933 167.126 278.413 141.646 232.664 140.999C232.664 140.999 211.693 135.129 196.168 143.506C183.957 150.081 176.006 198.705 173.167 219.159C172.393 224.705 172 228.184 172 228.184Z" fill="#61648A"/>
<path id="Fill 47 Copy" fill-rule="evenodd" clip-rule="evenodd" d="M266.493 229L274 226.685L258.798 172C258.798 172 246.495 193.63 217.825 193.63C210.434 193.63 201.954 192.192 192.319 188.575L187 218.599L263.843 226.679L266.493 229Z" fill="#525476"/>
<path id="Fill 48 Copy" fill-rule="evenodd" clip-rule="evenodd" d="M261.628 312C266.034 308.043 269.869 303.914 273.186 299.62C257.419 298.425 223.552 260.796 232.451 258.83C232.807 258.752 233.204 258.715 233.636 258.715C238.079 258.715 246.38 262.647 255.833 266.581C265.286 270.513 275.892 274.446 284.941 274.446C285.612 274.446 286.273 274.424 286.925 274.38C289.282 267.746 290.921 260.912 292 253.95L265.571 230.862L240.18 238.671L182.709 232.7L184.905 220.335L172.185 219C171.399 224.616 171 228.139 171 228.139L261.628 312Z" fill="#525476"/>
<path id="Fill 51 Copy" fill-rule="evenodd" clip-rule="evenodd" d="M285.979 168.52C265.131 153.038 253.323 166.641 254.332 193.395C255.341 220.151 255.341 220.151 255.341 220.151C255.341 220.151 228.755 211.703 222.251 211.703C222.251 211.703 221.686 230.008 222.251 236.579C222.251 236.579 254.398 267.559 275.608 269.905C296.82 272.251 292.578 230.477 294.462 211.232C296.347 191.988 293.22 173.897 285.979 168.52Z" fill="#61648A"/>
<path id="Fill 52 Copy" fill-rule="evenodd" clip-rule="evenodd" d="M199 230.78L183.052 166.209C181.426 159.626 175.516 155 168.733 155H77.2115C71.2017 155 66.8028 160.66 68.2917 166.48L86.7613 234L199 230.78Z" fill="#C3C9F4"/>
<path id="Fill 53 Copy" fill-rule="evenodd" clip-rule="evenodd" d="M192 230.78L176.05 166.209C174.425 159.626 168.516 155 161.732 155H70.2106C64.2022 155 59.8046 160.66 61.2908 166.48L79.7603 234L192 230.78Z" fill="#E0E7FF"/>
<path id="Fill 54 Copy" fill-rule="evenodd" clip-rule="evenodd" d="M109.171 239H223.829C225.581 239 227 237.434 227 235.501C227 233.568 225.581 232 223.829 232H109.171C107.418 232 106 233.568 106 235.501C106 237.434 107.418 239 109.171 239Z" fill="#C3C9F4"/>
<path id="Fill 56 Copy" fill-rule="evenodd" clip-rule="evenodd" d="M120.604 195.563C122.051 204.104 125.639 210.548 128.62 209.963C131.601 209.375 132.842 201.977 131.397 193.436C129.95 184.896 126.361 178.45 123.38 179.037C120.399 179.625 119.157 187.023 120.604 195.563Z" fill="#C3C9F4"/>
<path id="Fill 57 Copy" fill-rule="evenodd" clip-rule="evenodd" d="M195.416 89.4694C193.498 119.551 197.972 132.882 213.951 134.592V141.6C213.951 146.791 217.884 151 222.737 151C227.591 151 231.524 146.791 231.524 141.6V134.592C231.524 134.592 244.307 128.78 246.864 120.235C249.42 111.688 246.864 118.867 246.864 118.867L247.999 84H195.001L195.416 89.4694Z" fill="#F4B8AB"/>
<path id="Fill 58 Copy" fill-rule="evenodd" clip-rule="evenodd" d="M249.059 107.377C253.562 100.117 258.859 103.16 259.918 107.377C260.979 111.59 251.442 121.853 249.059 118.244C246.677 114.636 249.059 107.377 249.059 107.377Z" fill="#F4B8AB"/>
<path id="Fill 59 Copy" fill-rule="evenodd" clip-rule="evenodd" d="M259 82.7655C249.807 93.404 223.743 98.9362 214.31 96.3831C204.879 93.8299 218.282 85.5309 218.282 85.5309C218.282 85.5309 200.79 97.0214 192.782 93.1917C184.771 89.3619 206.368 80 206.368 80L259 82.7655Z" fill="#6D3744"/>
<path id="Fill 60 Copy" fill-rule="evenodd" clip-rule="evenodd" d="M225.36 105H226.72C226.719 105.672 226.79 106.285 226.877 106.647L226.935 106.857L226.96 106.917L226.402 107.159L226.838 106.765L226.96 106.917L226.402 107.159L226.838 106.765L226.054 107.473L226.552 106.565C226.693 106.635 226.781 106.71 226.838 106.765L226.054 107.473L226.552 106.565L226.001 107.569V106.44C226.211 106.44 226.413 106.496 226.552 106.565L226.001 107.569V106.44V107.534L225.206 106.725C225.321 106.619 225.613 106.44 226.001 106.44V107.534L225.206 106.725L225.744 107.272L225.049 106.906L225.206 106.725L225.744 107.272L225.049 106.906L225.209 106.99L225.042 106.919L225.049 106.906L225.209 106.99L225.042 106.919C225.055 106.901 225.145 106.632 225.193 106.285C225.246 105.933 225.28 105.484 225.28 105C225.281 104.328 225.212 103.715 225.125 103.353L225.065 103.143L225.042 103.083L225.601 102.841L225.163 103.235L225.042 103.083L225.601 102.841L225.163 103.235L225.948 102.527L225.45 103.435C225.308 103.365 225.22 103.291 225.163 103.235L225.948 102.527L225.45 103.435L226.001 102.431V103.56C225.79 103.561 225.589 103.504 225.45 103.435L226.001 102.431V103.56V102.467L226.795 103.276C226.681 103.381 226.388 103.561 226.001 103.56V102.467L226.795 103.276L226.258 102.729L226.951 103.095L226.795 103.276L226.258 102.729L226.951 103.095L226.792 103.011L226.96 103.083L226.951 103.095L226.792 103.011L226.96 103.083C226.945 103.1 226.856 103.368 226.807 103.715C226.754 104.067 226.72 104.516 226.72 105H224C224.001 104.171 224.075 103.423 224.22 102.8C224.296 102.485 224.381 102.204 224.547 101.9C224.634 101.748 224.74 101.58 224.949 101.396C225.147 101.216 225.525 100.999 226.001 101C226.477 100.999 226.855 101.216 227.053 101.396C227.407 101.723 227.499 101.979 227.611 102.236C227.757 102.619 227.84 103.021 227.905 103.484C227.966 103.945 228 104.457 228 105C227.999 105.831 227.925 106.577 227.781 107.2C227.705 107.515 227.621 107.794 227.455 108.1C227.368 108.252 227.261 108.419 227.053 108.604C226.855 108.784 226.478 109.001 226.001 109C225.525 109.001 225.147 108.784 224.948 108.606C224.594 108.278 224.502 108.022 224.392 107.765C224.245 107.382 224.16 106.979 224.097 106.516C224.034 106.056 224 105.544 224 105H225.36Z" fill="#191918"/>
<path id="Fill 61 Copy" fill-rule="evenodd" clip-rule="evenodd" d="M209.36 105H210.72C210.719 105.672 210.788 106.285 210.875 106.647L210.935 106.857L210.958 106.917L210.401 107.159L210.837 106.765L210.958 106.917L210.401 107.159L210.837 106.765L210.054 107.473L210.552 106.565C210.693 106.635 210.78 106.71 210.837 106.765L210.054 107.473L210.552 106.565L210.001 107.569V106.44C210.211 106.44 210.411 106.496 210.552 106.565L210.001 107.569V106.44V107.534L209.206 106.725C209.321 106.619 209.612 106.44 210.001 106.44V107.534L209.206 106.725L209.742 107.272L209.049 106.905L209.206 106.725L209.742 107.272L209.049 106.905L209.209 106.989L209.042 106.917L209.049 106.905L209.209 106.989L209.042 106.917C209.057 106.901 209.145 106.632 209.193 106.285C209.247 105.933 209.281 105.484 209.28 105C209.281 104.328 209.212 103.715 209.125 103.354L209.066 103.143L209.042 103.083L209.601 102.841L209.163 103.236L209.042 103.083L209.601 102.841L209.163 103.236L209.948 102.527L209.45 103.435C209.308 103.365 209.22 103.291 209.163 103.236L209.948 102.527L209.45 103.435L210.001 102.431V103.56C209.79 103.561 209.589 103.504 209.45 103.435L210.001 102.431V103.56V102.467L210.795 103.276C210.679 103.381 210.388 103.561 210.001 103.56V102.467L210.795 103.276L210.258 102.729L210.951 103.095L210.795 103.276L210.258 102.729L210.951 103.095L210.791 103.011L210.958 103.083L210.951 103.095L210.791 103.011L210.958 103.083C210.945 103.1 210.855 103.368 210.807 103.715C210.754 104.067 210.72 104.516 210.72 105H208C208.001 104.171 208.075 103.423 208.22 102.8C208.296 102.485 208.381 102.204 208.547 101.9C208.634 101.748 208.74 101.58 208.948 101.396C209.147 101.216 209.523 100.999 210.001 101C210.477 100.999 210.855 101.216 211.052 101.396C211.406 101.722 211.499 101.979 211.61 102.235C211.757 102.618 211.841 103.021 211.905 103.484C211.967 103.945 212 104.457 212 105C211.999 105.831 211.925 106.578 211.781 107.2C211.704 107.516 211.621 107.796 211.455 108.1C211.368 108.254 211.261 108.42 211.052 108.606C210.855 108.784 210.477 109.001 210.001 109C209.523 109.001 209.147 108.784 208.948 108.606C208.594 108.278 208.501 108.022 208.39 107.765C208.245 107.382 208.16 106.979 208.095 106.516C208.034 106.056 208 105.544 208 105H209.36Z" fill="#191918"/>
<path id="Fill 62 Copy" fill-rule="evenodd" clip-rule="evenodd" d="M215.656 119.541C215.782 119.546 215.906 119.547 216.031 119.547C219.926 119.548 223.41 117.965 225.917 116.366C227.171 115.569 228.179 114.768 228.869 114.171C229.214 113.873 229.481 113.626 229.659 113.453L229.86 113.257L229.921 113.195C230.182 112.921 230.587 112.937 230.829 113.232C231.07 113.526 231.054 113.985 230.795 114.258C230.74 114.297 224.443 120.977 216.031 121C215.896 121 215.762 120.999 215.626 120.994C215.272 120.985 214.991 120.653 215 120.252C215.008 119.851 215.302 119.532 215.656 119.541Z" fill="#E56A85"/>
<path id="Fill 63 Copy" fill-rule="evenodd" clip-rule="evenodd" d="M215 143L231 136.402C231 136.402 229.27 136.458 226.692 136.458C223.526 136.458 219.082 136.374 215 136V143Z" fill="#E88C9F"/>
<path id="Fill 65 Copy" fill-rule="evenodd" clip-rule="evenodd" d="M248.951 116C251.067 116 254.758 113.138 254.977 109.37C255.133 106.699 254.509 105 253.146 105C252.244 105 251.017 105.746 249.479 107.447C249.479 107.447 248.613 109.388 248.033 111.411C247.952 112.93 248.008 114.518 248.349 115.905C248.528 115.969 248.731 116 248.951 116Z" fill="#E88C9F"/>
</g>
</svg>
