<svg width="122" height="27" viewBox="0 0 122 27" fill="none" xmlns="http://www.w3.org/2000/svg">
<path d="M85 10C85.197 10 85.3924 10.0203 85.5862 10.0577C85.7785 10.0966 85.9661 10.1528 86.149 10.2292C86.3304 10.304 86.5039 10.3959 86.6681 10.5066C86.8306 10.6157 86.9823 10.7389 87.1214 10.8792C87.2606 11.0179 87.3856 11.1691 87.495 11.3328C87.6045 11.4981 87.6967 11.6695 87.7718 11.8519C87.8484 12.0343 87.9046 12.2214 87.9437 12.4147C87.9812 12.608 88 12.8028 88 13.0008C88 13.1972 87.9812 13.392 87.9437 13.5853C87.9046 13.7786 87.8484 13.9657 87.7718 14.1481C87.6967 14.3305 87.6045 14.5035 87.495 14.6672C87.3856 14.8309 87.2606 14.9821 87.1214 15.1208C86.9823 15.2611 86.8306 15.3858 86.6681 15.4949C86.5039 15.6041 86.3304 15.696 86.149 15.7724C85.9661 15.8472 85.7785 15.9034 85.5862 15.9423C85.3924 15.9813 85.197 16 85 16C84.803 16 84.6092 15.9813 84.4153 15.9423C84.2215 15.9034 84.0339 15.8472 83.8525 15.7724C83.6712 15.696 83.4977 15.6041 83.3335 15.4949C83.1694 15.3858 83.0177 15.2611 82.8786 15.1208C82.7394 14.9821 82.6159 14.8309 82.5065 14.6672C82.3971 14.5035 82.3048 14.3305 82.2282 14.1481C82.1532 13.9657 82.0969 13.7786 82.0578 13.5853C82.0203 13.392 82 13.1972 82 13.0008C82 12.8028 82.0203 12.608 82.0578 12.4147C82.0969 12.2214 82.1532 12.0343 82.2282 11.8519C82.3048 11.6695 82.3971 11.4981 82.5065 11.3328C82.6159 11.1691 82.7394 11.0179 82.8786 10.8792C83.0177 10.7389 83.1694 10.6157 83.3335 10.5066C83.4977 10.3959 83.6712 10.304 83.8525 10.2292C84.0339 10.1528 84.2215 10.0966 84.4153 10.0577C84.6092 10.0203 84.803 10 85 10Z" fill="white"/>
<mask id="mask0" style="mask-type:alpha" maskUnits="userSpaceOnUse" x="71" y="0" width="27" height="27">
<path fill-rule="evenodd" clip-rule="evenodd" d="M71 0H98V27H71V0Z" fill="white"/>
</mask>
<g mask="url(#mask0)">
<path d="M71.0099 13.7255C71.0099 20.1045 75.309 25.4652 81.1282 26.9849C81.1801 27.0002 81.2337 27.007 81.2872 27.0086C81.6405 27.0086 81.9301 26.7172 81.9301 26.3564V20.8347C81.9301 20.7076 81.8966 20.589 81.828 20.4823C81.7593 20.3756 81.6689 20.2959 81.5534 20.2434C81.5534 20.2434 81.5384 20.2349 81.53 20.2315C79.1109 19.093 77.4318 16.6075 77.4318 13.7221C77.4318 9.76091 80.5942 6.54856 84.4982 6.54856C88.4022 6.54856 91.5646 9.75921 91.5646 13.7221C91.5646 16.6058 89.8855 19.0913 87.4664 20.2298C87.458 20.2332 87.4429 20.2417 87.4429 20.2417C87.2136 20.3468 87.0663 20.5789 87.0663 20.833V26.3547C87.0663 26.7155 87.3525 27.007 87.7091 27.007C87.7627 27.007 87.8163 26.9985 87.8682 26.9849C93.6874 25.4635 97.9865 20.1028 97.9865 13.7238C97.9865 6.16057 91.9463 0.0205078 84.4965 0.0205078C77.0451 0.0205078 71.0049 6.1504 71.0049 13.712L71.0099 13.7255Z" fill="white"/>
</g>
<path d="M11.0712 27C7.48644 27 4.74576 26.1031 2.84746 24.3092C0.949153 22.5154 0 19.838 0 16.2771V5.20616C0 4.17202 0.277966 3.37885 0.833898 2.82999C1.39322 2.27778 2.18644 2 3.21356 2C4.2339 2 5.02542 2.27778 5.58644 2.82999C6.14576 3.37885 6.42712 4.17202 6.42712 5.20616V16.344C6.42712 18.1161 6.82203 19.4498 7.61356 20.3467C8.40339 21.2403 9.55593 21.6854 11.0712 21.6854C12.5576 21.6854 13.6966 21.2403 14.4881 20.3467C15.2831 19.4498 15.6814 18.1161 15.6814 16.344V5.20616C15.6814 4.17202 15.9542 3.37885 16.5017 2.82999C17.0475 2.27778 17.8322 2 18.8542 2C19.8797 2 20.6593 2.27778 21.1932 2.82999C21.7305 3.37885 22 4.17202 22 5.20616V16.2771C22 19.838 21.0729 22.5154 19.2203 24.3092C17.3712 26.1031 14.6542 27 11.0712 27Z" fill="white"/>
<path d="M29.008 26C27.0015 26 26 25.0381 26 23.1128V5.02256C26 4.0478 26.2546 3.30022 26.7673 2.77981C27.2782 2.26101 27.9556 2 28.7975 2C29.5444 2 30.1216 2.13373 30.529 2.39957C30.9364 2.66702 31.4066 3.10849 31.9414 3.72718L42.0519 15.7143V4.85499C42.0519 2.9522 43.0432 2 45.0259 2C46.0037 2 46.7438 2.24973 47.2463 2.74758C47.7488 3.24705 48 3.94952 48 4.85499V23.2481C48 24.0908 47.7657 24.761 47.3006 25.2589C46.8338 25.7519 46.2023 26 45.4062 26C44.6134 26 43.9887 25.8679 43.5321 25.6069C43.0789 25.341 42.5968 24.898 42.0858 24.2793L31.9753 12.2922V23.1128C31.9753 25.0381 30.9856 26 29.008 26Z" fill="white"/>
<path d="M55.1187 26C54.1112 26 53.338 25.7228 52.8008 25.1685C52.2669 24.6142 52 23.8389 52 22.8392V5.16085C52 4.14462 52.2669 3.36431 52.8008 2.81826C53.338 2.27385 54.0998 2 55.0862 2C56.0661 2 56.8246 2.27385 57.3585 2.81826C57.8956 3.36431 58.1658 4.14462 58.1658 5.16085V20.8001H66.3501C67.1997 20.8001 67.8541 21.0278 68.3098 21.4798C68.7689 21.9335 69 22.567 69 23.3803C69 24.2216 68.7689 24.8683 68.3098 25.3203C67.8541 25.774 67.1997 26 66.3501 26H55.1187Z" fill="white"/>
<path d="M103.932 26C103.132 26 102.462 25.7954 101.925 25.3878C101.386 24.9801 101.081 24.4501 101.011 23.7959C100.945 23.1434 101.175 22.4844 101.705 21.8174L107.92 13.884L101.912 6.21482C101.381 5.53169 101.158 4.87111 101.238 4.22986C101.318 3.58539 101.62 3.05371 102.145 2.63158C102.673 2.21106 103.339 2 104.139 2C104.806 2 105.389 2.15467 105.893 2.46402C106.395 2.77336 106.9 3.27283 107.407 3.95918L111.495 9.46939L115.616 3.95918C116.118 3.25027 116.62 2.74758 117.123 2.45113C117.63 2.15145 118.213 2 118.877 2C119.704 2 120.379 2.20623 120.904 2.61869C121.433 3.02793 121.731 3.558 121.798 4.21053C121.865 4.86466 121.635 5.53169 121.111 6.21482L115.102 13.884L121.284 21.8174C121.831 22.4844 122.065 23.1434 121.985 23.7959C121.905 24.4501 121.6 24.9801 121.071 25.3878C120.546 25.7954 119.872 26 119.05 26C118.387 26 117.81 25.8518 117.317 25.5553C116.823 25.2556 116.313 24.7497 115.789 24.0408L111.495 18.3308L107.233 24.0408C106.708 24.7497 106.193 25.2556 105.686 25.5553C105.183 25.8518 104.599 26 103.932 26Z" fill="white"/>
</svg>
