<svg width="552" height="368" xmlns="http://www.w3.org/2000/svg">
    <g fill="none" fill-rule="evenodd">
        <path fill="#F3F9FF" d="M0 368h552V0H0z"/>
        <path d="M48.51 319c-13.443-14.612-22.419-29.601-26.677-44.552-3.964-13.92-3.767-27.429.585-40.15 4.761-13.92 14.523-26.468 28.23-36.286 13.659-9.786 31.017-16.706 50.198-20.012l.154.89c-19.046 3.283-36.275 10.149-49.824 19.855-13.553 9.71-23.2 22.103-27.9 35.844-4.293 12.545-4.485 25.872-.571 39.613 4.219 14.814 13.126 29.682 26.472 44.186l-.667.612M134.748 139l-.748-.503c.09-.134 9.244-13.571 24.833-27.487 9.159-8.176 18.717-14.919 28.41-20.042 12.126-6.41 24.5-10.288 36.773-11.526 30.007-3.028 59.61 9.52 87.984 37.296l-.631.642c-28.174-27.577-57.53-40.041-87.257-37.044-12.154 1.226-24.411 5.067-36.431 11.419-9.627 5.086-19.124 11.784-28.227 19.908-15.512 13.843-24.616 27.204-24.706 27.337M507.821 319l-.747-.508c12.323-18.102 20.207-37.33 23.433-57.148 2.965-18.22 1.769-36.624-3.46-53.223-8.817-27.992-28.517-49.597-54.047-59.277l.32-.844c25.79 9.778 45.686 31.592 54.587 59.85 5.273 16.733 6.478 35.281 3.49 53.64-3.247 19.948-11.18 39.297-23.576 57.51" fill="#E5ECFF"/>
        <path d="M508.21 191.883c-17.02-42.81-54.02-72.237-100.743-59.258-13.53 3.759-33.149 15.87-46.892 18.75-36.893 7.73-54.092-25.662-80.176-43.223-33.057-22.256-77.475-26.899-111.744-4.393-13.009 8.544-23.954 20.196-31.841 33.588-2.003 3.4-18.452 41.008-13.376 42.48-41.828-12.132-77.393 16.904-86.153 57.147-5.182 23.81 5.814 60.52 23.87 81.026h424.182c20.465-26.364 40.537-81.69 22.873-126.117" fill="#E5ECFF"/>
        <path d="M387 91.247C387 110.976 375.649 120 355.929 120 336.21 120 316 97.445 316 77.717c-.002-45.274 71-24.389 71 13.53M106.932 117.637c16.369 20.46-37.863 57.833-42.725 23.282-1.965-13.96 10.37-25.859 24.554-27.579 9.57-1.16 15.324.74 18.171 4.297" fill="#E5ECFF"/>
        <path d="M408.565 318H263.808s-37.96-28.802-33.433-64.376c1.18-9.37 5.31-19.198 13.854-29.11 28.953-33.563 55.987-46.367 65.37-79.335a85.072 85.072 0 0 0 1.66-7.007l.854-.027 38.121-1.118.91-.027s.885 3.02 3.283 8.098c4.344 9.207 13.637 25.204 31.567 42.257 7.086 6.735 15.522 13.633 25.528 20.342 41.799 28.018 45.792 100.14-2.957 110.303" fill="#FF9064"/>
        <path d="m363.81 97.732-14.383 40.863-36.969.405-16.205-39.435c-1.067-2.597 1.435-5.24 3.885-4.09l.009.01 12.84 6.013.485-.44 10.723-9.834a2.78 2.78 0 0 1 2.718-.638c.575.161 1.095.521 1.5 1.042l4.252 5.655.062-.082.01-.009 9.376-11.146c1.562-1.86 4.442-1.123 5.035 1.295l2 8.233 11.431-2.004c.18-.036.35-.045.53-.045 1.966.018 3.428 2.14 2.702 4.207" fill="#FF9064"/>
        <path d="M308.605 145h45.788c3.084 0 5.607-2.487 5.607-5.527v-2.946c0-3.04-2.523-5.527-5.607-5.527h-45.788c-3.084 0-5.605 2.487-5.605 5.527v2.946c0 3.04 2.521 5.527 5.605 5.527" fill="#B25834"/>
        <path d="M333.617 249c-.032-2.94-.094-5.915-.18-8.92-2.799.363-5.58.636-8.271.821 1.012-1.403 1.655-3.037 1.808-4.79l.48-5.475.132-1.526c3.012-.042 6.19-.26 9.454-.71 8.797-1.21 14.137-4 13.108-7.722-.932-3.553-5.9-5.28-15.683-6.518a54.722 54.722 0 0 1-6.127-1.047c-.656-2.203-2.122-4.185-4.22-5.596A438.079 438.079 0 0 1 310 197.61c.136-.87.411-1.762.837-2.674 3.915-8.985 13.153-14.139 19.036-17.187-.43-2.89-.69-5.773-.78-8.645 1.873-.037 3.674-.072 5.397-.104.727 2.788 1.457 5.59 2.188 8.401.762-.07 1.724-.104 2.798-.104 4.074 0 9.741.497 12.03 1.443.673 3.748.036 7.554-1.839 11.433-2.173-.621-5.42-1.9-9.583-1.9-.888 0-1.817.057-2.788.193-5.01.695-6.851 3.684-6.833 6.443.063 3.24 3.43 4.89 13.109 6.862 13.36 2.49 22.245 6.944 26.92 14.991 4.76 7.932-1.645 15.48-20.688 20.185.51 3.078.958 6.11 1.327 9.082-5.797.966-11.636 1.957-17.514 2.971" fill="#FFB293"/>
        <path d="M311.958 109.95c.083.076.108.111.059.097-.035-.01-.054-.044-.059-.097" fill="#FF9064"/>
        <path d="M312.095 114c-.073 0-.142-.035-.207-.113C308.486 109.795 300.278 96.315 300 96l13.102 5.875s1.304 5.864.77 8.426c-.182.87-1.123 3.699-1.777 3.699m.037-3.746c.01.158.045.263.11.29a.08.08 0 0 0 .032.01c.043 0-.009-.106-.142-.3" fill="#D16E47"/>
        <path d="M312.034 110.05a.063.063 0 0 1-.017-.003c-.035-.01-.054-.044-.059-.097.071.065.1.1.076.1" fill="#D16E47"/>
        <path d="M408.572 318H266a9.14 9.14 0 0 0 7.274-6.79l5.582-22.38c13.551 4.913 30.011 8.093 49.902 8.093 8.42 0 17.448-.57 27.14-1.819-.848-3.2-1.29-6.617-1.29-10.198 0-11.078 6.434-20.237 14.456-26.972 6.67-5.597 16.311-11.964 16.41-21.737.01-.09.47-42.262.532-49.197 7.084 6.754 15.518 13.67 25.523 20.398 21.016 14.129 32.473 39.443 32.471 62.416-.004 22.704-11.201 43.12-35.428 48.186" fill="#E87F56"/>
        <path d="M324.3 115c-.045 0-.083-.024-.115-.075-.886-1.454 1.675-20 2.131-23.925.562.16 1.07.518 1.466 1.035l4.157 5.612.061-.08c-2.019 4.056-6.652 17.432-7.7 17.433" fill="#D16E47"/>
        <path d="m349 96.05 2-.1-2 .1" fill="#C69385"/>
        <path d="M349.856 110c-1.7 0-.343-13.825-.343-13.825l1.605-.305c1.745-.328 4.356-.812 4.882-.87-3.823 6.459-4.857 14.628-6.042 14.984a.36.36 0 0 1-.102.016" fill="#D16E47"/>
        <path fill="#FBC343" d="M398 318h64V186h-64z"/>
        <path fill="#E49B31" d="M433 204h29v-1h-29zM433 245h29v-1h-29zM414 269h48v-1h-48zM398 224h29v-1h-29zM398 293h51v-1h-51z"/>
        <path d="M438 284c0 18.779-15.223 34-34 34s-34-15.221-34-34 15.223-34 34-34 34 15.221 34 34" fill="#E49B31"/>
        <path d="M431 284c0 18.779-15.223 34-34 34s-34-15.221-34-34 15.223-34 34-34 34 15.221 34 34" fill="#FBC343"/>
        <path d="M397.5 257c-7.346 0-14.252 2.86-19.446 8.054-5.193 5.194-8.054 12.1-8.054 19.446 0 7.346 2.86 14.252 8.054 19.446 5.194 5.193 12.1 8.054 19.446 8.054 7.344 0 14.25-2.86 19.444-8.054 5.195-5.194 8.056-12.1 8.056-19.446 0-7.346-2.86-14.252-8.056-19.446-5.194-5.193-12.1-8.054-19.444-8.054zm0 1.342c14.446 0 26.156 11.712 26.156 26.158 0 14.447-11.71 26.158-26.156 26.158-14.447 0-26.158-11.71-26.158-26.158 0-14.446 11.71-26.158 26.158-26.158z" fill="#E49B31"/>
        <path d="M395.005 303v-4.42c-3.155-.142-6.214-.98-8.005-2.004l1.416-5.449c1.977 1.069 4.753 2.047 7.815 2.047 2.684 0 4.52-1.022 4.52-2.886 0-1.77-1.507-2.888-4.99-4.052-5.038-1.676-8.477-4.004-8.477-8.52 0-4.1 2.921-7.313 7.958-8.29V265h4.612v4.1c3.155.14 5.275.79 6.826 1.534l-1.364 5.264c-1.223-.512-3.389-1.584-6.781-1.584-3.059 0-4.048 1.303-4.048 2.609 0 1.534 1.648 2.513 5.651 4.004 5.6 1.957 7.862 4.516 7.862 8.71 0 4.145-2.968 7.683-8.38 8.615V303h-4.615" fill="#FFF"/>
        <path d="M176 185.477 171.908 196l-28.896-8.776-23.012-6.99L126.627 161s4.29 2.507 10.519 5.948c11.298 6.25 28.95 15.564 38.854 18.529" fill="#FBC343"/>
        <path d="m143 187-23-6.93 6.623-19.07s4.289 2.486 10.514 5.897c1.837 4.2 4.316 11.068 5.863 20.103" fill="#E49B31"/>
        <path d="M432 164.203s40.506-7.334 46.411.194c5.084 6.48 7.857 13.655 3.234 48.603-10.642-26.663-27.596-42.213-49.645-48.797M486 238.206s-6.944 9.162-24 6.207L469.7 232l16.3 6.206" fill="#1F3C88"/>
        <path fill="#102048" d="M467 233.745 468.657 260 498 257.974l-15.286-11.746L481.242 232 467 233.745"/>
        <path d="M486 237.698c-13.244 0-23.793 6.302-23.793 6.302l-4.264-54.915s-32.321-1.8-44.217-2.476c-11.895-.676-6.51-30.609-6.51-30.609l21.62 3.808 11.6 2.044 22.841 4.177c7.666 1.405 13.592 7.571 14.696 15.314L486 237.698" fill="#3A6BEA"/>
        <path d="M476.663 239a.34.34 0 0 1-.338-.325c-1.309-28.839-8.086-55.486-10.596-59.013-2.884-4.054-14.181-4.681-28.483-5.475-4.703-.261-9.565-.531-14.761-.942-2.563-.202-4.26-3.145-5.042-8.745-.568-4.068-.428-8.133-.427-8.173a.344.344 0 0 1 .35-.327.338.338 0 0 1 .325.351c-.002.04-.14 4.053.423 8.062.503 3.6 1.68 7.939 4.424 8.156 5.189.41 10.047.68 14.745.94 15.05.836 25.924 1.44 28.997 5.759 2.934 4.123 9.479 32.033 10.72 59.378a.339.339 0 0 1-.322.354h-.015" fill="#1F3C88"/>
        <path d="M444.933 169c-15.216 0-19.933-7.392-19.933-7.392l1.24-.608.85.06 12.997.932 22.913 4.24c-7.227 2.008-13.189 2.768-18.067 2.768" fill="#2D54B9"/>
        <path d="M462.335 238a.34.34 0 0 1-.297-.167.312.312 0 0 1 .139-.43c.112-.057 11.371-5.67 23.495-5.393.186.005.332.15.328.326a.327.327 0 0 1-.335.309h-.007c-11.954-.283-23.056 5.262-23.167 5.319a.358.358 0 0 1-.156.036" fill="#1F3C88"/>
        <path fill="#FFF" d="m477.702 252-.702-.71 5.296-5.29.704.71-5.298 5.29"/>
        <path fill="#F9B384" d="m435 103.704-.454 1.87-1.818 7.464-1.443 5.962L420 115.049 427.206 101l7.794 2.704"/>
        <path d="M434 105.665 432.313 112c-4.697-3.898-3.023-8-3.023-8l4.71 1.665" fill="#102048"/>
        <path d="M444 98.062s-2.392 12.088-6.654 11.937c-4.261-.152-9.346-6.875-9.346-6.875L431.514 93l8.673.755L444 98.062" fill="#F9B384"/>
        <path d="M444 103.5a1.5 1.5 0 1 1-3 0 1.5 1.5 0 0 1 3 0" fill="#F9B384"/>
        <path d="M444.06 98.168c.813.656 1.458 1.2 1.923 1.457 3.733 2.066 3.09-3.83 2.747-5.812-1.1-6.374-8.77-9.037-14.293-9.733-.654-.082-1.323-.137-1.962.02-1.685.418-2.136 2.457-2.746 3.844-1.033 2.357-3.832 1.662-5.774 2.597-.96.463-1.752 1.54-1.445 2.563.237.788 1.041 1.259 1.261 2.04.399 1.406-1.32 2.864-1.654 4.22-.753 3.081 2.255 5.722 5.156 5.634 1.786-.054 3.497-.956 4.687-2.296.8-.902 1.367-1.986 1.725-3.135.357-1.138 1.318-.177 1.765-1.354 2.586-6.778 6.309-1.908 8.61-.045" fill="#102048"/>
        <path d="M420.97 82.026c-1.59.1-3.372.6-4.05 1.98-.43.878-.318 1.952-.845 2.78-.907 1.427-3.048 1.35-4.785 1.196-1.271-.113-2.57-.172-3.808.13-1.237.301-2.42 1.012-2.997 2.102-.578 1.09-.404 2.576.59 3.344.442.34 1.03.552 1.282 1.037.285.55.004 1.224-.415 1.688-.42.464-.968.81-1.36 1.295-.726.9-.778 2.243-.127 3.191.652.95 1.962 1.433 3.11 1.15 1.407-.345 2.472-1.687 3.925-1.711 1.363-.023 2.494 1.142 3.856 1.194 1.174.044 2.2-.75 2.956-1.61.756-.861 1.393-1.854 2.374-2.475 1.89-1.197 4.691-.78 6.247-2.36 1.323-1.343 1.372-3.297 2.843-4.592 1.309-1.152 2.786-2.108 2.027-4.032-1.381-3.507-7.48-4.517-10.823-4.307" fill="#102048"/>
        <path d="M434.922 98.062c.305 1.359-.307 2.657-1.368 2.899-1.061.242-2.17-.664-2.475-2.023-.307-1.359.305-2.657 1.366-2.899 1.061-.242 2.17.664 2.477 2.023" fill="#F9B384"/>
        <path d="m433.752 100-.032-.003c-.099-.022-.164-.136-.146-.255.12-.819.132-1.888-.486-2.334-.085-.061-.113-.196-.063-.3.051-.105.16-.14.247-.077.63.453.858 1.417.657 2.788-.015.106-.092.181-.177.181" fill="#102048"/>
        <path d="M438 104a2 2 0 1 1 .001-4.001A2 2 0 0 1 438 104" fill="#F39176"/>
        <path d="M460.21 148.238c-1.488-1.002-4.275-1.27-7.066-1.235l-.144 6.594 4.22-.521s9.888 6.371 10.691 5.899c.805-.472-4.023-8.26-7.701-10.737" fill="#E28B6D"/>
        <path d="M444.835 147.332C438.33 120.157 430 117 430 117l5.25 38 17.607-2.095.143-6.302c-4.077.05-8.165.73-8.165.73" fill="#102048"/>
        <path d="m440.893 162-13.068-.93-10.858-.766-10.749-.766c-2.056-.146-3.532-2.06-3.16-4.104 2.227-12.228 10.16-49.16 23.797-42.677C443.156 120.51 440.893 162 440.893 162" fill="#1F3C88"/>
        <path d="m427.715 161-9.986-.72-.672-.048-.049-.004C413.338 148.841 415.82 130 415.82 130L432 158.95l-4.285 2.05" fill="#162B62"/>
        <path d="M433.014 152.225 427.49 128 415 130.708c2.27 24.15 6.812 33.178 15.896 35.21 2.411.538 9.151-1.65 15.205-3.756L447 150.97a1195.21 1195.21 0 0 0-13.986 1.255" fill="#1F3C88"/>
        <path d="M452.94 150c-.907 0-3.268.176-6.055.415L446 162c5.87-2.145 11.114-4.368 11.114-4.368s10.735 3.739 10.885 1.558c.148-2.18-12.226-9.19-15.058-9.19" fill="#F9B384"/>
        <path fill="#FFF" d="M446 162h30v-3h-30z"/>
        <path d="M476.506 163H473l12.866-31.979a1.626 1.626 0 0 1 1.507-1.021c1.152 0 1.94 1.173 1.507 2.247L476.506 163" fill="#102048"/>
        <path d="M436.552 157c-2.495 0-4.153-.51-4.95-1.525-2.846-3.635-3.833-19.206-4.486-29.51-.269-4.238-.481-7.585-.737-8.889-.835-4.24-4.02-4.392-4.053-4.393a.34.34 0 0 1 .022-.683c.036.001 3.753.178 4.691 4.942.266 1.348.478 4.716.749 8.98.648 10.218 1.625 25.66 4.34 29.128 1.987 2.534 11.101.61 14.444-.344.18-.05.364.054.416.236a.344.344 0 0 1-.233.421c-.03.009-3.121.886-6.484 1.349-1.397.192-2.635.288-3.719.288" fill="#3A6BEA"/>
        <path d="M186.914 191.995a19.579 19.579 0 0 1-5.315 2.876c-9.442 3.357-19.6-1.028-22.702-9.792-2.295-6.507-.045-13.605 5.134-18.2a19.34 19.34 0 0 1 6.367-3.75c9.442-3.358 19.609 1.028 22.703 9.792 2.448 6.934-.263 14.542-6.187 19.074" fill="#7D69ED"/>
        <path d="M164.334 193c-2.441-1.802-4.36-4.25-5.434-7.206a15.011 15.011 0 0 1-.9-5.135c.004-4.74 2.235-9.36 6.052-12.659-.12 4.595.828 11.115 5.948 16.425-2.104 2.741-4 5.607-5.666 8.575" fill="#6F5ED3"/>
        <path d="M291.062 162.818c-3.5 5.922-8.725 12.042-12.73 21.675-1.354 3.258-2.566 6.923-3.53 11.116-.451 1.955-2.628 2.963-4.431 2.052-11.084-5.63-19.15-12.413-23.135-20.748-2.246-4.677-1.359-10.233 2.077-14.137 5.432-6.178 12.601-10.036 20.37-11.307 5.735-.946 11.807-.472 17.742 1.53 4.052 1.373 5.808 6.157 3.637 9.819" fill="#5B4DAD"/>
        <path d="M312 225.401c0 5.823-1 11.476-2.831 16.866a59.324 59.324 0 0 1-2.563 6.258c-3.957 8.3-9.873 15.825-17.05 22.237a88.32 88.32 0 0 1-7.52 5.987c-12.83 9.114-28.311 14.967-43.396 16.061-1.704.125-3.4.19-5.085.19-6.131 0-12.073-.39-17.754-1.203-18.792-2.668-34.742-9.912-45.435-22.78-6.42-7.724-10.938-17.472-13.039-29.464a87.948 87.948 0 0 1-1.046-8.536 93.852 93.852 0 0 1-.27-5.616c-.216-11.314 2.768-22.4 8.214-32.366 5.609-10.246 13.832-19.308 23.886-26.208 12.515-8.59 27.87-13.827 44.54-13.827 4.302 0 8.54.353 12.68 1.022 11.91 1.908 23.01 6.439 32.594 12.823 9.847 6.539 18.096 15.03 24.012 24.635C308.33 201.834 312 213.49 312 225.4" fill="#7D69ED"/>
        <path d="m328.965 217.091-1.712 19.577c-.425 4.868-4.597 8.82-10.015 9.45-3.73.423-7.344 1.196-10.888 2.25-6.326 1.844-12.392 4.545-18.35 7.632l.885-4.464L300.925 191c.252.198.504.397.758.595a422.58 422.58 0 0 0 22.721 16.444c3.147 2.122 4.868 5.543 4.56 9.052" fill="#7D69ED"/>
        <path d="M290.864 193.27c.57 2.733-.7 5.274-2.832 5.676-2.134.402-4.326-1.485-4.895-4.217-.571-2.732.697-5.273 2.831-5.675 2.133-.402 4.325 1.485 4.896 4.217" fill="#102048"/>
        <path d="M219.421 172.99c-10.425.391-19.401 4.085-27.23 10.389-1.428 1.15-3.59.646-4.265-1.032l-.738-1.835a2.534 2.534 0 0 1 .674-2.866c8.41-7.342 18.49-11.5 30.661-11.646 1.134-.013 2.166.64 2.577 1.665l.713 1.77c.672 1.667-.546 3.486-2.392 3.556" fill="#5B4DAD"/>
        <path d="M221.422 175.99c-10.428.391-19.402 4.086-27.23 10.388-1.429 1.151-3.59.646-4.267-1.032l-.739-1.834a2.54 2.54 0 0 1 .675-2.866c8.412-7.342 18.489-11.5 30.663-11.646 1.133-.013 2.163.64 2.576 1.665l.714 1.77c.67 1.667-.55 3.487-2.392 3.556" fill="#102048"/>
        <path d="m217 281.719-.922 9.288-1.872 18.74c-.47 4.68-4.401 8.253-9.093 8.253h-15.021a9.144 9.144 0 0 1-8.867-6.947l-10.692-42.895L170 266l47 15.719M284 266l-11.225 45.053c-1.022 4.08-4.673 6.947-8.866 6.947h-15.024c-4.699 0-8.63-3.574-9.091-8.254l-1.763-17.723L237 281.72 284 266" fill="#7D69ED"/>
        <path d="M279.003 289H279l.997-4.996L280 284l-.997 5" fill="#BD7581"/>
        <path d="M266 318c3.538-.609 6.455-3.222 7.355-6.751L278.996 289H279l-5.645 22.249c-.9 3.529-3.817 6.142-7.355 6.751" fill="#B06B79"/>
        <path d="M166.99 264.284a2.935 2.935 0 0 1-.111-.159c-.033-.05-.066-.097-.098-.147l.21.307m-2.112-3.288a1.738 1.738 0 0 1-.042-.07l.042.07m-2.336-4.347a71.794 71.794 0 0 1-.428-.892c0-.018-.01-.027-.019-.045-.082-.18-.164-.362-.244-.543.225.499.455.992.69 1.48m-2.735-6.632a38.74 38.74 0 0 1-.168-.492l.168.492m-2.66-10.133a25.289 25.289 0 0 1-.04-.216l.04.216m-.052-.282c-.008-.04-.016-.079-.022-.121l.022.121" fill="#AEACDE"/>
        <path d="M233.107 293c-6.118 0-12.048-.39-17.716-1.203l.918-9.263-46.786-15.676.53 2.151a56.658 56.658 0 0 1-1.178-1.474l-.231-.3a52.12 52.12 0 0 1-.516-.686c-.07-.096-.138-.192-.207-.29a6.412 6.412 0 0 1-.065-.082 83.482 83.482 0 0 1-.16-.222 5.421 5.421 0 0 1-.072-.11 26.444 26.444 0 0 1-.575-.813c-.11-.16-.218-.32-.324-.481l-.036-.048-.204-.309a59.569 59.569 0 0 1-.867-1.362 43.248 43.248 0 0 1-.909-1.511c-.023-.043-.048-.083-.074-.128l-.04-.07a2.67 2.67 0 0 1-.03-.055 46.233 46.233 0 0 1-.89-1.62c-.205-.39-.41-.781-.61-1.18a64.301 64.301 0 0 1-.305-.618l-.066-.138c-.11-.23-.221-.462-.33-.694-.23-.491-.454-.988-.673-1.49a55.978 55.978 0 0 1-.464-1.116 43.348 43.348 0 0 1-.935-2.407 57.423 57.423 0 0 1-.589-1.663l-.164-.494a45.578 45.578 0 0 1-.3-.973 17.053 17.053 0 0 1-.297-.969 54.575 54.575 0 0 1-.837-3.128 16.062 16.062 0 0 1-.216-.897 54.616 54.616 0 0 1-.467-2.17 94.86 94.86 0 0 1-.306-1.567l-.039-.218a2.103 2.103 0 0 0-.012-.067l-.021-.121A88.178 88.178 0 0 1 156 231c13.5 13.91 41.901 37.56 78.87 37.561 16.397.002 34.476-4.649 53.695-16.865l-.883 4.487c5.948-3.103 12.003-5.817 18.318-7.67-3.948 8.303-9.852 15.829-17.013 22.242a88.164 88.164 0 0 1-7.504 5.99l2.456-9.887-46.785 15.676 1.026 10.276c-1.7.125-3.392.19-5.073.19" fill="#6F5ED3"/>
        <path d="m288 256 .89-4.498a146.53 146.53 0 0 0 11.814-8.306s3.593-.091 8.35-1.16c6.133-1.397 14.19-4.426 18.946-11.036l-.481 5.522c-.428 4.905-4.629 8.886-10.083 9.52-3.756.428-7.394 1.207-10.962 2.27-6.368 1.857-12.476 4.578-18.474 7.688M205.113 318h-15.021a9.144 9.144 0 0 1-8.867-6.947l-5.522-22.168c8.83 3.492 22.893 7.953 39.652 9.332l-1.149 11.53c-.47 4.68-4.401 8.253-9.093 8.253m10.965-26.993c-18.837-2.676-34.825-9.941-45.545-22.85L170 266l47 15.719-.922 9.288M263.909 318h-15.024c-4.699 0-8.63-3.574-9.091-8.254l-1.184-11.936c13.157-1.597 27.067-5.643 40.85-13.576l-6.685 26.819a9.168 9.168 0 0 1-7.295 6.812 9.202 9.202 0 0 1-1.571.135m-25.878-25.977L237 281.72 284 266l-2.467 9.914c-12.861 9.142-28.38 15.012-43.502 16.11" fill="#6F5ED3"/>
        <path d="M214.286 299c-16.558-1.376-30.453-5.829-39.178-9.314L170 269c10.591 12.882 26.388 20.134 45 22.804l-.714 7.196" fill="#6354BC"/>
        <path d="m280 284 2-8-1.996 7.996L280 284" fill="#825D9B"/>
        <path d="m239.572 298-.572-5.814c14.947-1.103 30.288-7 43-16.186l-2.049 8.36c-13.623 7.97-27.373 12.035-40.379 13.64" fill="#6354BC"/>
        <path d="M284.061 157.818c-3.5 5.922-8.723 12.043-12.727 21.677-1.357 3.257-2.568 6.92-3.532 11.114-.45 1.955-2.627 2.963-4.43 2.052-11.085-5.629-19.15-12.413-23.138-20.747-2.244-4.677-1.356-10.233 2.08-14.138 5.432-6.178 12.6-10.036 20.368-11.307 5.737-.946 11.807-.472 17.742 1.53 4.054 1.374 5.809 6.158 3.637 9.819" fill="#7D69ED"/>
        <path d="M265.514 193c-.466 0-.943-.108-1.394-.342-10.97-5.686-18.952-12.539-22.899-20.957a12.907 12.907 0 0 1-1.221-5.495c0-3.165 1.14-6.304 3.279-8.785 5.377-6.24 12.472-10.137 20.159-11.421-5.529 5.451-13.013 14.404-9.864 20.487 3.468 6.7 12.255 11.052 18.426 12.871-1.342 3.29-2.542 6.991-3.495 11.227a3.071 3.071 0 0 1-2.991 2.415M282.5 230c-4.694 0-8.5-4.701-8.5-10.5s3.806-10.5 8.5-10.5 8.5 4.701 8.5 10.5-3.806 10.5-8.5 10.5" fill="#6F5ED3"/>
        <path fill="#102048" d="M130.477 299 128 318l25-.217-11.261-8.297.675-10.486h-11.937M76.23 294 70 318l24-.228-8.268-7.959 3.626-14.085L76.231 294"/>
        <path d="m151.816 259.612-5.1 39.816A4.081 4.081 0 0 1 142.68 303h-12.127a3.66 3.66 0 0 1-.64-.054c-2.063-.325-3.586-2.212-3.405-4.378l1.28-38.856s-3.812-4.36-9.461-10.887c-2.28-2.639-4.874-5.63-7.631-8.83-6.127-7.098-12.299-15.185-16.056-22.609-1.73-3.39-2.946-6.645-3.433-9.601-.099-.607-.17-1.206-.207-1.785l9.794.407 1.306.055 10.532.435.289.01 9.01 8.765 23.984 25.646c4.595 4.896 6.757 11.614 5.901 18.294" fill="#1F3C88"/>
        <path d="m110.36 268.844-16.112 29.86a4.384 4.384 0 0 1-3.996 2.294l-1.71-.046-13.103-.38c-.082 0-.165-.007-.247-.017h-.009c-1.573-.199-2.597-1.815-2.02-3.324l14.474-38.467-10.36-23.41c-2.944-7.884-1.847-14.876-.201-19.654 1.417-4.128 3.246-6.612 3.246-6.612l10.881-1.535 9.73-1.372 1.261-.181.064.236 2.78 10.666 8.028 30.718a28.642 28.642 0 0 1-2.707 21.224" fill="#1F3C88"/>
        <path d="M122 215.34s-7.502.98-17.228 1.445c-3.242.14-6.739.236-10.28.211-5.995-.036-12.143-.404-17.492-1.375 1.408-4.002 3.224-6.41 3.224-6.41l10.807-1.487c-.1-.586-.172-1.165-.209-1.724l9.872.393 1.253-.175.064.229 10.617.42L122 215.34M110.674 240 107 228.727l6.795-1.727.205.892-5.863 1.49 3.362 10.32-.825.298M88.578 297c-8.646 0-13.335-1.924-13.578-2.025l.306-.975c.073.03 7.462 3.049 20.605 1.524l.089 1.032a64.296 64.296 0 0 1-7.422.444M136.258 298c-5.884 0-10.194-1.05-10.258-1.067l.193-.933c.095.025 9.61 2.34 19.626 0l.181.935c-3.418.798-6.78 1.065-9.742 1.065" fill="#102048"/>
        <path fill="#FFF" d="m81.298 312-.298-.979L86.702 309l.298.981L81.298 312M137.479 313l-.479-.885 4.521-3.115.479.887-4.521 3.113"/>
        <path d="m126.793 275.956.533-16.173S123.569 255.465 118 249c3.633.332 9.006 3.986 12.212 9.662 2.651 4.686 1.776 14.366 1.018 15.788-.693 1.299-2.419 1.694-4.437 1.506" fill="#102048"/>
        <path fill="#E28B6D" d="m132 152.26-.275 1.3-2.025 9.462-1.485 6.978L117 165.451 124.788 146l7.212 6.26"/>
        <path d="m132 153.22-2.199 8.78c-3.483-3.47-3.801-9-3.801-9l6 .22" fill="#102048"/>
        <path d="M138 141.725s-1.073 14.831-6.381 14.259c-5.309-.573-10.318-5.713-10.318-5.713-.79-3.861.03-7.986 1.821-12.271l11.615.245 3.263 3.48" fill="#E28B6D"/>
        <path d="M129.728 143.307c.682.525 1.634.72 2.493.51.858-.209 1.603-.817 1.949-1.593 1.142.816 2.55 1.33 3.987 1.318 1.438-.013 2.896-.583 3.833-1.629.937-1.046 1.289-2.57.77-3.836-.238-.584-.695-1.018-1.253-1.335-.597-.339-1.393-.26-1.769-.905-.375-.646.164-1.271-.002-1.942-.141-.57-.435-1.101-.898-1.493-.59-.497-1.37-.57-2.13-.501-.402.036-1.017.263-1.388.033-.499-.31-.292-1.1-.759-1.51-.525-.46-1.37-.559-2.007-.232-.452.233-.79.648-1.27.825-.743.274-1.546-.1-2.276-.386-.73-.286-1.69-.444-2.226.118-.396.416-.37 1.04-.369 1.599.001.558-.109 1.213-.628 1.482-.454.236-1.023.059-1.448-.213-.426-.27-.794-.634-1.271-.812-1.058-.394-2.41.459-2.445 1.541-.028.86.63 1.69.378 2.52-.256.844-1.304 1.206-2.219 1.334-.915.128-1.938.193-2.576.834-.7.702-.553 1.987.287 2.514.377.237.837.323 1.257.485.42.161.84.443.932.865.121.55-.367 1.071-.901 1.322-.535.25-1.144.339-1.66.623-1.2.662-1.501 2.428-.578 3.392.466.487 1.071.67 1.754.564.491-.075 1.023-.487 1.532-.376.92.2.517 1.404.966 1.982.433.557 1.062.702 1.74.522.587-.154 1.101-.497 1.561-.878a8.7 8.7 0 0 0 2.859-4.445c.101-.384.068-.735.49-.863.333-.101.875.064 1.256-.015.842-.174 1.627-.683 2.029-1.42" fill="#102048"/>
        <path d="M138.968 149.648a2 2 0 1 1-3.937.704 2 2 0 0 1 3.937-.704M128.808 145.268c.53 1.606-.074 3.236-1.348 3.64-1.275.405-2.737-.57-3.268-2.176-.53-1.607.074-3.236 1.348-3.64 1.275-.405 2.738.57 3.268 2.176" fill="#E28B6D"/>
        <path d="M126.67 147a.348.348 0 0 1-.073-.008c-.145-.03-.23-.145-.19-.256.019-.053.402-1.23-1.313-2.37-.114-.075-.126-.207-.027-.294a.333.333 0 0 1 .384-.021c1.99 1.322 1.503 2.737 1.481 2.796-.033.093-.143.153-.262.153" fill="#102048"/>
        <path d="M131.5 151a2.5 2.5 0 1 1 0-5 2.5 2.5 0 0 1 0 5" fill="#E67968"/>
        <path d="M132.994 171.846c-.173 4.947-.88 11.786-2.94 20.202-1.216 5.012-2.913 10.571-5.254 16.626a152.19 152.19 0 0 1-3.058 7.326S91.497 206.99 80 209.692c0 0 14.192-50.643 41.932-49.678 6.325.225 11.27 5.55 11.062 11.832" fill="#FBC343"/>
        <path d="M130 191.44c-1.259 4.992-3.015 10.53-5.439 16.56-9.337-9.396-7.393-31-7.393-31L130 191.44" fill="#E49B31"/>
        <path d="M126.513 162 112 174.702c7.065 16.26 21.265 28.324 37.321 39.298L154 201.41c-13.539-14.485-17.055-29.921-27.487-39.41" fill="#FBC343"/>
        <path d="M161.99 208.039 153.7 201l-4.7 12.245 7.053 4.79a5.65 5.65 0 0 0 6.154.105c4.882-3.085 12.172-5.473 13.766-10.053.735-2.108-13.983-.048-13.983-.048" fill="#E28B6D"/>
        <path fill="#102048" d="M19 319h514v-1H19z"/>
    </g>
</svg>
