<svg width="368" height="368" xmlns="http://www.w3.org/2000/svg" xmlns:xlink="http://www.w3.org/1999/xlink">
    <defs>
        <linearGradient x1="100.258%" y1="108.666%" x2="9.496%" y2="5.551%" id="b">
            <stop stop-color="#DAE2FD" offset="0%"/>
            <stop stop-color="#E9EEFC" offset="100%"/>
        </linearGradient>
        <linearGradient x1="126.975%" y1="-24.884%" x2="-357.904%" y2="446.817%" id="e">
            <stop stop-color="#FCF53E" offset="0%"/>
            <stop stop-color="#D93B64" offset="100%"/>
        </linearGradient>
        <linearGradient x1="135.883%" y1="12.642%" x2="-132.077%" y2="141.475%" id="h">
            <stop stop-color="#FCF53E" offset="0%"/>
            <stop stop-color="#D93B64" offset="100%"/>
        </linearGradient>
        <linearGradient x1="265.918%" y1="-211.414%" x2="-195.261%" y2="321.513%" id="k">
            <stop stop-color="#A737D4" offset="0%"/>
            <stop stop-color="#EE4879" offset="100%"/>
        </linearGradient>
        <linearGradient x1="350.346%" y1="-308.981%" x2="-110.834%" y2="223.947%" id="n">
            <stop stop-color="#A737D4" offset="0%"/>
            <stop stop-color="#EE4879" offset="100%"/>
        </linearGradient>
        <linearGradient x1="402.488%" y1="-297.067%" x2="-174.939%" y2="257.689%" id="q">
            <stop stop-color="#A737D4" offset="0%"/>
            <stop stop-color="#EE4879" offset="100%"/>
        </linearGradient>
        <linearGradient x1="519.209%" y1="-504.114%" x2="58.029%" y2="28.814%" id="t">
            <stop stop-color="#A737D4" offset="0%"/>
            <stop stop-color="#EE4879" offset="100%"/>
        </linearGradient>
        <linearGradient x1="189.067%" y1="-549.516%" x2="54.81%" y2="34.674%" id="w">
            <stop stop-color="#A737D4" offset="0%"/>
            <stop stop-color="#EE4879" offset="100%"/>
        </linearGradient>
        <linearGradient x1="49.98%" y1="94.095%" x2="45.616%" y2="-70.975%" id="z">
            <stop stop-color="#08005D" offset="0%"/>
            <stop stop-color="#1A0F91" offset="100%"/>
        </linearGradient>
        <linearGradient x1="-19.64%" y1="-71.173%" x2="217.702%" y2="341.779%" id="C">
            <stop stop-color="#FF928E" offset="0%"/>
            <stop stop-color="#FD6F61" offset="100%"/>
        </linearGradient>
        <linearGradient x1="-19.629%" y1="9.553%" x2="108.984%" y2="92.594%" id="F">
            <stop stop-color="#FF928E" offset="0%"/>
            <stop stop-color="#FD6F61" offset="100%"/>
        </linearGradient>
        <linearGradient x1="-89.718%" y1="-50.085%" x2="716.028%" y2="528.68%" id="I">
            <stop stop-color="#4F52FF" offset="0%"/>
            <stop stop-color="#4042E1" offset="100%"/>
        </linearGradient>
        <linearGradient x1="-304.703%" y1="-204.521%" x2="501.007%" y2="374.244%" id="L">
            <stop stop-color="#4F52FF" offset="0%"/>
            <stop stop-color="#4042E1" offset="100%"/>
        </linearGradient>
        <linearGradient x1="175.682%" y1="-221.109%" x2="-88.369%" y2="340.313%" id="O">
            <stop stop-color="#4F52FF" offset="0%"/>
            <stop stop-color="#4042E1" offset="100%"/>
        </linearGradient>
        <linearGradient x1="224.028%" y1="-323.886%" x2="-40.024%" y2="237.528%" id="R">
            <stop stop-color="#4F52FF" offset="0%"/>
            <stop stop-color="#4042E1" offset="100%"/>
        </linearGradient>
        <linearGradient x1="264.668%" y1="-323.537%" x2="-82.768%" y2="279.903%" id="U">
            <stop stop-color="#4F52FF" offset="0%"/>
            <stop stop-color="#4042E1" offset="100%"/>
        </linearGradient>
        <linearGradient x1="320.708%" y1="-529.426%" x2="56.657%" y2="31.971%" id="X">
            <stop stop-color="#4F52FF" offset="0%"/>
            <stop stop-color="#4042E1" offset="100%"/>
        </linearGradient>
        <linearGradient x1="144.524%" y1="-77.518%" x2="-133.943%" y2="290.746%" id="aa">
            <stop stop-color="#2B3582" offset="0%"/>
            <stop stop-color="#140E42" offset="100%"/>
        </linearGradient>
        <linearGradient x1="100.369%" y1="36.772%" x2="-7.418%" y2="66.18%" id="ad">
            <stop stop-color="#2B3582" offset="0%"/>
            <stop stop-color="#140E42" offset="100%"/>
        </linearGradient>
        <linearGradient x1="23.072%" y1="116.495%" x2="100.748%" y2="-73.909%" id="ag">
            <stop stop-color="#FF928E" offset="0%"/>
            <stop stop-color="#FD6F61" offset="100%"/>
        </linearGradient>
        <linearGradient x1="72.726%" y1="44.555%" x2="28.201%" y2="55.187%" id="aj">
            <stop stop-color="#4F52FF" offset="0%"/>
            <stop stop-color="#4042E1" offset="100%"/>
        </linearGradient>
        <linearGradient x1="100.323%" y1="49.995%" x2="-1.557%" y2="49.995%" id="am">
            <stop stop-color="#080055" offset="0%"/>
            <stop stop-color="#020039" offset="100%"/>
        </linearGradient>
        <linearGradient x1="-75.734%" y1="24.696%" x2="132.607%" y2="66.355%" id="ap">
            <stop stop-color="#080055" offset="0%"/>
            <stop stop-color="#020039" offset="100%"/>
        </linearGradient>
        <linearGradient x1="100.007%" y1="50.001%" x2=".004%" y2="50.001%" id="as">
            <stop stop-color="#080055" offset="0%"/>
            <stop stop-color="#020039" offset="100%"/>
        </linearGradient>
        <linearGradient x1="-422.241%" y1="15.345%" x2="36.367%" y2="48.718%" id="av">
            <stop stop-color="#080055" offset="0%"/>
            <stop stop-color="#020039" offset="100%"/>
        </linearGradient>
        <linearGradient x1="100.007%" y1="49.997%" x2=".004%" y2="49.997%" id="ay">
            <stop stop-color="#FDBAB9" offset="0%"/>
            <stop stop-color="#FF928E" offset="100%"/>
        </linearGradient>
        <linearGradient x1="99.999%" y1="49.997%" x2=".012%" y2="49.997%" id="aB">
            <stop stop-color="#FDBAB9" offset="0%"/>
            <stop stop-color="#FF928E" offset="100%"/>
        </linearGradient>
        <linearGradient x1="148.825%" y1="134.502%" x2="54.441%" y2="58.247%" id="aE">
            <stop stop-color="#080055" offset="0%"/>
            <stop stop-color="#020039" offset="100%"/>
        </linearGradient>
        <linearGradient x1="-267.169%" y1="-352.376%" x2="306.571%" y2="375.525%" id="aH">
            <stop stop-color="#CA226C" offset="0%"/>
            <stop stop-color="#4B236C" offset="100%"/>
        </linearGradient>
        <linearGradient x1="-12.46%" y1="-50.916%" x2="198.084%" y2="266.975%" id="aK">
            <stop stop-color="#4F52FF" offset="0%"/>
            <stop stop-color="#4042E1" offset="100%"/>
        </linearGradient>
        <linearGradient x1="52.287%" y1="134.908%" x2="47.99%" y2="33.268%" id="aN">
            <stop stop-color="#FDBAB9" offset="0%"/>
            <stop stop-color="#FF928E" offset="100%"/>
        </linearGradient>
        <linearGradient x1="24.919%" y1="34.134%" x2="111.091%" y2="119.308%" id="aQ">
            <stop stop-color="#FDBAB9" offset="0%"/>
            <stop stop-color="#FF928E" offset="100%"/>
        </linearGradient>
        <linearGradient x1="-.278%" y1="38.027%" x2="176.144%" y2="90.538%" id="aT">
            <stop stop-color="#080055" offset="0%"/>
            <stop stop-color="#020039" offset="100%"/>
        </linearGradient>
        <linearGradient x1="-36.806%" y1="-90.005%" x2="138.412%" y2="202.646%" id="aW">
            <stop stop-color="#FDBAB9" offset="0%"/>
            <stop stop-color="#FF928E" offset="100%"/>
        </linearGradient>
        <linearGradient x1="2.976%" y1="18.245%" x2="137.949%" y2="93.422%" id="aZ">
            <stop stop-color="#FF928E" offset="0%"/>
            <stop stop-color="#FD6F61" offset="100%"/>
        </linearGradient>
        <linearGradient x1="7.363%" y1="15.701%" x2="80.687%" y2="77.103%" id="bc">
            <stop stop-color="#FF928E" offset="0%"/>
            <stop stop-color="#FD6F61" offset="100%"/>
        </linearGradient>
        <linearGradient x1="-26.945%" y1="12.623%" x2="252.546%" y2="148.388%" id="bf">
            <stop stop-color="#FF928E" offset="0%"/>
            <stop stop-color="#FD6F61" offset="100%"/>
        </linearGradient>
        <linearGradient x1="-3.233%" y1="-99.615%" x2="125.059%" y2="262.595%" id="bi">
            <stop stop-color="#4F52FF" offset="0%"/>
            <stop stop-color="#4042E1" offset="100%"/>
        </linearGradient>
        <linearGradient x1="40.493%" y1="76.719%" x2="73.366%" y2="-24.831%" id="bl">
            <stop stop-color="#FDBAB9" offset="0%"/>
            <stop stop-color="#FF928E" offset="100%"/>
        </linearGradient>
        <path d="M141.16 273.878c-19.52 0-34.474-3.079-39.007-4.077-11.023-2.43-33.748-7.438-55.224-23.133 3.004-.3 6.458-.763 10.28-1.362v1.02c0 5.117 4.164 9.251 9.275 9.251h.172l146.642-2.659a9.774 9.774 0 0 0 8.85-6.003c1.587.246 3.096.478 4.522.696-27.743 21.174-60.4 26.267-85.51 26.267M42.12 242.951a109.136 109.136 0 0 1-20.531-22.175c5.029-.678 10.276-2.091 15.185-3.302l5.346 25.477m202.443-12.269L265.777 94.96c13.352 41.99 12.712 96.121-21.213 135.722M9.61 198.67C-4.106 165.104-2.503 125.5 10.375 91.65l6.314 30.094c-5.067-.366-9.47-.512-12.316-.569h-.034c-1.306 0-2.046 1.507-1.227 2.535 4.071 5.108 12.597 16.94 13.34 27.271.615 8.563 5.039 15.966 10.86 21.39l2.783 13.263c-3.469.996-7.136 3.004-11.054 6.052-3.587 2.79-6.714 5.109-9.431 6.985M231.892 37.946c-41.173-9.063-80.218-22.408-93.776-27.23a4.655 4.655 0 0 0-1.56-.27c-2.137 0-4.096 1.486-4.552 3.71l-.35 1.708c-25.5 6.741-53.628 11.27-77.436 14.244 15.23-12.72 35.918-24.634 62.65-28.981C117.892.96 124.38 0 134.248 0c21.284 0 58.285 4.47 90.02 31.024a127.625 127.625 0 0 1 7.624 6.922" id="a"/>
        <path d="M17.552 10.702A8.871 8.871 0 1 1 .19 7.04a8.871 8.871 0 0 1 17.36 3.66" id="d"/>
        <path d="m1.79 9.564 27.241 5.817c1.67.356 3.06-1.298 2.457-2.917C29.937 8.302 26.217 1.88 17.782.332 9.652-1.16 3.85 2.686.716 5.663-.614 6.927.004 9.183 1.79 9.564" id="g"/>
        <path d="M1.093 4.816a1.535 1.535 0 0 1 1.95.991L4.24 9.635c.12.383.629.467.867.143l7.02-9.553c.35-.476 1.103-.134.972.442-.735 3.217-2.902 9.171-9.191 13.22 0 0-2.63-1.703-3.87-7.211a1.592 1.592 0 0 1 1.054-1.86" id="j"/>
        <path d="M1.093 4.816a1.534 1.534 0 0 1 1.95.99L4.24 9.635c.12.383.629.466.867.143l7.02-9.553c.35-.476 1.103-.134.972.442-.735 3.217-2.901 9.171-9.191 13.22 0 0-2.63-1.704-3.87-7.211a1.592 1.592 0 0 1 1.054-1.86" id="m"/>
        <path d="M1.093 4.816a1.534 1.534 0 0 1 1.95.99L4.24 9.635c.12.383.629.466.867.143l7.02-9.553c.35-.476 1.103-.134.972.442-.735 3.217-2.902 9.171-9.191 13.22 0 0-2.63-1.704-3.87-7.211a1.592 1.592 0 0 1 1.054-1.86" id="p"/>
        <path d="M1.093 4.816a1.534 1.534 0 0 1 1.95.99L4.24 9.635c.12.383.629.466.867.143l7.02-9.553c.35-.476 1.103-.134.972.442-.735 3.217-2.901 9.171-9.191 13.22 0 0-2.63-1.704-3.87-7.212a1.591 1.591 0 0 1 1.054-1.859" id="s"/>
        <path d="M.519 8.555a1.531 1.531 0 0 1 2.134.135l2.57 2.898c.257.29.746.172.833-.201L8.616.402c.127-.549.936-.53 1.043.022.598 3.088.982 9.107-3.073 15.006 0 0-3.024-.503-6.286-4.854a1.483 1.483 0 0 1 .219-2.02" id="v"/>
        <path d="M9.242 210.616c-5.093 0-9.242-4.137-9.242-9.26V15.017C0 8.07 4.709 2.224 11.106.51a4.34 4.34 0 0 0-.66 2.34l1.146 195.338a3.675 3.675 0 0 0 3.285 3.64c7.464.782 18.205 1.09 30.495 1.09 38.063 0 90.904-2.954 106.64-3.887a4.638 4.638 0 0 0 4.354-4.882L146.498 8.177a4.028 4.028 0 0 0-4.336-3.805c-9.904.762-20.218 1.078-30.528 1.078C78.903 5.45 46.25 2.26 27.216 0h115.268c4.462 0 8.427 2.222 10.822 5.643a13.203 13.203 0 0 1 2.369 6.914l9.41 185.148a9.778 9.778 0 0 1-.73 4.241c-1.44 3.461-4.819 5.936-8.82 6.009L9.413 210.616h-.171" id="y"/>
        <path d="M16.973 8.486A8.486 8.486 0 1 1 8.487 0c4.687 0 8.486 3.8 8.486 8.486" id="B"/>
        <path d="M2.159 11.572h26.638c1.633 0 2.612-1.784 1.732-3.146-2.263-3.504-6.996-8.65-15.195-8.418C7.432.23 2.748 4.88.394 8.215c-1 1.416.019 3.357 1.765 3.357" id="E"/>
        <path d="M1.61.333C4.233.13 9.147.038 11.85 0a2.452 2.452 0 0 1 2.421 1.872c.522 2.16 1.242 5.913 1.15 9.887a2.175 2.175 0 0 1-2.195 2.128l-9.98-.108a2.395 2.395 0 0 1-2.361-2.17L.008 2.235A1.743 1.743 0 0 1 1.61.333" id="H"/>
        <path d="M1.61.333C4.234.13 9.146.038 11.85 0a2.45 2.45 0 0 1 2.42 1.872c.523 2.16 1.242 5.913 1.152 9.887a2.175 2.175 0 0 1-2.196 2.128l-9.98-.108a2.395 2.395 0 0 1-2.36-2.17L.007 2.235C-.082 1.265.638.407 1.61.333" id="K"/>
        <path d="M.732 6.389c.685-.39 1.567-.158 1.954.514l1.821 3.163a.462.462 0 0 0 .813-.034L9.836.29c.226-.487.973-.323.965.21-.046 2.98-.863 8.645-5.778 13.387 0 0-2.708-1.02-4.889-5.66a1.416 1.416 0 0 1 .598-1.838" id="N"/>
        <path d="M.732 6.388c.685-.39 1.567-.157 1.954.515l1.821 3.163a.462.462 0 0 0 .813-.034L9.836.289c.226-.485.973-.322.965.211-.046 2.98-.863 8.645-5.778 13.387 0 0-2.708-1.02-4.889-5.66a1.417 1.417 0 0 1 .598-1.84" id="Q"/>
        <path d="M.732 6.388c.685-.39 1.567-.157 1.954.515l1.821 3.163a.462.462 0 0 0 .813-.034L9.836.29c.226-.486.973-.321.965.212-.046 2.98-.863 8.644-5.778 13.386 0 0-2.708-1.02-4.889-5.66a1.417 1.417 0 0 1 .598-1.84" id="T"/>
        <path d="M.732 6.388c.685-.39 1.567-.157 1.954.515l1.821 3.163a.462.462 0 0 0 .813-.034L9.836.29c.226-.486.973-.321.965.212-.046 2.98-.863 8.643-5.778 13.386 0 0-2.708-1.02-4.889-5.66a1.417 1.417 0 0 1 .598-1.84" id="W"/>
        <path d="M9.331 13.421c-2.046 0-3.705-1.605-3.705-3.586 0-1.981 1.659-3.587 3.705-3.587 2.046 0 3.705 1.606 3.705 3.587 0 1.98-1.659 3.586-3.705 3.586zm6.534-10.644C11.135-.41 7.022-.346 4.127.48 1.485 1.236-.227 3.704.024 6.36l1.25 13.195 14.858 1.276s9.01-11.805-.267-18.053z" id="Z"/>
        <path d="M0 10.617V4.024C0 1.747 1.921-.076 4.239.002L50.546 1.56c2.055.069 3.72 1.662 3.843 3.677l.387 6.335L0 10.617" id="ac"/>
        <path d="m21.83 38.574-10.915-8.863L0 38.574c.87-8.337 1.277-17.638.816-27.732a184.567 184.567 0 0 0-.664-9.334C.115 1.12.242.738.505.45.768.163 1.14 0 1.528 0h18.993c.734 0 1.341.572 1.38 1.303a342.594 342.594 0 0 1-.07 37.272" id="af"/>
        <path d="M.181 4.228C.292 1.862 2.2.002 4.515.002L85.028 0c2.895 0 5.37 2.131 5.864 5.05l.067.402c.542 3.197-1.864 6.12-5.035 6.12H3.322c-1.897 0-3.41-1.623-3.318-3.562L.18 4.228" id="ai"/>
        <path d="M11.005 7.611c-4.21.2-8.284.075-11.005-.07C2.478 5.726 8.184 1.775 12.96.2L16.236 0s1.111 1.74 1.507 5.72c-.543.699-2.13 1.673-6.74 1.891" id="al"/>
        <path d="m.248 1.919.035-.027c2.787.15 6.96.281 11.271.074C16.274 1.739 17.9.726 18.457 0c.02.19.038.38.054.582.07.908-.576 1.706-1.445 1.775-3.531.278-12.287.91-16.508.679-.557-.03-.764-.779-.31-1.117" id="ao"/>
        <path d="M.02 6.507C.33 4.39.825 1.33 1.207.547c.602-1.23 2.658 0 2.658 0s1.443.718 2.108 1.917c.424.765 1.595 2.94 2.389 4.417.091.17.129.35.124.526l-8.234.308A1.857 1.857 0 0 1 .02 6.507" id="ar"/>
        <path d="M8.486 0c-.013.338-.397.645-.94.655L1.5.77C.86.783.308.552 0 .207L8.486 0" id="au"/>
        <path d="M0 1.06c.07.246 1.113 5.567 1.57 7.902.127.645.68 1.098 1.305 1.066.342-.018.74-.05 1.156-.108.74-.1 1.304-.75 1.332-1.534.074-2.045.11-5.973-.604-7.495-.985-2.1-4.759.17-4.759.17" id="ax"/>
        <path d="M4.629 1.74c-.46-.016.183 2.5-.513 4.97-.157.558-.554.996-1.106 1.003-.359.006-.783-.002-1.214-.039C1.147 7.62.627 7.092.567 6.41L0 0l4.629 1.74" id="aA"/>
        <path d="M0 2.928c.205.99 7.445 42.841 7.884 64.498a.74.74 0 0 0 .64.718c.918.127 2.708.29 4.444-.029a.522.522 0 0 0 .432-.477c.253-4.035 2.288-38.157-.205-54.22 0 0 20.585 42.938 23.705 54.777a.628.628 0 0 0 .643.467c.881-.047 2.715-.203 4.17-.735.522-.19.82-.734.688-1.27C40.658 59.573 28.44 10.757 20.145 0L0 2.928" id="aD"/>
        <path d="M2.833 3.086a.256.256 0 0 0 .177-.07.246.246 0 0 0 .004-.352L.434.074A.256.256 0 0 0 .076.071a.246.246 0 0 0-.004.351l2.58 2.589c.05.05.115.075.18.075" id="aG"/>
        <path d="M5.675 1.218c6.117-.919 18.124-2.235 25.956.06l-.85 24.181-28.374-3.056L0 18.986S1.115 1.903 5.675 1.218" id="aJ"/>
        <path d="M9.544 0s.581 9.581.472 12.562c0 0-8.09 1.283-10.016-.059L1.522 1.145 9.544 0" id="aM"/>
        <path d="M4.15 0S.98 5.479.478 8.478c-.5 2.999-1.375 4.886 2.101 5.87 3.477.983 6.652-.438 8.598-3.272 0 0 3.04-4.363 2.679-6.32C13.497 2.8 4.149 0 4.149 0" id="aP"/>
        <path d="m8.873 15.117-.437-.048s2.199-3.518.687-4.343C7.61 9.903 1.478 7.94.365 5.557-.709 3.26.753.602 2.577.01a.235.235 0 0 1 .284.142l.114.29c.08.198.358.2.438.002.077-.187.34-.201.429-.018.341.712 1.347 1.921 4.294 2.805 4.182 1.253 6.817 3.295 6.569 6.266a.237.237 0 0 0 .343.233c.336-.159.85-.195 1.462.447 1.066 1.117.311 3.634-2.483 5.47-.134.086-.153.278-.03.38.433.354 1.05 1.154-.853 1.927-1.945.788-3.023.563-3.422.413a.238.238 0 0 1-.152-.264l.443-2.609a.237.237 0 0 0-.208-.276l-.932-.101" id="aS"/>
        <path d="M0 2.833S1.25-1.039 2.674.271C4.097 1.579 1.472 4.634.232 4.629L0 2.833" id="aV"/>
        <path d="m0 5.097.75-2.962A2.824 2.824 0 0 1 4.053.058l70.727 14.479a2.973 2.973 0 0 1 2.305 3.527l-4.31 20.51L0 5.097" id="aY"/>
        <path d="M.03 40 4.671 2.834A3.234 3.234 0 0 1 8.481.057l75.623 14.284a2.827 2.827 0 0 1 2.253 3.303L79.97 51.51a3.058 3.058 0 0 1-3.409 2.467L3.25 44.179a3.747 3.747 0 0 1-3.22-4.18" id="bb"/>
        <path d="M22.323 6.253c-.293 1.488-1.791 2.466-3.347 2.185L2.335 5.434C.779 5.154-.243 3.72.05 2.233.344.745 1.843-.233 3.397.048L20.04 3.052c1.555.281 2.578 1.714 2.284 3.201" id="be"/>
        <path d="M0 10.613 7.94 0s12.757 13.584 15.205 30.827l-7.959 3.89C12.716 28.911 8.17 21.046 0 10.613" id="bh"/>
        <path d="M1.488 27.11c.958-1.549 2.828-4.499 3.738-5.419 0 0-.832-.509-2.427-.319-1.595.19-2.845-.562-2.798-1.402l7.613-2.258c.341-.69 1.848-4.61-2.245-13.89L13.475 0c.934 6.342.399 13.186-2.846 20.025 0 0-2.517 7.558-5.41 9.236-7.548 4.376-4.1-1.555-3.731-2.15" id="bk"/>
    </defs>
    <g fill="none" fill-rule="evenodd">
        <path fill="#EFF6FF" d="M0 368h368V0H0z"/>
        <g transform="translate(48.604 45.518)">
            <mask id="c" fill="#fff">
                <use xlink:href="#a"/>
            </mask>
            <path d="M141.16 273.878c-19.52 0-34.474-3.079-39.007-4.077-11.023-2.43-33.748-7.438-55.224-23.133 3.004-.3 6.458-.763 10.28-1.362v1.02c0 5.117 4.164 9.251 9.275 9.251h.172l146.642-2.659a9.774 9.774 0 0 0 8.85-6.003c1.587.246 3.096.478 4.522.696-27.743 21.174-60.4 26.267-85.51 26.267M42.12 242.951a109.136 109.136 0 0 1-20.531-22.175c5.029-.678 10.276-2.091 15.185-3.302l5.346 25.477m202.443-12.269L265.777 94.96c13.352 41.99 12.712 96.121-21.213 135.722M9.61 198.67C-4.106 165.104-2.503 125.5 10.375 91.65l6.314 30.094c-5.067-.366-9.47-.512-12.316-.569h-.034c-1.306 0-2.046 1.507-1.227 2.535 4.071 5.108 12.597 16.94 13.34 27.271.615 8.563 5.039 15.966 10.86 21.39l2.783 13.263c-3.469.996-7.136 3.004-11.054 6.052-3.587 2.79-6.714 5.109-9.431 6.985M231.892 37.946c-41.173-9.063-80.218-22.408-93.776-27.23a4.655 4.655 0 0 0-1.56-.27c-2.137 0-4.096 1.486-4.552 3.71l-.35 1.708c-25.5 6.741-53.628 11.27-77.436 14.244 15.23-12.72 35.918-24.634 62.65-28.981C117.892.96 124.38 0 134.248 0c21.284 0 58.285 4.47 90.02 31.024a127.625 127.625 0 0 1 7.624 6.922" fill="url(#b)" mask="url(#c)"/>
        </g>
        <path d="M180.689 59.263a4.65 4.65 0 0 1 6.116-3.444c17.67 6.29 78.609 27.065 131.16 33.983 2.396.315 4.066 2.53 3.694 4.914l-30.572 195.812a4.946 4.946 0 0 1-5.621 4.125c-22.021-3.291-112.642-17.17-143.886-27.232a3.912 3.912 0 0 1-2.632-4.512l41.74-203.646" fill="#91B3FA"/>
        <path d="M282.9 290.851c-.235 0-.473-.018-.711-.053a2626.07 2626.07 0 0 1-11.027-1.672c.03-.404.036-.815.015-1.23l-.827-16.2 3.16.638a1.823 1.823 0 0 0 2.153-1.447 1.82 1.82 0 0 0-1.407-2.114l-4.101-.882-.897-17.594 8.545 1.721a1.823 1.823 0 0 0 2.153-1.447 1.82 1.82 0 0 0-1.408-2.114l-9.488-2.04-.895-17.52 13.93 2.805a1.822 1.822 0 0 0 2.153-1.447 1.82 1.82 0 0 0-1.408-2.114l-14.877-3.198-.89-17.446 19.314 3.89a1.823 1.823 0 0 0 2.153-1.447 1.82 1.82 0 0 0-1.408-2.115l-20.264-4.357-1.174-22.987 13.837 2.909a1.574 1.574 0 0 0 1.87-1.233l.084-.423a1.704 1.704 0 0 0-1.236-1.954l-14.782-3.758-.715-14.01 30.88 6.492c.125.027.25.04.37.04.705 0 1.295-.432 1.386-1.07.106-.747-.507-1.512-1.365-1.699l-31.43-6.867-.242-4.757 32.854 6.908c.125.027.25.039.37.039.704 0 1.294-.431 1.385-1.07.107-.747-.506-1.51-1.364-1.698l-33.405-7.298-1.803-35.338 37.845 7.957c.126.027.252.039.374.039.709 0 1.317-.427 1.431-1.06.134-.74-.456-1.507-1.311-1.703l-38.522-8.817-.224-4.39 39.847 8.377c.127.027.252.04.374.04.71 0 1.318-.427 1.432-1.06.133-.74-.456-1.508-1.311-1.703l-40.527-9.276-.074-1.45a13.288 13.288 0 0 0-.46-2.856l42.14 8.86c.126.027.251.039.373.039.71.001 1.318-.426 1.432-1.058.133-.742-.457-1.509-1.311-1.704L259.342 95.73a13.268 13.268 0 0 0-10.872-5.646h-9.295L197.89 79.889a2.76 2.76 0 0 0-1.977.25l-4.584-17.648c20.985 7.307 75.063 25.048 122.146 31.24 2.307.304 3.915 2.435 3.557 4.728L287.6 286.83a4.76 4.76 0 0 1-4.7 4.022" fill="#D3E1FD"/>
        <path d="M239.161 90.264h-40.624l-2.579-9.706a2.807 2.807 0 0 1 1.974-.243l41.23 9.95" fill="#F5F8FF"/>
        <g transform="translate(208.302 93.35)">
            <mask id="f" fill="#fff">
                <use xlink:href="#d"/>
            </mask>
            <path d="M17.552 10.702A8.871 8.871 0 1 1 .19 7.04a8.871 8.871 0 0 1 17.36 3.66" fill="url(#e)" mask="url(#f)"/>
        </g>
        <g transform="translate(196.73 114.952)">
            <mask id="i" fill="#fff">
                <use xlink:href="#g"/>
            </mask>
            <path d="m1.79 9.564 27.241 5.817c1.67.356 3.06-1.298 2.457-2.917C29.937 8.302 26.217 1.88 17.782.332 9.652-1.16 3.85 2.686.716 5.663-.614 6.927.004 9.183 1.79 9.564" fill="url(#h)" mask="url(#i)"/>
        </g>
        <path d="M303.299 108.78c-.121 0-.246-.012-.371-.04l-41.804-8.966a13.464 13.464 0 0 0-1.904-4.11l44.198 10.32c.848.199 1.434.974 1.301 1.725-.113.64-.716 1.072-1.42 1.07M301.751 115.723c-.122 0-.246-.012-.372-.038l-39.66-8.053-.184-3.481 40.336 8.916c.85.188 1.438.926 1.305 1.638-.114.608-.719 1.018-1.425 1.018M300.963 124.21c-.122 0-.249-.012-.376-.039l-38.097-7.952-.184-3.582 38.779 8.811c.86.197 1.454.962 1.32 1.703-.116.632-.728 1.059-1.442 1.059M297.171 161.241a1.77 1.77 0 0 1-.369-.038l-32.794-6.883-.159-3.108 33.343 7.271c.856.187 1.47.948 1.362 1.693-.09.636-.68 1.065-1.383 1.065M295.642 168.956c-.119 0-.241-.013-.365-.041l-30.5-6.758-.156-3.23 31.042 7.148c.847.194 1.453.99 1.348 1.767-.09.665-.673 1.114-1.369 1.114M279.919 183.614c-.108 0-.219-.011-.33-.035l-13.968-3.032-.229-4.648 14.923 3.917c.857.226 1.42 1.142 1.247 2.037l-.084.441c-.15.781-.816 1.321-1.559 1.32" fill="#EDF3FE"/>
        <path d="M178.188 181.287a1.402 1.402 0 0 0-1.048.26c-.232.18-.375.43-.404.705l-.85 8.138c-.091.874.587 1.697 1.577 1.915l9.54 2.09.018.004c.927.194 1.83-.293 2.023-1.093.864-3.61 1.63-7.002 1.526-8.834-.047-.822-.747-1.532-1.678-1.73-1.749-.344-4.936-.734-7.499-1.047-1.225-.15-2.382-.292-3.205-.408m8.679 13.842-.027-.006-9.539-2.091c-1.362-.3-2.292-1.468-2.16-2.719l.849-8.137c.05-.478.294-.91.687-1.216a2.157 2.157 0 0 1 1.615-.41c.818.114 1.971.255 3.193.405 2.574.315 5.777.708 7.552 1.056 1.286.263 2.215 1.245 2.282 2.42.11 1.93-.669 5.382-1.546 9.047-.285 1.191-1.585 1.927-2.906 1.65" fill="#FFF"/>
        <path d="M286.724 211.388c-.119 0-.24-.012-.362-.036l-19.223-3.772-.204-3.907 20.17 4.226c.96.2 1.581 1.11 1.4 2.05-.164.849-.927 1.439-1.781 1.439" fill="#EDF3FE"/>
        <g transform="translate(178.214 178.985)">
            <mask id="l" fill="#fff">
                <use xlink:href="#j"/>
            </mask>
            <path d="M1.093 4.816a1.535 1.535 0 0 1 1.95.991L4.24 9.635c.12.383.629.467.867.143l7.02-9.553c.35-.476 1.103-.134.972.442-.735 3.217-2.902 9.171-9.191 13.22 0 0-2.63-1.703-3.87-7.211a1.592 1.592 0 0 1 1.054-1.86" fill="url(#k)" mask="url(#l)"/>
        </g>
        <path d="M174.33 201.346a1.397 1.397 0 0 0-1.048.26c-.232.18-.375.43-.404.705l-.85 8.138c-.09.874.588 1.697 1.578 1.914l9.539 2.091.019.004c.926.194 1.831-.293 2.022-1.093.864-3.61 1.63-7.002 1.527-8.834-.047-.821-.755-1.552-1.679-1.73-1.748-.344-4.936-.735-7.497-1.049-1.226-.15-2.383-.29-3.207-.406m8.68 13.841-.027-.006-9.54-2.09c-1.362-.3-2.291-1.469-2.16-2.719l.85-8.138c.05-.478.294-.909.687-1.215a2.158 2.158 0 0 1 1.615-.41c.817.114 1.971.255 3.193.405 2.573.315 5.777.708 7.551 1.055l.04.008c1.255.264 2.176 1.25 2.242 2.41.11 1.933-.668 5.384-1.545 9.05-.285 1.19-1.585 1.926-2.906 1.65" fill="#FFF"/>
        <path d="M282.87 231.447c-.118 0-.24-.012-.36-.037l-13.831-2.866-.201-4.04 14.772 3.267c.96.212 1.579 1.17 1.398 2.16-.164.894-.925 1.517-1.777 1.516" fill="#EDF3FE"/>
        <g transform="translate(174.356 199.044)">
            <mask id="o" fill="#fff">
                <use xlink:href="#m"/>
            </mask>
            <path d="M1.093 4.816a1.534 1.534 0 0 1 1.95.99L4.24 9.635c.12.383.629.466.867.143l7.02-9.553c.35-.476 1.103-.134.972.442-.735 3.217-2.901 9.171-9.191 13.22 0 0-2.63-1.704-3.87-7.211a1.592 1.592 0 0 1 1.054-1.86" fill="url(#n)" mask="url(#o)"/>
        </g>
        <path d="M169.701 221.405a1.397 1.397 0 0 0-1.048.26c-.232.179-.375.43-.404.705l-.85 8.138c-.09.874.587 1.697 1.578 1.915l9.539 2.09.019.004c.927.194 1.831-.293 2.022-1.093.864-3.61 1.63-7.003 1.527-8.836-.047-.82-.754-1.554-1.679-1.73-1.748-.342-4.936-.733-7.498-1.047-1.225-.15-2.382-.292-3.206-.406m8.68 13.84-.027-.004-9.538-2.092c-1.364-.298-2.293-1.467-2.162-2.718l.85-8.138c.05-.478.294-.91.687-1.215a2.16 2.16 0 0 1 1.615-.41c.817.113 1.971.255 3.193.404 2.574.315 5.777.708 7.551 1.056l.04.008c1.257.263 2.176 1.25 2.242 2.41.11 1.933-.668 5.383-1.545 9.05-.285 1.19-1.585 1.927-2.906 1.65" fill="#FFF"/>
        <path d="M278.25 251.505c-.118 0-.238-.011-.359-.034l-8.446-1.649-.196-3.717 9.379 1.954c.955.199 1.571 1.097 1.391 2.026-.163.837-.92 1.42-1.769 1.42" fill="#EDF3FE"/>
        <g transform="translate(169.727 219.103)">
            <mask id="r" fill="#fff">
                <use xlink:href="#p"/>
            </mask>
            <path d="M1.093 4.816a1.534 1.534 0 0 1 1.95.99L4.24 9.635c.12.383.629.466.867.143l7.02-9.553c.35-.476 1.103-.134.972.442-.735 3.217-2.902 9.171-9.191 13.22 0 0-2.63-1.704-3.87-7.211a1.592 1.592 0 0 1 1.054-1.86" fill="url(#q)" mask="url(#r)"/>
        </g>
        <path d="M165.072 242.236a1.397 1.397 0 0 0-1.047.259c-.233.18-.376.43-.405.705l-.85 8.138c-.09.875.588 1.697 1.578 1.914l9.539 2.091.019.004c.927.194 1.831-.294 2.023-1.093.863-3.61 1.63-7.003 1.526-8.835-.047-.82-.753-1.557-1.679-1.73-1.748-.343-4.936-.733-7.497-1.047-1.226-.15-2.383-.292-3.207-.406m8.68 13.84-.026-.005-9.54-2.092c-1.362-.298-2.292-1.466-2.161-2.717l.85-8.138c.05-.478.294-.91.687-1.215a2.16 2.16 0 0 1 1.616-.412c.816.115 1.97.256 3.192.406 2.574.315 5.777.707 7.552 1.056l.039.008c1.257.262 2.176 1.249 2.242 2.41.11 1.933-.668 5.383-1.545 9.05-.285 1.19-1.585 1.926-2.906 1.649" fill="#FFF"/>
        <path d="M273.646 272.335a1.75 1.75 0 0 1-.354-.037l-3.081-.658-.19-3.934 3.997.912c.942.214 1.55 1.183 1.373 2.185-.161.904-.908 1.532-1.745 1.532" fill="#EDF3FE"/>
        <g transform="translate(165.87 239.161)">
            <mask id="u" fill="#fff">
                <use xlink:href="#s"/>
            </mask>
            <path d="M1.093 4.816a1.534 1.534 0 0 1 1.95.99L4.24 9.635c.12.383.629.466.867.143l7.02-9.553c.35-.476 1.103-.134.972.442-.735 3.217-2.901 9.171-9.191 13.22 0 0-2.63-1.704-3.87-7.212a1.591 1.591 0 0 1 1.054-1.859" fill="url(#t)" mask="url(#u)"/>
        </g>
        <path d="M47.932 85.144c-.577-2.763 1.418-5.397 4.23-5.582 18.656-1.227 82.633-6.3 133.445-20.763a4.283 4.283 0 0 1 5.325 3.045l49.613 191.753a4.938 4.938 0 0 1-3.507 6.012c-21.448 5.7-109.844 28.855-142.411 31.996a3.908 3.908 0 0 1-4.195-3.098l-42.5-203.363" fill="#91B3FA"/>
        <path d="M95.566 288.537a3.762 3.762 0 0 1-3.672-3.001l-4.9-23.486c3.82-.91 7.376-1.602 10.381-1.602 3.331 0 5.988.85 7.586 3.205.106.156.209.31.31.463v23.195c-3.47.534-6.61.944-9.342 1.209-.122.01-.243.017-.363.017m8.577-41.562c-.203-.428-.41-.85-.625-1.27l-1.703-5.43a1.033 1.033 0 0 1 .088-.807c.095-.175.234-.326.403-.443.763 2.213 1.373 4.825 1.837 7.95m-2.376-4.375a34.1 34.1 0 0 0-2.838-3.922c-4.887-5.804-10.025-8.783-15.677-8.783-.956 0-1.926.085-2.912.256l-2.194-10.517c2.722 2.131 5.645 3.852 8.564 5.091 7.413 3.145 12.412 5.764 15.339 13.583-.338.193-.617.47-.798.803-.236.436-.288.93-.144 1.387l.66 2.102m3.505-61.484a19.499 19.499 0 0 0-2.303-3.783c-.605-.77-1.368-1.49-2.263-2.16a46.121 46.121 0 0 0-1.766-4.368 2.571 2.571 0 0 0-2.881-1.427c-1.438.314-3.482.768-5.488 1.238-7.121-2.076-15.853-3.224-23.456-3.859l-16.1-77.178c-.556-2.662 1.363-5.201 4.068-5.38 17.944-1.181 79.483-6.069 128.357-20.006a4.12 4.12 0 0 1 5.123 2.935l5.852 22.657h-14.834l2.075-.423c.856-.174 1.417-.918 1.245-1.652-.148-.638-.804-1.077-1.536-1.077-.111 0-.224.01-.337.03l-16.856 3.122h-22.748l38.72-7.888c.856-.174 1.417-.918 1.245-1.653-.148-.637-.804-1.077-1.536-1.077-.111 0-.224.01-.337.031l-48.099 8.907c-.78.144-1.128.771-.852 1.448a701.207 701.207 0 0 1-9.904-1.271 4.344 4.344 0 0 0-3.983 1.595c-.116.007-.233.02-.35.04l-44.015 7.37a2.762 2.762 0 0 0-2.217 3.4l9.964 39.666a2.592 2.592 0 0 0 2.955 1.927c4.097-.715 12.965-2.289 22.257-4.116v9.134l-23.21 4.537c-.858.168-1.012.766-.343 1.328l1.152.97c.545.458 1.474.755 2.262.755.18 0 .353-.016.512-.048l19.627-3.999v4.217L83.573 159.3c-.858.168-1.011.766-.342 1.329l1.151.969c.546.459 1.475.755 2.263.755.18 0 .352-.016.512-.049l18.115-3.69v13.387c-.789.188-1.196.94-.91 1.726l.585 1.61c.073.201.185.385.325.546v5.233" fill="#D3E1FD"/>
        <path d="M82.868 142.725a2.61 2.61 0 0 1-2.53-1.966L70.29 101.077a2.764 2.764 0 0 1 2.236-3.4l44.387-7.373a3.34 3.34 0 0 1 .353-.04 4.367 4.367 0 0 0-.3.418c-6.452 1.718-11.203 7.576-11.203 14.539v17.716c-1.263.01-2.594.16-3.992.486-8.133 1.885-11.993 7.704-13.722 11.667-.669 1.534.493 3.172 2.072 3.172.153 0 .31-.015.469-.047l15.173-3.066v3.42a1122.012 1122.012 0 0 1-22.445 4.118 2.568 2.568 0 0 1-.45.038" fill="#F5F8FF"/>
        <path d="M107.058 108.172a8.87 8.87 0 0 1-6.927 10.458 8.87 8.87 0 1 1 6.927-10.458M90.647 138.049l27.212-5.61c1.669-.345 2.295-2.42 1.11-3.662-3.046-3.194-8.96-7.59-17.287-5.62-8.026 1.898-11.836 7.756-13.542 11.745-.724 1.694.725 3.514 2.507 3.147" fill="#91B3FA"/>
        <path d="M142.1 90.264h-8.921l-1.932-.236c-.276-.688.072-1.326.851-1.473l48.07-9.06c.113-.021.226-.032.337-.032.731 0 1.387.447 1.535 1.096.172.747-.389 1.504-1.244 1.681l-38.697 8.024M180.307 90.264H165.1l16.636-3.055c.111-.021.223-.03.332-.03.723 0 1.37.43 1.517 1.054.169.719-.384 1.447-1.23 1.618l-2.047.413M85.6 155.07c-.787 0-1.714-.302-2.258-.768l-1.148-.985c-.669-.572-.515-1.18.34-1.35l23.16-4.613v3.602l-19.583 4.065a2.57 2.57 0 0 1-.51.048M87.137 162.784c-.785 0-1.71-.313-2.254-.799l-1.147-1.024c-.667-.596-.514-1.228.34-1.405l21.618-4.487v3.761l-18.047 3.903c-.159.034-.33.051-.51.051M101.065 175.9c-2.48-1.978-5.993-3.553-10.03-4.806 1.986-.495 4.008-.973 5.43-1.304a2.43 2.43 0 0 1 .546-.063c.972 0 1.881.595 2.306 1.568a50.488 50.488 0 0 1 1.748 4.604M105.694 175.9a1.898 1.898 0 0 1-.25-.543l-.451-1.6c-.22-.781.093-1.528.7-1.715v3.857" fill="#EDF3FE"/>
        <path d="M95.062 198.815c-.368.1-.675.335-.843.642a1.01 1.01 0 0 0-.087.794l2.429 7.699c.26.827 1.195 1.308 2.173 1.12l9.42-1.814.018-.004c.912-.184 1.536-.977 1.394-1.776-.639-3.604-1.279-6.973-2.092-8.591-.365-.725-1.274-1.097-2.192-.914-1.712.37-4.738 1.254-7.17 1.966-1.164.34-2.263.661-3.05.878m13.257 9.157-.026.005-9.42 1.814c-1.345.259-2.642-.438-3.015-1.62l-2.429-7.699a1.739 1.739 0 0 1 .143-1.367c.263-.48.735-.845 1.295-.999.78-.214 1.877-.535 3.037-.874 2.444-.715 5.486-1.604 7.222-1.979 1.262-.262 2.485.267 3.006 1.303.858 1.706 1.51 5.133 2.16 8.793.211 1.188-.673 2.36-1.973 2.623M98.92 218.874a1.37 1.37 0 0 0-.843.643 1.01 1.01 0 0 0-.088.795l2.429 7.697c.261.826 1.195 1.308 2.173 1.12l9.42-1.814.02-.004c.91-.184 1.534-.977 1.393-1.776-.639-3.603-1.28-6.971-2.093-8.59-.364-.724-1.288-1.111-2.192-.913-1.71.37-4.737 1.254-7.17 1.965-1.163.34-2.263.662-3.05.877m13.258 9.157-.026.005-9.42 1.814c-1.346.258-2.642-.438-3.016-1.62l-2.428-7.698a1.738 1.738 0 0 1 .143-1.367 2.104 2.104 0 0 1 1.294-.998c.78-.215 1.878-.535 3.038-.874 2.443-.716 5.484-1.604 7.221-1.979l.038-.007c1.237-.251 2.453.284 2.969 1.31.858 1.706 1.51 5.132 2.16 8.791.21 1.189-.673 2.36-1.973 2.623M103.55 239.704c-.37.101-.676.336-.844.643-.139.253-.17.535-.088.796l2.43 7.696c.26.827 1.194 1.308 2.172 1.12l9.42-1.814.02-.004c.91-.184 1.533-.977 1.393-1.775-.639-3.603-1.28-6.972-2.093-8.59-.364-.725-1.29-1.114-2.193-.914-1.71.37-4.737 1.254-7.169 1.965-1.164.34-2.262.662-3.049.877m13.257 9.157-.026.005-9.42 1.814c-1.346.259-2.642-.437-3.016-1.62l-2.428-7.697a1.74 1.74 0 0 1 .143-1.368 2.102 2.102 0 0 1 1.295-.998c.78-.215 1.876-.535 3.037-.874 2.443-.715 5.484-1.604 7.221-1.978a.641.641 0 0 1 .037-.008c1.237-.251 2.454.284 2.97 1.31.857 1.706 1.51 5.131 2.16 8.791.21 1.189-.674 2.36-1.973 2.623M107.406 259.763c-.368.101-.676.335-.843.643-.138.253-.17.535-.087.795l2.429 7.697c.26.827 1.195 1.308 2.173 1.12l9.42-1.814.018-.004c.911-.184 1.536-.977 1.394-1.776-.638-3.604-1.279-6.971-2.093-8.59-.363-.724-1.29-1.116-2.192-.913-1.71.369-4.737 1.254-7.17 1.965-1.163.34-2.262.662-3.05.877m13.259 9.156-.027.006-9.42 1.814c-1.345.258-2.642-.438-3.015-1.621l-2.429-7.696a1.74 1.74 0 0 1 .144-1.368 2.103 2.103 0 0 1 1.293-.998c.782-.215 1.878-.535 3.038-.875 2.444-.715 5.485-1.603 7.222-1.978l.037-.008c1.237-.25 2.454.285 2.97 1.31.857 1.707 1.51 5.132 2.158 8.792.212 1.189-.672 2.36-1.971 2.622" fill="#FFF"/>
        <g transform="translate(108.78 252.277)">
            <mask id="x" fill="#fff">
                <use xlink:href="#v"/>
            </mask>
            <path d="M.519 8.555a1.531 1.531 0 0 1 2.134.135l2.57 2.898c.257.29.746.172.833-.201L8.616.402c.127-.549.936-.53 1.043.022.598 3.088.982 9.107-3.073 15.006 0 0-3.024-.503-6.286-4.854a1.483 1.483 0 0 1 .219-2.02" fill="url(#w)" mask="url(#x)"/>
        </g>
        <path d="M105.007 251.588c.863 9.114 2.891 21.165 5.328 31.548h1.53c-3.15-12.53-6.05-29.691-5.196-49.473.86-19.949 5.719-44.17-3.34-55.74-7.54-9.63-39.53-11.07-50.05-11.281-1.315-.027-2.067 1.496-1.249 2.532 4.033 5.103 12.478 16.923 13.214 27.244.97 13.604 11.482 24.281 21.929 28.727 10.445 4.445 16.07 7.835 17.834 26.443" fill="#91B3FA"/>
        <path d="M104.63 239.161a.291.291 0 0 1-.285-.237l-.002-.01a262.666 262.666 0 0 0-1.974-9.777 433.756 433.756 0 0 0-2.231-9.727l-1.187-4.847-1.24-4.833c-.413-1.61-.842-3.218-1.279-4.822l-.325-1.204c-.108-.403-.237-.784-.354-1.176-.124-.388-.226-.784-.366-1.167l-.427-1.147c-1.145-3.058-2.833-5.89-4.8-8.5-1.013-1.284-2.073-2.537-3.249-3.684l-.432-.438-.45-.421c-.3-.28-.594-.566-.901-.84-.622-.538-1.237-1.084-1.888-1.59-2.565-2.066-5.383-3.821-8.311-5.36-2.929-1.535-6.01-2.832-9.172-3.793l-.015-.005a.233.233 0 0 1 .126-.448 50.882 50.882 0 0 1 18.09 8.688 39.786 39.786 0 0 1 7.268 7.064c2.09 2.673 3.846 5.632 5.064 8.812l.452 1.194c.147.399.257.81.388 1.215.12.406.256.816.363 1.218l.323 1.21c.433 1.612.858 3.225 1.267 4.843a314.857 314.857 0 0 1 2.313 9.742c1.444 6.518 2.687 13.079 3.524 19.714a.292.292 0 0 1-.29.326" fill="#C8D9FD"/>
        <path d="M105.251 263.79c5.504 8.139 4.797 12.693 4.966 16.55.03.685.067 1.653.147 2.796h1.502c-.307-1.57-.524-3.153-.602-4.705-.536-10.653-2.921-28.835-12.042-39.71-9.119-10.877-19.106-11.869-31.69-1.982-10.487 8.24-17.028 12.398-20.865 13.17-.95.192-1.434 1.272-.972 2.13 2.46 4.565 9.417 15.048 21.097 14.31 14.9-.94 32.956-10.697 38.459-2.559" fill="#91B3FA"/>
        <path d="M105.694 256.134a4.491 4.491 0 0 0-.136-.278l-.386-.738c-1.019-1.967-2.256-3.81-3.734-5.422a19.176 19.176 0 0 0-5.156-3.96l-1.474-.704-1.527-.589-1.568-.48c-.26-.075-.516-.124-.774-.188-.258-.06-.523-.086-.784-.13a12.063 12.063 0 0 0-1.592-.103c-.535 0-1.072.032-1.607.094a18.186 18.186 0 0 0-3.184.65c-2.097.615-4.12 1.533-6.062 2.601a45.958 45.958 0 0 0-2.857 1.72 43.29 43.29 0 0 0-2.718 1.943l-.006.004a.237.237 0 0 1-.332-.042.24.24 0 0 1 .024-.318c.827-.792 1.703-1.506 2.607-2.195a34.743 34.743 0 0 1 2.804-1.938c1.932-1.2 3.994-2.226 6.19-2.932a19.356 19.356 0 0 1 3.386-.767c.611-.074 1.23-.115 1.85-.115.554 0 1.109.033 1.662.102.291.047.586.075.875.141.288.068.584.123.863.204l1.647.514 1.612.631 1.563.756a19.673 19.673 0 0 1 5.443 4.284c1.352 1.502 2.45 3.203 3.37 4.976v2.28" fill="#C8D9FD"/>
        <g transform="translate(105.694 90.264)">
            <mask id="A" fill="#fff">
                <use xlink:href="#y"/>
            </mask>
            <path d="M9.242 210.616c-5.093 0-9.242-4.137-9.242-9.26V15.017C0 8.07 4.709 2.224 11.106.51a4.34 4.34 0 0 0-.66 2.34l1.146 195.338a3.675 3.675 0 0 0 3.285 3.64c7.464.782 18.205 1.09 30.495 1.09 38.063 0 90.904-2.954 106.64-3.887a4.638 4.638 0 0 0 4.354-4.882L146.498 8.177a4.028 4.028 0 0 0-4.336-3.805c-9.904.762-20.218 1.078-30.528 1.078C78.903 5.45 46.25 2.26 27.216 0h115.268c4.462 0 8.427 2.222 10.822 5.643a13.203 13.203 0 0 1 2.369 6.914l9.41 185.148a9.778 9.778 0 0 1-.73 4.241c-1.44 3.461-4.819 5.936-8.82 6.009L9.413 210.616h-.171" fill="url(#z)" mask="url(#A)"/>
        </g>
        <path d="M116.495 93.112c-.016-2.654 2.311-4.707 4.935-4.35 17.396 2.364 77.217 9.678 126.676 5.872a4.026 4.026 0 0 1 4.334 3.804l9.86 185.96a4.637 4.637 0 0 1-4.35 4.88c-20.802 1.235-106.47 6.005-137.027 2.797a3.674 3.674 0 0 1-3.282-3.64l-1.146-195.323" fill="#91B3FA"/>
        <path d="M151.645 290.08c-11.824 0-22.16-.297-29.342-1.05a3.537 3.537 0 0 1-3.161-3.502l-1.104-187.953a4.195 4.195 0 0 1 4.753-4.186c13.4 1.82 52.945 6.688 92.61 6.688 9.92 0 19.845-.304 29.374-1.037a3.876 3.876 0 0 1 4.173 3.66l9.494 178.943a4.464 4.464 0 0 1-4.19 4.696c-15.14.898-65.983 3.74-102.607 3.74m-3.728-27.406h-.036c-1.684.022-4.676.277-7.08.482-1.142.098-2.221.19-2.986.241a2 2 0 0 0-1.392.689c-.299.356-.437.8-.39 1.248l.798 7.64c.123 1.174 1.195 2.07 2.494 2.081l9.09.088h.025c1.257 0 2.298-.926 2.328-2.075.09-3.536.132-6.856-.343-8.61-.284-1.055-1.313-1.784-2.508-1.784m10.69 4.559a2.26 2.26 0 0 0 0 4.522h.019l84.105-.72a1.709 1.709 0 0 0-.007-3.418l-84.107-.384h-.01m-10.69-24.074-.036.001c-1.684.02-4.676.276-7.08.481-1.142.097-2.221.19-2.986.242a1.998 1.998 0 0 0-1.392.687c-.299.357-.437.8-.39 1.25l.798 7.64c.123 1.174 1.195 2.068 2.494 2.08l9.09.087h.025c1.257 0 2.298-.925 2.328-2.074.09-3.536.132-6.856-.343-8.61-.284-1.054-1.313-1.784-2.508-1.784m10.69 4.558a2.26 2.26 0 0 0 0 4.522h.019l84.105-.718a1.71 1.71 0 0 0-.007-3.42l-84.107-.384h-.01m-10.69-24.072h-.036c-1.684.02-4.676.275-7.08.48-1.142.098-2.221.19-2.986.243a1.998 1.998 0 0 0-1.392.687c-.299.357-.437.8-.39 1.249l.798 7.64c.123 1.173 1.195 2.069 2.494 2.08l9.09.089h.025c1.257 0 2.298-.926 2.328-2.075.09-3.537.132-6.856-.343-8.61-.284-1.054-1.313-1.783-2.508-1.783m10.69 4.557a2.26 2.26 0 0 0 0 4.522h.019l84.105-.718a1.71 1.71 0 0 0-.007-3.419l-84.107-.385h-.01m-10.711-24.073h-.015c-1.684.022-4.676.277-7.08.482-1.142.098-2.221.19-2.986.241a1.998 1.998 0 0 0-1.392.688c-.299.357-.437.8-.39 1.248l.798 7.64c.123 1.175 1.195 2.07 2.494 2.082l9.09.088h.025c1.257 0 2.298-.927 2.328-2.075.09-3.536.132-6.856-.343-8.61-.286-1.062-1.315-1.784-2.53-1.784m10.711 4.558a2.26 2.26 0 0 0 0 4.522h.02l84.105-.718a1.709 1.709 0 0 0-.007-3.42l-84.107-.384h-.01m47.755-25.11c-.787 0-1.327.626-1.208 1.419l.239 1.592c.122.813.894 1.479 1.716 1.479h23.924c.822 0 1.486-.673 1.475-1.496l-.005-.405a1.6 1.6 0 0 0-1.51-1.558l-24.568-1.028a1.31 1.31 0 0 0-.063-.002m-53.667 0c-.787 0-1.327.625-1.207 1.418l.238 1.592c.122.813.894 1.479 1.715 1.479h23.925c.822 0 1.485-.673 1.475-1.496l-.005-.405a1.6 1.6 0 0 0-1.51-1.558l-24.568-1.028-.063-.002m-17.684-15.752c-.809 0-1.056.519-.547 1.159l.88 1.108c.511.643 1.602 1.169 2.424 1.169h105.133c.821 0 1.455-.578 1.409-1.286-.047-.709-.757-1.293-1.579-1.3l-107.705-.85h-.015m0-7.152c-.809 0-1.056.519-.547 1.16l.88 1.107c.511.643 1.602 1.17 2.424 1.17h105.133c.821 0 1.455-.58 1.409-1.288-.047-.707-.757-1.292-1.579-1.298l-107.705-.85h-.015m1.118-52.017a2.59 2.59 0 0 0-2.583 2.714l1.78 38.363a2.436 2.436 0 0 0 2.362 2.327c4.582.13 15.43.4 25.9.4 5.736 0 11.358-.08 15.775-.31a2.722 2.722 0 0 0 2.575-2.634c.238-7.195.76-28.135-.878-36.888a3.07 3.07 0 0 0-2.913-2.5l-41.925-1.47a2.913 2.913 0 0 0-.093-.002m56.23 17.04c-.804 0-1.24.617-.97 1.385l.22.626c.273.775 1.169 1.41 1.99 1.41h44.836c.822 0 1.477-.58 1.457-1.286-.021-.709-.71-1.3-1.531-1.315l-45.974-.82h-.029m0-7.256c-.803 0-1.238.618-.968 1.385l.22.625c.272.777 1.168 1.412 1.989 1.412h44.836c.822 0 1.477-.58 1.457-1.288-.021-.707-.71-1.298-1.531-1.313l-45.974-.821h-.029m0-7.152c-.803 0-1.238.618-.968 1.385l.22.625c.272.777 1.168 1.412 1.989 1.412h44.836c.822 0 1.477-.58 1.457-1.287-.021-.708-.71-1.3-1.531-1.314l-45.974-.82-.029-.001M148.44 274.442h-.018l-9.09-.087c-.944-.009-1.72-.635-1.807-1.455l-.799-7.64a.97.97 0 0 1 .232-.726c.214-.254.544-.415.904-.44.771-.052 1.853-.144 2.998-.242 2.393-.205 5.371-.459 7.03-.48h.044c.859 0 1.62.535 1.818 1.267.449 1.663.407 4.928.318 8.41-.02.772-.749 1.393-1.63 1.393m-1.547-10.136h-.024c-1.969.025-6.12.446-8.029.577-.708.049-1.232.608-1.166 1.239l.639 6.106c.083.794.824 1.404 1.718 1.413l7.263.07h.018c.86 0 1.562-.616 1.582-1.386.065-2.589.115-5.394-.264-6.8-.194-.717-.913-1.22-1.737-1.22m1.547-9.378h-.018l-9.09-.087c-.944-.01-1.72-.635-1.807-1.455l-.799-7.64a.967.967 0 0 1 .232-.725c.214-.255.544-.416.904-.44.771-.053 1.853-.145 2.998-.243 2.393-.204 5.371-.458 7.03-.479h.04c.86 0 1.624.533 1.822 1.267.449 1.663.407 4.926.318 8.41-.02.771-.749 1.392-1.63 1.392m-1.547-10.136h-.024c-1.969.024-6.12.446-8.029.577-.708.048-1.232.608-1.166 1.24l.639 6.104c.083.795.824 1.405 1.718 1.414l7.263.07h.018c.86 0 1.562-.616 1.582-1.386.065-2.59.115-5.393-.264-6.8-.194-.718-.913-1.22-1.737-1.22m1.547-9.377h-.018l-9.09-.087c-.944-.01-1.72-.636-1.807-1.457l-.799-7.64a.968.968 0 0 1 .232-.725c.214-.255.544-.415.904-.44.771-.053 1.853-.145 2.998-.242 2.393-.204 5.371-.458 7.03-.48h.033c.863 0 1.63.532 1.83 1.268.448 1.663.406 4.926.317 8.41-.02.77-.749 1.393-1.63 1.393m-1.547-10.138h-.024c-1.969.025-6.12.448-8.029.578-.708.048-1.232.607-1.166 1.24l.639 6.104c.083.794.824 1.405 1.718 1.413l7.263.07h.018c.86 0 1.562-.615 1.582-1.385.065-2.588.115-5.393-.264-6.8-.194-.718-.913-1.22-1.737-1.22m1.547-9.378h-.018l-9.09-.087c-.944-.009-1.72-.635-1.807-1.456l-.799-7.64a.97.97 0 0 1 .232-.725c.214-.255.544-.416.904-.44.771-.053 1.853-.145 2.998-.242 2.393-.205 5.371-.459 7.03-.48.887.004 1.661.522 1.862 1.267.449 1.663.407 4.928.318 8.41-.02.772-.749 1.393-1.63 1.393m-1.547-10.137h-.024c-1.969.025-6.12.447-8.029.578-.708.049-1.232.607-1.166 1.239l.639 6.106c.083.794.824 1.404 1.718 1.412l7.263.07h.018c.86 0 1.562-.615 1.582-1.385.065-2.589.115-5.394-.264-6.801-.194-.717-.913-1.22-1.737-1.22" fill="#D3E1FD"/>
        <path d="M164.246 152.755c-10.456 0-21.29-.272-25.868-.403a2.439 2.439 0 0 1-2.359-2.335l-1.777-38.513a2.595 2.595 0 0 1 2.673-2.722l41.871 1.474a3.07 3.07 0 0 1 2.91 2.51c1.634 8.788 1.114 29.81.876 37.032a2.726 2.726 0 0 1-2.571 2.644c-4.412.231-10.027.313-15.755.313" fill="#F5F8FF"/>
        <g transform="translate(149.669 117.266)">
            <mask id="D" fill="#fff">
                <use xlink:href="#B"/>
            </mask>
            <path d="M16.973 8.486A8.486 8.486 0 1 1 8.487 0c4.687 0 8.486 3.8 8.486 8.486" fill="url(#C)" mask="url(#D)"/>
        </g>
        <g transform="translate(142.725 138.096)">
            <mask id="G" fill="#fff">
                <use xlink:href="#E"/>
            </mask>
            <path d="M2.159 11.572h26.638c1.633 0 2.612-1.784 1.732-3.146-2.263-3.504-6.996-8.65-15.195-8.418C7.432.23 2.748 4.88.394 8.215c-1 1.416.019 3.357 1.765 3.357" fill="url(#F)" mask="url(#G)"/>
        </g>
        <path d="M239.247 114.952H194.39c-.821 0-1.718-.573-1.99-1.273l-.22-.564c-.27-.692.165-1.25.969-1.25l.028.002 45.994.74c.822.013 1.511.546 1.532 1.185.02.637-.635 1.16-1.457 1.16M239.247 121.895H194.39c-.821 0-1.718-.572-1.99-1.273l-.22-.564c-.27-.692.165-1.249.969-1.249h.028l45.994.74c.822.014 1.511.547 1.532 1.185.02.639-.635 1.161-1.457 1.161M239.247 128.839H194.39c-.821 0-1.718-.573-1.99-1.273l-.22-.564c-.27-.693.165-1.25.969-1.25h.028l45.994.74c.822.014 1.511.547 1.532 1.186.02.638-.635 1.16-1.457 1.16M243.148 164.327H137.815c-.824 0-1.917-.473-2.429-1.05l-.882-.995c-.51-.575-.262-1.04.549-1.04h.015l107.91.763c.823.006 1.535.531 1.581 1.166.047.636-.588 1.156-1.411 1.156M243.148 171.27H137.815c-.824 0-1.917-.472-2.429-1.05l-.882-.995c-.51-.575-.262-1.04.549-1.04h.015l107.91.763c.823.006 1.535.53 1.581 1.167.047.636-.588 1.155-1.411 1.155" fill="#EDF3FE"/>
        <g transform="translate(133.468 179.757)">
            <mask id="J" fill="#fff">
                <use xlink:href="#H"/>
            </mask>
            <path d="M1.61.333C4.233.13 9.147.038 11.85 0a2.452 2.452 0 0 1 2.421 1.872c.522 2.16 1.242 5.913 1.15 9.887a2.175 2.175 0 0 1-2.195 2.128l-9.98-.108a2.395 2.395 0 0 1-2.361-2.17L.008 2.235A1.743 1.743 0 0 1 1.61.333" fill="url(#I)" mask="url(#J)"/>
        </g>
        <path d="M177.488 188.243h-24.277c-.834 0-1.617-.686-1.741-1.525l-.241-1.641c-.122-.817.426-1.463 1.224-1.463l.065.002 24.929 1.06c.833.036 1.522.759 1.533 1.608l.005.417c.01.849-.663 1.542-1.497 1.542" fill="#EDF3FE"/>
        <g transform="translate(186.7 179.757)">
            <mask id="M" fill="#fff">
                <use xlink:href="#K"/>
            </mask>
            <path d="M1.61.333C4.234.13 9.146.038 11.85 0a2.45 2.45 0 0 1 2.42 1.872c.523 2.16 1.242 5.913 1.152 9.887a2.175 2.175 0 0 1-2.196 2.128l-9.98-.108a2.395 2.395 0 0 1-2.36-2.17L.007 2.235C-.082 1.265.638.407 1.61.333" fill="url(#L)" mask="url(#M)"/>
        </g>
        <path d="M231.493 188.243h-24.277c-.834 0-1.618-.686-1.741-1.525l-.242-1.641c-.121-.817.427-1.463 1.225-1.463l.064.002 24.93 1.06c.832.036 1.522.759 1.532 1.608l.006.417c.01.849-.663 1.542-1.497 1.542" fill="#EDF3FE"/>
        <path d="M138.374 205.852a1.277 1.277 0 0 0-.895.435.96.96 0 0 0-.23.717l.792 7.564c.085.813.854 1.433 1.789 1.442l9.002.086h.018c.873 0 1.595-.616 1.614-1.38.088-3.447.13-6.679-.315-8.325-.199-.738-.965-1.251-1.844-1.254-1.643.02-4.592.272-6.961.474-1.135.096-2.206.188-2.97.24m10.476 10.937h-.024l-9.003-.086c-1.286-.013-2.348-.899-2.47-2.061l-.79-7.564a1.648 1.648 0 0 1 .387-1.236 1.98 1.98 0 0 1 1.377-.68c.758-.052 1.827-.143 2.958-.24 2.38-.203 5.344-.455 7.011-.477 1.21-.005 2.236.711 2.52 1.766.47 1.737.429 5.024.34 8.524-.03 1.137-1.061 2.054-2.306 2.054" fill="#FFF"/>
        <path d="M147.227 215.245h-.018l-7.459-.069c-.917-.008-1.678-.608-1.763-1.39l-.656-6.01c-.068-.622.47-1.172 1.197-1.22 1.96-.128 6.222-.544 8.244-.568h.025c.846 0 1.584.493 1.783 1.2.39 1.385.338 4.145.27 6.693-.02.758-.74 1.364-1.623 1.364M159.638 213.702c-1.022 0-1.918-.706-2.179-1.724-.376-1.468.702-2.905 2.18-2.905h.01l83.987.394c.924.004 1.676.764 1.697 1.712.02.976-.74 1.78-1.69 1.788l-83.985.735h-.02" fill="#EDF3FE"/>
        <g transform="translate(138.868 201.358)">
            <mask id="P" fill="#fff">
                <use xlink:href="#N"/>
            </mask>
            <path d="M.732 6.389c.685-.39 1.567-.158 1.954.514l1.821 3.163a.462.462 0 0 0 .813-.034L9.836.29c.226-.487.973-.323.965.21-.046 2.98-.863 8.645-5.778 13.387 0 0-2.708-1.02-4.889-5.66a1.416 1.416 0 0 1 .598-1.838" fill="url(#O)" mask="url(#P)"/>
        </g>
        <path d="M138.374 225.138a1.281 1.281 0 0 0-.895.436.958.958 0 0 0-.23.718l.792 7.563c.085.812.854 1.432 1.789 1.442l9.002.086h.018c.873 0 1.595-.615 1.614-1.38.088-3.448.13-6.678-.315-8.325-.199-.738-.976-1.268-1.844-1.254-1.643.02-4.592.272-6.961.474-1.135.096-2.206.188-2.97.24m10.476 10.937h-.024l-9.003-.087c-1.286-.012-2.348-.898-2.47-2.06l-.79-7.564a1.648 1.648 0 0 1 .387-1.236 1.98 1.98 0 0 1 1.377-.68c.758-.053 1.827-.144 2.958-.24 2.38-.203 5.344-.456 7.011-.476h.036c1.184 0 2.203.721 2.484 1.765.47 1.736.429 5.023.34 8.524-.03 1.137-1.061 2.054-2.306 2.054" fill="#FFF"/>
        <path d="M147.227 234.532h-.018l-7.459-.069c-.917-.008-1.678-.609-1.763-1.391l-.656-6.009c-.068-.622.47-1.172 1.197-1.22 1.96-.128 6.222-.544 8.244-.568h.025c.846 0 1.584.494 1.783 1.2.39 1.385.338 4.146.27 6.694-.02.757-.74 1.363-1.623 1.363M159.638 232.99c-1.022 0-1.918-.707-2.179-1.725-.376-1.468.702-2.904 2.18-2.904h.01l83.987.394c.924.004 1.676.763 1.697 1.711.02.975-.74 1.78-1.69 1.788l-83.985.736h-.02" fill="#EDF3FE"/>
        <g transform="translate(138.868 221.417)">
            <mask id="S" fill="#fff">
                <use xlink:href="#Q"/>
            </mask>
            <path d="M.732 6.388c.685-.39 1.567-.157 1.954.515l1.821 3.163a.462.462 0 0 0 .813-.034L9.836.289c.226-.485.973-.322.965.211-.046 2.98-.863 8.645-5.778 13.387 0 0-2.708-1.02-4.889-5.66a1.417 1.417 0 0 1 .598-1.84" fill="url(#R)" mask="url(#S)"/>
        </g>
        <path d="M138.374 245.197a1.281 1.281 0 0 0-.895.436.957.957 0 0 0-.23.718l.792 7.564c.085.812.854 1.432 1.789 1.44l9.002.087h.018c.873 0 1.595-.615 1.614-1.379.088-3.448.13-6.679-.315-8.325-.199-.738-.976-1.271-1.844-1.254-1.643.02-4.592.272-6.961.474-1.135.096-2.206.187-2.97.24m10.476 10.936h-.024l-9.003-.086c-1.286-.012-2.348-.898-2.47-2.06l-.79-7.564a1.648 1.648 0 0 1 .387-1.236 1.98 1.98 0 0 1 1.377-.68c.758-.053 1.827-.144 2.958-.24 2.38-.204 5.344-.456 7.011-.477h.036c1.184 0 2.203.722 2.484 1.766.47 1.736.429 5.022.34 8.524-.03 1.137-1.061 2.053-2.306 2.053" fill="#FFF"/>
        <path d="M147.227 254.591h-.018l-7.459-.07c-.917-.008-1.678-.608-1.763-1.39l-.656-6.01c-.068-.621.47-1.172 1.197-1.22 1.96-.128 6.222-.543 8.244-.568h.025c.846 0 1.584.494 1.783 1.2.39 1.385.338 4.145.27 6.693-.02.759-.74 1.365-1.623 1.365M159.638 252.277c-1.022 0-1.918-.708-2.179-1.724-.376-1.47.702-2.905 2.18-2.905h.01l83.987.393c.924.005 1.676.763 1.697 1.712.02.975-.74 1.78-1.69 1.789l-83.985.735h-.02" fill="#EDF3FE"/>
        <g transform="translate(138.868 239.933)">
            <mask id="V" fill="#fff">
                <use xlink:href="#T"/>
            </mask>
            <path d="M.732 6.388c.685-.39 1.567-.157 1.954.515l1.821 3.163a.462.462 0 0 0 .813-.034L9.836.29c.226-.486.973-.321.965.212-.046 2.98-.863 8.644-5.778 13.386 0 0-2.708-1.02-4.889-5.66a1.417 1.417 0 0 1 .598-1.84" fill="url(#U)" mask="url(#V)"/>
        </g>
        <path d="M138.374 264.485a1.284 1.284 0 0 0-.895.435.96.96 0 0 0-.23.718l.792 7.564c.085.812.854 1.432 1.789 1.44l9.002.087h.018c.873 0 1.595-.616 1.614-1.38.088-3.447.13-6.679-.315-8.325-.199-.738-.976-1.273-1.844-1.254-1.643.02-4.592.272-6.961.474-1.135.097-2.206.189-2.97.24m10.476 10.937h-.024l-9.003-.086c-1.286-.012-2.348-.898-2.47-2.061l-.79-7.563a1.647 1.647 0 0 1 .387-1.236 1.98 1.98 0 0 1 1.377-.682c.758-.05 1.827-.142 2.958-.238 2.38-.203 5.344-.456 7.011-.477h.036c1.184 0 2.203.721 2.484 1.766.47 1.736.429 5.023.34 8.523-.03 1.138-1.061 2.054-2.306 2.054" fill="#FFF"/>
        <path d="M147.227 273.878h-.018l-7.459-.068c-.917-.009-1.678-.61-1.763-1.391l-.656-6.01c-.068-.622.47-1.172 1.197-1.22 1.96-.13 6.222-.544 8.244-.568h.025c.846 0 1.584.494 1.783 1.2.39 1.384.338 4.145.27 6.693-.02.758-.74 1.364-1.623 1.364M159.638 272.335c-1.022 0-1.918-.707-2.179-1.724-.376-1.469.702-2.905 2.18-2.905h.01l83.987.393c.924.006 1.676.764 1.697 1.712.02.976-.74 1.78-1.69 1.788l-83.985.736h-.02" fill="#EDF3FE"/>
        <g transform="translate(138.868 259.992)">
            <mask id="Y" fill="#fff">
                <use xlink:href="#W"/>
            </mask>
            <path d="M.732 6.388c.685-.39 1.567-.157 1.954.515l1.821 3.163a.462.462 0 0 0 .813-.034L9.836.29c.226-.486.973-.321.965.212-.046 2.98-.863 8.643-5.778 13.386 0 0-2.708-1.02-4.889-5.66a1.417 1.417 0 0 1 .598-1.84" fill="url(#X)" mask="url(#Y)"/>
        </g>
        <g transform="translate(176.67 62.49)">
            <mask id="ab" fill="#fff">
                <use xlink:href="#Z"/>
            </mask>
            <path d="M9.331 13.421c-2.046 0-3.705-1.605-3.705-3.586 0-1.981 1.659-3.587 3.705-3.587 2.046 0 3.705 1.606 3.705 3.587 0 1.98-1.659 3.586-3.705 3.586zm6.534-10.644C11.135-.41 7.022-.346 4.127.48 1.485 1.236-.227 3.704.024 6.36l1.25 13.195 14.858 1.276s9.01-11.805-.267-18.053z" fill="url(#aa)" mask="url(#ab)"/>
        </g>
        <path d="M179.495 72.166a.349.349 0 0 1-.343-.322l-.144-1.631c-.23-2.586 1.347-4.994 3.75-5.726a10.337 10.337 0 0 1 5.21-.221c.186.04.306.227.268.419a.345.345 0 0 1-.406.276 9.692 9.692 0 0 0-4.878.207c-2.088.636-3.46 2.73-3.26 4.98l.145 1.631a.352.352 0 0 1-.342.387zm.373 4.211a.35.35 0 0 1-.342-.322l-.19-2.15a.352.352 0 0 1 .31-.385.345.345 0 0 1 .375.321l.19 2.15a.352.352 0 0 1-.343.386z" fill="#FFF"/>
        <g transform="translate(158.155 79.463)">
            <mask id="ae" fill="#fff">
                <use xlink:href="#ac"/>
            </mask>
            <path d="M0 10.617V4.024C0 1.747 1.921-.076 4.239.002L50.546 1.56c2.055.069 3.72 1.662 3.843 3.677l.387 6.335L0 10.617" fill="url(#ad)" mask="url(#ae)"/>
        </g>
        <path d="M175.598 82.55h-1.712c-.166 0-.301-.173-.301-.386 0-.214.135-.386.301-.386h1.712c.166 0 .301.172.301.386 0 .213-.135.385-.301.385M160.823 88.721a.354.354 0 0 1-.353-.355v-2.744c0-2.12 1.72-3.844 3.837-3.844h7.381a.354.354 0 0 1 0 .71h-7.38a3.136 3.136 0 0 0-3.13 3.134v2.744a.354.354 0 0 1-.355.355" fill="#FFF"/>
        <g transform="translate(203.673 95.665)">
            <mask id="ah" fill="#fff">
                <use xlink:href="#af"/>
            </mask>
            <path d="m21.83 38.574-10.915-8.863L0 38.574c.87-8.337 1.277-17.638.816-27.732a184.567 184.567 0 0 0-.664-9.334C.115 1.12.242.738.505.45.768.163 1.14 0 1.528 0h18.993c.734 0 1.341.572 1.38 1.303a342.594 342.594 0 0 1-.07 37.272" fill="url(#ag)" mask="url(#ah)"/>
        </g>
        <g transform="translate(139.64 87.95)">
            <mask id="ak" fill="#fff">
                <use xlink:href="#ai"/>
            </mask>
            <path d="M.181 4.228C.292 1.862 2.2.002 4.515.002L85.028 0c2.895 0 5.37 2.131 5.864 5.05l.067.402c.542 3.197-1.864 6.12-5.035 6.12H3.322c-1.897 0-3.41-1.623-3.318-3.562L.18 4.228" fill="url(#aj)" mask="url(#ak)"/>
        </g>
        <g transform="translate(269.25 307.824)">
            <mask id="an" fill="#fff">
                <use xlink:href="#al"/>
            </mask>
            <path d="M11.005 7.611c-4.21.2-8.284.075-11.005-.07C2.478 5.726 8.184 1.775 12.96.2L16.236 0s1.111 1.74 1.507 5.72c-.543.699-2.13 1.673-6.74 1.891" fill="url(#am)" mask="url(#an)"/>
        </g>
        <g transform="translate(269.25 313.224)">
            <mask id="aq" fill="#fff">
                <use xlink:href="#ao"/>
            </mask>
            <path d="m.248 1.919.035-.027c2.787.15 6.96.281 11.271.074C16.274 1.739 17.9.726 18.457 0c.02.19.038.38.054.582.07.908-.576 1.706-1.445 1.775-3.531.278-12.287.91-16.508.679-.557-.03-.764-.779-.31-1.117" fill="url(#ap)" mask="url(#aq)"/>
        </g>
        <g transform="translate(310.138 307.824)">
            <mask id="at" fill="#fff">
                <use xlink:href="#ar"/>
            </mask>
            <path d="M.02 6.507C.33 4.39.825 1.33 1.207.547c.602-1.23 2.658 0 2.658 0s1.443.718 2.108 1.917c.424.765 1.595 2.94 2.389 4.417.091.17.129.35.124.526l-8.234.308A1.857 1.857 0 0 1 .02 6.507" fill="url(#as)" mask="url(#at)"/>
        </g>
        <g transform="translate(310.91 314.767)">
            <mask id="aw" fill="#fff">
                <use xlink:href="#au"/>
            </mask>
            <path d="M8.486 0c-.013.338-.397.645-.94.655L1.5.77C.86.783.308.552 0 .207L8.486 0" fill="url(#av)" mask="url(#aw)"/>
        </g>
        <g transform="translate(310.138 300.88)">
            <mask id="az" fill="#fff">
                <use xlink:href="#ax"/>
            </mask>
            <path d="M0 1.06c.07.246 1.113 5.567 1.57 7.902.127.645.68 1.098 1.305 1.066.342-.018.74-.05 1.156-.108.74-.1 1.304-.75 1.332-1.534.074-2.045.11-5.973-.604-7.495-.985-2.1-4.759.17-4.759.17" fill="url(#ay)" mask="url(#az)"/>
        </g>
        <g transform="translate(281.593 301.652)">
            <mask id="aC" fill="#fff">
                <use xlink:href="#aA"/>
            </mask>
            <path d="M4.629 1.74c-.46-.016.183 2.5-.513 4.97-.157.558-.554.996-1.106 1.003-.359.006-.783-.002-1.214-.039C1.147 7.62.627 7.092.567 6.41L0 0l4.629 1.74" fill="url(#aB)" mask="url(#aC)"/>
        </g>
        <g transform="translate(273.107 236.075)">
            <mask id="aF" fill="#fff">
                <use xlink:href="#aD"/>
            </mask>
            <path d="M0 2.928c.205.99 7.445 42.841 7.884 64.498a.74.74 0 0 0 .64.718c.918.127 2.708.29 4.444-.029a.522.522 0 0 0 .432-.477c.253-4.035 2.288-38.157-.205-54.22 0 0 20.585 42.938 23.705 54.777a.628.628 0 0 0 .643.467c.881-.047 2.715-.203 4.17-.735.522-.19.82-.734.688-1.27C40.658 59.573 28.44 10.757 20.145 0L0 2.928" fill="url(#aE)" mask="url(#aF)"/>
        </g>
        <g transform="translate(283.908 246.876)">
            <mask id="aI" fill="#fff">
                <use xlink:href="#aG"/>
            </mask>
            <path d="M2.833 3.086a.256.256 0 0 0 .177-.07.246.246 0 0 0 .004-.352L.434.074A.256.256 0 0 0 .076.071a.246.246 0 0 0-.004.351l2.58 2.589c.05.05.115.075.18.075" fill="url(#aH)" mask="url(#aI)"/>
        </g>
        <g transform="translate(261.535 184.386)">
            <mask id="aL" fill="#fff">
                <use xlink:href="#aJ"/>
            </mask>
            <path d="M5.675 1.218c6.117-.919 18.124-2.235 25.956.06l-.85 24.181-28.374-3.056L0 18.986S1.115 1.903 5.675 1.218" fill="url(#aK)" mask="url(#aL)"/>
        </g>
        <g transform="translate(271.564 172.042)">
            <mask id="aO" fill="#fff">
                <use xlink:href="#aM"/>
            </mask>
            <path d="M9.544 0s.581 9.581.472 12.562c0 0-8.09 1.283-10.016-.059L1.522 1.145 9.544 0" fill="url(#aN)" mask="url(#aO)"/>
        </g>
        <g transform="translate(269.25 162.784)">
            <mask id="aR" fill="#fff">
                <use xlink:href="#aP"/>
            </mask>
            <path d="M4.15 0S.98 5.479.478 8.478c-.5 2.999-1.375 4.886 2.101 5.87 3.477.983 6.652-.438 8.598-3.272 0 0 3.04-4.363 2.679-6.32C13.497 2.8 4.149 0 4.149 0" fill="url(#aQ)" mask="url(#aR)"/>
        </g>
        <g transform="translate(270.021 155.84)">
            <mask id="aU" fill="#fff">
                <use xlink:href="#aS"/>
            </mask>
            <path d="m8.873 15.117-.437-.048s2.199-3.518.687-4.343C7.61 9.903 1.478 7.94.365 5.557-.709 3.26.753.602 2.577.01a.235.235 0 0 1 .284.142l.114.29c.08.198.358.2.438.002.077-.187.34-.201.429-.018.341.712 1.347 1.921 4.294 2.805 4.182 1.253 6.817 3.295 6.569 6.266a.237.237 0 0 0 .343.233c.336-.159.85-.195 1.462.447 1.066 1.117.311 3.634-2.483 5.47-.134.086-.153.278-.03.38.433.354 1.05 1.154-.853 1.927-1.945.788-3.023.563-3.422.413a.238.238 0 0 1-.152-.264l.443-2.609a.237.237 0 0 0-.208-.276l-.932-.101" fill="url(#aT)" mask="url(#aU)"/>
        </g>
        <g transform="translate(279.279 168.956)">
            <mask id="aX" fill="#fff">
                <use xlink:href="#aV"/>
            </mask>
            <path d="M0 2.833S1.25-1.039 2.674.271C4.097 1.579 1.472 4.634.232 4.629L0 2.833" fill="url(#aW)" mask="url(#aX)"/>
        </g>
        <g transform="translate(245.333 199.044)">
            <mask id="ba" fill="#fff">
                <use xlink:href="#aY"/>
            </mask>
            <path d="m0 5.097.75-2.962A2.824 2.824 0 0 1 4.053.058l70.727 14.479a2.973 2.973 0 0 1 2.305 3.527l-4.31 20.51L0 5.097" fill="url(#aZ)" mask="url(#ba)"/>
        </g>
        <path d="m238.39 240.225 5.314-38.452c.11-.795.871-1.327 1.65-1.153l72.576 16.224a2.874 2.874 0 0 1 2.164 3.452l-6.09 26.58-75.614-6.651" fill="#FFF"/>
        <path d="m239.933 238.346 2.036-34.093a1.438 1.438 0 0 1 1.731-1.32l73.35 15.519a1.986 1.986 0 0 1 1.55 2.253l-3.907 24.628-74.76-6.987" fill="#FFF"/>
        <g transform="translate(234.532 206.759)">
            <mask id="bd" fill="#fff">
                <use xlink:href="#bb"/>
            </mask>
            <path d="M.03 40 4.671 2.834A3.234 3.234 0 0 1 8.481.057l75.623 14.284a2.827 2.827 0 0 1 2.253 3.303L79.97 51.51a3.058 3.058 0 0 1-3.409 2.467L3.25 44.179a3.747 3.747 0 0 1-3.22-4.18" fill="url(#bc)" mask="url(#bd)"/>
        </g>
        <g transform="translate(247.648 205.216)">
            <mask id="bg" fill="#fff">
                <use xlink:href="#be"/>
            </mask>
            <path d="M22.323 6.253c-.293 1.488-1.791 2.466-3.347 2.185L2.335 5.434C.779 5.154-.243 3.72.05 2.233.344.745 1.843-.233 3.397.048L20.04 3.052c1.555.281 2.578 1.714 2.284 3.201" fill="url(#bf)" mask="url(#bg)"/>
        </g>
        <g transform="translate(284.68 185.157)">
            <mask id="bj" fill="#fff">
                <use xlink:href="#bh"/>
            </mask>
            <path d="M0 10.613 7.94 0s12.757 13.584 15.205 30.827l-7.959 3.89C12.716 28.911 8.17 21.046 0 10.613" fill="url(#bi)" mask="url(#bj)"/>
        </g>
        <g transform="translate(293.937 216.017)">
            <mask id="bm" fill="#fff">
                <use xlink:href="#bk"/>
            </mask>
            <path d="M1.488 27.11c.958-1.549 2.828-4.499 3.738-5.419 0 0-.832-.509-2.427-.319-1.595.19-2.845-.562-2.798-1.402l7.613-2.258c.341-.69 1.848-4.61-2.245-13.89L13.475 0c.934 6.342.399 13.186-2.846 20.025 0 0-2.517 7.558-5.41 9.236-7.548 4.376-4.1-1.555-3.731-2.15" fill="url(#bl)" mask="url(#bm)"/>
        </g>
        <path d="m106.392 143.937-1.62 1.755-.006.007a.385.385 0 0 1-.484.049c-.15-.1-.175-.286-.057-.415l.005-.005 1.68-1.734a.352.352 0 0 1 .442-.036c.131.094.151.259.046.373l-.006.006M101 151.025l-2.281 3.83-.011.02a.383.383 0 0 1-.544.13.43.43 0 0 1-.125-.572l.004-.006 2.374-3.819a.342.342 0 0 1 .488-.107c.162.11.208.336.106.506l-.01.018M95.607 161.2l-2.009 4.335-.012.026a.525.525 0 0 1-.704.257.543.543 0 0 1-.253-.716l.004-.009 2.108-4.347a.483.483 0 0 1 .652-.225c.238.12.338.411.225.655l-.011.024M90.992 171.355l-1.65 4.815-.012.036c-.122.354-.52.547-.892.432-.372-.116-.574-.495-.453-.849l.004-.012 1.764-4.855a.668.668 0 0 1 .839-.389c.34.113.522.463.411.788l-.011.034M87.93 182.148l-.884 4.704-.008.041a.707.707 0 1 1-1.39-.262v-.007l.952-4.775a.682.682 0 0 1 1.338.26l-.008.04M86.403 193.67l-.306 4.622-.003.044c-.027.411-.497.727-1.05.707-.552-.02-.978-.369-.95-.78v-.007l.38-4.708c.032-.396.49-.698 1.023-.675.53.024.934.36.909.752l-.003.045M85.917 205.278l.48 5.091.006.053c.046.488-.336.918-.854.962-.518.043-.976-.317-1.022-.804v-.01l-.432-5.2c-.04-.473.336-.886.838-.923.498-.037.934.312.979.78l.005.051M88.283 216.013l1.172 4.961.013.055a.947.947 0 0 1-.73 1.135.974.974 0 0 1-1.167-.71l-.002-.01-1.14-5.083a.92.92 0 0 1 .72-1.094.944.944 0 0 1 1.122.692l.012.054M91.06 226.748l1.45 4.827.017.054c.157.521-.057 1.102-.477 1.297-.42.194-.887-.071-1.044-.592l-.001-.005-1.463-4.945c-.153-.515.06-1.087.476-1.276.415-.19.875.075 1.028.59l.015.05M94.582 238.165l2.475 4.19.028.046c.273.462.075 1.035-.442 1.28-.516.244-1.157.067-1.43-.396l-.002-.003-2.513-4.29c-.268-.459-.07-1.026.443-1.266s1.147-.064 1.416.396l.025.043M100.496 247.348l2.68 4.061.03.045c.302.458.199 1.089-.231 1.41-.43.321-1.024.211-1.326-.247l-.002-.003-2.727-4.162c-.298-.453-.193-1.08.235-1.396.427-.316 1.015-.205 1.313.25l.028.042M107.493 255.762l3.298 3.895.038.045a1.15 1.15 0 0 1-.07 1.547.972.972 0 0 1-1.442-.073l-.003-.003-3.36-3.997a1.141 1.141 0 0 1 .074-1.534.964.964 0 0 1 1.43.08l.035.04M115.235 264.136l3.91 3.21.05.041c.46.378.517 1.044.127 1.488a1.113 1.113 0 0 1-1.534.125l-.003-.003-3.998-3.305a1.025 1.025 0 0 1-.12-1.476 1.104 1.104 0 0 1 1.522-.116l.046.036M124.283 271.753l2.01 1.257 1.003.629c.337.205.665.427 1.01.618.498.275.68.903.404 1.402-.274.5-.9.68-1.398.405l-.004-.002-.027-.015c-.356-.199-.693-.428-1.04-.64l-1.032-.652-2.065-1.303a1.023 1.023 0 0 1 1.086-1.731l.053.032M134.266 277.057a77.652 77.652 0 0 0 4.658 1.792c.57.198.86.786.644 1.312-.215.527-.849.794-1.42.595a76.917 76.917 0 0 1-4.803-1.836c-.558-.235-.803-.842-.548-1.356.253-.516.912-.741 1.469-.507M144.868 280.866l4.714 1.095.064.015c.561.13.903.662.763 1.187-.138.526-.703.846-1.264.716l-4.846-1.115c-.565-.129-.91-.663-.772-1.191.139-.529.708-.852 1.273-.723h.003l.065.016M155.623 283.147l5.314.46.065.006c.62.054 1.07.508 1.004 1.013-.065.506-.619.874-1.24.82l-5.445-.458c-.626-.052-1.082-.508-1.017-1.018.064-.51.624-.881 1.25-.829l.004.001.065.005M166.908 283.995l4.855-.086.051-.001c.544-.01.99.471 1 1.074.008.6-.421 1.094-.96 1.11l-4.958.13c-.553.014-1.013-.472-1.026-1.087-.013-.614.425-1.124.979-1.139h.059M178.342 283.713l4.916-.565.045-.005c.525-.06 1.006.269 1.075.735.067.464-.3.89-.82.953l-5.003.612c-.536.065-1.03-.268-1.103-.744-.074-.475.3-.913.837-.979l.007-.001.046-.006M189.016 281.254l5.018-1.171.038-.009a.91.91 0 0 1 .426 1.769l-5.079 1.265a.947.947 0 0 1-.457-1.84l.009-.003.045-.011M200.392 278.514l4.557-1.5.029-.01a.77.77 0 0 1 .97.47.744.744 0 0 1-.471.944l-4.593 1.587a.805.805 0 0 1-1.023-.478.78.78 0 0 1 .489-.999l.007-.002.035-.012M211.097 274.932l4.678-1.772c.365-.138.791.003.952.318.16.31-.003.673-.36.814l-4.673 1.841c-.382.15-.833.006-1.008-.322-.175-.328-.007-.715.374-.866l.006-.002.03-.011M221.76 269.77l4.218-1.997.018-.008c.271-.128.609-.04.755.197.144.234.048.525-.214.656l-4.199 2.103c-.295.148-.67.059-.84-.2-.168-.258-.065-.587.23-.735l.01-.005.022-.01M231.667 264.43l3.78-2.813.012-.009c.185-.137.432-.077.552.134a.5.5 0 0 1-.108.624l-3.746 2.935c-.207.162-.489.102-.631-.134-.142-.236-.089-.558.118-.72l.007-.006.016-.012M240.829 257.794l1.764-1.593.004-.003c.117-.105.282-.077.37.064a.366.366 0 0 1-.047.439l-1.729 1.668c-.129.125-.317.1-.421-.056a.413.413 0 0 1 .047-.507l.007-.007.005-.005" fill="#FFF"/>
    </g>
</svg>
