<svg width="326" height="316" xmlns="http://www.w3.org/2000/svg">
    <g fill-rule="nonzero" fill="none">
        <path d="M277.878 155.126c-63.865-36.8-167.066-36.8-230.51 0-63.444 36.8-63.115 96.436.742 133.264 63.857 36.827 167.073 36.8 230.524 0 63.451-36.8 63.108-96.436-.756-133.264z" fill="#E5ECFF"/>
        <g fill="#C8D5FA">
            <path d="m132.623 270.92 39.708 22.879a14.028 14.028 0 0 0 14.046 0l31.704-18.407a3.493 3.493 0 0 0 0-6.052l-41.36-23.836-44.098 25.416z"/>
            <path d="m29.31 227.488 83.652 48.176a11.454 11.454 0 0 0 11.448 0l133.624-77.037a3.702 3.702 0 0 0 0-6.422l-86.123-49.692L29.31 224.679a1.62 1.62 0 0 0 0 2.81zM285.902 235.692c-15.292-8.812-40.002-8.812-55.19 0-15.186 8.812-15.11 23.061.176 31.901 15.285 8.84 40.002 8.812 55.189 0 15.187-8.812 15.11-23.096-.175-31.9z"/>
            <path d="m86.256 249.305 6.302 3.634-28.764 16.583c-.866.5-1.934.5-2.8 0l-2.801-1.614a1.397 1.397 0 0 1 0-2.425l28.063-16.178z"/>
        </g>
        <path d="M28.56 215.05c-.097-1 .512-2.02 1.842-2.796l131.454-75.751a9.82 9.82 0 0 1 8.885 0l83.456 48.4a3.18 3.18 0 0 1 1.816 2.46V195.313c.04.965-.57 1.937-1.85 2.67l-131.476 75.73a9.82 9.82 0 0 1-8.885 0l-83.449-48.371a3.16 3.16 0 0 1-1.82-2.453v-7.834l.028-.007z" fill="#455A64"/>
        <path d="m254.141 190.053-131.454 75.751a9.82 9.82 0 0 1-8.885 0l-83.449-48.4a3.236 3.236 0 0 1-1.792-2.355c-.098-.999.51-2.02 1.841-2.795l131.454-75.751a9.82 9.82 0 0 1 8.885 0l83.456 48.4a3.173 3.173 0 0 1 1.814 2.46V187.536c-.05.923-.666 1.824-1.87 2.516z" fill="#FFF" opacity=".3"/>
        <path d="M164.979 160.025a.58.58 0 0 0 0 1.09l5.447 3.159c.591.294 1.286.294 1.877 0l16.447-9.476c.519-.3.526-.783 0-1.083l-5.447-3.166a2.048 2.048 0 0 0-1.87 0l-16.454 9.476zM167.065 149.046a.566.566 0 0 0 0 1.077l5.448 3.158a2.048 2.048 0 0 0 1.87 0l5.91-3.396a.573.573 0 0 0 0-1.083l-5.448-3.159a2.104 2.104 0 0 0-1.877 0l-5.903 3.403zM157.9 154.323c-.518.3-.525.782 0 1.083l5.447 3.158a2.048 2.048 0 0 0 1.87 0l5.91-3.403a.573.573 0 0 0 0-1.083l-5.448-3.159a2.104 2.104 0 0 0-1.876 0l-5.903 3.404zM121.238 175.448a.573.573 0 0 0 0 1.083l5.44 3.158c.591.295 1.286.295 1.877 0l5.903-3.403c.518-.3.525-.782 0-1.083l-5.448-3.159a2.048 2.048 0 0 0-1.87 0l-5.902 3.404zM112.08 180.73a.566.566 0 0 0 0 1.077l5.447 3.159a2.048 2.048 0 0 0 1.87 0l5.91-3.397a.573.573 0 0 0 0-1.083l-5.441-3.159a2.104 2.104 0 0 0-1.877 0l-5.91 3.404zM105.91 177.153a.566.566 0 0 0 0 1.076l3.173 1.845c.59.294 1.285.294 1.876 0l5.903-3.403a.573.573 0 0 0 0-1.084l-3.151-1.823a2.104 2.104 0 0 0-1.877 0l-5.923 3.389zM115.07 171.87a.573.573 0 0 0 0 1.083l3.15 1.83c.589.293 1.28.293 1.87 0l5.902-3.402a.573.573 0 0 0 0-1.084l-3.15-1.83a2.048 2.048 0 0 0-1.87 0l-5.903 3.403zM124.242 166.587a.573.573 0 0 0 0 1.083l3.15 1.83a2.048 2.048 0 0 0 1.87 0l5.903-3.402a.573.573 0 0 0 0-1.084l-3.151-1.83a2.104 2.104 0 0 0-1.87 0l-5.902 3.403zM141.6 183.281a.573.573 0 0 0 0 1.084l5.447 3.158a2.048 2.048 0 0 0 1.87 0l5.91-3.403a.566.566 0 0 0 0-1.076l-5.441-3.159a2.104 2.104 0 0 0-1.877 0l-5.91 3.396zM128.765 180.898a.573.573 0 0 0 0 1.084l5.448 3.158a2.048 2.048 0 0 0 1.869 0l5.91-3.403a.573.573 0 0 0 0-1.083l-5.448-3.159a2.104 2.104 0 0 0-1.876 0l-5.903 3.403zM41.76 214.113c-.519.3-.526.783 0 1.083l3.15 1.831a2.048 2.048 0 0 0 1.87 0l5.902-3.41a.573.573 0 0 0 0-1.083l-3.116-1.824a2.104 2.104 0 0 0-1.876 0l-5.93 3.403zM174.242 184.966c-.518.3-.525.782 0 1.083l5.448 3.158a2.048 2.048 0 0 0 1.87 0l5.902-3.403c.518-.3.525-.783 0-1.083l-5.44-3.159a2.104 2.104 0 0 0-1.877 0l-5.903 3.404zM119.256 216.678a.573.573 0 0 0 0 1.083l5.448 3.158a2.048 2.048 0 0 0 1.87 0l5.902-3.403c.518-.3.525-.782 0-1.083l-5.447-3.159a2.048 2.048 0 0 0-1.87 0l-5.903 3.404zM96.745 182.429c-.518.3-.525.782 0 1.083l3.151 1.83c.59.295 1.286.295 1.877 0l5.902-3.402c.518-.3.525-.783 0-1.084l-3.15-1.83a2.104 2.104 0 0 0-1.877 0l-5.903 3.403zM50.925 208.837a.566.566 0 0 0 0 1.076l3.15 1.831c.591.294 1.286.294 1.877 0l5.903-3.403a.573.573 0 0 0 0-1.083l-3.151-1.824a2.104 2.104 0 0 0-1.877 0l-5.902 3.403zM146.893 170.472a.573.573 0 0 0 0 1.083l5.447 3.159c.591.294 1.286.294 1.877 0l5.903-3.403c.518-.3.525-.783 0-1.083l-5.448-3.16a2.104 2.104 0 0 0-1.876 0l-5.903 3.404zM137.79 175.685a.573.573 0 0 0 0 1.083l5.448 3.16c.59.293 1.286.293 1.876 0l5.903-3.404a.573.573 0 0 0 0-1.083l-5.447-3.159a2.104 2.104 0 0 0-1.877 0l-5.903 3.403zM150.492 178.16a.573.573 0 0 0 0 1.09l5.447 3.158c.59.292 1.281.292 1.87 0l5.903-3.403c.518-.3.525-.783 0-1.084l-5.448-3.158a2.104 2.104 0 0 0-1.883 0l-5.89 3.396zM201.732 169.151a.573.573 0 0 0 0 1.084l5.44 3.158c.591.294 1.286.294 1.877 0l5.902-3.403c.519-.3.526-.783 0-1.083l-5.447-3.159a2.104 2.104 0 0 0-1.87 0l-5.902 3.403zM192.566 174.434a.573.573 0 0 0 0 1.084l5.44 3.158c.592.295 1.287.295 1.877 0l5.903-3.403c.518-.3.525-.783 0-1.083l-5.447-3.159a2.048 2.048 0 0 0-1.87 0l-5.903 3.403z" fill="#37474F"/>
        <g fill="#37474F">
            <path d="M168.256 167.921a.573.573 0 0 0 0 1.084l5.447 3.158a2.048 2.048 0 0 0 1.87 0l5.91-3.403c.518-.293.518-.776 0-1.076l-5.441-3.159a2.104 2.104 0 0 0-1.877 0l-5.91 3.396zM181.846 170.353a.573.573 0 0 0 0 1.083l5.448 3.16c.59.293 1.286.293 1.876 0l16.917-9.784c.518-.3.525-.783 0-1.083l-5.447-3.16a2.104 2.104 0 0 0-1.877 0l-16.917 9.784zM159.37 173.044a.573.573 0 0 0 0 1.083l5.448 3.152a2.048 2.048 0 0 0 1.87 0l5.902-3.404a.573.573 0 0 0 0-1.083l-5.448-3.158a2.104 2.104 0 0 0-1.876 0l-5.896 3.41zM172.723 175.608a.573.573 0 0 0 0 1.084l5.44 3.158c.591.295 1.286.295 1.877 0l5.903-3.403c.518-.3.525-.783 0-1.083l-5.44-3.159a2.104 2.104 0 0 0-1.877 0l-5.903 3.403zM163.838 180.724a.58.58 0 0 0 0 1.09l5.461 3.152c.59.294 1.286.294 1.877 0l5.902-3.397c.518-.3.525-.782 0-1.083l-5.44-3.159a2.104 2.104 0 0 0-1.884 0l-5.916 3.397z"/>
        </g>
        <path d="M177.435 162.603a.58.58 0 0 0 0 1.09l5.448 3.16c.589.291 1.28.291 1.87 0l12.456-7.185a.566.566 0 0 0 0-1.076l-5.448-3.158a2.104 2.104 0 0 0-1.876 0l-12.45 7.17zM155.904 165.259a.573.573 0 0 0 0 1.083l5.44 3.159c.592.294 1.287.294 1.877 0l5.903-3.403c.518-.3.525-.783 0-1.084l-5.426-3.158a2.104 2.104 0 0 0-1.877 0l-5.917 3.403zM110.09 221.96a.573.573 0 0 0 0 1.084l5.448 3.158c.59.292 1.281.292 1.87 0l5.903-3.403a.573.573 0 0 0 0-1.083l-5.448-3.159a2.048 2.048 0 0 0-1.87 0l-5.902 3.404zM104.517 229.78c-.518.3-.525.783 0 1.084l1.457.845c.59.294 1.286.294 1.876 0l6.414-3.697a.573.573 0 0 0 0-1.083l-1.456-.845a2.104 2.104 0 0 0-1.877 0l-6.414 3.696zM92.754 221.688a.573.573 0 0 0 0 1.083l5.448 3.159a2.048 2.048 0 0 0 1.87 0l5.902-3.403a.573.573 0 0 0 0-1.083l-5.448-3.16a2.104 2.104 0 0 0-1.876 0l-5.896 3.404zM64.852 227.51a.573.573 0 0 0 0 1.082l5.44 3.194c.59.294 1.286.294 1.877 0l11.567-6.667a.573.573 0 0 0 0-1.083l-5.462-3.193a2.048 2.048 0 0 0-1.87 0l-11.552 6.666zM73.723 232.653a.573.573 0 0 0 0 1.083l5.448 3.158c.59.295 1.285.295 1.876 0l16.048-9.245c.519-.3.526-.783 0-1.083l-5.447-3.166a2.104 2.104 0 0 0-1.877 0l-16.048 9.253zM79.402 219.123a.573.573 0 0 0 0 1.084l5.447 3.158a2.048 2.048 0 0 0 1.87 0l5.91-3.403a.573.573 0 0 0 0-1.083l-5.441-3.166a2.104 2.104 0 0 0-1.877 0l-5.91 3.41zM101.64 216.566a.573.573 0 0 0 0 1.083l5.447 3.159a2.048 2.048 0 0 0 1.87 0l5.902-3.404a.573.573 0 0 0 0-1.083l-5.447-3.158a2.048 2.048 0 0 0-1.87 0l-5.902 3.403zM88.294 214.001a.573.573 0 0 0 0 1.083l5.447 3.159a2.048 2.048 0 0 0 1.87 0l5.91-3.403a.573.573 0 0 0 0-1.083l-5.448-3.159a2.104 2.104 0 0 0-1.876 0l-5.903 3.403zM110.525 211.444a.58.58 0 0 0 0 1.09l5.44 3.158c.591.295 1.286.295 1.877 0l5.903-3.403c.518-.3.525-.79 0-1.083l-5.434-3.18a2.104 2.104 0 0 0-1.883 0l-5.903 3.418zM97.18 208.886a.573.573 0 0 0 0 1.083l5.447 3.159c.589.292 1.28.292 1.87 0l5.902-3.404c.525-.3.532-.782 0-1.083l-5.447-3.158a2.104 2.104 0 0 0-1.884 0l-5.889 3.403zM154.952 185.846a.573.573 0 0 0 0 1.083l5.448 3.159a2.048 2.048 0 0 0 1.87 0l5.902-3.403a.573.573 0 0 0 0-1.084l-5.448-3.158a2.104 2.104 0 0 0-1.876 0l-5.896 3.403zM130.41 170.165a.573.573 0 0 0 0 1.083l5.441 3.158c.59.295 1.286.295 1.876 0l5.903-3.403c.518-.3.525-.782 0-1.083l-5.447-3.124a2.104 2.104 0 0 0-1.87 0l-5.903 3.369zM183.4 179.717a.573.573 0 0 0 0 1.077l5.448 3.158c.591.295 1.286.295 1.877 0l5.903-3.403a.566.566 0 0 0 0-1.076l-5.448-3.159a2.048 2.048 0 0 0-1.87 0l-5.91 3.403zM95.548 234.945a.573.573 0 0 0 0 1.083l1.456.845a2.048 2.048 0 0 0 1.87 0l6.42-3.696a.573.573 0 0 0 0-1.084l-1.456-.845a2.048 2.048 0 0 0-1.87 0l-6.42 3.697zM86.586 240.116a.573.573 0 0 0 0 1.083l1.456.846c.589.292 1.28.292 1.87 0l6.42-3.704a.573.573 0 0 0 0-1.083l-1.456-.846a2.104 2.104 0 0 0-1.877 0l-6.413 3.704zM91.578 232.632c-.518.3-.525.782 0 1.083l1.456.845c.591.295 1.286.295 1.877 0l6.414-3.696c.518-.3.525-.783 0-1.084l-1.457-.845a2.104 2.104 0 0 0-1.876 0l-6.414 3.697zM179.71 196.754l23.331 13.53a1.18 1.18 0 0 1 0 2.04l-39.12 22.537a2.953 2.953 0 0 1-2.954 0l-23.33-13.557a1.174 1.174 0 0 1 0-2.034l39.112-22.543a2.953 2.953 0 0 1 2.962.027z" fill="#37474F"/>
        <path d="m122.687 265.804 131.454-75.751c1.204-.699 1.82-1.593 1.856-2.502v7.778c.042.964-.567 1.936-1.849 2.67l-131.46 75.716a8.927 8.927 0 0 1-4.09 1.048v-7.918a8.927 8.927 0 0 0 4.09-1.04z" fill="#FFF" opacity=".1"/>
        <path d="M28.56 215.05a3.236 3.236 0 0 0 1.814 2.354l83.449 48.4a9.209 9.209 0 0 0 4.796 1.041v7.946a9.216 9.216 0 0 1-4.796-1.048l-83.47-48.4a3.16 3.16 0 0 1-1.82-2.453v-7.834l.028-.007z" fill="#000" opacity=".2"/>
        <path d="M175.363 235.657v1.02c0 1.398.994 1.964 2.22 1.259l20.459-11.74a4.82 4.82 0 0 0 2.198-3.802v-1.09l-24.877 14.353zM27.391 97.858l131.692-75.912a3.935 3.935 0 0 1 4.033.035l2.801 1.831a3.919 3.919 0 0 1 1.8 3.313v100.384c0 3.688-1.974 7.095-5.175 8.938L30.83 212.359a3.942 3.942 0 0 1-4.11-.084l-2.759-1.817a3.919 3.919 0 0 1-1.701-3.277V106.796a10.325 10.325 0 0 1 5.132-8.938z" fill="#37474F"/>
        <path d="M158.936 130.262a3.184 3.184 0 0 0 1.59-2.753V32.624L33.609 105.79a3.185 3.185 0 0 0-1.59 2.746v94.885l126.917-73.159z" fill="#407BFF"/>
        <path d="M158.936 130.262a3.184 3.184 0 0 0 1.59-2.753V32.624L33.609 105.79a3.185 3.185 0 0 0-1.59 2.746v94.885l126.917-73.159z" fill="#000" opacity=".3"/>
        <path d="M158.936 130.262a3.184 3.184 0 0 0 1.59-2.753V32.624L33.609 105.79a3.185 3.185 0 0 0-1.59 2.746v94.885l126.917-73.159z" fill="#FFF" opacity=".1"/>
        <path d="m27.391 97.858 131.692-75.912a3.935 3.935 0 0 1 4.033.035l2.801 1.831a3.942 3.942 0 0 0-4.201-.126L30.031 99.598a10.321 10.321 0 0 0-4.313 4.836l-2.717-1.565a10.356 10.356 0 0 1 4.39-5.01z" fill="#FFF" opacity=".3"/>
        <path d="M25.718 104.434a10.297 10.297 0 0 0-.854 4.102v100.385a3.912 3.912 0 0 0 1.855 3.354l-2.759-1.817a3.918 3.918 0 0 1-1.701-3.277V106.796c0-1.347.264-2.681.777-3.927l2.682 1.565z" fill="#FFF" opacity=".1"/>
        <path d="M142.566 156.028c-.518.3-.525.782 0 1.083l3.15 1.83c.591.295 1.286.295 1.877 0l5.903-3.403c.518-.3.525-.782 0-1.083l-3.151-1.83a2.104 2.104 0 0 0-1.877 0l-5.902 3.403zM148.734 159.606c-.518.3-.525.782 0 1.083l5.448 3.158a2.048 2.048 0 0 0 1.87 0l5.91-3.403a.573.573 0 0 0 0-1.083l-5.441-3.159a2.104 2.104 0 0 0-1.877 0l-5.91 3.404zM133.407 161.31a.566.566 0 0 0 0 1.077l3.151 1.83a2.048 2.048 0 0 0 1.87 0l5.902-3.402a.573.573 0 0 0 0-1.084l-3.15-1.824a2.048 2.048 0 0 0-1.87 0l-5.903 3.404zM139.576 164.889a.566.566 0 0 0 0 1.076l5.447 3.158a2.048 2.048 0 0 0 1.87 0l5.903-3.396c.518-.3.525-.783 0-1.083l-5.448-3.159a2.048 2.048 0 0 0-1.87 0l-5.902 3.404zM160.897 145.469a.566.566 0 0 0 0 1.076l3.15 1.83c.591.295 1.286.295 1.877 0l5.903-3.403a.573.573 0 0 0 0-1.083l-3.151-1.824a2.104 2.104 0 0 0-1.877 0l-5.902 3.404zM151.731 150.724c-.518.3-.525.782 0 1.083l3.151 1.83c.59.295 1.286.295 1.877 0l5.902-3.403c.518-.3.525-.782 0-1.083l-3.15-1.83a2.104 2.104 0 0 0-1.877 0l-5.903 3.403zM102.914 186.007c-.518.3-.525.782 0 1.083l5.447 3.159a2.048 2.048 0 0 0 1.87 0l5.91-3.404a.573.573 0 0 0 0-1.083l-5.44-3.158a2.104 2.104 0 0 0-1.877 0l-5.91 3.403zM119.712 186.112a.573.573 0 0 0 0 1.083l5.447 3.158c.589.292 1.28.292 1.87 0l5.91-3.403a.573.573 0 0 0 0-1.083l-5.441-3.159a2.104 2.104 0 0 0-1.877 0l-5.91 3.404zM87.58 187.712c-.518.3-.525.783 0 1.083l3.15 1.83c.591.295 1.286.295 1.877 0l5.903-3.402c.518-.3.525-.783 0-1.083l-3.151-1.831a2.104 2.104 0 0 0-1.877 0l-5.902 3.403zM132.714 188.404a.573.573 0 0 0 0 1.083l5.448 3.158a2.048 2.048 0 0 0 1.87 0l5.902-3.403a.573.573 0 0 0 0-1.083L140.486 185a2.048 2.048 0 0 0-1.87 0l-5.902 3.404zM146.067 190.968a.573.573 0 0 0 0 1.083l5.44 3.16c.591.293 1.286.293 1.877 0l5.902-3.404c.518-.3.525-.783 0-1.083l-5.447-3.159a2.104 2.104 0 0 0-1.877 0l-5.895 3.403zM93.748 191.29c-.518.3-.525.782 0 1.083l5.448 3.159a2.048 2.048 0 0 0 1.87 0l5.91-3.404a.573.573 0 0 0 0-1.083l-5.441-3.158a2.104 2.104 0 0 0-1.877 0l-5.91 3.403zM110.665 191.325a.573.573 0 0 0 0 1.083l5.448 3.159c.588.292 1.28.292 1.87 0l5.902-3.404a.573.573 0 0 0 0-1.083l-5.448-3.159a2.048 2.048 0 0 0-1.87 0l-5.902 3.404zM78.414 192.995c-.518.293-.518.776 0 1.076l3.151 1.83a2.048 2.048 0 0 0 1.87 0l5.902-3.402a.573.573 0 0 0 0-1.083l-3.15-1.824a2.048 2.048 0 0 0-1.87 0l-5.903 3.403zM123.836 193.519a.573.573 0 0 0 0 1.09l5.447 3.159c.59.294 1.286.294 1.877 0l5.895-3.396c.525-.301.532-.783 0-1.084l-5.447-3.158a2.104 2.104 0 0 0-1.884 0l-5.888 3.389zM137.181 196.084a.58.58 0 0 0 0 1.09l5.44 3.165c.592.295 1.287.295 1.877 0l5.903-3.396c.518-.3.525-.783 0-1.083l-5.44-3.159a2.104 2.104 0 0 0-1.884 0l-5.896 3.383zM84.576 196.573a.566.566 0 0 0 0 1.076l5.44 3.159c.591.294 1.286.294 1.877 0l5.903-3.397c.518-.3.525-.782 0-1.083l-5.448-3.158a2.048 2.048 0 0 0-1.87 0l-5.902 3.403zM101.626 196.53a.573.573 0 0 0 0 1.091l5.447 3.159c.59.294 1.286.294 1.877 0l5.895-3.404c.525-.3.532-.782 0-1.083l-5.447-3.158a2.104 2.104 0 0 0-1.884 0l-5.888 3.396zM114.95 198.641a.573.573 0 0 0 0 1.083l5.448 3.16a2.048 2.048 0 0 0 1.87 0l5.909-3.404a.573.573 0 0 0 0-1.083l-5.448-3.159a2.104 2.104 0 0 0-1.876 0l-5.903 3.403zM128.296 201.206a.573.573 0 0 0 0 1.083l5.447 3.159a2.048 2.048 0 0 0 1.87 0l5.903-3.403a.573.573 0 0 0 0-1.084l-5.448-3.158a2.104 2.104 0 0 0-1.876 0l-5.896 3.403zM92.58 201.737a.573.573 0 0 0 0 1.09l5.44 3.159c.59.294 1.285.294 1.876 0l5.903-3.403c.518-.3.525-.783 0-1.084l-5.448-3.158a2.104 2.104 0 0 0-1.883 0l-5.889 3.396zM75.418 201.849a.573.573 0 0 0 0 1.083l5.44 3.159c.59.294 1.286.294 1.876 0l5.903-3.404c.518-.3.525-.782 0-1.083l-5.461-3.158a2.104 2.104 0 0 0-1.87 0l-5.888 3.403zM106.058 203.764a.573.573 0 0 0 0 1.083l5.447 3.158a2.048 2.048 0 0 0 1.87 0l5.91-3.403a.573.573 0 0 0 0-1.083l-5.441-3.18a2.104 2.104 0 0 0-1.877 0l-5.91 3.425zM119.41 206.328a.573.573 0 0 0 0 1.083l5.448 3.159a2.048 2.048 0 0 0 1.87 0l5.902-3.403c.518-.3.525-.783 0-1.083l-5.447-3.159a2.104 2.104 0 0 0-1.877 0l-5.896 3.403zM83.526 206.957a.58.58 0 0 0 0 1.09l5.447 3.159c.589.292 1.28.292 1.87 0l5.91-3.403a.573.573 0 0 0 0-1.083l-5.441-3.16a2.104 2.104 0 0 0-1.877 0l-5.91 3.397zM66.252 207.132a.573.573 0 0 0 0 1.083l5.44 3.159c.591.294 1.286.294 1.877 0l5.903-3.404c.518-.3.525-.782 0-1.083l-5.448-3.158a2.048 2.048 0 0 0-1.87 0l-5.902 3.403zM128.415 211.395a.573.573 0 0 0 0 1.083l5.447 3.158c.591.295 1.286.295 1.877 0l42.558-24.52a.573.573 0 0 0 0-1.084l-5.448-3.159a2.048 2.048 0 0 0-1.87 0l-42.564 24.522zM74.48 212.17a.58.58 0 0 0 0 1.09l5.447 3.16c.589.291 1.28.291 1.87 0l5.902-3.404c.518-.3.525-.783 0-1.083l-5.44-3.159a2.104 2.104 0 0 0-1.877 0l-5.903 3.396zM65.433 217.383a.58.58 0 0 0 0 1.09l5.447 3.16c.59.291 1.281.291 1.87 0l5.902-3.404a.573.573 0 0 0 0-1.083l-5.447-3.159a2.104 2.104 0 0 0-1.877 0l-5.895 3.396zM47.928 217.69c-.518.301-.525.784 0 1.084l5.448 3.159a2.048 2.048 0 0 0 1.869 0l15.075-8.68a.573.573 0 0 0 0-1.083l-5.44-3.158a2.104 2.104 0 0 0-1.877 0l-15.075 8.679zM56.386 222.597a.58.58 0 0 0 0 1.09l5.448 3.158c.589.292 1.28.292 1.87 0l5.902-3.403a.573.573 0 0 0 0-1.083l-5.44-3.152a2.104 2.104 0 0 0-1.877 0l-5.903 3.39zM69.249 198.243a.573.573 0 0 0 0 1.083l3.15 1.831a2.048 2.048 0 0 0 1.87 0l5.903-3.403a.573.573 0 0 0 0-1.083l-3.151-1.831a2.104 2.104 0 0 0-1.87 0l-5.902 3.403zM60.07 203.554a.573.573 0 0 0 0 1.083l3.15 1.831c.589.292 1.28.292 1.87 0l5.902-3.403a.573.573 0 0 0 0-1.083l-3.15-1.831a2.048 2.048 0 0 0-1.87 0l-5.903 3.403z" fill="#37474F"/>
        <g>
            <path d="m189.08 33.176.273 96.01a5.987 5.987 0 0 1-2.724 4.703L51.373 211.828v3.089l-3.312-2.097-.098-.056a1.955 1.955 0 0 1-.7-1.677l-.28-100.119 3.41 2.152 138.686-79.944z" fill="#F5F5F5"/>
            <path d="m49.671 102.08 136.643-78.736a1.816 1.816 0 0 1 2.1-.063l3.235 2.027-2.59 1.474v6.408L50.378 113.1l-3.41-2.153v-4.193a5.966 5.966 0 0 1 2.702-4.675z" fill="#407BFF"/>
            <path d="m50.379 113.1.28 100.119c0 1.733 1.232 2.424 2.738 1.558l136.642-78.728a5.987 5.987 0 0 0 2.723-4.703l-.28-100.12L50.38 113.1zM188.554 28.431a2.62 2.62 0 0 0-1.19 2.097c0 .754.54 1.062 1.197.699a2.612 2.612 0 0 0 1.19-2.097c0-.755-.539-1.055-1.197-.699zM185.081 30.45a2.633 2.633 0 0 0-1.19 2.097c0 .748.54 1.063 1.197.7a2.592 2.592 0 0 0 1.19-2.055c0-.818-.531-1.118-1.197-.741zM181.608 32.45a2.633 2.633 0 0 0-1.19 2.096c0 .755.54 1.062 1.197.699a2.585 2.585 0 0 0 1.19-2.055c0-.817-.531-1.118-1.197-.74z" fill="#F5F5F5"/>
            <path d="M189.724 25.496c1.512-.873 2.737-.174 2.744 1.552v4.193L50.33 113.12v-4.193a5.966 5.966 0 0 1 2.737-4.696l136.657-78.736zm-4.636 7.687a2.592 2.592 0 0 0 1.19-2.054c0-.762-.531-1.062-1.197-.7a2.633 2.633 0 0 0-1.19 2.097c0 .748.54 1.063 1.197.7m-3.5 1.998a2.585 2.585 0 0 0 1.19-2.055c0-.761-.532-1.062-1.198-.699a2.633 2.633 0 0 0-1.19 2.097c0 .755.54 1.062 1.197.699m6.974-4.04a2.612 2.612 0 0 0 1.19-2.096c0-.755-.539-1.055-1.197-.699a2.62 2.62 0 0 0-1.19 2.097c0 .754.54 1.062 1.197.699" fill="#407BFF"/>
            <path d="M189.724 25.496c1.512-.873 2.737-.174 2.744 1.552v4.193L50.33 113.12v-4.193a5.966 5.966 0 0 1 2.737-4.696l136.657-78.736zm-4.636 7.687a2.592 2.592 0 0 0 1.19-2.054c0-.762-.531-1.062-1.197-.7a2.633 2.633 0 0 0-1.19 2.097c0 .748.54 1.063 1.197.7m-3.5 1.998a2.585 2.585 0 0 0 1.19-2.055c0-.761-.532-1.062-1.198-.699a2.633 2.633 0 0 0-1.19 2.097c0 .755.54 1.062 1.197.699m6.974-4.04a2.612 2.612 0 0 0 1.19-2.096c0-.755-.539-1.055-1.197-.699a2.62 2.62 0 0 0-1.19 2.097c0 .754.54 1.062 1.197.699" opacity=".2" fill="#FFF"/>
            <path d="M50.659 213.219c-.06.64.202 1.268.7 1.677l-3.312-2.097-.098-.056a1.955 1.955 0 0 1-.7-1.677l-.28-100.119 3.41 2.153.28 100.119z" fill="#000" opacity=".1"/>
            <path d="m49.671 102.08 136.643-78.736a1.816 1.816 0 0 1 2.1-.063l3.221 2.027a1.936 1.936 0 0 0-1.918.202l-136.65 78.722a5.966 5.966 0 0 0-2.716 4.696v4.192l-3.41-2.152v-4.193a5.966 5.966 0 0 1 2.73-4.696z" fill="#FFF" opacity=".5"/>
            <path d="m158.096 76.39 5.07 10.301-4.013 2.306-.798-1.865-4.37 2.522-.77 2.74-3.941 2.27 4.992-16.072 3.83-2.201zm-3.039 9.456 2.24-1.293-1.127-2.676-1.113 3.969M144.491 83.917a8.54 8.54 0 0 1 4.348-1.356l-1.162 3.872a6.395 6.395 0 0 0-3.207.873c-1.141.657-1.498 1.244-1.491 1.684 0 1.58 6.365-3.403 6.379 1.468 0 2.418-1.779 5.472-5.357 7.533-1.911 1.104-3.858 1.691-5.013 1.545l1.24-3.977a6.74 6.74 0 0 0 3.801-.971c1.1-.629 1.492-1.125 1.492-1.58 0-1.656-6.358 3.334-6.372-1.593-.007-2.418 1.778-5.443 5.342-7.498zM167.626 70.884l.028 9.749 5.195-2.991.014 3.452-9.081 5.234-.042-13.2zM183.247 61.884l.014 3.354-5.546 3.193.007 1.559 4.874-2.81.007 3.194-4.874 2.81.007 1.74 5.763-3.32.007 3.354-9.572 5.514-.042-13.2zM148.573 116.132c1.33-.202 2.101.469 2.101 2.027 0 2.271-1.666 4.57-4.824 6.387l-6.421 3.704-.035-13.089 6.106-3.494c3.143-1.81 4.614-1.209 4.62.769a5.794 5.794 0 0 1-1.547 3.696zm-3.024 5.514a2.097 2.097 0 0 0 1.267-1.761c0-.699-.434-.776-1.274-.293l-2.311 1.334v2.048l2.31-1.328m-2.331-5.59v1.956l1.785-1.034a2.013 2.013 0 0 0 1.254-1.705c0-.636-.392-.74-1.26-.245l-1.786 1.028M161.296 102.547l.014 3.327-5.497 3.165.007 1.545 4.832-2.788.007 3.172-4.832 2.781.007 1.726 5.714-3.29.007 3.325-9.495 5.472-.035-13.089zM167.78 98.515a8.47 8.47 0 0 1 4.313-1.341l-1.155 3.864a6.178 6.178 0 0 0-3.18.867c-1.127.65-1.484 1.23-1.484 1.663 0 1.572 6.302-3.369 6.302 1.46 0 2.383-1.772 5.43-5.307 7.47-1.912 1.098-3.83 1.67-4.972 1.517l1.225-3.927a6.697 6.697 0 0 0 3.775-.965c1.085-.629 1.477-1.118 1.477-1.565 0-1.642-6.302 3.312-6.302-1.572-.007-2.425 1.772-5.43 5.308-7.47zM183.219 89.913l.014 3.424-3.34 1.922.028 9.671-3.844 2.209-.028-9.665-3.347 1.936-.014-3.424zM142.692 129.969c1.596-.923 2.626-.552 2.626.978a4.828 4.828 0 0 1-2.612 3.997l-.833.483v1.62l-1.982 1.098v-6.597l2.8-1.58zm-.12 3.333c.47-.23.773-.7.785-1.223 0-.482-.252-.629-.784-.321l-.7.405v1.545l.7-.406M150.24 130.172l1.211 1.341-2.1 1.195-.98-1.09-.526.3v1.657l-1.932 1.118v-6.604l2.8-1.593c1.604-.93 2.626-.552 2.626.978a4.189 4.189 0 0 1-1.1 2.698zm-1.667-.343c.475-.229.78-.704.792-1.23 0-.482-.26-.622-.792-.314l-.7.405v1.544l.7-.405M155.064 122.673c1.877-1.083 3.256-.426 3.263 1.58a6.63 6.63 0 0 1-3.242 5.325c-1.876 1.083-3.249.412-3.256-1.58a6.574 6.574 0 0 1 3.235-5.325zm0 5.102a2.794 2.794 0 0 0 1.282-2.39c0-1.028-.575-1.321-1.289-.909a2.794 2.794 0 0 0-1.288 2.39c0 1.027.581 1.32 1.295.909M161.856 118.907c1.926-1.111 3.256-.615 3.263 1.432a6.225 6.225 0 0 1-3.242 5.171l-2.836 1.629v-6.604l2.815-1.628zm-.063 4.891a2.725 2.725 0 0 0 1.4-2.355c0-1.013-.567-1.244-1.4-.768l-.812.468v3.124l.819-.469M171.4 113.421v3.627a5.393 5.393 0 0 1-2.801 4.745c-1.765 1.02-2.8.468-2.8-1.51v-3.633l1.939-1.119v3.564c0 1.014.336 1.195.882.888.631-.415.97-1.153.875-1.9v-3.565l1.905-1.097zM175.244 111.045c1.127-.65 2.016-.699 2.583-.168l-1.218 1.957a.989.989 0 0 0-1.26-.042 2.794 2.794 0 0 0-1.345 2.425c0 1.006.546 1.335 1.352.873.56-.365.998-.888 1.26-1.502l1.225.552a6.497 6.497 0 0 1-2.576 2.795c-1.849 1.07-3.214.42-3.221-1.607a6.525 6.525 0 0 1 3.2-5.283zM183.226 106.594v1.726l-1.68.971.013 4.878-1.946 1.118-.014-4.878-1.68.971-.008-1.726z" fill="#407BFF"/>
            <g opacity=".2" fill="#FFF">
                <path d="m158.096 76.39 5.07 10.301-4.013 2.306-.798-1.865-4.37 2.522-.77 2.74-3.941 2.27 4.992-16.072 3.83-2.201zm-3.039 9.456 2.24-1.293-1.127-2.676-1.113 3.969M144.491 83.917a8.54 8.54 0 0 1 4.348-1.356l-1.162 3.872a6.395 6.395 0 0 0-3.207.873c-1.141.657-1.498 1.244-1.491 1.684 0 1.58 6.365-3.403 6.379 1.468 0 2.418-1.779 5.472-5.357 7.533-1.911 1.104-3.858 1.691-5.013 1.545l1.24-3.977a6.74 6.74 0 0 0 3.801-.971c1.1-.629 1.492-1.125 1.492-1.58 0-1.656-6.358 3.334-6.372-1.593-.007-2.418 1.778-5.443 5.342-7.498zM167.626 70.884l.028 9.749 5.195-2.991.014 3.452-9.081 5.234-.042-13.2zM183.247 61.884l.014 3.354-5.546 3.193.007 1.559 4.874-2.81.007 3.194-4.874 2.81.007 1.74 5.763-3.32.007 3.354-9.572 5.514-.042-13.2zM148.573 116.132c1.33-.202 2.101.469 2.101 2.027 0 2.271-1.666 4.57-4.824 6.387l-6.421 3.704-.035-13.089 6.106-3.494c3.143-1.81 4.614-1.209 4.62.769a5.794 5.794 0 0 1-1.547 3.696zm-3.024 5.514a2.097 2.097 0 0 0 1.267-1.761c0-.699-.434-.776-1.274-.293l-2.311 1.334v2.048l2.31-1.328m-2.331-5.59v1.956l1.785-1.034a2.013 2.013 0 0 0 1.254-1.705c0-.636-.392-.74-1.26-.245l-1.786 1.028M161.296 102.547l.014 3.327-5.497 3.165.007 1.545 4.832-2.788.007 3.172-4.832 2.781.007 1.726 5.714-3.29.007 3.325-9.495 5.472-.035-13.089zM167.78 98.515a8.47 8.47 0 0 1 4.313-1.341l-1.155 3.864a6.178 6.178 0 0 0-3.18.867c-1.127.65-1.484 1.23-1.484 1.663 0 1.572 6.302-3.369 6.302 1.46 0 2.383-1.772 5.43-5.307 7.47-1.912 1.098-3.83 1.67-4.972 1.517l1.225-3.927a6.697 6.697 0 0 0 3.775-.965c1.085-.629 1.477-1.118 1.477-1.565 0-1.642-6.302 3.312-6.302-1.572-.007-2.425 1.772-5.43 5.308-7.47zM183.219 89.913l.014 3.424-3.34 1.922.028 9.671-3.844 2.209-.028-9.665-3.347 1.936-.014-3.424zM142.692 129.969c1.596-.923 2.626-.552 2.626.978a4.828 4.828 0 0 1-2.612 3.997l-.833.483v1.62l-1.982 1.098v-6.597l2.8-1.58zm-.12 3.333c.47-.23.773-.7.785-1.223 0-.482-.252-.629-.784-.321l-.7.405v1.545l.7-.406M150.24 130.172l1.211 1.341-2.1 1.195-.98-1.09-.526.3v1.657l-1.932 1.118v-6.604l2.8-1.593c1.604-.93 2.626-.552 2.626.978a4.189 4.189 0 0 1-1.1 2.698zm-1.667-.343c.475-.229.78-.704.792-1.23 0-.482-.26-.622-.792-.314l-.7.405v1.544l.7-.405M155.064 122.673c1.877-1.083 3.256-.426 3.263 1.58a6.63 6.63 0 0 1-3.242 5.325c-1.876 1.083-3.249.412-3.256-1.58a6.574 6.574 0 0 1 3.235-5.325zm0 5.102a2.794 2.794 0 0 0 1.282-2.39c0-1.028-.575-1.321-1.289-.909a2.794 2.794 0 0 0-1.288 2.39c0 1.027.581 1.32 1.295.909M161.856 118.907c1.926-1.111 3.256-.615 3.263 1.432a6.225 6.225 0 0 1-3.242 5.171l-2.836 1.629v-6.604l2.815-1.628zm-.063 4.891a2.725 2.725 0 0 0 1.4-2.355c0-1.013-.567-1.244-1.4-.768l-.812.468v3.124l.819-.469M171.4 113.421v3.627a5.393 5.393 0 0 1-2.801 4.745c-1.765 1.02-2.8.468-2.8-1.51v-3.633l1.939-1.119v3.564c0 1.014.336 1.195.882.888.631-.415.97-1.153.875-1.9v-3.565l1.905-1.097zM175.244 111.045c1.127-.65 2.016-.699 2.583-.168l-1.218 1.957a.989.989 0 0 0-1.26-.042 2.794 2.794 0 0 0-1.345 2.425c0 1.006.546 1.335 1.352.873.56-.365.998-.888 1.26-1.502l1.225.552a6.497 6.497 0 0 1-2.576 2.795c-1.849 1.07-3.214.42-3.221-1.607a6.525 6.525 0 0 1 3.2-5.283zM183.226 106.594v1.726l-1.68.971.013 4.878-1.946 1.118-.014-4.878-1.68.971-.008-1.726z"/>
            </g>
        </g>
        <g transform="translate(32.384)">
            <path d="m42.06 5.664.757-1.293-4.825-2.851C33.945-.842 28.337-.535 22.154 3.03 9.901 10.093-.035 27.277 0 41.33c0 6.793 2.374 11.622 6.176 14.012l.3.181.134.077 4.705 2.795.791-1.362c3.06.056 6.526-.909 10.195-3.02 12.254-7.064 22.19-24.248 22.19-38.294-.043-4.11-.911-7.491-2.43-10.056z" fill="#407BFF"/>
            <path d="m42.06 5.664.757-1.293-4.825-2.851C33.945-.842 28.337-.535 22.154 3.03 9.901 10.093-.035 27.277 0 41.33c0 6.793 2.374 11.622 6.176 14.012l.3.181.134.077 4.705 2.795.791-1.362c3.06.056 6.526-.909 10.195-3.02 12.254-7.064 22.19-24.248 22.19-38.294-.043-4.11-.911-7.491-2.43-10.056z" fill="#000" opacity=".3"/>
            <ellipse fill="#407BFF" transform="rotate(-59.826 26.57 31.541)" cx="26.571" cy="31.541" rx="6.663" ry="3.864"/>
            <path d="M26.93 10.856c9.858-5.681 17.882-1.118 17.917 10.196.035 11.314-7.94 25.087-17.806 30.748-9.865 5.66-17.882 1.146-17.91-10.168-.028-11.314 7.933-25.08 17.798-30.776zm.097 35.954c7.443-4.284 13.48-14.717 13.451-23.242-.028-8.526-6.092-11.992-13.535-7.687-7.443 4.304-13.471 14.675-13.45 23.25.02 8.574 6.098 11.984 13.534 7.686" fill="#FFF"/>
            <path d="M26.915 5.846c12.254-7.058 22.26-1.398 22.302 12.683.042 14.081-9.901 31.237-22.162 38.302-12.26 7.065-22.252 1.398-22.294-12.683C4.72 30.067 14.662 12.91 26.915 5.846zm.126 45.975c9.866-5.682 17.841-19.462 17.806-30.748-.035-11.286-8.059-15.898-17.918-10.217C17.071 16.538 9.096 30.318 9.13 41.632c.036 11.314 8.053 15.87 17.911 10.189" fill="#407BFF"/>
            <path d="M26.985 20.87c5.007-2.92 9.103-.566 9.103 5.213 0 5.78-4.04 12.83-9.103 15.724-5.062 2.893-9.102.559-9.102-5.207 0-5.765 4.04-12.83 9.102-15.73zm0 15.947a10.478 10.478 0 0 0 4.748-8.204c0-3.012-2.157-4.193-4.776-2.718a10.478 10.478 0 0 0-4.733 8.19c0 3.005 2.15 4.193 4.775 2.718" fill="#FFF"/>
            <path d="M26.943 15.853c7.443-4.291 13.514-.839 13.535 7.687.021 8.525-6.008 18.958-13.45 23.242-7.444 4.284-13.507.832-13.535-7.687-.028-8.518 6.007-18.945 13.45-23.242zm.07 25.94c5.035-2.907 9.103-9.958 9.103-15.724 0-5.765-4.124-8.12-9.13-5.199-5.007 2.921-9.103 9.951-9.103 15.73 0 5.78 4.103 8.1 9.102 5.207M51.079 44.099l6.666 3.864 7.576.447-6.666-3.864zM51.079 44.099v.866l6.666 3.865v-.867z" fill="#407BFF"/>
            <path fill="#407BFF" d="M65.32 48.41v.86l-7.575-.44v-.867z"/>
            <path d="m51.079 44.099 6.666 3.864 7.576.447-6.666-3.864z" opacity=".2" fill="#000"/>
            <path fill="#000" opacity=".4" d="M51.079 44.099v.866l6.666 3.865v-.867z"/>
            <path fill="#000" opacity=".3" d="M65.32 48.41v.86l-7.575-.44v-.867z"/>
            <path d="m60.392 52.114 1.134-1.95-33.798-19.566a.519.519 0 0 0-.589 0 1.76 1.76 0 0 0-.798 1.397c-.02.2.068.394.231.51l33.82 19.61z" fill="#455A64"/>
            <path d="M60.966 50.227c.434-.251.798-.049.798.455a1.76 1.76 0 0 1-.798 1.397c-.441.259-.799.05-.799-.454a1.74 1.74 0 0 1 .799-1.398z" fill="#455A64"/>
            <path d="M60.966 50.227c.434-.251.798-.049.798.455a1.76 1.76 0 0 1-.798 1.397c-.441.259-.799.05-.799-.454a1.74 1.74 0 0 1 .799-1.398z" opacity=".3" fill="#FFF"/>
            <path fill="#407BFF" d="m49.686 44.902.742 4.382 6.666 3.864-.743-4.381z"/>
            <path d="m49.686 44.902.742 4.382 6.666 3.864-.743-4.381z" opacity=".2" fill="#000"/>
            <path fill="#407BFF" d="m49.686 44.902.742 4.382v.866l-.742-4.381zM57.094 53.148v.867l-6.666-3.865v-.866z"/>
            <path fill="#000" opacity=".4" d="m49.686 44.902.742 4.382v.866l-.742-4.381z"/>
            <path fill="#000" opacity=".3" d="M57.094 53.148v.867l-6.666-3.865v-.866z"/>
        </g>
        <g>
            <path d="M118.451 113.33c-.357-1.244-2.892-3.62-5.42-3.572a2.31 2.31 0 0 0-.7.141l-49.013 27.848a4.757 4.757 0 0 0-2.373 4.067v105.87c0 2.697 3.115 5.27 6.042 4.032.066-.02.129-.045.19-.077l49.013-27.89a4.675 4.675 0 0 0 2.367-4.066V113.84a1.15 1.15 0 0 0-.106-.51z" fill="#407BFF"/>
            <path d="M118.451 113.33c-.357-1.244-2.892-3.62-5.42-3.572a2.31 2.31 0 0 0-.7.141l-49.013 27.848a4.757 4.757 0 0 0-2.373 4.067v105.87c0 2.697 3.115 5.27 6.042 4.032.066-.02.129-.045.19-.077l49.013-27.89a4.675 4.675 0 0 0 2.367-4.066V113.84a1.15 1.15 0 0 0-.106-.51z" fill="#FFF" opacity=".3"/>
            <path d="M67.771 153.009c0-.845.455-1.624 1.19-2.04l45.513-25.857a1.171 1.171 0 0 1 1.75 1.013v85.395c0 .843-.451 1.621-1.183 2.04L69.53 239.453a1.178 1.178 0 0 1-1.758-1.013v-85.43z" fill="#455A64"/>
            <path d="M60.917 141.814v105.87c0 2.697 3.115 5.27 6.042 4.032a1.171 1.171 0 0 1-1.568-1.09V144.742a4.662 4.662 0 0 1 .798-2.586l-4.803-2.397c-.31.64-.47 1.343-.47 2.055z" fill="#000" opacity=".3"/>
            <path d="M113.039 109.76c-.24.009-.476.056-.7.139l-49.014 27.848a4.665 4.665 0 0 0-1.883 2.012l4.803 2.397c.399-.612.94-1.12 1.575-1.481l49.014-27.848a1.164 1.164 0 0 1 1.624.503c-.357-1.244-2.892-3.62-5.42-3.57z" fill="#FFF" opacity=".1"/>
            <path d="M98.04 130.311c.344-.202.63-.049.63.35-.025.438-.256.84-.622 1.083l-9.621 5.541c-.35.203-.623 0-.623-.363.02-.435.249-.834.616-1.07l9.62-5.54zM85.976 137.278c.343-.202.624-.041.624.35a1.397 1.397 0 0 1-.617 1.083c-.35.196-.63.035-.63-.356.02-.439.253-.84.623-1.077zM92.11 129.5c.7-.39 1.24-.076 1.246.7a2.752 2.752 0 0 1-1.239 2.152c-.7.398-1.26.077-1.26-.699a2.731 2.731 0 0 1 1.253-2.152zM92.11 229.172c1.4-.81 2.535-.167 2.542 1.44a5.588 5.588 0 0 1-2.52 4.396c-1.401.803-2.57.146-2.57-1.461a5.588 5.588 0 0 1 2.548-4.375z" fill="#263238"/>
        </g>
        <g>
            <path d="m126.51 105.343-1.498-.797a.701.701 0 0 0-.7-.049l-25.816 14.675c-.425.23-.693.67-.7 1.153v30.587c.01.27.177.51.427.615l1.512.81c.2.103.437.103.637 0l25.816-14.674c.425-.23.693-.67.7-1.153v-30.573a.656.656 0 0 0-.378-.594z" fill="#407BFF"/>
            <path d="m126.51 105.343-1.498-.797a.701.701 0 0 0-.7-.049l-25.816 14.675c-.425.23-.693.67-.7 1.153v30.587c.01.27.177.51.427.615l1.512.81c.2.103.437.103.637 0l25.816-14.674c.425-.23.693-.67.7-1.153v-30.573a.656.656 0 0 0-.378-.594z" fill="#FFF" opacity=".6"/>
            <path d="M97.796 120.318v30.587c.01.27.177.51.427.615l1.512.81a.643.643 0 0 1-.329-.565V121.17a1.29 1.29 0 0 1 .105-.517l-1.582-.909a1.326 1.326 0 0 0-.133.573z" fill="#407BFF" opacity=".3"/>
            <path d="M125.012 104.546a.701.701 0 0 0-.7-.049l-25.816 14.675a1.35 1.35 0 0 0-.54.58l1.583.909a1.35 1.35 0 0 1 .567-.636l25.816-14.675a.645.645 0 0 1 .616 0l-1.526-.804z" fill="#FFF" opacity=".4"/>
            <path d="M115.58 116.049c.365-.21.764-.427 1.177-.63a17.95 17.95 0 0 1 1.211-.551v3.605a1.556 1.556 0 0 0-.371.133l-.47.252c-.327.197-.61.458-.832.768a1.898 1.898 0 0 0-.357 1.14v1.048l2.03-1.167v3.864l-2.03 1.167v13.417l-5.007 2.886-.042-13.41-1.722.993v-3.865l1.73-1v-1.23c-.01-.788.068-1.575.23-2.347.15-.673.413-1.315.777-1.9a7.174 7.174 0 0 1 1.4-1.636 14.496 14.496 0 0 1 2.276-1.537z" fill="#FFF"/>
            <path d="m90.878 140.241-1.506-.796a.66.66 0 0 0-.7-.05l-25.816 14.676a1.341 1.341 0 0 0-.7 1.16v30.587c.011.27.177.51.427.615l1.512.81a.652.652 0 0 0 .63 0l25.817-14.674a1.32 1.32 0 0 0 .7-1.153v-30.567a.657.657 0 0 0-.364-.608z" fill="#407BFF"/>
            <path d="m90.878 140.241-1.506-.796a.66.66 0 0 0-.7-.05l-25.816 14.676a1.341 1.341 0 0 0-.7 1.16v30.587c.011.27.177.51.427.615l1.512.81a.652.652 0 0 0 .63 0l25.817-14.674a1.32 1.32 0 0 0 .7-1.153v-30.567a.657.657 0 0 0-.364-.608z" fill="#FFF" opacity=".6"/>
            <path d="M62.17 155.231v30.587c.011.27.177.51.427.615l1.512.81a.657.657 0 0 1-.329-.572v-30.587c.002-.179.04-.355.112-.518l-1.582-.908c-.09.178-.137.374-.14.573z" fill="#407BFF" opacity=".3"/>
            <path d="M89.351 139.459a.66.66 0 0 0-.7-.05l-25.816 14.676c-.236.136-.424.34-.54.587l1.583.908c.113-.267.31-.49.56-.636l25.817-14.675a.701.701 0 0 1 .616 0l-1.52-.81z" fill="#FFF" opacity=".4"/>
            <path fill="#FFF" d="m72.477 158.9 13.45 1.153-13.394 16.618z"/>
            <path d="m135.088 146.426-1.499-.797a.66.66 0 0 0-.7-.049l-25.816 14.675c-.425.23-.693.671-.7 1.154v30.587c0 .273.17.518.427.615l1.512.81a.631.631 0 0 0 .63 0l25.817-14.675a1.32 1.32 0 0 0 .7-1.153V147.02a.657.657 0 0 0-.371-.594z" fill="#407BFF"/>
            <path d="m135.088 146.426-1.499-.797a.66.66 0 0 0-.7-.049l-25.816 14.675c-.425.23-.693.671-.7 1.154v30.587c0 .273.17.518.427.615l1.512.81a.631.631 0 0 0 .63 0l25.817-14.675a1.32 1.32 0 0 0 .7-1.153V147.02a.657.657 0 0 0-.371-.594z" fill="#FFF" opacity=".6"/>
            <path d="M106.38 161.402v30.587c0 .273.17.518.427.615l1.512.81a.657.657 0 0 1-.329-.566v-30.594c.002-.178.04-.354.112-.517l-1.582-.909c-.09.179-.137.374-.14.574z" fill="#407BFF" opacity=".3"/>
            <path d="M133.59 145.63a.66.66 0 0 0-.7-.05l-25.817 14.675a1.308 1.308 0 0 0-.539.58l1.582.909c.117-.265.312-.487.56-.636l25.817-14.675a.701.701 0 0 1 .616 0l-1.52-.804z" fill="#FFF" opacity=".4"/>
            <path d="M127.42 160.66c.645-.349 1.163-.041 1.156.7a2.606 2.606 0 0 1-1.17 2.005.701.701 0 0 1-1.148-.699c.05-.813.48-1.556 1.163-2.005z" fill="#FFF"/>
            <path d="M131.44 159.18c.039.25.092.497.16.74v10.433c-.064.26-.111.524-.14.79a11.392 11.392 0 0 1-3.584 6.29c-.252.223-.511.37-.763.614l-9.06 5.22a2.938 2.938 0 0 0-.624.203c-1.89.49-3.109-.182-3.662-2.027a3.488 3.488 0 0 0-.161-.698v-10.483c.063-.07.042-.125.049-.181a8.965 8.965 0 0 1 .567-2.3 10.577 10.577 0 0 1 4.404-5.485c1.107-.65 2.206-1.286 3.312-1.922l4.607-2.648a5.32 5.32 0 0 1 1.24-.552c1.883-.51 3.102.16 3.655 2.005zm-1.4 11.362v-9.008a3.606 3.606 0 0 0-.183-1.244c-.51-1.348-1.75-1.635-3.29-.747l-3.326 1.914-4.545 2.621a5.6 5.6 0 0 0-1.176.887 7.387 7.387 0 0 0-2.283 5.053v9.084c0 1.35.476 2.16 1.4 2.411a2.805 2.805 0 0 0 2.052-.46l1.317-.763 2.611-1.502c1.303-.75 2.603-1.5 3.9-2.25.442-.247.849-.55 1.212-.902a7.415 7.415 0 0 0 2.282-5.094" fill="#FFF"/>
            <path d="M122.603 164.98c2.549-1.461 4.643-.266 4.65 2.648a10.213 10.213 0 0 1-4.622 7.987c-2.548 1.468-4.642.273-4.649-2.648a10.227 10.227 0 0 1 4.621-7.988zm3.053 3.591c0-1.914-1.33-2.704-3.025-1.768l-.056.035a6.685 6.685 0 0 0-2.99 5.2c0 1.921 1.352 2.697 3.04 1.753a6.692 6.692 0 0 0 3.003-5.199" fill="#FFF"/>
            <path d="m100.113 181.912-1.505-.797a.66.66 0 0 0-.7-.049l-25.816 14.675a1.32 1.32 0 0 0-.7 1.153v30.594a.643.643 0 0 0 .42.608l1.512.81c.2.103.437.103.637 0l25.816-14.674c.425-.23.693-.67.7-1.153v-30.573a.657.657 0 0 0-.364-.594z" fill="#407BFF"/>
            <path d="m100.113 181.912-1.505-.797a.66.66 0 0 0-.7-.049l-25.816 14.675a1.32 1.32 0 0 0-.7 1.153v30.594a.643.643 0 0 0 .42.608l1.512.81c.2.103.437.103.637 0l25.816-14.674c.425-.23.693-.67.7-1.153v-30.573a.657.657 0 0 0-.364-.594z" fill="#FFF" opacity=".6"/>
            <path d="M71.405 196.88v30.594a.643.643 0 0 0 .42.608l1.513.81a.699.699 0 0 1-.33-.572v-30.58a1.29 1.29 0 0 1 .106-.517l-1.576-.909c-.085.177-.13.37-.133.566z" fill="#407BFF" opacity=".3"/>
            <path d="M98.615 181.115a.66.66 0 0 0-.7-.049l-25.816 14.675c-.238.134-.427.34-.54.587l1.576.909c.113-.27.313-.493.567-.636l25.816-14.675a.701.701 0 0 1 .616 0l-1.52-.811z" fill="#FFF" opacity=".4"/>
            <path d="M91.5 194.42a2.883 2.883 0 0 1 2.732-.342c.1.065.229.065.329 0l.147-.112a17.318 17.318 0 0 0 2.261-2.348 10.152 10.152 0 0 1-1.631 3.494c.238-.188.47-.363.7-.559.231-.195.49-.426.7-.65.21-.223.462-.46.7-.698h.043c-.316.614-.624 1.236-.96 1.837-.273.483-.588.937-.875 1.398a.74.74 0 0 0-.119.356 22.649 22.649 0 0 1-2.8 10.713 23.48 23.48 0 0 1-5.75 7.345 20.081 20.081 0 0 1-2.8 1.991 9.621 9.621 0 0 1-5.987 1.475l-.098-.035a9.97 9.97 0 0 0 .882-.475c.79-.454 1.528-.993 2.2-1.608a17.676 17.676 0 0 0 2.758-3.186c-1.828.873-3.053.531-3.732-1.048.267-.112.527-.24.777-.385.337-.201.654-.435.945-.699-.319.06-.642.093-.966.098a2.16 2.16 0 0 1-.882-.216 1.967 1.967 0 0 1-.7-.58 2.793 2.793 0 0 1-.428-.888 9.612 9.612 0 0 1-.196-1.153c.337-.049.617-.063.904-.133.302-.086.596-.203.875-.349-.96-.287-1.548-1.034-1.688-2.32a6.515 6.515 0 0 1 .512-3.096c2.163 1.663 4.9 1.691 8.24.035 0-.258-.062-.482-.076-.699a8.208 8.208 0 0 1 1.96-5.374 7.144 7.144 0 0 1 2.024-1.789z" fill="#FFF"/>
        </g>
        <g>
            <path d="m151.171 264.337 2.402-1.398a3.004 3.004 0 0 0 1.505-2.6v-28.763l-5.384 3.215-5.413-3.117v28.652a3.004 3.004 0 0 0 1.506 2.6l2.401 1.397a3.009 3.009 0 0 0 2.983.014z" fill="#407BFF"/>
            <path d="M155.078 231.576v28.777a3.004 3.004 0 0 1-1.505 2.6l-2.402 1.398c-.459.26-.977.398-1.505.398v-29.958l5.412-3.215z" fill="#FFF" opacity=".1"/>
            <path d="M149.694 234.79v29.945a3.047 3.047 0 0 1-1.506-.398l-2.401-1.398a3.004 3.004 0 0 1-1.506-2.6v-28.65l5.413 3.102z" fill="#FFF" opacity=".3"/>
            <path d="m145.297 198.886-.112-.07c-1.842-1.041-4.384-.88-7.184.699-5.602 3.235-10.146 11.076-10.132 17.512 0 3.159 1.12 5.395 2.906 6.464l14.017 7.974 13.675-24.836-13.17-7.743zm-16.322 17.47a10.357 10.357 0 0 0 0 .056v-.056z" fill="#407BFF"/>
            <path d="m145.297 198.886-.112-.07c-1.842-1.041-4.384-.88-7.184.699-5.602 3.235-10.146 11.076-10.132 17.512 0 3.159 1.12 5.395 2.906 6.464l14.017 7.974 13.675-24.836-13.17-7.743zm-16.322 17.47a10.357 10.357 0 0 0 0 .056v-.056z" fill="#FFF" opacity=".3"/>
            <path d="m159.825 203.372-.14-.09h-.035c-2.331-1.328-5.552-1.119-9.102.922-7.107 4.102-12.856 14.032-12.835 22.187 0 4.004 1.4 6.835 3.683 8.19 22.694 16.276 36.41 41.07 36.41 41.07l32.552-62.195c-11.812 2.62-34.057-.251-50.533-10.084z" fill="#407BFF"/>
            <path d="m159.825 203.372-.14-.09h-.035c-2.331-1.328-5.552-1.119-9.102.922-7.107 4.102-12.856 14.032-12.835 22.187 0 4.004 1.4 6.835 3.683 8.19 22.694 16.276 36.41 41.07 36.41 41.07l32.552-62.195c-11.812 2.62-34.057-.251-50.533-10.084z" fill="#FFF" opacity=".5"/>
            <path d="M179.34 257.118a33.66 33.66 0 0 1 0 0z" fill="#455A64"/>
            <path d="M220.826 223.743c-.372-.483-.78-.939-1.218-1.363l-.084-.07c-.406-.384-.841-.734-1.303-1.048a9.004 9.004 0 0 0-.749-.468 11.063 11.063 0 0 0-3.34-1.23 12.95 12.95 0 0 0-2.8-.238c-.676.017-1.35.078-2.017.182-.709.11-1.41.264-2.1.461-.358.105-.7.217-1.086.342-.76.26-1.505.558-2.234.895-.756.35-1.526.74-2.303 1.188a35.707 35.707 0 0 0-5.602 4.053c-.7.629-1.4 1.286-2.1 1.978-.7.692-1.366 1.397-2.017 2.145-.329.37-.651.748-.973 1.125a53.866 53.866 0 0 0-5.917 8.77 82.322 82.322 0 0 0-1.4 2.712c-.455.915-.833 1.83-1.211 2.76a47.452 47.452 0 0 0-2.234 6.988 40.141 40.141 0 0 0-.742 4.193 33.66 33.66 0 0 0-.252 4.074c.001 1.265.093 2.528.273 3.78.119.79.273 1.538.455 2.258.194.695.428 1.379.7 2.047.25.625.538 1.234.861 1.824a14.26 14.26 0 0 0 1.05 1.594 11.005 11.005 0 0 0 7.612 4.325 13.33 13.33 0 0 0 1.918.091 15.763 15.763 0 0 0 2.024-.182 17.73 17.73 0 0 0 2.1-.46c.357-.106.7-.218 1.086-.343a25.433 25.433 0 0 0 4.537-2.097 40.784 40.784 0 0 0 10.72-9.3c.315-.385.63-.777.938-1.168.616-.79 1.218-1.6 1.793-2.432a60.862 60.862 0 0 0 1.666-2.537c4.523-7.344 7.352-15.8 7.331-23.368a23.13 23.13 0 0 0-1.036-7.086 14.666 14.666 0 0 0-2.346-4.395z" fill="#407BFF"/>
            <path d="M220.826 223.743c-.372-.483-.78-.939-1.218-1.363l-.084-.07c-.406-.384-.841-.734-1.303-1.048a9.004 9.004 0 0 0-.749-.468 11.063 11.063 0 0 0-3.34-1.23 12.95 12.95 0 0 0-2.8-.238c-.676.017-1.35.078-2.017.182-.709.11-1.41.264-2.1.461-.358.105-.7.217-1.086.342-.76.26-1.505.558-2.234.895-.756.35-1.526.74-2.303 1.188a35.707 35.707 0 0 0-5.602 4.053c-.7.629-1.4 1.286-2.1 1.978-.7.692-1.366 1.397-2.017 2.145-.329.37-.651.748-.973 1.125a53.866 53.866 0 0 0-5.917 8.77 82.322 82.322 0 0 0-1.4 2.712c-.455.915-.833 1.83-1.211 2.76a47.452 47.452 0 0 0-2.234 6.988 40.141 40.141 0 0 0-.742 4.193 33.66 33.66 0 0 0-.252 4.074c.001 1.265.093 2.528.273 3.78.119.79.273 1.538.455 2.258.194.695.428 1.379.7 2.047.25.625.538 1.234.861 1.824a14.26 14.26 0 0 0 1.05 1.594 11.005 11.005 0 0 0 7.612 4.325 13.33 13.33 0 0 0 1.918.091 15.763 15.763 0 0 0 2.024-.182 17.73 17.73 0 0 0 2.1-.46c.357-.106.7-.218 1.086-.343a25.433 25.433 0 0 0 4.537-2.097 40.784 40.784 0 0 0 10.72-9.3c.315-.385.63-.777.938-1.168.616-.79 1.218-1.6 1.793-2.432a60.862 60.862 0 0 0 1.666-2.537c4.523-7.344 7.352-15.8 7.331-23.368a23.13 23.13 0 0 0-1.036-7.086 14.666 14.666 0 0 0-2.346-4.395z" fill="#000" opacity=".5"/>
            <path fill="#407BFF" d="m188.267 228.264 11.756 6.995-10.832 18.386-12.932-6.953z"/>
            <path fill="#000" opacity=".3" d="m188.267 228.264 11.756 6.995-10.832 18.386-12.932-6.953z"/>
            <path d="M200.899 236.098a3.734 3.734 0 0 0-.413-.462 3.017 3.017 0 0 0-.435-.356l-.252-.16a3.695 3.695 0 0 0-1.127-.413 4.3 4.3 0 0 0-.96-.084 5.844 5.844 0 0 0-.7.063c-.236.039-.47.093-.7.16l-.364.113c-.257.086-.51.186-.756.3a10.45 10.45 0 0 0-.777.405 12.28 12.28 0 0 0-1.89 1.398c-.246.21-.484.433-.7.664-.218.23-.456.475-.701.699l-.33.377a19.07 19.07 0 0 0-1.476 2.097 16.01 16.01 0 0 0-.98 1.803c-.148.307-.28.614-.407.929-.31.767-.561 1.556-.75 2.362-.076.314-.14.629-.188.936l-.063.468c-.056.464-.084.931-.084 1.398a8.174 8.174 0 0 0 .245 2.034 5.509 5.509 0 0 0 .511 1.314c.11.185.229.365.357.538a3.734 3.734 0 0 0 2.563 1.453c.214.026.429.037.644.035.234-.007.468-.028.7-.063.236-.04.47-.091.7-.154l.365-.118a8.41 8.41 0 0 0 1.526-.7 13.667 13.667 0 0 0 3.613-3.137l.322-.391a18.124 18.124 0 0 0 1.162-1.677 15.541 15.541 0 0 0 2.472-7.876c.009-.81-.11-1.616-.35-2.39a4.888 4.888 0 0 0-.777-1.565zM219.797 217.523l-.28-.16c.098.048.182.111.28.167v-.007z" fill="#407BFF"/>
            <path d="M176.259 262.82c-.042-16.072 11.273-35.64 25.27-43.676 7.002-4.025 13.303-4.423 17.925-1.823l-5.343-3.145c-4.607-2.635-10.965-2.243-17.974 1.796-14.003 8.064-25.312 27.624-25.263 43.676 0 7.75 2.69 13.277 7.002 15.989l.301.174.274.161 5.083 2.984c-4.488-2.677-7.233-8.246-7.275-16.136z" fill="#407BFF"/>
            <path d="M176.259 262.82c-.042-16.072 11.273-35.64 25.27-43.676 7.002-4.025 13.303-4.423 17.925-1.823l-5.343-3.145c-4.607-2.635-10.965-2.243-17.974 1.796-14.003 8.064-25.312 27.624-25.263 43.676 0 7.75 2.69 13.277 7.002 15.989l.301.174.274.161 5.083 2.984c-4.488-2.677-7.233-8.246-7.275-16.136z" fill="#FFF" opacity=".3"/>
            <path d="M219.797 217.53c-.098-.056-.182-.119-.28-.168l-.063-.041c-4.6-2.6-10.937-2.202-17.925 1.823-14.004 8.072-25.312 27.625-25.27 43.676 0 7.89 2.8 13.46 7.247 16.136 4.614 2.795 11.063 2.439 18.205-1.663 14.004-8.065 25.312-27.624 25.27-43.683-.042-7.834-2.773-13.382-7.184-16.08zm-2.997 41.076a51.062 51.062 0 0 1-1.666 2.537 62.209 62.209 0 0 1-1.793 2.432c-.308.391-.623.783-.938 1.167a40.784 40.784 0 0 1-10.72 9.301 25.433 25.433 0 0 1-4.537 2.097c-.364.125-.7.237-1.086.342-.69.196-1.391.35-2.1.461-.67.104-1.346.165-2.024.182a13.33 13.33 0 0 1-1.918-.09 11.005 11.005 0 0 1-7.611-4.326 14.26 14.26 0 0 1-1.05-1.594c-.324-.59-.611-1.2-.862-1.824a18.961 18.961 0 0 1-.7-2.047 22.167 22.167 0 0 1-.455-2.257 26.817 26.817 0 0 1-.273-3.781 33.66 33.66 0 0 1 .252-4.074 40.14 40.14 0 0 1 .742-4.193 47.452 47.452 0 0 1 2.234-6.988 50.73 50.73 0 0 1 1.21-2.76c.435-.909.89-1.817 1.401-2.712.511-.894.988-1.768 1.52-2.634a53.866 53.866 0 0 1 4.397-6.136c.322-.377.644-.755.973-1.125.651-.74 1.33-1.46 2.017-2.145.686-.685 1.4-1.349 2.1-1.978a35.707 35.707 0 0 1 5.602-4.053 28.965 28.965 0 0 1 2.303-1.188 23.252 23.252 0 0 1 2.234-.895c.364-.125.7-.237 1.085-.342.69-.197 1.392-.35 2.1-.461a15.658 15.658 0 0 1 2.017-.182 12.95 12.95 0 0 1 2.801.238c1.173.227 2.3.642 3.34 1.23.26.146.511.3.75.468.46.314.896.664 1.302 1.048l.084.07c.438.424.845.88 1.218 1.363a14.665 14.665 0 0 1 2.269 4.41 23.13 23.13 0 0 1 1.036 7.085c.098 7.554-2.73 16.01-7.254 23.354z" fill="#407BFF"/>
        </g>
        <g>
            <path d="m263.384 111.339.994.153a13.06 13.06 0 0 1 10.44 8.673l6.946 20.21-8.207 3.759-6.896-15.192-3.277-17.603z" fill="#455A64"/>
            <path d="m263.384 111.339.994.153a13.06 13.06 0 0 1 10.44 8.673l6.946 20.21-8.207 3.759-6.896-15.192-3.277-17.603z" fill="#FFF" opacity=".1"/>
            <path d="M277.296 248.138a6.814 6.814 0 0 1-5.097 1.866 15.47 15.47 0 0 1-5.391-1.356c-1.723-.698-3.886-2.69-5.749-2.648a45.734 45.734 0 0 1-5.454-.37 28.15 28.15 0 0 1 .777-7.373l8.696-.23c2.353 3.214 6.918 5.883 10.377 6.883a3.042 3.042 0 0 1 2.15 2.285v.056c-.067.307-.17.605-.309.887z" fill="#455A64"/>
            <path d="M261.06 246c1.862-.042 4.025 1.943 5.748 2.648a15.47 15.47 0 0 0 5.391 1.356 6.814 6.814 0 0 0 5.097-1.866c.136-.282.238-.58.302-.887v-.056a2.79 2.79 0 0 1 0 1.16 3.88 3.88 0 0 1-.302.88 6.793 6.793 0 0 1-5.097 1.873 15.47 15.47 0 0 1-5.391-1.356c-1.723-.698-3.886-2.69-5.749-2.648a40.64 40.64 0 0 1-5.37-.314c-.042-.385-.07-.776-.084-1.16 1.809.232 3.63.355 5.454.37zM236.517 248.949c-.005.885.082 1.767.26 2.634a6.113 6.113 0 0 0 2.415 3.844 7.784 7.784 0 0 0 3.83 1.02 8.474 8.474 0 0 0 3.501-.363 3.975 3.975 0 0 0 2.059-1.677.14.14 0 0 0 0 .049 3.672 3.672 0 0 1-2.367 2.452 8.474 8.474 0 0 1-3.5.364 7.812 7.812 0 0 1-3.838-1.02 6.106 6.106 0 0 1-2.409-3.844 12.276 12.276 0 0 1-.266-2.635 4.426 4.426 0 0 0-1.4-3.214c-.217-.21-.427-.42-.616-.636a1.598 1.598 0 0 1-.378-1.153c0-.16.035-.322.056-.475.315.37 1.07 1.258 1.26 1.432a4.468 4.468 0 0 1 1.393 3.222z" fill="#263238"/>
            <path d="M243.148 239.773a9.584 9.584 0 0 0 .7 5.34 20.419 20.419 0 0 0 2.836 4.646c.563.671 1.06 1.395 1.485 2.16.41.76.558 1.635.42 2.488a3.975 3.975 0 0 1-2.059 1.677 8.474 8.474 0 0 1-3.5.363 7.784 7.784 0 0 1-3.83-1.02 6.113 6.113 0 0 1-2.417-3.844 12.785 12.785 0 0 1-.259-2.634 4.468 4.468 0 0 0-1.4-3.222c-.19-.174-.945-1.062-1.26-1.432a9.617 9.617 0 0 1 1.302-3.732l7.982-.79z" fill="#455A64"/>
            <path d="m268.852 153.987-.7 49.539-2.339 34.675c-5.93 3.739-10.222.699-10.222.699-2.248-16.422-2.556-26.555-1.33-33.361l-1.128-26.737-3.375 27.757-5.672 34.018c-6.084 3.934-10.376 0-10.376 0 0-12.579-1.12-26.674 2.352-35.751a208.399 208.399 0 0 1 1.639-50.315l31.151-.524z" fill="#407BFF"/>
            <path d="m268.852 153.987-.7 49.539-2.339 34.675c-5.93 3.739-10.222.699-10.222.699-2.248-16.422-2.556-26.555-1.33-33.361l-1.128-26.737-3.375 27.757-5.672 34.018c-6.084 3.934-10.376 0-10.376 0 0-12.579-1.12-26.674 2.352-35.751a208.399 208.399 0 0 1 1.639-50.315l31.151-.524z" fill="#000" opacity=".3"/>
            <path d="m268.852 153.987-.7 49.539-2.339 34.675c-5.93 3.739-10.222.699-10.222.699-2.248-16.422-2.556-26.555-1.33-33.361l-1.128-26.737-3.375 27.757-5.672 34.018c-6.084 3.934-10.376 0-10.376 0 0-12.579-1.12-26.674 2.352-35.751a208.399 208.399 0 0 1 1.639-50.315l31.151-.524z" fill="#FFF" opacity=".1"/>
            <path d="m254.351 168.578-1.246 10.203.532 12.523 2.283-20.58c5.286-2.097 5.98-4.976 5.98-4.976a16.264 16.264 0 0 1-7.549 2.83z" fill="#000" opacity=".3"/>
            <path d="m257.58 110.73 5.804.609c4.754 4.192 7.205 12.963 6.182 22.655a171.397 171.397 0 0 0-.7 19.993c-12.883 9.392-29.135 2.55-31.18.51l.953-11.88a8.148 8.148 0 0 0-.651-3.913c-1.219-2.795-3.39-8.386-3.676-12.67a22.367 22.367 0 0 1 2.352-11.069l8.403-3.675 12.512-.56z" fill="#455A64"/>
            <path d="m257.58 110.73 5.804.609c4.754 4.192 7.205 12.963 6.182 22.655a171.397 171.397 0 0 0-.7 19.993c-12.883 9.392-29.135 2.55-31.18.51l.953-11.88a8.148 8.148 0 0 0-.651-3.913c-1.219-2.795-3.39-8.386-3.676-12.67a22.367 22.367 0 0 1 2.352-11.069l8.403-3.675 12.512-.56z" opacity=".1" fill="#000"/>
            <path d="M259.19 119.172a62.55 62.55 0 0 1 4.782 22.628l-2.395 5.122-3.739-4.892c.286-7.51.134-15.03-.455-22.522l1.807-.336z" fill="#455A64"/>
            <path d="M259.393 114.965c.103 1.401.035 2.81-.203 4.193a3.367 3.367 0 0 1-1.807.329 14.751 14.751 0 0 1-2.899-3.494l2.9-1.042 2.009.014z" fill="#455A64"/>
            <g opacity=".6" fill="#FFF">
                <path d="M259.19 119.172a62.55 62.55 0 0 1 4.782 22.628l-2.395 5.122-3.739-4.892c.286-7.51.134-15.03-.455-22.522l1.807-.336z"/>
                <path d="M259.393 114.965c.103 1.401.035 2.81-.203 4.193a3.367 3.367 0 0 1-1.807.329 14.751 14.751 0 0 1-2.899-3.494l2.9-1.042 2.009.014z"/>
            </g>
            <path d="M257.383 114.965c-2.493.916-4.72 5.353-4.72 5.353-6.56-5.59-7.582-9.028-7.582-9.028a13.19 13.19 0 0 1 3.179-3.355l9.123 7.03zM257.383 114.965c1.912.05 3.599 2.705 3.599 2.705.301-4.647-3.599-8.218-3.599-8.218v5.513z" fill="#455A64"/>
            <g opacity=".35" fill="#FFF">
                <path d="M257.383 114.965c-2.493.916-4.72 5.353-4.72 5.353-6.56-5.59-7.582-9.028-7.582-9.028a13.19 13.19 0 0 1 3.179-3.355l9.123 7.03zM257.383 114.965c1.912.05 3.599 2.705 3.599 2.705.301-4.647-3.599-8.218-3.599-8.218v5.513z" opacity=".1"/>
            </g>
            <path d="M245.08 89.228a5.163 5.163 0 0 1 3.306-1.782l17.266 1.628c1.996 4.27.406 7.1.406 7.1.266 6.513.49 10.657-2.338 12.034a13.082 13.082 0 0 1-6.302.887 14.923 14.923 0 0 1-5.784-1.558l-.09-.049a4.935 4.935 0 0 1-2.48-3.291c-.288-1.27-.487-2.56-.594-3.858a15.345 15.345 0 0 0-.238-2.201 3.924 3.924 0 0 0-.967-1.95 2.23 2.23 0 0 0-1.995-.699c-.122.032-.24.08-.35.14-.504-2.907-.645-5.395.16-6.4z" fill="#37474F"/>
            <path d="M251.403 89.717a6.09 6.09 0 0 1-.23 3.662 27.04 27.04 0 0 0-1.093 3.557 5.804 5.804 0 0 0 .476 3.592 4.2 4.2 0 0 0 2.752 2.23c1.848.397 3.662-.7 5.524-1.063a7.659 7.659 0 0 1 5.203.93.898.898 0 0 0 1.358-.7c.217-3.752.217-9.63-.336-12.396l-13.654.188zM249.639 106.482v-.007l.007.007z" fill="#FFA8A7"/>
            <path d="m248.134 102.205.077 3.34a5.226 5.226 0 0 1-1.61-2.522 2.326 2.326 0 0 0 1.533-.818zM264.77 86.321l2.143-1.51a4.647 4.647 0 0 1-.82 4.277 6.801 6.801 0 0 1-3.788 2.257c-1.462.302-2.962.37-4.446.203a31.859 31.859 0 0 1-6.428-1.188 5.059 5.059 0 0 1-2.52-1.342 3.405 3.405 0 0 1-.133-3.983 4.98 4.98 0 0 1 3.55-2.096c1.433-.116 2.875 0 4.27.342 1.397.342 2.841.446 4.272.308a4.44 4.44 0 0 0 3.445-2.306c1.211 1.998.455 5.038.455 5.038z" fill="#37474F"/>
            <path fill="#F28F8F" d="m259.35 96.37 3.151 3.864-2.891 1.035zM256.963 103.204l2.437.762c-.31.595-.983.907-1.639.762a1.397 1.397 0 0 1-.798-1.524z"/>
            <path d="m256.963 103.204 2.437.762c-.31.595-.983.907-1.639.762a1.397 1.397 0 0 1-.798-1.524z" fill="#000" opacity=".3"/>
            <path d="M258.552 104.658a1.34 1.34 0 0 1-.79.049 1.23 1.23 0 0 1-.792-1.111c.324-.054.656.008.938.174.324.2.555.519.644.888z" fill="#F28F8F"/>
            <path d="M255.065 97.216a.868.868 0 1 0 .82-.923.881.881 0 0 0-.82.923zM262.305 96.538a.86.86 0 1 0 .813-.923.869.869 0 0 0-.813.923zM262.957 93.009l1.988 1.237a1.256 1.256 0 0 0-.448-1.35 1.452 1.452 0 0 0-1.54.113zM255.556 93.31l-1.842 1.446a1.263 1.263 0 0 1 .301-1.398 1.438 1.438 0 0 1 1.54-.049z" fill="#263238"/>
            <path d="M243.715 96.915a2.378 2.378 0 0 1 1.198-1.265c.11-.06.228-.108.35-.14a2.23 2.23 0 0 1 1.995.7c.5.545.835 1.221.967 1.949.132.727.211 1.463.238 2.201.11 1.33.316 2.649.616 3.948a4.893 4.893 0 0 0 2.464 3.201l.084.049a14.923 14.923 0 0 0 5.784 1.558v5.877l-8.164-4.821a1.977 1.977 0 0 1-.966-1.664c0-.943-.042-1.977-.063-2.935l-.077-3.34c-.386.46-.936.753-1.534.818-.268.039-.542.025-.805-.042a3.044 3.044 0 0 1-1.8-1.559 5.812 5.812 0 0 1-.574-2.369 4.883 4.883 0 0 1 .287-2.166z" fill="#FFA8A7"/>
            <path d="M250.465 107.397a5.481 5.481 0 0 1-1.008-2.096 4.896 4.896 0 0 0 2.1 2.187l.084.049a14.923 14.923 0 0 0 5.784 1.558v1.496a14.596 14.596 0 0 1-3.417-.699 7.653 7.653 0 0 1-3.543-2.495z" fill="#000" opacity=".2"/>
            <path d="m216.912 135.88-3.08-1.523a5.422 5.422 0 0 1-2.297-2.138l-.925-1.65a6.758 6.758 0 0 0-2.8-2.62 23.173 23.173 0 0 1-4.902-3.242 2.54 2.54 0 0 0 .4 3.193 17.499 17.499 0 0 0 2.002 1.6l-1.478.378a5.268 5.268 0 0 1-3.213-.196l-4.202-1.642a.736.736 0 0 0-.987.81 16.752 16.752 0 0 0 2.1 5.284 6.301 6.301 0 0 0 4.286 3.005c2.157.405 4.243.699 5.426.894.679.098 1.338.3 1.954.601l4.523 2.243 3.193-4.996z" fill="#FFA8A7"/>
            <path d="M219.853 140.612a7.673 7.673 0 0 0 .539-4.004l5.777 2.739c1.05-4.21 1.867-8.475 2.45-12.774.7-5.814.54-9.72 8.031-11.608 0 0 5.049 8.31 1.457 15.66 0 5.417-1.59 18.289-6.953 20.357-4.446 1.712-7.583-2.509-14.361-6.876a7.692 7.692 0 0 0 3.06-3.494z" fill="#455A64"/>
            <path d="M219.853 140.612a7.673 7.673 0 0 0 .539-4.004l5.777 2.739c1.05-4.21 1.867-8.475 2.45-12.774.7-5.814.54-9.72 8.031-11.608 0 0 5.049 8.31 1.457 15.66 0 5.417-1.59 18.289-6.953 20.357-4.446 1.712-7.583-2.509-14.361-6.876a7.692 7.692 0 0 0 3.06-3.494z" fill="#FFF" opacity=".1"/>
            <path d="M230.055 143.176c-.203-.866-1.639-2.858-3.886-3.829l.427-1.775c1.162.573 4.033 2.334 3.459 5.604z" fill="#000" opacity=".2"/>
            <path d="m215.07 134.728 5.322 1.88a7.528 7.528 0 0 1-3.599 7.498 39.366 39.366 0 0 1-4.411-3.494s2.303-.832 2.689-5.884z" fill="#455A64"/>
            <path d="m277.759 128.725-4.012 10.867.287-2.908a13.266 13.266 0 0 1 3.725-7.959z" fill="#000" opacity=".2"/>
            <path d="m283.29 133.742-.133-4.192-2.1-3.159a1.401 1.401 0 0 0-2.542.293l-.966 2.607a5.098 5.098 0 0 0 1.638 3.222 5.21 5.21 0 0 0 4.103 1.23z" fill="#455A64"/>
            <path d="M279.187 132.554a5.098 5.098 0 0 1-1.638-3.221l-4.069 10.908a4.932 4.932 0 0 0 .077 3.9 4.94 4.94 0 0 0 2.88 2.617 4.952 4.952 0 0 0 3.884-.276l.54-.28a4.925 4.925 0 0 0 2.674-4.535l-.245-7.918a5.21 5.21 0 0 1-4.103-1.195z" fill="#455A64"/>
            <path d="M279.187 132.554a5.098 5.098 0 0 1-1.638-3.221l-4.069 10.908a4.932 4.932 0 0 0 .077 3.9 4.94 4.94 0 0 0 2.88 2.617 4.952 4.952 0 0 0 3.884-.276l.54-.28a4.925 4.925 0 0 0 2.674-4.535l-.245-7.918a5.21 5.21 0 0 1-4.103-1.195z" fill="#FFF" opacity=".1"/>
            <path d="m283.892 136.65-.742-.427a.95.95 0 0 1-.462-.803v-3.34l1.673.992 1.667-.965v3.313a.93.93 0 0 1-.462.803l-.742.427a.926.926 0 0 1-.932 0z" fill="#407BFF"/>
            <path d="m283.892 136.65-.742-.427a.95.95 0 0 1-.462-.803v-3.34l1.673.992 1.667-.965v3.313a.93.93 0 0 1-.462.803l-.742.427a.926.926 0 0 1-.932 0z" fill="#FFF" opacity=".3"/>
            <path d="m283.164 122.002 1.82-.321 3.354 2.39c.34.238.542.627.54 1.041v6.988c-.001.506-.3.963-.764 1.167l-2.345 1.035a1.304 1.304 0 0 1-1.4-.238l-1.982-1.852a1.292 1.292 0 0 1-.42-.95v-.636a5.147 5.147 0 0 1-1.835-1.999 4.43 4.43 0 0 1-.623-2.432 4.454 4.454 0 0 1 3.655-4.193z" fill="#FFA8A7"/>
            <path d="M283.276 125.042v3.879c0 .644.524 1.167 1.17 1.167a1.163 1.163 0 0 0 1.162-1.167v-4.144l.483 1.16v3.18a1.64 1.64 0 0 1-1.646 1.642 1.65 1.65 0 0 1-1.652-1.643v-1.6a2.533 2.533 0 0 1-1.75 1.558c1.75-1.341 2.233-4.032 2.233-4.032z" fill="#F28F8F"/>
            <path d="M280.77 108.697h-.043a2.658 2.658 0 0 0-2.653.273 8.215 8.215 0 0 0-3.746 6.47 2.653 2.653 0 0 0 1.071 2.39l5.23 2.915 5.042-9.183-4.902-2.865zm-6.03 6.471z" fill="#407BFF"/>
            <path d="M280.77 108.697h-.043a2.658 2.658 0 0 0-2.653.273 8.215 8.215 0 0 0-3.746 6.47 2.653 2.653 0 0 0 1.071 2.39l5.23 2.915 5.042-9.183-4.902-2.865zm-6.03 6.471z" fill="#FFF" opacity=".3"/>
            <path d="m286.14 110.36-.05-.035c-.86-.489-2.05-.412-3.367.343a10.436 10.436 0 0 0-4.74 8.197c0 1.481.525 2.53 1.358 3.026 8.402 6.016 13.472 15.178 13.472 15.178l12.029-22.97c-4.39.985-12.617-.105-18.702-3.739z" fill="#407BFF"/>
            <path d="m286.14 110.36-.05-.035c-.86-.489-2.05-.412-3.367.343a10.436 10.436 0 0 0-4.74 8.197c0 1.481.525 2.53 1.358 3.026 8.402 6.016 13.472 15.178 13.472 15.178l12.029-22.97c-4.39.985-12.617-.105-18.702-3.739z" fill="#FFF" opacity=".5"/>
            <path d="M293.352 130.22a12.261 12.261 0 0 1 0 0z" fill="#455A64"/>
            <path d="M308.686 117.88a4.475 4.475 0 0 0-.455-.504 4.158 4.158 0 0 0-.483-.384l-.273-.175a4.108 4.108 0 0 0-1.24-.454c-.343-.07-.693-.1-1.043-.09-.251.005-.501.029-.75.069a6.93 6.93 0 0 0-.783.175l-.4.119c-.28.097-.556.21-.826.335a8.17 8.17 0 0 0-.847.44c-.748.428-1.452.929-2.1 1.496-.267.23-.526.475-.785.733a19.8 19.8 0 0 0-.742.79c-.119.14-.238.273-.357.42a19.568 19.568 0 0 0-1.624 2.264c-.196.321-.386.642-.568.97-.182.33-.343.7-.504 1.007-.16.308-.308.699-.448 1.013-.34.843-.616 1.71-.826 2.593-.077.342-.147.699-.203 1.034 0 .168-.05.343-.07.51-.061.499-.092 1-.091 1.503-.001.467.032.935.098 1.398.075.545.214 1.08.413 1.593a5.093 5.093 0 0 0 .707 1.293 4.098 4.098 0 0 0 2.8 1.6c.234.017.468.017.701 0a5.612 5.612 0 0 0 1.527-.238c.133 0 .273-.077.406-.125a9.531 9.531 0 0 0 1.673-.77 14.94 14.94 0 0 0 3.963-3.437c.12-.14.231-.287.35-.434.224-.286.448-.587.658-.894.21-.308.42-.622.617-.937a17.076 17.076 0 0 0 2.71-8.637 8.503 8.503 0 0 0-.386-2.62 5.328 5.328 0 0 0-.819-1.657z" fill="#407BFF"/>
            <path d="M308.686 117.88a4.475 4.475 0 0 0-.455-.504 4.158 4.158 0 0 0-.483-.384l-.273-.175a4.108 4.108 0 0 0-1.24-.454c-.343-.07-.693-.1-1.043-.09-.251.005-.501.029-.75.069a6.93 6.93 0 0 0-.783.175l-.4.119c-.28.097-.556.21-.826.335a8.17 8.17 0 0 0-.847.44c-.748.428-1.452.929-2.1 1.496-.267.23-.526.475-.785.733a19.8 19.8 0 0 0-.742.79c-.119.14-.238.273-.357.42a19.568 19.568 0 0 0-1.624 2.264c-.196.321-.386.642-.568.97-.182.33-.343.7-.504 1.007-.16.308-.308.699-.448 1.013-.34.843-.616 1.71-.826 2.593-.077.342-.147.699-.203 1.034 0 .168-.05.343-.07.51-.061.499-.092 1-.091 1.503-.001.467.032.935.098 1.398.075.545.214 1.08.413 1.593a5.093 5.093 0 0 0 .707 1.293 4.098 4.098 0 0 0 2.8 1.6c.234.017.468.017.701 0a5.612 5.612 0 0 0 1.527-.238c.133 0 .273-.077.406-.125a9.531 9.531 0 0 0 1.673-.77 14.94 14.94 0 0 0 3.963-3.437c.12-.14.231-.287.35-.434.224-.286.448-.587.658-.894.21-.308.42-.622.617-.937a17.076 17.076 0 0 0 2.71-8.637 8.503 8.503 0 0 0-.386-2.62 5.328 5.328 0 0 0-.819-1.657z" fill="#000" opacity=".5"/>
            <path fill="#407BFF" d="m296.65 119.557 4.34 2.585-3.997 6.793-4.775-2.565z"/>
            <path fill="#000" opacity=".3" d="m296.65 119.557 4.34 2.585-3.997 6.793-4.775-2.565z"/>
            <path d="M301.32 122.45a1.189 1.189 0 0 0-.154-.168l-.161-.133-.07-.077a1.227 1.227 0 0 0-.413-.153 1.473 1.473 0 0 0-.357-.035h-.252a1.922 1.922 0 0 0-.26.056l-.14.041a2.243 2.243 0 0 0-.273.112c-.099.042-.195.091-.287.147-.25.144-.484.312-.7.503-.09.084-.182.16-.266.252l-.252.265c-.042.042-.077.091-.119.14a6.555 6.555 0 0 0-.735 1.09c-.056.112-.12.224-.175.343a3.6 3.6 0 0 0-.147.342c-.117.283-.21.575-.28.874 0 .111-.05.23-.07.342v.175a3.348 3.348 0 0 0 0 .978c0 .098.035.189.056.28l.084.258.105.224c.04.07.084.138.133.202.23.301.575.495.952.538.08.008.159.008.238 0h.252c.088-.012.174-.03.26-.055l.14-.042c.194-.068.382-.154.56-.259.509-.307.96-.7 1.337-1.16l.119-.147.224-.3c.07-.105.14-.21.203-.315.563-.871.88-1.878.917-2.914a3.02 3.02 0 0 0-.133-.88 1.782 1.782 0 0 0-.336-.524zM308.3 115.587l-.097-.063.098.07z" fill="#407BFF"/>
            <path d="M292.218 132.33c0-5.932 4.159-13.165 9.333-16.142 2.584-1.488 4.901-1.635 6.624-.699l-1.989-1.104c-1.701-.971-4.047-.831-6.637.7-5.175 2.983-9.355 10.209-9.341 16.142 0 2.858.994 4.891 2.59 5.905l.113.063.098.063 1.883 1.097c-1.66-1.056-2.667-3.11-2.674-6.024z" fill="#407BFF"/>
            <path d="M292.218 132.33c0-5.932 4.159-13.165 9.333-16.142 2.584-1.488 4.901-1.635 6.624-.699l-1.989-1.104c-1.701-.971-4.047-.831-6.637.7-5.175 2.983-9.355 10.209-9.341 16.142 0 2.858.994 4.891 2.59 5.905l.113.063.098.063 1.883 1.097c-1.66-1.056-2.667-3.11-2.674-6.024z" fill="#FFF" opacity=".3"/>
            <path d="m308.3 115.594-.097-.07c-1.702-.957-4.04-.81-6.624.7-5.174 2.976-9.354 10.209-9.334 16.142 0 2.914 1.023 4.968 2.675 5.96 1.653.993 4.09.902 6.722-.614 5.175-2.984 9.355-10.21 9.334-16.143-.035-2.935-1.044-4.982-2.675-5.975zm-1.105 15.179c-.196.314-.4.628-.617.936-.217.307-.434.608-.658.894-.119.147-.23.294-.35.434a14.94 14.94 0 0 1-3.963 3.438 9.532 9.532 0 0 1-1.673.769c-.133.048-.273.09-.406.125a5.612 5.612 0 0 1-1.526.238 4.715 4.715 0 0 1-.701 0 4.098 4.098 0 0 1-2.8-1.6 5.093 5.093 0 0 1-.708-1.293 7.096 7.096 0 0 1-.413-1.593 9.767 9.767 0 0 1-.098-1.398c0-.502.03-1.004.09-1.503 0-.167.043-.342.07-.51.057-.342.127-.698.204-1.034.21-.883.487-1.75.826-2.593.14-.342.287-.698.448-1.013.161-.314.33-.699.504-1.006.175-.308.372-.65.568-.971a19.567 19.567 0 0 1 1.624-2.265c.119-.146.238-.28.357-.419.245-.272.49-.538.742-.79.252-.251.518-.503.785-.733a12.981 12.981 0 0 1 2.1-1.496 8.17 8.17 0 0 1 .847-.44c.27-.126.546-.237.827-.335l.399-.12a6.93 6.93 0 0 1 .784-.174c.248-.04.498-.064.75-.07.35-.01.7.021 1.042.091.435.084.854.237 1.24.454l.273.175c.17.116.332.244.483.384.164.156.316.324.455.503.37.491.652 1.042.833 1.629.265.848.395 1.732.385 2.62a17.076 17.076 0 0 1-2.723 8.666z" fill="#407BFF"/>
        </g>
        <g>
            <path d="m201.41 168.837-18.723 10.72a3.7 3.7 0 0 0-1.366 1.397 3.62 3.62 0 0 0-.469 1.782v13.6a3.598 3.598 0 0 0 1.896 3.08 3.612 3.612 0 0 0 3.622-.118l3.249-1.859.294.483.049.041h.035c.539.35 1.477.86 1.694.965.1.033.209-.02.245-.119l1.17-3.361 11.952-6.82a3.633 3.633 0 0 0 1.841-3.166v-13.655c.028-2.635-3.85-3.907-5.49-2.97z" fill="#407BFF"/>
            <path d="m189.913 197.908.049.041h.035c.539.35 1.477.86 1.694.965a.182.182 0 0 1-.119-.084l-1.162-1.873.23-.133-1.021.58.294.504z" fill="#FFF" opacity=".2"/>
            <path d="M184.955 182.995c.238-.472.572-.888.98-1.223a3.34 3.34 0 0 1 .449-.3l18.723-10.72a1.213 1.213 0 0 1 1.82 1.055c0-2.635-3.879-3.907-5.517-2.97l-18.723 10.72a3.7 3.7 0 0 0-1.366 1.397l3.634 2.04z" fill="#FFF" opacity=".4"/>
            <path d="M184.55 198.243V184.63a2.908 2.908 0 0 1 0-.426c.057-.421.185-.83.377-1.21l-3.634-2.054a3.621 3.621 0 0 0-.469 1.782v13.6a3.598 3.598 0 0 0 1.896 3.08 3.612 3.612 0 0 0 3.622-.118 1.22 1.22 0 0 1-1.793-1.041z" fill="#FFF" opacity=".2"/>
            <path d="M194.156 184.651c.28-.168.511-.035.511.294V189.983a1.139 1.139 0 0 1-.504.887l-2.549 1.461c-.28.168-.511.035-.511-.294v-5.073c.02-.36.213-.688.518-.88l2.535-1.433zm-.952 6.115a1.18 1.18 0 0 0 .532-.923c0-.342-.238-.482-.54-.307a1.16 1.16 0 0 0-.532.922c0 .343.238.482.54.308" fill="#407BFF"/>
            <path d="M194.156 184.651c.28-.168.511-.035.511.294V189.983a1.139 1.139 0 0 1-.504.887l-2.549 1.461c-.28.168-.511.035-.511-.294v-5.073c.02-.36.213-.688.518-.88l2.535-1.433zm-.952 6.115a1.18 1.18 0 0 0 .532-.923c0-.342-.238-.482-.54-.307a1.16 1.16 0 0 0-.532.922c0 .343.238.482.54.308" opacity=".5" fill="#FFF"/>
            <path d="M196.747 177.551c1.113-.643 2.002-.07 1.932 1.244l-.105 2.096 2.934-1.726c1.015-.58 1.232.769.546 1.72.7.195.49 1.397-.133 2.096.574.258.063 1.58-.637 2.131.462.189.063 1.615-.742 2.097l-2.913 1.677-1.835 1.062c-.63.356-1.141.07-1.141-.65v-4.193l1.162-2.795c.582-1.345.894-2.79.918-4.256l.014-.503z" fill="#FFF"/>
            <path d="m265.694 36.887-18.723 10.72a3.688 3.688 0 0 0-1.834 3.158v13.6a3.598 3.598 0 0 0 1.896 3.08 3.612 3.612 0 0 0 3.621-.118l3.256-1.852.294.476a.14.14 0 0 0 .05.042h.034c.532.356 1.478.86 1.688.97a.203.203 0 0 0 .252-.125l1.197-3.39 11.945-6.813a3.64 3.64 0 0 0 1.842-3.165V39.85c0-2.628-3.886-3.9-5.518-2.963z" fill="#407BFF"/>
            <path d="M254.204 65.95a.14.14 0 0 0 .05.043h.034c.532.356 1.478.86 1.688.97a.266.266 0 0 1-.12-.083l-1.134-1.859.231-.126-1.022.58.273.476z" fill="#FFF" opacity=".2"/>
            <path d="M249.247 51.045c.235-.471.566-.888.973-1.223.142-.108.289-.208.441-.3l18.765-10.727a1.22 1.22 0 0 1 1.82 1.055c0-2.628-3.878-3.9-5.517-2.963l-18.758 10.72a3.567 3.567 0 0 0-1.358 1.397l3.634 2.04z" fill="#FFF" opacity=".4"/>
            <path d="M248.834 66.272V52.68a2.936 2.936 0 0 1 0-.433c.06-.42.19-.825.385-1.202l-3.634-2.097a3.573 3.573 0 0 0-.476 1.782v13.6a3.598 3.598 0 0 0 1.896 3.08 3.612 3.612 0 0 0 3.621-.118 1.213 1.213 0 0 1-1.792-1.02z" fill="#FFF" opacity=".2"/>
            <path d="M258.44 52.694c.287-.16.511 0 .518.294v5.08c-.02.358-.21.684-.51.88l-2.55 1.468c-.28.16-.51 0-.51-.294v-5.08c.02-.358.21-.684.51-.88l2.542-1.468zm-.917 6.122c.317-.207.515-.553.532-.93 0-.335-.238-.475-.532-.307a1.18 1.18 0 0 0-.54.93c0 .342.246.474.54.307" fill="#407BFF"/>
            <path d="M258.44 52.694c.287-.16.511 0 .518.294v5.08c-.02.358-.21.684-.51.88l-2.55 1.468c-.28.16-.51 0-.51-.294v-5.08c.02-.358.21-.684.51-.88l2.542-1.468zm-.917 6.122c.317-.207.515-.553.532-.93 0-.335-.238-.475-.532-.307a1.18 1.18 0 0 0-.54.93c0 .342.246.474.54.307" opacity=".5" fill="#FFF"/>
            <path d="M261.024 45.601c1.113-.643 1.996-.077 1.933 1.237l-.105 2.096 2.954-1.705c1.016-.58 1.233.762.553 1.712.7.203.484 1.398-.14 2.097.575.258.07 1.586-.637 2.138.462.189.07 1.608-.742 2.097l-2.906 1.677-1.841 1.055c-.623.363-1.135.07-1.142-.643V53.17l1.163-2.795c.581-1.364.89-2.829.91-4.312v-.46z" fill="#FFF"/>
            <path d="m98.853 90.053-18.723 10.72a3.654 3.654 0 0 0-1.856 3.13v13.627a3.598 3.598 0 0 0 1.897 3.081 3.612 3.612 0 0 0 3.62-.118l3.257-1.852.294.475.042.042h.035c.539.357 1.477.86 1.694.965a.21.21 0 0 0 .252-.126l1.198-3.39 11.945-6.813a3.64 3.64 0 0 0 1.841-3.165V93.016c.021-2.628-3.858-3.907-5.496-2.963z" fill="#407BFF"/>
            <path d="m87.377 119.116.042.042h.035c.539.357 1.477.86 1.694.965a.21.21 0 0 1-.119-.084l-1.162-1.88.231-.126-1.015.58.294.503z" fill="#FFF" opacity=".2"/>
            <path d="M82.398 104.21c.236-.472.57-.89.98-1.222.138-.114.286-.214.442-.3l18.723-10.72a1.22 1.22 0 0 1 1.82 1.055c0-2.628-3.879-3.907-5.517-2.963l-18.723 10.72a3.63 3.63 0 0 0-1.4 1.397l3.675 2.034z" fill="#FFF" opacity=".4"/>
            <path d="M81.992 119.438v-13.592a2.936 2.936 0 0 1 0-.433c.058-.42.186-.826.378-1.202l-3.634-2.062c-.3.537-.458 1.14-.462 1.754v13.627a3.598 3.598 0 0 0 1.897 3.081 3.612 3.612 0 0 0 3.62-.118 1.213 1.213 0 0 1-1.799-1.055z" fill="#FFF" opacity=".2"/>
            <path d="M91.578 105.86c.287-.16.511-.035.511.293v5.039c-.013.36-.201.691-.504.887l-2.549 1.468c-.28.16-.51 0-.51-.294v-5.08c.015-.36.206-.688.51-.88l2.542-1.433zm-.952 6.121c.314-.208.511-.553.532-.929 0-.342-.238-.475-.54-.307a1.194 1.194 0 0 0-.532.929c0 .335.239.475.54.307" fill="#407BFF"/>
            <path d="M91.578 105.86c.287-.16.511-.035.511.293v5.039c-.013.36-.201.691-.504.887l-2.549 1.468c-.28.16-.51 0-.51-.294v-5.08c.015-.36.206-.688.51-.88l2.542-1.433zm-.952 6.121c.314-.208.511-.553.532-.929 0-.342-.238-.475-.54-.307a1.194 1.194 0 0 0-.532.929c0 .335.239.475.54.307" opacity=".5" fill="#FFF"/>
            <path d="M94.19 98.767c1.113-.643 2.002-.077 1.932 1.237l-.098 2.096 2.955-1.705c1.015-.587 1.232.762.546 1.712.7.203.49 1.398-.133 2.097.574.258.063 1.586-.637 2.138.462.189.063 1.607-.742 2.096l-2.913 1.678-1.835 1.055c-.63.363-1.14.07-1.14-.65v-4.193l1.161-2.795c.581-1.346.895-2.791.925-4.256l-.021-.51z" fill="#FFF"/>
        </g>
    </g>
</svg>
