<svg width="340" height="316" xmlns="http://www.w3.org/2000/svg">
    <g fill-rule="nonzero" fill="none">
        <ellipse cx="169.89" cy="98.086" rx="169.89" ry="98.086" transform="translate(0 119.827)" fill="#E5ECFF"/>
        <g transform="translate(9.484 139.178)" fill="#C5D3FA">
            <ellipse cx="257.788" cy="124.752" rx="25.213" ry="14.556"/>
            <path d="M28.956 108.537.749 92.257c-.999-.574-.999-1.508 0-2.082L156.162.425a4 4 0 0 1 3.59 0l28.2 16.28c.991.575.991 1.508 0 2.083L32.546 108.537c-1.129.57-2.461.57-3.59 0z"/>
        </g>
        <path d="m136.24 222.222 22.706-13.127c2.341-1.357 3.512-3.123 3.512-4.897v-3.16l-27.31-15.475a5.027 5.027 0 0 1-2.262-3.921v-28.006L93.225 176.55v28.006c.092 1.589.93 3.04 2.262 3.914l23.805 13.744c4.682 2.707 12.273 2.707 16.947.007z" fill="#90CAF9"/>
        <path d="m136.24 222.222 22.706-13.127c2.341-1.357 3.512-3.123 3.512-4.897v-3.16l-27.31-15.475a5.027 5.027 0 0 1-2.262-3.921v-28.006L93.225 176.55v28.006c.092 1.589.93 3.04 2.262 3.914l23.805 13.744c4.682 2.707 12.273 2.707 16.947.007z" opacity=".5" fill="#000"/>
        <path d="M102.747 209.519v3.145l-7.267-4.186a5.027 5.027 0 0 1-2.262-3.921V176.55l7.561-4.36c.151 1.918.323 3.9.481 5.832l-5.3 3.066v21.874a4.976 4.976 0 0 0 2.256 3.913l4.53 2.643z" fill="#90CAF9"/>
        <path d="M102.747 209.519v3.145l-7.267-4.186a5.027 5.027 0 0 1-2.262-3.921V176.55l7.561-4.36c.151 1.918.323 3.9.481 5.832l-5.3 3.066v21.874a4.976 4.976 0 0 0 2.256 3.913l4.53 2.643z" fill="#000" opacity=".7"/>
        <path d="M95.96 202.984a4.984 4.984 0 0 0 2.263 3.914l21.062 12.165c4.682 2.707 12.272 2.707 16.954 0l22.721-13.127c4.682-2.7 4.682-7.08 0-9.781l-21.076-12.172a4.984 4.984 0 0 1-2.262-3.914v-21.873L95.96 181.11v21.873z" fill="#90CAF9"/>
        <path d="M95.96 202.984a4.984 4.984 0 0 0 2.263 3.914l21.062 12.165c4.682 2.707 12.272 2.707 16.954 0l22.721-13.127c4.682-2.7 4.682-7.08 0-9.781l-21.076-12.172a4.984 4.984 0 0 1-2.262-3.914v-21.873L95.96 181.11v21.873z" fill="#000" opacity=".3"/>
        <path d="m142.487 186.647-4.603-2.657a4.984 4.984 0 0 1-2.262-3.913v-21.881L95.96 181.11v21.873a4.984 4.984 0 0 0 2.262 3.914l4.524 2.614 39.74-22.865z" fill="#90CAF9" opacity=".7"/>
        <path d="m142.487 186.647-4.603-2.657a4.984 4.984 0 0 1-2.262-3.913v-21.881L95.96 181.11v21.873a4.984 4.984 0 0 0 2.262 3.914l4.524 2.614 39.74-22.865z" fill="#000" opacity=".6"/>
        <path d="M162.465 201.045v3.189c0 1.773-1.178 3.533-3.512 4.89l-22.706 13.062a16.971 16.971 0 0 1-8.093 2.011v-3.145a16.969 16.969 0 0 0 8.093-2.01l22.706-13.135c2.334-1.314 3.512-3.11 3.512-4.862z" fill="#90CAF9"/>
        <path d="M162.465 201.045v3.189c0 1.773-1.178 3.533-3.512 4.89l-22.706 13.062a16.971 16.971 0 0 1-8.093 2.011v-3.145a16.969 16.969 0 0 0 8.093-2.01l22.706-13.135c2.334-1.314 3.512-3.11 3.512-4.862z" fill="#000" opacity=".2"/>
        <path d="M32.279 233.188a6.068 6.068 0 0 0 5.48-.1l153.373-88.55a6.262 6.262 0 0 0 2.822-4.898V5.397a6.04 6.04 0 0 0-2.65-4.79 6.032 6.032 0 0 0-5.472.1L32.458 89.258a6.233 6.233 0 0 0-2.822 4.89v134.287a6.082 6.082 0 0 0 2.643 4.754z" fill="#90CAF9"/>
        <path d="M32.279 233.188a6.068 6.068 0 0 0 5.48-.1l153.373-88.55a6.262 6.262 0 0 0 2.822-4.898V5.397a6.04 6.04 0 0 0-2.65-4.79 6.032 6.032 0 0 0-5.472.1L32.458 89.258a6.233 6.233 0 0 0-2.822 4.89v134.287a6.082 6.082 0 0 0 2.643 4.754z" fill="#000" opacity=".3"/>
        <path d="m37.758 233.08 153.374-88.55a6.24 6.24 0 0 0 2.829-4.89V5.39c0-1.803-1.271-2.528-2.83-1.63L37.759 92.31a6.262 6.262 0 0 0-2.822 4.926V231.45c0 1.802 1.264 2.535 2.822 1.63z" fill="#90CAF9"/>
        <path d="m37.758 233.08 153.374-88.55a6.24 6.24 0 0 0 2.829-4.89V5.39c0-1.803-1.271-2.528-2.83-1.63L37.759 92.31a6.262 6.262 0 0 0-2.822 4.926V231.45c0 1.802 1.264 2.535 2.822 1.63z" fill="#90CAF9"/>
        <path d="m37.758 233.08 153.374-88.55a6.24 6.24 0 0 0 2.829-4.89V5.39c0-1.803-1.271-2.528-2.83-1.63L37.759 92.31a6.262 6.262 0 0 0-2.822 4.926V231.45c0 1.802 1.264 2.535 2.822 1.63z" fill="#000" opacity=".5"/>
        <path d="M37.342 233.296a6.09 6.09 0 0 1-5.027-.108 6.054 6.054 0 0 1-2.65-4.797v-15.08l5.3 3.066v15.08c-.036 1.645 1.005 2.384 2.377 1.839z" fill="#90CAF9"/>
        <path d="M37.342 233.296a6.09 6.09 0 0 1-5.027-.108 6.054 6.054 0 0 1-2.65-4.797v-15.08l5.3 3.066v15.08c-.036 1.645 1.005 2.384 2.377 1.839z" fill="#000" opacity=".7"/>
        <path d="M34.936 216.355v15.08c0 1.803 1.264 2.536 2.822 1.63l153.374-88.535a6.24 6.24 0 0 0 2.829-4.89v-15.116L34.936 216.355z" fill="#90CAF9"/>
        <path d="M34.936 216.355v15.08c0 1.803 1.264 2.536 2.822 1.63l153.374-88.535a6.24 6.24 0 0 0 2.829-4.89v-15.116L34.936 216.355z" opacity=".5" fill="#000"/>
        <path d="M40.236 205.218V98.938A3.727 3.727 0 0 1 41.93 96l145.058-83.738c.934-.539 1.695-.1 1.695.984v106.251a3.749 3.749 0 0 1-1.695 2.937L41.93 206.165c-.94.568-1.694.13-1.694-.947z" fill="#FAFAFA"/>
        <path d="M114.445 176.572a5.845 5.845 0 0 0-2.65 4.589c0 1.687 1.185 2.377 2.65 1.53a5.86 5.86 0 0 0 2.65-4.59c0-1.694-1.185-2.376-2.65-1.529z" fill="#90CAF9"/>
        <path d="M114.445 176.572a5.845 5.845 0 0 0-2.65 4.589c0 1.687 1.185 2.377 2.65 1.53a5.86 5.86 0 0 0 2.65-4.59c0-1.694-1.185-2.376-2.65-1.529z" fill="#FFF" opacity=".5"/>
        <path d="M35.762 94.406a6.025 6.025 0 0 0-.833 2.83v119.12l-5.3-3.067V94.148a5.939 5.939 0 0 1 .833-2.794l5.3 3.052z" fill="#90CAF9"/>
        <path d="M35.762 94.406a6.025 6.025 0 0 0-.833 2.83v119.12l-5.3-3.067V94.148a5.939 5.939 0 0 1 .833-2.794l5.3 3.052z" fill="#000" opacity=".7"/>
        <g>
            <path d="m90.79 263.794 38.319 22.19a4.74 4.74 0 0 0 4.308 0L246.62 220.75c1.192-.718 1.192-1.795 0-2.484l-38.326-22.19a4.74 4.74 0 0 0-4.308 0L90.79 261.316c-1.185.682-1.192 1.803 0 2.478z" fill="#E0E0E0"/>
            <path d="M244.3 214.287a1.515 1.515 0 0 0-.89-1.242L207.41 192.27a4.74 4.74 0 0 0-4.309 0l-109.87 63.524c-.496.226-.832.7-.883 1.242v3.777c.049.544.39 1.017.89 1.236l35.985 20.782a4.761 4.761 0 0 0 4.308 0l109.87-63.43c.499-.221.84-.694.891-1.236l.007-3.878z" fill="#90CAF9"/>
            <path d="M244.3 214.287a1.515 1.515 0 0 0-.89-1.242L207.41 192.27a4.74 4.74 0 0 0-4.309 0l-109.87 63.524c-.496.226-.832.7-.883 1.242v3.777c.049.544.39 1.017.89 1.236l35.985 20.782a4.761 4.761 0 0 0 4.308 0l109.87-63.43c.499-.221.84-.694.891-1.236l.007-3.878z" fill="#000" opacity=".5"/>
            <path d="m129.245 278.967-35.984-20.689c-1.185-.682-1.192-1.788 0-2.477l109.87-63.524a4.74 4.74 0 0 1 4.309 0l35.999 20.782c1.184.718 1.184 1.796 0 2.485l-109.87 63.43a4.761 4.761 0 0 1-4.324-.007z" fill="#90CAF9"/>
            <path d="m129.245 278.967-35.984-20.689c-1.185-.682-1.192-1.788 0-2.477l109.87-63.524a4.74 4.74 0 0 1 4.309 0l35.999 20.782c1.184.718 1.184 1.796 0 2.485l-109.87 63.43a4.761 4.761 0 0 1-4.324-.007z" fill="#000" opacity=".3"/>
            <path d="M131.256 279.477v3.863a4.574 4.574 0 0 1-2.018-.495l-35.97-20.782a1.515 1.515 0 0 1-.898-1.242v-3.785c.057.545.399 1.018.898 1.242l35.97 20.696a4.395 4.395 0 0 0 2.018.503z" fill="#90CAF9"/>
            <path d="M131.256 279.477v3.863a4.574 4.574 0 0 1-2.018-.495l-35.97-20.782a1.515 1.515 0 0 1-.898-1.242v-3.785c.057.545.399 1.018.898 1.242l35.97 20.696a4.395 4.395 0 0 0 2.018.503z" fill="#000" opacity=".7"/>
            <path d="m177.207 219.027 4.1 2.37a.56.56 0 0 0 .267.064l3.777-2.104-4.41-2.485-3.734 2.155zM182.14 216.183l4.123 2.377a.51.51 0 0 0 .244.05h.15l3.627-2.097-4.409-2.477-3.734 2.147zM168.899 223.83l4.115 2.378c.076.036.16.053.244.05l6.118-3.454-4.409-2.478-6.068 3.505zM163.966 226.682l4.107 2.37a.56.56 0 0 0 .251.057l3.785-2.104-4.41-2.478-3.733 2.155zM141.417 263.966l3.784-2.104-4.409-2.478-3.734 2.155 4.115 2.384c.078.03.16.044.244.043zM159.025 229.525l4.1 2.37a.51.51 0 0 0 .266.065l3.777-2.104-4.409-2.485-3.734 2.154zM186.521 220.097l-3.734 2.154 4.108 2.37a.481.481 0 0 0 .251.057l3.785-2.104-4.41-2.477zM172.726 239.421l3.785-2.104-4.416-2.478-3.735 2.155 4.115 2.377a.539.539 0 0 0 .251.05zM192.115 221.835l3.778-2.105-4.41-2.484-3.734 2.154 4.122 2.377a.51.51 0 0 0 .244.058zM167.793 242.293l3.777-2.104-4.409-2.484-3.734 2.154 4.1 2.37a.51.51 0 0 0 .266.064zM162.86 245.166l3.777-2.104-4.41-2.485-3.733 2.154 4.114 2.377a.56.56 0 0 0 .252.058zM182.593 233.748l7.935-4.503-9.981-5.701-4.23 2.456 5.22 3.008a.259.259 0 0 1 .151.216.23.23 0 0 1-.129.194l-3.296 1.903 4.093 2.362c.073.04.154.062.237.065zM149.158 235.227l4.115 2.377a.51.51 0 0 0 .244.05l3.785-2.104-4.417-2.477-3.727 2.154zM177.66 236.599l3.784-2.104-4.409-2.478-3.734 2.155 4.086 2.355a.532.532 0 0 0 .273.072zM121.432 262.623l3.784-2.104-4.416-2.485-3.734 2.155 4.1 2.362a.56.56 0 0 0 .266.072zM109.677 258.02l4.122 2.384c.074.033.155.05.237.05h.15l3.634-2.097-4.416-2.477-3.727 2.14zM128.312 265.093h.15l3.59-2.097-4.408-2.477-3.734 2.154 4.121 2.377c.09.036.185.05.28.043zM131.55 269.66l3.785-2.104-4.417-2.477-3.734 2.154 4.1 2.363c.08.047.173.07.266.065zM114.61 255.17l4.115 2.383c.077.032.16.049.244.05l3.784-2.104-4.416-2.477-3.727 2.147zM136.484 266.817l3.777-2.111-4.41-2.478-3.726 2.154 4.114 2.377c.076.039.16.058.245.058zM129.417 246.602l4.108 2.377a.56.56 0 0 0 .251.05l3.785-2.097-4.417-2.484-3.727 2.154zM134.35 243.773l4.101 2.37a.51.51 0 0 0 .259.064l3.784-2.104-4.409-2.485-3.734 2.155zM139.284 240.922l4.093 2.37a.546.546 0 0 0 .266.064l3.785-2.104-4.41-2.477-3.734 2.147zM124.477 249.474l4.1 2.363c.079.046.168.07.259.072l3.791-2.111-4.423-2.478-3.727 2.154zM144.225 238.078l4.115 2.377a.59.59 0 0 0 .244.05l3.784-2.104-4.416-2.477-3.727 2.154zM119.543 252.347l4.115 2.37a.56.56 0 0 0 .252.057l3.777-2.104-4.41-2.477-3.734 2.154zM154.092 232.376l4.122 2.384c.074.033.155.05.236.05l3.785-2.103-4.41-2.485-3.733 2.154zM166.421 231.701l4.1 2.363a.524.524 0 0 0 .267.065h.15l3.627-2.097-4.41-2.478-3.734 2.147zM193.056 209.885l4.1 2.363c.08.043.169.065.259.064l3.784-2.104-4.416-2.477-3.727 2.154zM197.99 207.034l4.1 2.363a.51.51 0 0 0 .258.065l3.785-2.105-4.41-2.477-3.733 2.154zM161.488 234.545l4.1 2.37c.08.043.169.065.259.064l3.784-2.104-4.409-2.484-3.734 2.154zM202.923 204.183l4.1 2.37c.08.042.169.065.259.065l3.784-2.111-4.409-2.478-3.734 2.154z" fill="#37474F"/>
            <path d="M175.721 231.278h.15l3.627-2.097-4.409-2.478-3.734 2.155 4.1 2.362a.546.546 0 0 0 .266.058zM198.629 213.102l4.093 2.363c.084.046.177.07.273.072l3.777-2.104-4.41-2.485-3.733 2.154zM208.503 207.4l4.093 2.363c.08.047.172.072.266.072l3.784-2.104-4.424-2.478-3.72 2.148zM207.914 212.686l3.784-2.104-4.416-2.485-3.734 2.154 4.114 2.377a.56.56 0 0 0 .252.058zM223.145 210.158c.072.032.15.049.23.05h.158l3.626-2.09-9.989-5.701-3.734 2.154 9.709 5.587zM156.548 237.396l4.107 2.37a.503.503 0 0 0 .259.064h.15l3.634-2.09-4.416-2.484-3.734 2.14zM213.508 215.903h.15l3.627-2.097-4.41-2.477-3.733 2.154 4.1 2.363a.546.546 0 0 0 .266.057zM218.441 213.052l3.785-2.104-4.417-2.477-3.734 2.154 4.093 2.362a.567.567 0 0 0 .273.065zM131.873 251.629l4.1 2.362a.546.546 0 0 0 .266.072l3.778-2.104-4.41-2.485-3.734 2.155zM122.007 257.374l4.093 2.362a.524.524 0 0 0 .265.065h.151l3.634-2.097-4.417-2.485-3.726 2.155zM138.178 259.399l3.785-2.104-4.424-2.485-3.727 2.154 4.122 2.377c.075.04.16.06.244.058zM133.23 262.242l3.785-2.104-4.416-2.477-3.735 2.154 4.122 2.377a.51.51 0 0 0 .245.05zM143.112 256.548h.158l3.626-2.09-4.409-2.484-3.734 2.154 4.093 2.362a.524.524 0 0 0 .266.058zM151.614 240.247l4.108 2.37c.08.04.169.06.258.057h.151l3.626-2.097-4.409-2.477-3.734 2.147zM152.986 250.846l3.784-2.104-4.416-2.477-3.734 2.154 4.1 2.362a.56.56 0 0 0 .266.065zM148.052 253.697l3.778-2.068-4.41-2.478-3.734 2.155 4.122 2.384a.64.64 0 0 0 .244.007zM141.747 245.949l4.094 2.362a.524.524 0 0 0 .265.065l3.785-2.104-4.41-2.478-3.734 2.155zM126.94 254.501l4.093 2.363a.553.553 0 0 0 .273.064l3.777-2.104-4.409-2.477-3.734 2.154zM146.68 243.098l4.101 2.362a.524.524 0 0 0 .266.065l3.777-2.104-4.41-2.478-3.733 2.155zM136.821 248.792l4.093 2.37a.524.524 0 0 0 .266.065h.15l3.634-2.09-4.416-2.485-3.727 2.14zM157.92 247.995l3.784-2.104-4.417-2.477-3.727 2.154 4.108 2.37a.481.481 0 0 0 .251.057zM187.089 213.332l4.114 2.377c.077.035.16.052.245.05l3.784-2.104-4.416-2.477-3.727 2.154zM108.47 258.717l-3.734 2.154 4.122 2.377a.51.51 0 0 0 .244.05h.15l3.635-2.097-4.417-2.484zM115.867 260.885l-5.551 3.203 4.122 2.384c.074.033.155.05.237.05h.158l5.443-3.145-4.41-2.492zM102.481 254.358l-4.517 2.606 4.108 2.363a.503.503 0 0 0 .258.065l4.56-2.55-4.409-2.484zM125.985 267.93l-4.51 2.607 4.093 2.362a.56.56 0 0 0 .266.065l4.56-2.557-4.41-2.477zM122.739 263.363l-6.844 3.95 4.115 2.376c.077.035.16.053.244.05h.151l6.75-3.892-4.416-2.484zM110.194 254.853l3.777-2.104-4.438-2.477-3.734 2.154 4.1 2.37c.09.047.193.067.295.057zM127.048 273.754l4.1 2.37c.08.038.17.057.259.057l5.6-3.153-4.408-2.477-5.551 3.203zM115.127 252.002l3.784-2.104-4.416-2.477-3.727 2.154 4.115 2.377c.076.035.16.052.244.05zM137.015 239.37h.15l3.634-2.096-4.416-2.478-3.727 2.155 4.1 2.37c.08.039.17.056.259.05zM141.948 236.549l3.785-2.105-4.41-2.484-3.734 2.154 4.108 2.37a.496.496 0 0 0 .251.065zM132.082 242.214h.15l3.59-2.096-4.408-2.478-3.734 2.154 4.114 2.356c.088.047.188.07.288.064zM124.994 246.308h.158l3.626-2.09-4.409-2.485-3.734 2.155 4.108 2.37c.077.04.164.057.25.05zM120.06 249.159l3.785-2.105-4.41-2.484-3.733 2.154 4.114 2.377a.51.51 0 0 0 .244.058zM225.242 217.066l4.122 2.384c.075.03.156.045.237.043h.15l3.591-2.096-4.41-2.478-3.69 2.147zM199.52 231.91l4.092 2.362c.08.05.172.074.266.072l3.784-2.104-4.409-2.485-3.734 2.155zM215.368 222.768l4.1 2.363c.08.042.168.065.259.064h.15l8.567-4.947-4.409-2.478-8.667 4.998zM204.452 229.066l4.094 2.355a.51.51 0 0 0 .273.072l3.784-2.104-4.416-2.477-3.735 2.154zM209.393 226.215l4.079 2.348c.082.056.18.083.28.08l3.784-2.105-4.416-2.477-3.727 2.154zM146.875 233.676h.158l3.626-2.097-4.41-2.484-3.733 2.154 4.093 2.362a.546.546 0 0 0 .266.065zM228.33 208.837l-3.735 2.154 9.702 5.601c.075.033.155.05.237.05h.15l3.627-2.096-9.981-5.71zM139.521 266.558l4.093 2.363a.56.56 0 0 0 .266.064l4.56-2.556-4.438-2.477-4.48 2.606zM145.23 263.255l4.093 2.363a.554.554 0 0 0 .273.071h.151l28.05-16.215-4.417-2.484-28.15 16.265zM146.35 261.115l3.785-2.104-4.41-2.478-3.734 2.155 4.115 2.37c.076.037.16.057.244.057zM133.805 269.854l4.093 2.363c.082.045.173.07.266.072l4.56-2.557-4.41-2.484-4.509 2.606zM174.586 246.308l4.1 2.37c.08.04.17.063.26.064h.157l4.402-2.542-4.409-2.47-4.51 2.578zM186.011 239.708l4.115 2.377c.078.04.164.06.252.058h.15l4.41-2.542-4.41-2.485-4.517 2.592zM180.295 243.012l4.122 2.376c.077.036.16.053.244.05l4.56-2.556-4.409-2.477-4.517 2.607zM191.728 236.412l4.1 2.363a.524.524 0 0 0 .266.064h.15l5.444-3.145-4.41-2.477-5.55 3.195zM197.02 218.984h.15l3.634-2.09-4.38-2.5-3.734 2.155 4.115 2.377c.067.034.14.054.215.058zM203.239 228.276h.15l3.634-2.097-4.409-2.477-3.734 2.154 4.108 2.377c.079.034.165.049.25.043zM185.84 238.322l10.275-5.86-4.416-2.477-10.226 5.903 4.122 2.377c.075.04.16.06.244.057zM214.147 221.971h.158l3.626-2.097-4.409-2.477-3.734 2.154 4.115 2.377c.077.033.16.047.244.043zM219.088 219.127h.15l3.627-2.09-4.41-2.484-3.734 2.154 4.108 2.377c.082.035.17.05.259.043zM180.899 241.173l3.784-2.104-4.41-2.485-3.733 2.155 4.1 2.37c.08.041.168.063.259.064zM208.574 218.754h.151l3.627-2.097-4.438-2.485-3.734 2.155 4.093 2.355c.09.056.196.081.301.072zM156.21 255.413l3.784-2.104-4.416-2.477-3.727 2.154 4.115 2.377a.51.51 0 0 0 .244.05zM175.965 244.017l3.785-2.104-4.417-2.492-3.727 2.154 4.122 2.384a.653.653 0 0 0 .237.058zM151.291 258.264h.15l3.591-2.097-4.409-2.477-3.734 2.154 4.122 2.377a.51.51 0 0 0 .28.043zM161.158 252.57l3.784-2.105-4.423-2.484-3.735 2.154 4.13 2.384c.076.037.16.054.244.05zM166.098 249.719h.166l3.626-2.097-4.424-2.456-3.734 2.154 4.1 2.37a.51.51 0 0 0 .266.029zM171.032 246.868h.15l3.634-2.097-4.416-2.478-3.734 2.155 4.122 2.377c.077.03.16.045.244.043zM158.903 226.732l3.77-2.104-4.416-2.485-3.735 2.155 4.1 2.362a.474.474 0 0 0 .28.072zM224.02 216.276h.152l3.633-2.09-4.416-2.484-3.734 2.154 4.122 2.384c.078.029.16.04.244.036zM168.777 221.03l3.777-2.104-4.41-2.484-3.733 2.154 4.093 2.362a.553.553 0 0 0 .273.072zM179.735 214.704l3.785-2.104-4.417-2.485-3.727 2.154 4.1 2.37a.503.503 0 0 0 .26.065zM174.802 217.555l3.777-2.104-4.416-2.485-3.734 2.154 4.1 2.37a.546.546 0 0 0 .273.065zM153.97 229.583l3.784-2.111-4.416-2.478-3.727 2.155 4.1 2.37c.08.04.169.062.258.064zM163.836 223.881h.158l3.59-2.097-4.372-2.47-3.735 2.154 4.094 2.363a.546.546 0 0 0 .265.05zM184.669 211.853l3.784-2.104-4.41-2.478-3.733 2.155 4.1 2.362a.503.503 0 0 0 .259.065zM204.022 199.027l3.777-2.104-2.399-1.307-3.734 2.155 2.097 1.185c.08.043.168.067.259.071zM212.222 203.767l3.785-2.104-4.417-2.456-3.734 2.154 4.1 2.37a.56.56 0 0 0 .266.036zM189.243 207.58h.15l3.627-2.097-2.398-1.292-3.734 2.154 2.09 1.185a.64.64 0 0 0 .265.05zM194.148 204.73h.15l3.591-2.09-2.355-1.279-3.735 2.155 2.104 1.184a.553.553 0 0 0 .245.03zM199.081 201.878l3.784-2.104-2.398-1.285-3.734 2.154 2.111 1.192c.075.03.156.045.237.043z" fill="#37474F"/>
        </g>
        <g>
            <g opacity=".8" fill="#455A64">
                <path d="M204.697 15.917V122.52a4.89 4.89 0 0 1-2.212 3.835L58.799 209.469a1.436 1.436 0 0 1-.718.215 1.25 1.25 0 0 1-.28 0 .819.819 0 0 1-.187-.064l-.122-.072-.13-.086a.876.876 0 0 1-.122-.108 1.81 1.81 0 0 1-.409-.582 2.787 2.787 0 0 1-.23-1.12V101.544a4.92 4.92 0 0 1 2.22-3.842l143.664-83.049c.435-.302.99-.372 1.486-.186.068.03.133.066.194.107a.574.574 0 0 1 .144.151c.025.023.047.05.064.079.031.034.055.073.072.115.058.086.101.18.13.28a.826.826 0 0 1 .05.201.05.05 0 0 1 0 .043c.02.066.031.133.036.201a.811.811 0 0 1 .036.273z"/>
                <path d="M203.469 15.055c.074 0 .147.015.215.043h.043l.058.08.057.078v.036l.065.209V122.52a4.172 4.172 0 0 1-1.853 3.217L58.44 208.851a.718.718 0 0 1-.374.115h-.2l-.094-.065v-.036a.94.94 0 0 1-.237-.337 2.012 2.012 0 0 1-.173-.833v-106.15a4.158 4.158 0 0 1 1.86-3.218l143.615-83.07c.191-.117.408-.186.632-.202m0-.718c-.348.01-.687.112-.984.295L58.799 97.71a4.92 4.92 0 0 0-2.22 3.834V207.61c-.001.385.077.767.23 1.12.097.22.236.417.41.582.037.04.078.075.122.107l.13.087.121.071c.06.03.122.051.187.065.093.01.187.01.28 0h.036c.254-.007.502-.081.718-.215l143.672-83.071a4.89 4.89 0 0 0 2.212-3.835V15.637a.905.905 0 0 0-.036-.201.05.05 0 0 0 0-.043.826.826 0 0 0-.05-.201.991.991 0 0 0-.13-.28.388.388 0 0 0-.072-.115.345.345 0 0 0-.064-.08.574.574 0 0 0-.144-.15 1.307 1.307 0 0 0-.194-.108 1.17 1.17 0 0 0-.502-.107l-.036-.015z"/>
                <path d="M204.697 15.917V122.52a4.89 4.89 0 0 1-2.212 3.835L58.799 209.469a1.436 1.436 0 0 1-.718.215 1.25 1.25 0 0 1-.28 0 .819.819 0 0 1-.187-.064l-.122-.072-.13-.086a.876.876 0 0 1-.122-.108 1.81 1.81 0 0 1-.409-.582 2.787 2.787 0 0 1-.23-1.12V101.544a4.92 4.92 0 0 1 2.22-3.842l143.664-83.049c.435-.302.99-.372 1.486-.186.068.03.133.066.194.107a.574.574 0 0 1 .144.151c.025.023.047.05.064.079.031.034.055.073.072.115.058.086.101.18.13.28a.826.826 0 0 1 .05.201.05.05 0 0 1 0 .043c.02.066.031.133.036.201a.811.811 0 0 1 .036.273z" opacity=".7"/>
            </g>
            <path d="M203.971 14.445a1.616 1.616 0 0 0-1.486.187L58.799 97.71a4.919 4.919 0 0 0-2.22 3.834v7.239l-2.829-1.659v-7.181a4.89 4.89 0 0 1 2.212-3.828l143.694-83.078a1.53 1.53 0 0 1 1.608-.129c.395.237 2.233 1.293 2.707 1.537z" fill="#90CAF9"/>
            <path d="M204.697 15.896c0-1.394-.999-1.96-2.212-1.257L58.79 97.717a4.89 4.89 0 0 0-2.211 3.827v7.239l148.117-85.62v-7.267z" fill="#90CAF9"/>
            <path d="M202.485 14.653 58.799 97.717a4.452 4.452 0 0 0-1.559 1.673l-2.815-1.623a4.467 4.467 0 0 1 1.537-1.623l143.694-83.107a1.551 1.551 0 0 1 1.608-.136c.395.244 2.233 1.293 2.7 1.544a1.565 1.565 0 0 0-1.48.208z" opacity=".4" fill="#FFF"/>
            <path d="M53.75 107.138v-7.18c.031-.784.264-1.546.675-2.213l2.823 1.616a4.438 4.438 0 0 0-.668 2.205v7.238l-2.83-1.666z" fill="#000" opacity=".15"/>
            <path d="M191.397 24.14a3.31 3.31 0 0 0-1.25 2.65c0 1.062.56 1.6 1.25 1.206a3.31 3.31 0 0 0 1.25-2.65c-.036-1.063-.596-1.602-1.25-1.207zM195.864 21.54a3.289 3.289 0 0 0-1.25 2.643c0 1.062.56 1.6 1.25 1.206a3.31 3.31 0 0 0 1.278-2.65c0-1.063-.589-1.623-1.278-1.2zM200.366 18.962a3.289 3.289 0 0 0-1.25 2.65c0 1.063.561 1.601 1.25 1.199a3.289 3.289 0 0 0 1.25-2.65c0-1.091-.56-1.63-1.25-1.2z" fill="#455A64"/>
            <path d="m57.391 209.476-.273-.158a7.157 7.157 0 0 0-.718-.38l-.373-.209-.582-.33a8.48 8.48 0 0 0-.488-.28c-.137-.072-.23-.13-.273-.151a1.185 1.185 0 0 1-.38-.309 1.659 1.659 0 0 1-.295-.445 2.693 2.693 0 0 1-.259-1.17V107.13l2.83 1.659v98.826c.011.384.089.763.23 1.12.096.22.235.417.409.582a.36.36 0 0 0 .122.108l.05.05z" fill="#37474F" opacity=".9"/>
            <path d="M104.614 145.686s-5.228-3.382-5.903-3.403l-14.865-.467 5.91 3.145v.259l14.858.466z" fill="#263238"/>
            <path fill="#FAFAFA" d="M79.135 155.876v-9.335l25.479-31.676v12.352l-14.858 17.715v.259l14.858.467v12.351z"/>
            <path fill="#455A64" d="m104.614 114.894-5.903-3.404-25.486 31.676 5.91 3.404z"/>
            <path fill="#37474F" d="M73.225 143.166v9.306l5.91 3.404v-9.306z"/>
            <path fill="#FAFAFA" d="m120.039 151.92-7.9 4.567 19.72-72.278 7.626-4.402z"/>
            <path fill="#455A64" d="m139.478 79.807-5.91-3.404-7.626 4.402 5.903 3.404z"/>
            <path fill="#37474F" d="m125.942 80.805 5.903 3.404-19.712 72.278-5.91-3.404z"/>
            <path fill="#263238" d="m141.087 117.817 5.902 3.403 14.858-17.88-5.903-3.404z"/>
            <path fill="#FAFAFA" d="m161.847 103.34-14.858-.56V90.427l25.479 2.255v9.335l-25.479 31.597V121.22l14.858-17.622z"/>
            <path fill="#455A64" d="m141.087 87.024 5.902 3.404 25.486 2.255-5.91-3.404z"/>
            <path fill="#37474F" d="M146.99 90.428v12.351l-5.903-3.403V87.024M141.087 117.817l5.902 3.403v12.352l-5.902-3.404z"/>
            <g opacity=".8" fill="#455A64">
                <path d="M251.094 34.3v106.604a4.897 4.897 0 0 1-2.22 3.842l-61.247 35.33a1.357 1.357 0 0 1-.718.216c-.094 0-.188-.013-.28-.036l-.194-.065-.115-.071-.129-.087a.876.876 0 0 1-.122-.107 1.702 1.702 0 0 1-.41-.582 2.787 2.787 0 0 1-.23-1.12V72.159a4.912 4.912 0 0 1 2.213-3.842l61.204-35.295c.435-.307.994-.379 1.494-.193.066.03.128.07.186.114.055.041.103.09.144.144.025.023.047.05.065.08.03.033.054.072.071.114a.962.962 0 0 1 .137.287.768.768 0 0 1 .05.194.05.05 0 0 1 0 .043c.02.066.032.133.036.201a.579.579 0 0 1 .065.295z"/>
                <path d="M249.858 33.439c.075 0 .15.016.216.05h.043l.065.08.05.085.072.209a.14.14 0 0 1 0 .05 1.91 1.91 0 0 1 0 .215v106.776a4.18 4.18 0 0 1-1.86 3.217l-61.169 35.338a.718.718 0 0 1-.373.115H186.7l-.094-.058a1.027 1.027 0 0 1-.23-.337 2.012 2.012 0 0 1-.172-.833V72.159a4.173 4.173 0 0 1 1.853-3.217l61.247-35.295c.188-.121.403-.193.625-.208m0-.718a2.032 2.032 0 0 0-.984.301L187.7 68.317a4.912 4.912 0 0 0-2.212 3.842v106.065c-.001.385.077.767.23 1.12.094.22.233.419.41.582.037.04.077.075.121.107l.13.087.115.071.193.065c.092.023.186.036.28.036.255-.004.504-.078.719-.215l61.16-35.331a4.912 4.912 0 0 0 2.22-3.842V34.02a.905.905 0 0 0-.036-.201.05.05 0 0 0 0-.044.768.768 0 0 0-.05-.193.962.962 0 0 0-.137-.288.388.388 0 0 0-.072-.115.345.345 0 0 0-.064-.079.718.718 0 0 0-.144-.143 1.005 1.005 0 0 0-.187-.115 1.2 1.2 0 0 0-.51-.108l.065-.014z"/>
                <path d="M251.094 34.3v106.604a4.897 4.897 0 0 1-2.22 3.842l-61.247 35.33a1.357 1.357 0 0 1-.718.216c-.094 0-.188-.013-.28-.036l-.194-.065-.115-.071-.129-.087a.876.876 0 0 1-.122-.107 1.702 1.702 0 0 1-.41-.582 2.787 2.787 0 0 1-.23-1.12V72.159a4.912 4.912 0 0 1 2.213-3.842l61.204-35.295c.435-.307.994-.379 1.494-.193.066.03.128.07.186.114.055.041.103.09.144.144.025.023.047.05.065.08.03.033.054.072.071.114a.962.962 0 0 1 .137.287.768.768 0 0 1 .05.194.05.05 0 0 1 0 .043c.02.066.032.133.036.201a.579.579 0 0 1 .065.295z"/>
            </g>
            <path d="M250.368 32.829a1.616 1.616 0 0 0-1.493.193l-61.248 35.295a4.912 4.912 0 0 0-2.212 3.842v7.239l-2.829-1.659v-7.181a4.89 4.89 0 0 1 2.212-3.828l61.254-35.302a1.551 1.551 0 0 1 1.602-.129c.402.23 2.24 1.307 2.714 1.53z" fill="#90CAF9"/>
            <path d="M251.086 34.286c0-1.436-.99-1.967-2.211-1.264l-61.248 35.303a4.89 4.89 0 0 0-2.212 3.834v7.239l65.671-37.844v-7.268z" fill="#90CAF9"/>
            <path d="m248.846 33.022-61.24 35.303a4.524 4.524 0 0 0-1.566 1.637l-2.808-1.623a4.388 4.388 0 0 1 1.537-1.616l61.276-35.302a1.558 1.558 0 0 1 1.609-.13c.402.245 2.233 1.286 2.7 1.538a1.587 1.587 0 0 0-1.508.193z" opacity=".4" fill="#FFF"/>
            <path d="M182.586 77.746v-7.18a4.574 4.574 0 0 1 .675-2.213l2.815 1.616a4.503 4.503 0 0 0-.66 2.205v7.238l-2.83-1.666z" fill="#000" opacity=".15"/>
            <path d="M237.751 42.53a3.289 3.289 0 0 0-1.25 2.643c0 1.063.56 1.601 1.25 1.206a3.31 3.31 0 0 0 1.25-2.65c0-1.07-.56-1.601-1.25-1.199zM242.254 39.923a3.303 3.303 0 0 0-1.25 2.65c0 1.063.56 1.602 1.25 1.2a3.267 3.267 0 0 0 1.25-2.65c0-1.063-.554-1.602-1.25-1.2zM246.756 37.317a3.31 3.31 0 0 0-1.25 2.65c0 1.062.56 1.6 1.25 1.199a3.275 3.275 0 0 0 1.257-2.643c0-1.063-.56-1.608-1.257-1.206z" fill="#455A64"/>
            <path d="m186.227 180.084-.273-.158-.682-.38-.374-.216-.581-.33c-.187-.116-.36-.209-.489-.28-.129-.072-.23-.13-.272-.151a1.185 1.185 0 0 1-.381-.31 1.659 1.659 0 0 1-.294-.444 2.693 2.693 0 0 1-.259-1.171V77.739l2.83 1.659v98.826c.01.384.088.763.23 1.12.093.22.233.419.408.582a.359.359 0 0 0 .123.107.165.165 0 0 0 .014.05z" fill="#37474F" opacity=".9"/>
            <path d="M190.852 85.408a.934.934 0 0 1 .114-.409l1.595-3.296a.208.208 0 0 1 .071-.093v-.036a.108.108 0 0 1 .13 0c.038.043.057.1.05.158v1.141a1.5 1.5 0 0 1 0 .345c-.03.104-.069.204-.115.302l-.84 1.738.84.775c.05.047.088.103.115.165.015.103.015.207 0 .31v1.105a.503.503 0 0 1-.05.223.345.345 0 0 1-.13.15.086.086 0 0 1-.071 0l-1.595-1.436a.338.338 0 0 1-.114-.28v-.862zM196.675 77.129c.028-.112.07-.22.122-.324a.539.539 0 0 1 .237-.25l.596-.346a.086.086 0 0 1 .123 0c.04.042.062.1.057.158a.395.395 0 0 1 0 .123l-2.729 11.633c-.024.11-.063.216-.115.316a.567.567 0 0 1-.237.266l-.574.33a.093.093 0 0 1-.122 0 .23.23 0 0 1-.058-.165.92.92 0 0 1 0-.122l2.7-11.62zM200.898 80.432a.898.898 0 0 1-.108.41l-1.594 3.295a.46.46 0 0 1-.072.1h-.043a.1.1 0 0 1-.122 0 .23.23 0 0 1-.05-.164v-1.106a1.5 1.5 0 0 1 0-.345 1.48 1.48 0 0 1 .115-.301l.84-1.738-.84-.769a.481.481 0 0 1-.115-.172 1.084 1.084 0 0 1 0-.309v-1.106c0-.077.017-.153.05-.222a.388.388 0 0 1 .122-.151H199.196l1.594 1.436c.079.074.119.18.108.287v.855zM205.321 79.664a.13.13 0 0 1 .158 0c.048.055.071.128.065.2v1.214a.61.61 0 0 1-.065.273.402.402 0 0 1-.158.194l-.718.43a.108.108 0 0 1-.15 0 .244.244 0 0 1-.065-.193v-1.22c0-.095.023-.189.064-.274a.41.41 0 0 1 .151-.186l.718-.438zM207.835 78.22a.122.122 0 0 1 .158 0c.047.056.07.128.064.201v1.214a.61.61 0 0 1-.064.273.402.402 0 0 1-.158.194l-.718.43a.13.13 0 0 1-.158 0 .273.273 0 0 1-.065-.2V79.11a.66.66 0 0 1 .065-.273.38.38 0 0 1 .158-.187l.718-.43zM210.348 76.77a.108.108 0 0 1 .15 0c.049.055.072.128.066.2v1.214a.66.66 0 0 1-.065.28.452.452 0 0 1-.15.187l-.755.43a.115.115 0 0 1-.15 0 .273.273 0 0 1-.065-.2V77.66a.66.66 0 0 1 .064-.273.452.452 0 0 1 .151-.187l.754-.43zM191.527 94.291l36.795-21.241c.438-.252.79-.072.79.395a1.68 1.68 0 0 1-.79 1.307L191.527 96c-.439.252-.79.072-.79-.402.04-.536.333-1.022.79-1.307z" fill="#90CAF9"/>
            <path d="m203.332 107.928 36.796-21.249c.438-.25.79-.071.79.403a1.688 1.688 0 0 1-.79 1.307l-36.796 21.241c-.438.252-.79.072-.79-.395a1.68 1.68 0 0 1 .79-1.307zM203.332 114.743l17.615-10.161c.431-.251.783-.072.783.402a1.673 1.673 0 0 1-.783 1.3l-17.615 10.168c-.438.244-.79.072-.79-.402.04-.537.334-1.022.79-1.307zM203.332 121.558l17.615-10.161c.431-.244.783-.072.783.402a1.702 1.702 0 0 1-.783 1.307l-17.615 10.161c-.438.251-.79.072-.79-.402.04-.537.334-1.022.79-1.307z" fill="#E0E0E0"/>
            <path d="m231.374 71.29 14.657-8.524c.438-.25.79-.071.79.395a1.68 1.68 0 0 1-.79 1.307l-14.657 8.496c-.438.25-.79.071-.79-.395.048-.527.34-1 .79-1.279zM191.527 169.269l36.795-21.242c.438-.25.79-.071.79.395a1.68 1.68 0 0 1-.79 1.307l-36.795 21.25c-.439.243-.79.07-.79-.403.04-.537.333-1.022.79-1.307zM231.374 146.26l14.657-8.494c.438-.252.79-.072.79.402a1.688 1.688 0 0 1-.79 1.307l-14.657 8.495c-.438.251-.79.072-.79-.402.04-.537.334-1.022.79-1.307zM231.374 125.852l14.657-8.51c.438-.25.79-.071.79.396a1.68 1.68 0 0 1-.79 1.307l-14.657 8.495c-.438.251-.79.072-.79-.395a1.68 1.68 0 0 1 .79-1.293zM231.374 132.667l14.657-8.495c.438-.251.79-.072.79.395a1.68 1.68 0 0 1-.79 1.307l-14.657 8.495c-.438.251-.79.072-.79-.395a1.68 1.68 0 0 1 .79-1.307z" fill="#90CAF9"/>
            <path d="m191.527 162.461 36.795-21.248c.438-.245.79-.072.79.402a1.688 1.688 0 0 1-.79 1.307l-36.795 21.241c-.439.252-.79.072-.79-.395a1.68 1.68 0 0 1 .79-1.307z" fill="#F5F5F5"/>
            <path d="m218.872 133.048 8.237-4.754c.43-.252.783-.072.783.395a1.688 1.688 0 0 1-.783 1.307l-8.237 4.754c-.438.25-.79.079-.79-.395a1.68 1.68 0 0 1 .79-1.307zM191.527 101.128l21.464-12.402c.43-.251.783-.072.783.395a1.688 1.688 0 0 1-.783 1.307l-21.464 12.402c-.439.251-.79.072-.79-.395a1.68 1.68 0 0 1 .79-1.307z" fill="#90CAF9"/>
            <path d="m191.527 101.128 21.464-12.402c.43-.251.783-.072.783.395a1.688 1.688 0 0 1-.783 1.307l-21.464 12.402c-.439.251-.79.072-.79-.395a1.68 1.68 0 0 1 .79-1.307z" fill="#FFF" opacity=".6"/>
            <path d="m191.527 107.928 7.281-4.23c.431-.25.783-.071.783.403a1.702 1.702 0 0 1-.783 1.307l-7.281 4.208c-.439.251-.79.072-.79-.402.046-.53.339-1.005.79-1.286z" fill="#90CAF9"/>
            <path d="m191.527 107.928 7.281-4.23c.431-.25.783-.071.783.403a1.702 1.702 0 0 1-.783 1.307l-7.281 4.208c-.439.251-.79.072-.79-.402.046-.53.339-1.005.79-1.286z" fill="#FFF" opacity=".6"/>
            <path d="m191.527 114.75 7.281-4.215c.431-.251.783-.072.783.402a1.702 1.702 0 0 1-.783 1.307l-7.281 4.208c-.439.252-.79.072-.79-.402a1.666 1.666 0 0 1 .79-1.3z" fill="#90CAF9"/>
            <path d="m191.527 114.75 7.281-4.215c.431-.251.783-.072.783.402a1.702 1.702 0 0 1-.783 1.307l-7.281 4.208c-.439.252-.79.072-.79-.402a1.666 1.666 0 0 1 .79-1.3z" fill="#FFF" opacity=".6"/>
            <path d="m191.527 121.565 7.281-4.222c.431-.252.783-.08.783.395a1.688 1.688 0 0 1-.783 1.307l-7.281 4.208c-.439.251-.79.071-.79-.395a1.68 1.68 0 0 1 .79-1.293z" fill="#90CAF9"/>
            <path d="m191.527 121.565 7.281-4.222c.431-.252.783-.08.783.395a1.688 1.688 0 0 1-.783 1.307l-7.281 4.208c-.439.251-.79.071-.79-.395a1.68 1.68 0 0 1 .79-1.293z" fill="#FFF" opacity=".6"/>
            <path d="m191.527 128.38 7.281-4.208c.431-.251.783-.072.783.395a1.688 1.688 0 0 1-.783 1.307l-7.281 4.208c-.439.251-.79.072-.79-.395a1.68 1.68 0 0 1 .79-1.307z" fill="#90CAF9"/>
            <path d="m191.527 128.38 7.281-4.208c.431-.251.783-.072.783.395a1.688 1.688 0 0 1-.783 1.307l-7.281 4.208c-.439.251-.79.072-.79-.395a1.68 1.68 0 0 1 .79-1.307z" fill="#FFF" opacity=".6"/>
            <path d="m216.036 86.967 9.335-5.372c.43-.251.79-.072.79.395a1.695 1.695 0 0 1-.79 1.307l-9.335 5.372c-.431.25-.783.071-.783-.395.038-.536.329-1.02.783-1.307z" fill="#90CAF9"/>
            <path d="m216.036 86.967 9.335-5.372c.43-.251.79-.072.79.395a1.695 1.695 0 0 1-.79 1.307l-9.335 5.372c-.431.25-.783.071-.783-.395.038-.536.329-1.02.783-1.307z" fill="#FFF" opacity=".6"/>
            <path d="m212.222 123.253 21.429-12.373c.43-.252.782-.072.782.402a1.702 1.702 0 0 1-.782 1.307l-21.429 12.373c-.43.251-.79.072-.79-.402.04-.537.334-1.023.79-1.307zM224.567 122.951l21.464-12.402c.438-.251.79-.071.79.395a1.68 1.68 0 0 1-.79 1.307l-21.464 12.402c-.431.251-.783.072-.783-.395.038-.535.329-1.02.783-1.307zM236.703 109.092l9.335-5.372c.438-.251.79-.072.79.402a1.688 1.688 0 0 1-.79 1.307l-9.335 5.372c-.438.244-.79.072-.79-.402.04-.537.333-1.023.79-1.307z" fill="#F5F5F5"/>
            <path d="m203.332 101.113 21.464-12.401c.431-.252.783-.072.783.402a1.702 1.702 0 0 1-.783 1.307l-21.464 12.394c-.438.252-.79.08-.79-.395.04-.536.334-1.022.79-1.307z" fill="#90CAF9"/>
            <path d="m203.332 101.113 21.464-12.401c.431-.252.783-.072.783.402a1.702 1.702 0 0 1-.783 1.307l-21.464 12.394c-.438.252-.79.08-.79-.395.04-.536.334-1.022.79-1.307z" fill="#FFF" opacity=".6"/>
            <path d="m227.841 86.952 9.336-5.371c.438-.251.79-.072.79.395a1.68 1.68 0 0 1-.79 1.307l-9.336 5.371c-.43.252-.782.072-.782-.395.038-.535.328-1.02.782-1.307z" fill="#90CAF9"/>
            <path d="m227.841 86.952 9.336-5.371c.438-.251.79-.072.79.395a1.68 1.68 0 0 1-.79 1.307l-9.336 5.371c-.43.252-.782.072-.782-.395.038-.535.328-1.02.782-1.307z" fill="#FFF" opacity=".6"/>
        </g>
        <g>
            <path d="M296.392 39.378V31.17l-6.901-.596a.424.424 0 0 0-.287.057c-.273.144-6.808 3.885-6.887 3.935a.503.503 0 0 0-.115.776l7.318 7.935 6.872-3.9z" fill="#90CAF9"/>
            <path d="m289.52 43.306-7.318-7.935a.51.51 0 0 1 .417-.848l6.9.603v8.18z" fill="#90CAF9"/>
            <path d="m296.385 31.17-6.865 3.935-6.923-.582a.668.668 0 0 0-.244 0c.553-.323 6.578-3.77 6.822-3.899a.46.46 0 0 1 .294-.057l6.916.603z" fill="#90CAF9"/>
            <path d="m296.385 31.17-6.865 3.935-6.923-.582a.668.668 0 0 0-.244 0c.553-.323 6.578-3.77 6.822-3.899a.46.46 0 0 1 .294-.057l6.916.603z" fill="#FFF" opacity=".5"/>
            <path d="M289.534 25.906a5.522 5.522 0 0 1 2.485-4.309l2.025-1.199a5.48 5.48 0 0 1 4.976 0l21.594 12.495a5.486 5.486 0 0 1 2.491 4.309v24.947a5.494 5.494 0 0 1-2.491 4.309l-2.025 1.17a5.522 5.522 0 0 1-4.977 0l-6.37-3.684-8.287-4.768-6.936-4.007a5.494 5.494 0 0 1-2.485-4.309V25.906z" fill="#90CAF9"/>
            <path d="M323.105 62.149a5.494 5.494 0 0 1-2.491 4.309l-2.025 1.17a5.58 5.58 0 0 1-4.553.201c1.177.438 2.068-.222 2.068-1.637V41.223a5.077 5.077 0 0 0-.718-2.456l6.987-4.007c.445.744.692 1.59.718 2.456l.014 24.933z" fill="#000" opacity=".2"/>
            <path d="M289.613 25.195c.294-1.056 1.257-1.393 2.406-.718l21.6 12.438a4.984 4.984 0 0 1 1.752 1.86l6.995-4.015a4.962 4.962 0 0 0-1.752-1.852l-21.587-12.51a5.522 5.522 0 0 0-4.94 0l-2.033 1.17a5.508 5.508 0 0 0-2.441 3.627z" fill="#FFF" opacity=".5"/>
            <path fill="#455A64" d="m302.819 35.012-8.222-1.15 1.149 15.174 7.073 9.185z"/>
            <path fill="#37474F" d="m302.819 35.012 8.222 8.351-1.156 13.838-7.066 1.02z"/>
            <path d="m306.201 54.752 1.889 1.092-5.257-18.52-5.25 12.452 1.882 1.091 1.135-2.7 4.467 2.578 1.134 4.007zm-4.933-8.215 1.55-3.69 1.552 5.485-3.102-1.795z" fill="#FAFAFA"/>
            <path d="M296.392 85.94v-8.172l-6.901-.603a.531.531 0 0 0-.287.057c-.273.144-6.808 3.885-6.887 3.935a.51.51 0 0 0-.115.783l7.318 7.9 6.872-3.9z" fill="#90CAF9"/>
            <path d="m289.52 89.868-7.318-7.9a.503.503 0 0 1 .417-.847l6.9.604v8.143z" fill="#EBEBEB"/>
            <path d="m296.385 77.76-6.865 3.936-6.901-.603a.546.546 0 0 0-.245 0c.553-.33 6.578-3.77 6.822-3.907a.51.51 0 0 1 .295-.057l6.894.632z" fill="#90CAF9"/>
            <path d="m296.385 77.76-6.865 3.936-6.901-.603a.546.546 0 0 0-.245 0c.553-.33 6.578-3.77 6.822-3.907a.51.51 0 0 1 .295-.057l6.894.632z" fill="#F5F5F5"/>
            <path d="M289.534 72.468a5.494 5.494 0 0 1 2.485-4.309l2.025-1.17a5.48 5.48 0 0 1 4.976 0l21.594 12.466a5.494 5.494 0 0 1 2.491 4.309v24.961a5.486 5.486 0 0 1-2.491 4.309l-2.025 1.17a5.48 5.48 0 0 1-4.977 0l-6.37-3.676-8.287-4.79-6.936-4a5.508 5.508 0 0 1-2.485-4.308V72.468z" fill="#EBEBEB"/>
            <path d="M323.105 108.725a5.486 5.486 0 0 1-2.491 4.309l-2.025 1.17a5.551 5.551 0 0 1-4.553.202c1.177.445 2.068-.216 2.068-1.638V87.807a5.027 5.027 0 0 0-.718-2.449l7.001-4.043c.446.741.694 1.585.718 2.449v24.961z" fill="#E0E0E0"/>
            <path d="M289.613 71.757c.294-1.055 1.257-1.393 2.406-.718l21.6 12.466a4.984 4.984 0 0 1 1.752 1.86l6.995-4.035a4.984 4.984 0 0 0-1.752-1.86l-21.587-12.474a5.522 5.522 0 0 0-4.976 0l-2.032 1.17a5.508 5.508 0 0 0-2.406 3.591z" fill="#F5F5F5"/>
            <path fill="#90CAF9" d="m302.819 87.72 1.81-3.417 6.412 3.705-8.222 15.46-8.222-24.96 6.405 3.698z"/>
            <path fill="#000" opacity=".15" d="m302.819 87.72 1.81-3.417 6.412 3.705-8.222 15.46-8.222-24.96 6.405 3.698z"/>
            <path d="m302.819 87.72-1.817-5.507-2.872-1.652c2.29 6.959 4.675 14.183 4.675 14.183l4.667-8.79-2.872-1.651-1.781 3.418z" fill="#37474F"/>
            <path d="M296.392 132.51v-8.18l-6.901-.603a.531.531 0 0 0-.287.057l-6.887 3.935a.51.51 0 0 0-.115.783l7.318 7.9 6.872-3.893z" fill="#90CAF9"/>
            <path d="m289.52 136.43-7.318-7.9a.503.503 0 0 1 .417-.847l6.9.604v8.143z" fill="#37474F"/>
            <path d="m296.385 124.33-6.865 3.928-6.901-.603a.546.546 0 0 0-.245 0l6.822-3.907a.567.567 0 0 1 .295-.057l6.894.639z" fill="#90CAF9"/>
            <path d="m296.385 124.33-6.865 3.928-6.901-.603a.546.546 0 0 0-.245 0l6.822-3.907a.567.567 0 0 1 .295-.057l6.894.639z" fill="#455A64"/>
            <path d="M289.534 119.03a5.508 5.508 0 0 1 2.485-4.308l2.025-1.171a5.522 5.522 0 0 1 4.976 0l21.594 12.466a5.508 5.508 0 0 1 2.491 4.309v24.94a5.486 5.486 0 0 1-2.491 4.309l-2.025 1.17a5.48 5.48 0 0 1-4.977 0l-6.37-3.677-8.287-4.79-6.936-4a5.494 5.494 0 0 1-2.485-4.308v-24.94z" fill="#37474F"/>
            <path d="M323.105 155.273a5.486 5.486 0 0 1-2.491 4.309l-2.025 1.17a5.551 5.551 0 0 1-4.553.201c1.177.446 2.068-.215 2.068-1.637v-24.94a5.077 5.077 0 0 0-.718-2.456l7.001-4.043c.445.744.693 1.59.718 2.456v24.94z" fill="#263238"/>
            <path d="M289.613 118.326c.294-1.055 1.257-1.393 2.406-.718l21.6 12.474a4.962 4.962 0 0 1 1.752 1.853l6.995-4.036a4.984 4.984 0 0 0-1.752-1.86l-21.587-12.474a5.522 5.522 0 0 0-4.976 0l-2.032 1.178a5.486 5.486 0 0 0-2.406 3.583z" fill="#455A64"/>
            <path d="M307.623 138.089c.51-2.585.302-4.962-.718-6.312a2.391 2.391 0 0 0-1.953-1.034h-.18a3.907 3.907 0 0 0-1.903.718c-1.436-2.715-2.872-4.38-3.9-4.38h-.15a.92.92 0 0 0-.646.488c-.496.825-.524 2.613-.151 4.962a3.971 3.971 0 0 0-2.686.194 1.688 1.688 0 0 0-.833 1.565c0 1.558 1.372 3.698 3.505 5.745-.51 2.585-.302 4.962.718 6.312.22.29.496.534.811.718.345.2.736.304 1.135.302.257-.002.513-.038.76-.108a4.646 4.646 0 0 0 1.373-.718c1.156 2.154 2.312 3.713 3.238 4.251.216.134.464.209.718.216a.488.488 0 0 0 .144 0 .934.934 0 0 0 .653-.489c.496-.826.517-2.614.144-4.976.377.07.759.11 1.142.115a2.923 2.923 0 0 0 1.472-.33c.55-.324.872-.93.833-1.566-.022-1.494-1.393-3.634-3.526-5.673zm-2.463 4.158c-.24.432-.505.852-.79 1.256a23.949 23.949 0 0 1-3.03-1.752c-.28-.718-.56-1.48-.826-2.27a96.483 96.483 0 0 1-.718-2.24c.2-.445.416-.89.66-1.328.244-.438.517-.869.783-1.257.481.23.984.489 1.515.797.532.31 1.092.661 1.602 1.006.28.718.553 1.436.825 2.262.273.826.467 1.436.661 2.111-.187.467-.424.926-.682 1.415zm.718-3.67c-.158-.474-.323-.94-.488-1.393.48.359.933.718 1.357 1.106-.13.495-.28 1.005-.467 1.515-.143-.402-.273-.811-.416-1.228h.014zm-3.002-4.05c-.368-.21-.727-.405-1.077-.582.31-.385.652-.746 1.02-1.077.337.682.682 1.436 1.027 2.248-.33-.201-.654-.402-.984-.589h.014zm-3.052.632c-.129.237-.258.474-.373.718a33.608 33.608 0 0 1-.488-2.118c.487.138.967.303 1.436.495-.23.323-.417.589-.567.905h-.008zm0 4.467c.166.48.33.947.503 1.436-.51-.38-.99-.776-1.436-1.17.14-.548.308-1.087.503-1.617.143.431.287.884.438 1.329l-.008.022zm2.93 4.007c.366.208.718.395 1.07.574-.295.372-.62.72-.97 1.041-.33-.66-.66-1.378-.983-2.154.302.18.596.366.898.539h-.015zm3.052-.632c.151-.266.287-.532.417-.805.208.79.38 1.537.517 2.226a13.17 13.17 0 0 1-1.48-.517c.202-.287.388-.588.56-.904h-.014zm-.976-7.181a42.297 42.297 0 0 0-1.487-3.368c.361-.27.767-.474 1.2-.604a2.32 2.32 0 0 1 .61-.086c.289-.007.574.065.826.209.189.113.354.262.488.438.682.904.869 2.807.438 5.026a25.708 25.708 0 0 0-2.047-1.63l-.028.015zm-3.972-2.291a15.245 15.245 0 0 0-2.104-.769c-.359-2.226-.316-3.755.043-4.351a.467.467 0 0 1 .316-.295h.065a.776.776 0 0 1 .388.13c.682.394 1.666 1.673 2.736 3.67a9.83 9.83 0 0 0-1.43 1.6l-.014.015zm-1.881 3.353a16.516 16.516 0 0 0-.797 2.356c-1.838-1.781-2.937-3.505-2.937-4.56a1.048 1.048 0 0 1 .546-.962 2.492 2.492 0 0 1 1.22-.259c.397.005.791.051 1.178.136.208.984.474 2.104.804 3.275l-.014.014zm1.874 5.544a61.851 61.851 0 0 0 1.436 3.282 3.433 3.433 0 0 1-1.723.718 1.587 1.587 0 0 1-1.436-.64c-.682-.911-.87-2.814-.438-5.026.694.59 1.42 1.142 2.176 1.652l-.015.014zm3.892 2.233c.697.32 1.417.583 2.155.79.366 2.234.323 3.77-.036 4.374a.495.495 0 0 1-.323.258c-.654.115-1.882-1.343-3.225-3.878a9.594 9.594 0 0 0 1.444-1.572l-.015.028zm1.925-3.446c.292-.737.532-1.493.718-2.262 1.838 1.78 2.937 3.504 2.937 4.56.013.397-.198.768-.546.962a3.59 3.59 0 0 1-2.326.136c-.151-1.063-.438-2.204-.769-3.41l-.014.014z" fill="#90CAF9"/>
            <path d="M304.277 139.92c0 1.077-.654 1.573-1.437 1.106a3.49 3.49 0 0 1-1.436-2.794c0-1.07.654-1.565 1.436-1.098a3.49 3.49 0 0 1 1.437 2.786z" fill="#90CAF9"/>
            <g opacity=".65" fill="#FFF">
                <path d="M307.623 138.089c.51-2.585.302-4.962-.718-6.312a2.391 2.391 0 0 0-1.953-1.034h-.18a3.907 3.907 0 0 0-1.903.718c-1.436-2.715-2.872-4.38-3.9-4.38h-.15a.92.92 0 0 0-.646.488c-.496.825-.524 2.613-.151 4.962a3.971 3.971 0 0 0-2.686.194 1.688 1.688 0 0 0-.833 1.565c0 1.558 1.372 3.698 3.505 5.745-.51 2.585-.302 4.962.718 6.312.22.29.496.534.811.718.345.2.736.304 1.135.302.257-.002.513-.038.76-.108a4.646 4.646 0 0 0 1.373-.718c1.156 2.154 2.312 3.713 3.238 4.251.216.134.464.209.718.216a.488.488 0 0 0 .144 0 .934.934 0 0 0 .653-.489c.496-.826.517-2.614.144-4.976.377.07.759.11 1.142.115a2.923 2.923 0 0 0 1.472-.33c.55-.324.872-.93.833-1.566-.022-1.494-1.393-3.634-3.526-5.673zm-2.463 4.158c-.24.432-.505.852-.79 1.256a23.949 23.949 0 0 1-3.03-1.752c-.28-.718-.56-1.48-.826-2.27a96.48 96.48 0 0 1-.718-2.24c.2-.445.416-.89.66-1.328.244-.438.517-.869.783-1.257.481.23.984.489 1.515.797.532.31 1.092.661 1.602 1.006.28.718.553 1.436.825 2.262.273.826.467 1.436.661 2.111-.187.467-.424.926-.682 1.415zm.718-3.67c-.158-.474-.323-.94-.488-1.393.48.359.933.718 1.357 1.106-.13.495-.28 1.005-.467 1.515-.143-.402-.273-.811-.416-1.228h.014zm-3.002-4.05c-.368-.21-.727-.405-1.077-.582.31-.385.652-.746 1.02-1.077.337.682.682 1.436 1.027 2.248-.33-.201-.654-.402-.984-.589h.014zm-3.052.632c-.129.237-.258.474-.373.718a33.608 33.608 0 0 1-.488-2.118c.487.138.967.303 1.436.495-.23.323-.417.589-.567.905h-.008zm0 4.467c.166.48.33.947.503 1.436-.51-.38-.99-.776-1.436-1.17.14-.548.308-1.087.503-1.617.143.431.287.884.438 1.329l-.008.022zm2.93 4.007c.366.208.718.395 1.07.574-.295.372-.62.72-.97 1.041-.33-.66-.66-1.378-.983-2.154.302.18.596.366.898.539h-.015zm3.052-.632c.151-.266.287-.532.417-.805.208.79.38 1.537.517 2.226a13.17 13.17 0 0 1-1.48-.517c.202-.287.388-.588.56-.904h-.014zm-.976-7.181a42.297 42.297 0 0 0-1.487-3.368c.361-.27.767-.474 1.2-.604a2.32 2.32 0 0 1 .61-.086c.289-.007.574.065.826.209.189.113.354.262.488.438.682.904.869 2.807.438 5.026a25.708 25.708 0 0 0-2.047-1.63l-.028.015zm-3.972-2.291a15.245 15.245 0 0 0-2.104-.769c-.359-2.226-.316-3.755.043-4.351a.467.467 0 0 1 .316-.295h.065a.776.776 0 0 1 .388.13c.682.394 1.666 1.673 2.736 3.67a9.83 9.83 0 0 0-1.43 1.6l-.014.015zm-1.881 3.353a16.516 16.516 0 0 0-.797 2.356c-1.838-1.781-2.937-3.505-2.937-4.56a1.048 1.048 0 0 1 .546-.962 2.492 2.492 0 0 1 1.22-.259c.397.005.791.051 1.178.136.208.984.474 2.104.804 3.275l-.014.014zm1.874 5.544a61.851 61.851 0 0 0 1.436 3.282 3.433 3.433 0 0 1-1.723.718 1.587 1.587 0 0 1-1.436-.64c-.682-.911-.87-2.814-.438-5.026.694.59 1.42 1.142 2.176 1.652l-.015.014zm3.892 2.233c.697.32 1.417.583 2.155.79.366 2.234.323 3.77-.036 4.374a.495.495 0 0 1-.323.258c-.654.115-1.882-1.343-3.225-3.878a9.594 9.594 0 0 0 1.444-1.572l-.015.028zm1.925-3.446c.292-.737.532-1.493.718-2.262 1.838 1.78 2.937 3.504 2.937 4.56.013.397-.198.768-.546.962a3.59 3.59 0 0 1-2.326.136c-.151-1.063-.438-2.204-.769-3.41l-.014.014z"/>
                <path d="M304.277 139.92c0 1.077-.654 1.573-1.437 1.106a3.49 3.49 0 0 1-1.436-2.794c0-1.07.654-1.565 1.436-1.098a3.49 3.49 0 0 1 1.437 2.786z"/>
            </g>
        </g>
        <g>
            <path d="M273.34 167.768c2.808.546 4.087 1.501 5.68 5.393 1.595 3.892 4.446 13.371 5.107 15.978.301 1.163-7.074 11.59-6.758 11.432.093-.043-2.872-5.026-2.872-5.026l3.626-6.923-2.578-6.305-2.204-14.549z" fill="#FFA8A7"/>
            <path d="M272.393 167.826s2.556-.46 4.25.948c1.696 1.407 1.954 2.348 3.103 5.235 1.15 2.886 3.03 8.904 3.03 8.904s-.545 3.232-5.809 3.87l-4.51-10.16s-1.572-6.14-.064-8.797z" fill="#90CAF9"/>
            <path d="M267.107 251.205a5.975 5.975 0 0 0 .166 2.736 6.133 6.133 0 0 0 2.211 2.664 10.966 10.966 0 0 1 1.839 2.226 9.192 9.192 0 0 0 1.917 2.399c.596.517 2.284.567 3.095.223.812-.345 1.092-.647 1.041-1.947-.05-1.3-3.992-1.745-3.992-1.745l-6.277-6.556z" fill="#455A64"/>
            <path d="M276.852 255.636c.33.122.417.761.467 2.04.043.962.445 2.369-.883 2.972-1.205.483-2.58.2-3.498-.718-.904-1.134-1.515-2.154-2.8-3.511-1.12-1.2-2.277-1.602-2.78-4-.315-1.537-.064-2.155.97-2.621 1.436-.604 3.67 1.378 4.783 1.687.976.252 3.418 4.022 3.741 4.15z" fill="#90CAF9"/>
            <path d="M276.852 255.636c.33.122.417.761.467 2.04.043.962.445 2.369-.883 2.972-1.205.483-2.58.2-3.498-.718-.904-1.134-1.515-2.154-2.8-3.511-1.12-1.2-2.277-1.602-2.78-4-.315-1.537-.064-2.155.97-2.621 1.436-.604 3.67 1.378 4.783 1.687.976.252 3.418 4.022 3.741 4.15z" fill="#000" opacity=".2"/>
            <path d="m273.125 251.464-.187-.065a3.67 3.67 0 0 0-3.087 2.025c-.187.424.395.718.718.424a3.92 3.92 0 0 1 3.08-2.018 1.652 1.652 0 0 0-.524-.366z" fill="#FAFAFA"/>
            <path d="M274.044 252.189a3.655 3.655 0 0 0-2.872 2.01c-.187.417.395.719.718.417a3.784 3.784 0 0 1 2.57-1.917 3.494 3.494 0 0 0-.416-.51z" fill="#FAFAFA"/>
            <path d="M249.19 270.888c-.215 1.078.173 1.638 1.566 2.442a7.763 7.763 0 0 0 5.874.41c2.298-.668 3.397-1.667 4.352-1.91.955-.245 3.318-.26 4.258-.532.941-.273.927-.761.927-1.896l-16.976 1.486z" fill="#455A64"/>
            <path d="M265.24 263.93s.446 1.364.718 2.55c.194.947.467 2.52.137 3.23-.33.712-1.623 1.171-3.59 1.157-1.293 0-3.318.869-4.697 1.637a7.181 7.181 0 0 1-4.488.625c-1.781-.208-3.59-1.242-3.907-1.975-.316-.732-.366-1.292 3.828-3.08.043 0 4.868-1.796 6.894-4.036l5.105-.108z" fill="#90CAF9"/>
            <path d="M265.24 263.93s.446 1.364.718 2.55c.194.947.467 2.52.137 3.23-.33.712-1.623 1.171-3.59 1.157-1.293 0-3.318.869-4.697 1.637a7.181 7.181 0 0 1-4.488.625c-1.781-.208-3.59-1.242-3.907-1.975-.316-.732-.366-1.292 3.828-3.08.043 0 4.868-1.796 6.894-4.036l5.105-.108z" opacity=".2" fill="#000"/>
            <path d="M257.176 272.784s-.36-3.59-3.282-4.632c-2.65-.933-4.955 1.027-4.703 2.736.172 1.142 3.396 3.72 7.985 1.896zM254.634 267.477c.745.07 1.447.383 1.996.89.848.719.87 1.179.87 1.179a.445.445 0 0 0 .76-.367s-.194-1.816-2.585-2.154a.97.97 0 0 0-1.041.452zM256.307 266.71c.75.004 1.47.292 2.018.803.84.718.847 1.271.847 1.271a.445.445 0 0 0 .761-.366s-.193-1.817-2.585-2.19a.97.97 0 0 0-1.041.481zM257.966 265.725a2.987 2.987 0 0 1 2.068.668c.89.646.934 1.207.934 1.207a.445.445 0 0 0 .718-.417s-.323-1.802-2.736-2.01a.977.977 0 0 0-.984.552z" fill="#FAFAFA"/>
            <path d="M276.852 253.575v2.441a3.828 3.828 0 0 1-3.95.108c-.071-.15-.265-2.55-.265-2.55h4.215zM265.24 262.242v1.824c0 .661-.775 1.652-2.8 1.58-1.437-.05-2.413-.438-2.363-1.608v-1.688l5.163-.108z" fill="#FFA8A7"/>
            <path d="M279.495 232.85c-.13-5.156-1.185-7.418-1.185-7.418s.388-6.362 1.25-14.154c1.3-11.856.717-14.154-1.638-19.496 0 0-19.97-2.018-20.574 6.276-.76 10.334-.847 31.353-.574 35 .273 3.649.266.28 1.156 7.67.718 5.845 2.154 21.622 2.154 21.622a5.494 5.494 0 0 0 5.163-.108s1.63-19.302 1.437-23.518a48.307 48.307 0 0 0-.496-6.463s2.334-16.652 2.693-19.331c0 0 .323 4.797.603 8.445.28 3.648.252 6.592 1.02 14.14.603 5.924 2.061 18.713 2.061 18.713a4.926 4.926 0 0 0 4.359-.323s2.678-16.89 2.57-21.055z" fill="#455A64"/>
            <path d="M268.034 254.17s.107-2.872 3.964-3.245l.222.122a3.34 3.34 0 0 0-1.895-1.436 2.621 2.621 0 0 0-2.966.854c-.675.84.007 3.153.675 3.706z" fill="#FAFAFA"/>
            <path fill="#FFA8A7" d="m263.115 165.082.94 7.713 6.78-.61-.769-8.567z"/>
            <path d="M277.455 171.495c-.718-2.025-2.456-4.15-5.026-3.67-.719.13-1.279.223-1.918.353-.057 1.78-3.41 2.7-6.743 1.622a47.201 47.201 0 0 0-2.757.877c-2.392.854-3.347 4.818-3.404 11.49-.058 6.67-1.02 19.912-1.02 19.912s5.027 2.665 14.413.963c9.385-1.702 9.235-4.898 9.235-4.898s-.187-3.892-4.424-10.427c3.598-9.558 2.75-13.206 1.644-16.222z" fill="#37474F"/>
            <path d="M258.074 155.28a5.946 5.946 0 0 1 .517-5.745c2.276-3.59 6.664-4.186 11.863-2.786a9.22 9.22 0 0 1 6.506 8.373c.251 3.813-10.384 6.628-10.147 9.242l-8.74-9.084z" fill="#263238"/>
            <path d="M257.851 156.73s-1.436 2.313-1.242 2.55c.357.224.75.382 1.163.467l.079-3.016z" fill="#F28F8F"/>
            <path d="M262.253 149.399c-1.436.79-3.935 2.255-4.438 7.662-.517 5.551.761 7.44 1.537 8.144.524.473 3.152.581 4.51.122 1.701-.582 5.364-2.514 7.03-5.415 1.96-3.418 2.262-7.9-.151-9.594a8.818 8.818 0 0 0-8.488-.919z" fill="#FFA8A7"/>
            <path d="M262.325 155.927a5.494 5.494 0 0 1-3.526-4.431c-.539-3.526 3.856-5.027 3.856-5.027l-.33 9.458z" fill="#263238"/>
            <path d="M261.822 149.658s-1.135 5.084.481 8.229c0 0 .84-1.99 2.542-1.472 1.702.517 1.63 2.8.316 3.993a2.52 2.52 0 0 1-2.62.632 11.274 11.274 0 0 0 2.534 3.834s5.027 2.255 9.436-2.686c3.971-4.488 3.232-12.308-2.872-14.153-6.104-1.846-9.817 1.623-9.817 1.623z" fill="#263238"/>
            <path d="M282.776 169.542a6.908 6.908 0 0 1-6.908-6.901v-11.547a6.908 6.908 0 0 1 6.908 6.9v11.548zM276.637 149.579a1.192 1.192 0 0 0-.769 1.5l2.27-.718a1.192 1.192 0 0 0-1.501-.782z" fill="#263238"/>
            <path d="M243.82 182.899c-.985-1.128-1.15-3.59-2.457-5.321-1.307-1.731-1.077-3.433-1.896-2.665-.818.769-.208 3.59-.208 3.59s-1.53 2.837-1.659 4.31c-.129 1.472 3.706 5.09 3.706 5.09l2.513-5.004z" fill="#FFA8A7"/>
            <path d="M239.453 178.288s-1.558 2.155-8.56-.66c-1.932-.79-.625 3.368 1.745 5.091 2.198 1.594 4.94 2.09 7.138 3.59.007-.23-.323-8.02-.323-8.02zM261.564 170.483c-1.99.718-3.735 1.493-5.602 4.99-2.391 4.496-6.736 13.3-6.736 13.3l-5.407-5.874s-.79-1.113-2.255 1.314c-1.465 2.427-.818 3.095-.818 3.095s6.305 8.445 7.46 9.515c1.157 1.07 3.06.244 4.31-1.436 1.249-1.68 7.654-13.307 7.654-13.307s4.216-7.36 1.394-11.597z" fill="#FFA8A7"/>
            <path d="M262.533 170.16a7.612 7.612 0 0 0-6.075 4.042c-2.384 4.31-4.898 9.17-4.898 9.17s1.731 4.173 6.133 4.489c0-.431 3.59-6.822 4.962-9.558 1.372-2.736 1.228-6.916-.122-8.144z" fill="#90CAF9"/>
            <path d="m268.895 212.944.381-4.035a15.31 15.31 0 0 0 6.09-2.306s-1.3 2.076-4.855 3.024l-.804 3.942-.208 7.827-.604-8.452z" fill="#37474F"/>
        </g>
    </g>
</svg>
