<svg width="352" height="316" xmlns="http://www.w3.org/2000/svg">
    <g fill-rule="nonzero" fill="none">
        <g transform="translate(0 117.587)">
            <ellipse fill="#E6E6E6" cx="175.701" cy="99.206" rx="175.701" ry="99.206"/>
            <ellipse fill="#E5ECFF" opacity=".8" cx="175.701" cy="99.206" rx="175.701" ry="99.206"/>
        </g>
        <g transform="translate(24.536 114.764)" fill="#B7D6FA">
            <path d="m166.633 92.213 33.204-19.164a1.65 1.65 0 0 1 1.466 0l48.584 28.086a.462.462 0 0 1 0 .872l-33.196 19.164a1.65 1.65 0 0 1-1.503 0l-48.562-28.086a.462.462 0 0 1 .007-.872zM14.554 126.75l-13.93-8.064a.916.916 0 0 1 0-1.738l169.228-97.696a3.292 3.292 0 0 1 3.006 0l13.93 8.065a.916.916 0 0 1 0 1.737L17.56 126.75a3.358 3.358 0 0 1-3.006 0z"/>
            <path d="m159.104 17.617 30-17.33a2.669 2.669 0 0 1 2.404 0l36.862 21.26a.733.733 0 0 1 0 1.393l-30 17.33a2.683 2.683 0 0 1-2.412 0l-36.854-21.26a.733.733 0 0 1 0-1.393zM85.205 162.167l37.852-21.957a3.248 3.248 0 0 1 2.932 0l44.662 25.792a.887.887 0 0 1 0 1.686l-37.815 21.994a3.248 3.248 0 0 1-2.932 0l-44.699-25.828a.887.887 0 0 1 0-1.687zM37.281 151.222l-8.321-4.817a.916.916 0 0 1 0-1.737l50.644-29.237a3.336 3.336 0 0 1 3.006 0l8.292 4.787a.916.916 0 0 1 0 1.738l-50.645 29.266a3.358 3.358 0 0 1-2.976 0zM101.928 114.214l-8.284-4.78a.916.916 0 0 1 0-1.738l55.13-31.89a3.336 3.336 0 0 1 3.006 0l8.285 4.787a.916.916 0 0 1 0 1.737l-55.124 31.884a3.306 3.306 0 0 1-3.013 0z"/>
            <ellipse cx="280.678" cy="126.244" rx="34.457" ry="11.73"/>
        </g>
        <path d="M42.631 213.465c.535-6.085-2.756-19.061-8.372-27.514s-15.036-15.095-22.294-13.306c-6.76 1.671-6.804 10.344.66 16.752 7.463 6.407 18.804 14.626 21.436 24.794l6.29 12.749 2.28-13.475z" fill="#407BFF"/>
        <path d="M42.631 213.465c.535-6.085-2.756-19.061-8.372-27.514s-15.036-15.095-22.294-13.306c-6.76 1.671-6.804 10.344.66 16.752 7.463 6.407 18.804 14.626 21.436 24.794l6.29 12.749 2.28-13.475z" fill="#000" opacity=".1"/>
        <path d="M42.353 221.823a.44.44 0 0 1-.374-.389c-2.244-21.114-17.551-39.442-27.28-44.075a.447.447 0 1 1 .381-.807c9.905 4.707 25.476 23.35 27.786 44.787a.433.433 0 0 1-.396.484h-.117z" fill="#FFF"/>
        <path d="M38.086 234.836c-.675-3.505-4.355-9.53-10.696-14.765-7.024-5.807-16.268-9.01-18.094-13.197-2.2-5.05 2.265-9.244 9.86-7.624 7.596 1.62 20.161 13.284 20.931 29.237l-2.001 6.349z" fill="#407BFF"/>
        <path d="M39.89 231.383a.447.447 0 0 1-.36-.33c-4.802-18.328-17.822-25.777-24.04-27.126a.455.455 0 0 1-.145-.817.433.433 0 0 1 .337-.055c6.876 1.51 19.794 9.069 24.713 27.785a.455.455 0 0 1-.322.55.513.513 0 0 1-.184-.007z" fill="#FFF"/>
        <path fill="#407BFF" d="M221.697 152.022v-21.114l27.426-15.828v21.107zM221.697 130.908l-34.281-19.787v21.107l34.28 19.794z"/>
        <path fill="#000" opacity=".15" d="m221.697 130.908-34.281-19.787v21.107l34.28 19.794z"/>
        <path fill="#407BFF" d="m221.697 130.908 28.24-16.305-35.095-20.27-28.24 16.311z"/>
        <path fill="#FFF" opacity=".45" d="m221.697 130.908 28.24-16.305-35.095-20.27-28.24 16.311z"/>
        <path fill="#407BFF" d="M221.697 130.908v5.279l28.24-16.298v-5.286z"/>
        <path fill="#000" opacity=".2" d="m221.697 136.187 27.426-15.829v1.159l-27.426 15.835z"/>
        <path fill="#407BFF" d="m186.602 110.644 35.095 20.264v5.279l-35.095-20.257z"/>
        <path fill="#000" opacity=".2" d="m186.602 110.644 35.095 20.264v5.279l-35.095-20.257z"/>
        <path fill="#000" opacity=".2" d="m221.697 136.187-34.281-19.788v1.159l34.28 19.794z"/>
        <path d="m230.729 134.12 9.37-5.411c.403-.228.732-.044.732.425v5.535a1.62 1.62 0 0 1-.733 1.268l-9.369 5.41c-.403.235-.733.045-.733-.425v-5.535c.028-.515.3-.986.733-1.268z" fill="#455A64"/>
        <path d="m231.33 134.75 8.167-4.714c.271-.162.484 0 .484.278v4.15a1.056 1.056 0 0 1-.484.843l-8.167 4.721c-.271.154-.491 0-.491-.286v-4.15c.017-.343.2-.658.491-.842z" fill="#F5F5F5"/>
        <g opacity=".5" fill="#455A64">
            <path d="M231.557 135.842a.117.117 0 0 1-.058-.22l7.734-4.45a.117.117 0 0 1 .162.044.125.125 0 0 1-.044.161l-7.735 4.428a.088.088 0 0 1-.059.037zM231.557 136.861a.103.103 0 0 1-.102-.059.117.117 0 0 1 .044-.161l7.734-4.45a.117.117 0 0 1 .162.044.117.117 0 0 1-.044.161l-7.713 4.45a.088.088 0 0 1-.08.015zM231.557 137.887a.11.11 0 0 1-.102-.066.117.117 0 0 1 .044-.16l7.734-4.451a.125.125 0 0 1 .162.044.117.117 0 0 1-.044.161l-7.713 4.45a.095.095 0 0 1-.08.022zM231.557 138.906a.11.11 0 0 1-.102-.066.117.117 0 0 1 .044-.16l7.734-4.45a.125.125 0 0 1 .162.043.117.117 0 0 1-.044.161l-7.713 4.45a.095.095 0 0 1-.08.022z"/>
        </g>
        <g>
            <path fill="#407BFF" d="M221.697 128.261v-21.114l27.426-15.835v21.114zM221.697 107.147l-34.281-19.794v21.114l34.28 19.794z"/>
            <path fill="#000" opacity=".15" d="m221.697 107.147-34.281-19.794v21.114l34.28 19.794z"/>
            <path fill="#407BFF" d="m221.697 107.147 28.24-16.312-35.095-20.263-28.24 16.305z"/>
            <path fill="#FFF" opacity=".6" d="m221.697 107.147 28.24-16.312-35.095-20.263-28.24 16.305z"/>
            <path fill="#407BFF" d="M221.697 107.147v5.279l28.24-16.305v-5.286z"/>
            <path fill="#000" opacity=".2" d="m221.697 112.426 27.426-15.836v1.159l-27.426 15.835z"/>
            <path fill="#407BFF" d="m186.602 86.877 35.095 20.27v5.279l-35.095-20.264z"/>
            <path fill="#000" opacity=".2" d="m186.602 86.877 35.095 20.27v5.279l-35.095-20.264z"/>
            <path fill="#000" opacity=".2" d="m221.697 112.426-34.281-19.794v1.158l34.28 19.794z"/>
            <path d="m230.729 110.351 9.37-5.403c.403-.235.732-.044.732.418v5.513c-.028.514-.3.982-.733 1.261l-9.369 5.41c-.403.235-.733.044-.733-.417v-5.52c.033-.513.304-.98.733-1.262z" fill="#455A64"/>
            <path d="m231.33 110.982 8.167-4.714c.271-.154.484 0 .484.278v4.157a1.07 1.07 0 0 1-.484.843l-8.167 4.714c-.271.154-.491 0-.491-.278v-4.157c.02-.344.202-.657.491-.843z" fill="#F5F5F5"/>
            <g opacity=".5" fill="#455A64">
                <path d="M231.557 112.081a.117.117 0 0 1-.102-.058.125.125 0 0 1 .044-.169l7.734-4.45a.125.125 0 0 1 .162.044.117.117 0 0 1-.044.161l-7.713 4.458-.08.014zM231.557 113.078a.117.117 0 0 1-.102-.058.11.11 0 0 1 .044-.162l7.734-4.435a.125.125 0 0 1 .162.044.117.117 0 0 1-.044.161l-7.735 4.45h-.059zM231.557 114.12a.117.117 0 0 1-.102-.06.11.11 0 0 1 .044-.16l7.734-4.487a.125.125 0 0 1 .162.044.117.117 0 0 1-.044.161l-7.713 4.457-.08.044zM231.557 115.139a.117.117 0 0 1-.102-.06.11.11 0 0 1 .044-.16l7.734-4.458a.132.132 0 0 1 .162.044.117.117 0 0 1-.044.161l-7.713 4.458-.08.015z"/>
            </g>
        </g>
        <g>
            <path d="M40.512 107.118c-.733-.44-2.983-2.463-2.983-3.402V94.92a3.211 3.211 0 0 1 1.466-2.537L198.303.375c.806-.462 1.833-.792 4.45.865a3.248 3.248 0 0 1 1.37 2.486v8.797a3.233 3.233 0 0 1-1.465 2.537L43.35 107.067c-.883.47-1.938.49-2.838.051z" fill="#407BFF"/>
            <path d="M204.11 3.484c-.103-.734-.734-1.034-1.467-.609L43.35 94.853c-.43.273-.785.649-1.034 1.092l-4.399-2.507c.25-.443.609-.817 1.041-1.085L198.303.383c.806-.47 1.928-.734 4.443.857a3.24 3.24 0 0 1 1.363 2.244z" fill="#FFF" opacity=".5"/>
            <path d="M43.071 237.842h-.059a.616.616 0 0 1-.146.058h-.103a.938.938 0 0 1-.205.052.425.425 0 0 1-.132 0h-.227a3.365 3.365 0 0 1-1.687-.294c-2.749-1.173-2.983-2.463-2.983-3.394V114.332l4.398 2.507v120.028c0 .66.33 1.048.807 1.048a.586.586 0 0 0 .198 0l.14-.073z" fill="#EBEBEB"/>
            <path d="M42.316 95.945a2.984 2.984 0 0 0-.425 1.467v19.45l-4.399-2.508V94.89a1.415 1.415 0 0 1 0-.176c0-.125.037-.242.059-.367.084-.317.207-.622.366-.909l4.399 2.507z" fill="#000" opacity=".1"/>
            <path d="M204.131 143.203a3.24 3.24 0 0 1-1.466 2.536L43.35 237.71c-.807.47-1.467.089-1.467-.842V105.219l4.033-2.324c.806-.469 2.118-7.58 2.932-8.064l34.963-20.168c.814-.47 2.72 4.78 3.526 4.31l116.78-67.447v131.677h.014z" fill="#F5F5F5"/>
            <path d="m48.855 139.302 30.059-17.36c.806-.462 1.466-.088 1.466.85v85.527a3.255 3.255 0 0 1-1.466 2.536l-30.059 17.36c-.813.47-1.466.089-1.466-.85v-85.519a3.233 3.233 0 0 1 1.466-2.544zM87.352 145.658l51.282-29.647c.806-.462 1.466-.088 1.466.85v56.92a3.255 3.255 0 0 1-1.466 2.544l-51.282 29.662c-.807.47-1.466.088-1.466-.843v-56.949a3.211 3.211 0 0 1 1.466-2.537zM145.884 111.612l51.32-29.662c.806-.47 1.465-.095 1.465.843v56.95a3.255 3.255 0 0 1-1.466 2.536l-51.319 29.662c-.806.47-1.466.088-1.466-.843v-56.964a3.211 3.211 0 0 1 1.466-2.522z" fill="#FFF"/>
            <path d="m48.855 117.074 148.312-85.629c.806-.47 1.466-.088 1.466.85v15.667a3.255 3.255 0 0 1-1.466 2.537L48.855 136.128c-.813.47-1.466.088-1.466-.843v-15.667a3.233 3.233 0 0 1 1.466-2.544z" fill="#455A64"/>
            <path d="M143.634 70.513v2.735c0 .557.396.784.88.506l43.115-24.927v-4.765l-43.115 24.926c-.52.339-.847.906-.88 1.525z" fill="#FAFAFA"/>
            <path d="M192.255 41.43c.483-.278.88-.051.88.506v2.735a1.965 1.965 0 0 1-.88 1.524l-4.626 2.669v-4.765l4.626-2.669z" fill="#407BFF"/>
            <path d="m191.91 45.176-.513-.16c.052-.22.08-.443.08-.668a1.21 1.21 0 0 0-.469-1.1.733.733 0 0 0-.733 0 2.64 2.64 0 0 0-1.034 2.148c-.048.424.13.842.47 1.1.1.058.214.088.33.088a.902.902 0 0 0 .425-.125 2.2 2.2 0 0 0 .828-1.114l.52.161h.052a.183.183 0 0 0 .183-.132.183.183 0 0 0-.139-.198zm-1.65.99a.374.374 0 0 1-.373 0 .91.91 0 0 1-.279-.733 2.31 2.31 0 0 1 .843-1.818.513.513 0 0 1 .227-.073.3.3 0 0 1 .14 0 .91.91 0 0 1 .278.733 2.302 2.302 0 0 1-.835 1.891z" fill="#FAFAFA"/>
            <path d="M85.886 119.618v18.841c0 .931.652 1.312 1.466.843l109.815-63.4a3.255 3.255 0 0 0 1.466-2.537V54.524c0-.939-.66-1.313-1.466-.85l-109.815 63.4a3.233 3.233 0 0 0-1.466 2.544z" fill="#FFF"/>
            <path d="M204.124 11.555v11.62L41.89 116.84v-11.62l3.013-1.745c.799-.469 1.07-1.173 1.466-2.536l1.02-3.548c.322-1.232.659-2.075 1.465-2.537l34.956-20.19c.814-.47 1.466-.52 2.067.498l1.254 2.28c.462.792.689 1.261 1.466.792l115.526-66.678z" fill="#E6E6E6"/>
            <path d="M197.247 8.975c.873-.499 1.57-.096 1.57.909a3.446 3.446 0 0 1-1.57 2.712c-.865.499-1.561.096-1.561-.901a3.468 3.468 0 0 1 1.561-2.72zM190.612 12.787c.866-.506 1.57-.095 1.57.902a3.468 3.468 0 0 1-1.57 2.712c-.865.506-1.568.096-1.568-.901a3.468 3.468 0 0 1 1.568-2.713zM183.97 16.614c.865-.499 1.57-.095 1.57.902a3.482 3.482 0 0 1-1.57 2.72c-.865.498-1.569.095-1.569-.91a3.468 3.468 0 0 1 1.57-2.712z" fill="#FFF"/>
            <path d="M61.135 101.488v-2.273a3.233 3.233 0 0 1 1.467-2.537L194.41 20.617c.806-.47 1.466-.088 1.466.85v2.266a3.255 3.255 0 0 1-1.466 2.543L62.602 102.331c-.785.484-1.467.095-1.467-.843z" fill="#FAFAFA"/>
            <path d="M192.511 26.694a.3.3 0 0 1-.117 0 .374.374 0 0 1-.198-.403l.132-1.085-.506-.366a.352.352 0 0 1-.147-.294.608.608 0 0 1 .22-.462l.777-.593a.227.227 0 0 0 .037-.066l.345-1.137a.484.484 0 0 1 .388-.366.3.3 0 0 1 .308.183l.286.616.66-.25a.3.3 0 0 1 .352.081.484.484 0 0 1 0 .535l-.535 1.027a.147.147 0 0 0 0 .066l.132.953a.616.616 0 0 1-.169.476.367.367 0 0 1-.308.118l-.63-.074-.682.873a.403.403 0 0 1-.345.168zm-.374-2.199.514.367c.109.087.16.229.131.366l-.088.733.462-.586a.389.389 0 0 1 .345-.162l.638.074a.14.14 0 0 0 0-.066l-.132-.953a.58.58 0 0 1 .066-.345l.491-.924-.506.198a.308.308 0 0 1-.396-.161l-.234-.484-.308 1.005a.557.557 0 0 1-.19.293l-.778.601a.117.117 0 0 0-.015.037v.007z" fill="#455A64"/>
            <g opacity=".3" fill="#000">
                <path d="m48.62 107.301-2.301 1.327.872-1.686a.425.425 0 0 0 0-.418c-.066-.08-.183 0-.264.125l-1.239 2.405a.447.447 0 0 0-.036.088.374.374 0 0 0 0 .124.213.213 0 0 0 0 .103c.008.02.02.037.036.051l1.247.96a.103.103 0 0 0 .124 0 .352.352 0 0 0 .14-.175c.066-.154.058-.33 0-.389l-.873-.674 2.295-1.276a.484.484 0 0 0 .183-.389c-.007-.16-.088-.264-.183-.176zM50.534 106.187l2.302-1.327-.88-.674a.352.352 0 0 1 0-.389c.067-.161.184-.242.257-.183l1.254.96v.051a.447.447 0 0 1 0 .11.645.645 0 0 1 0 .118v.095l-1.254 2.397a.286.286 0 0 1-.117.14.095.095 0 0 1-.14 0 .41.41 0 0 1 0-.41l.88-1.687-2.302 1.327c-.102.059-.183 0-.183-.176a.491.491 0 0 1 .183-.352zM58.078 99.56c0-.14-.132-.118-.19 0l-.316.777c-.542-.059-1.187.462-1.627 1.393-.572 1.21-.572 2.632 0 3.181a.814.814 0 0 0 1.033.066 2.8 2.8 0 0 0 1.027-1.253.389.389 0 0 0 0-.403c-.066-.074-.183 0-.257.146-.425.902-1.121 1.305-1.547.895-.425-.411-.425-1.467 0-2.376.308-.645.733-1.026 1.122-1.048l-.242.579c-.059.154 0 .293.095.235l.939-.616a.286.286 0 0 0 .102-.257l-.139-1.32zM83.547 79.355l.843-1.774a.565.565 0 0 0 0-.558c-.103-.095-.264 0-.36.213l-.842 1.774-.836-.806c-.103-.096-.264 0-.36.205a.52.52 0 0 0 0 .55l.836.814-.835 1.781a.52.52 0 0 0 0 .55c.05.045.126.045.176 0a.565.565 0 0 0 .183-.22l.836-1.774.843.806a.14.14 0 0 0 .176 0 .477.477 0 0 0 .183-.22.557.557 0 0 0 0-.55l-.843-.791zM197.606 19.818a.491.491 0 0 1-.44-.257.506.506 0 0 1 .184-.69l4.127-2.382a.506.506 0 0 1 .69.184.513.513 0 0 1-.184.733l-4.127 2.382a.528.528 0 0 1-.25.03zM197.606 22.171a.491.491 0 0 1-.44-.257.506.506 0 0 1 .184-.689l4.127-2.382a.506.506 0 0 1 .69.183.513.513 0 0 1-.184.733l-4.127 2.412a.528.528 0 0 1-.25 0zM197.606 24.583a.491.491 0 0 1-.44-.257.506.506 0 0 1 .184-.689l4.127-2.382a.506.506 0 0 1 .69.183.513.513 0 0 1-.184.733l-4.127 2.383a.528.528 0 0 1-.25.029z"/>
            </g>
            <path fill="#E0E0E0" d="M41.89 105.22v11.62l-4.369-2.508v-11.605z"/>
            <path fill="#CFCFCF" opacity=".15" d="M41.89 105.22v11.62l-4.369-2.508v-11.605z"/>
            <path d="M70.065 162.322v18.38l-12.36 7.155v-18.401l12.36-7.134m0-.63a.674.674 0 0 0-.316.08l-12.33 7.134a.652.652 0 0 0-.316.55v18.401c0 .35.281.634.63.638.114 0 .225-.03.323-.088l12.324-7.148a.63.63 0 0 0 .315-.55v-18.387a.63.63 0 0 0-.315-.55.674.674 0 0 0-.315-.08z" fill="#407BFF"/>
            <path d="M68.21 166.501v5.323l-.389.212v-1.627c0-.66-.308-1.041-.733-1.041a1.078 1.078 0 0 0-.55.168l-1.832 1.056v7.91c0 .829.322 1.35.733 1.35a.733.733 0 0 0 .38-.118l1.13-.674v.564l-6.18 3.563v-.564l1.143-.66a3.182 3.182 0 0 0 1.151-2.559v-7.896l-1.825 1.056a2.998 2.998 0 0 0-1.32 2.39v1.628l-.388.234v-5.322l8.65-4.993m0-.638c-.11 0-.22.03-.315.088l-8.65 4.993a.63.63 0 0 0-.316.55v5.322a.63.63 0 0 0 .323.55.594.594 0 0 0 .638-.007l.388-.235a.63.63 0 0 0 .3-.542v-1.628a2.405 2.405 0 0 1 1.005-1.847l.88-.506v6.818a2.617 2.617 0 0 1-.836 2.009l-1.144.667a.616.616 0 0 0-.315.542v.565a.623.623 0 0 0 .315.55.608.608 0 0 0 .63 0l6.181-3.563a.652.652 0 0 0 .315-.55v-.58a.638.638 0 0 0-.63-.637.645.645 0 0 0-.323.088l-1.143.66h-.044a1.18 1.18 0 0 1-.154-.734v-7.44l1.51-.873c.07-.05.15-.08.235-.088.073 0 .132.19.132.41v1.628a.63.63 0 0 0 .315.55.601.601 0 0 0 .315.088.645.645 0 0 0 .308-.08l.389-.213a.653.653 0 0 0 .322-.558v-5.322a.623.623 0 0 0-.315-.55.601.601 0 0 0-.315-.088v-.037zM104.602 169.529a.36.36 0 0 1-.14 0 .308.308 0 0 1-.138-.418l3.665-7.448a.733.733 0 0 1 .499-.33.733.733 0 0 1 .542.161l3.123 2.053.411.08-.293-.117 3.717-9.047a.682.682 0 0 1 1.07-.176l4.633 4.78a.316.316 0 1 1-.454.44l-4.626-4.765-3.754 9.01a.733.733 0 0 1-.447.41.733.733 0 0 1-.601-.087l-3.233-2.112-3.666 7.427a.315.315 0 0 1-.308.139z" fill="#407BFF"/>
            <path d="M121.325 147.836v16.671l-16.671 9.633v-16.67l16.663-9.634m.477-.968a.235.235 0 0 0-.132.044l-.63.367-16.694 9.662a.557.557 0 0 0-.198.213.543.543 0 0 0-.088.286v17.463c0 .132.066.205.162.205a.3.3 0 0 0 .124-.037l17.36-10.029a.645.645 0 0 0 .294-.506v-17.455c0-.132-.066-.213-.161-.213h-.037z" fill="#407BFF"/>
            <path d="M109.88 159.676a.902.902 0 0 1-.461-.117 1.129 1.129 0 0 1-.499-1.034 2.874 2.874 0 0 1 1.32-2.288 1.019 1.019 0 0 1 1.642.946 2.932 2.932 0 0 1-1.32 2.295 1.408 1.408 0 0 1-.681.198zm1.042-3.013a.792.792 0 0 0-.36.117 2.258 2.258 0 0 0-1.011 1.745.41.41 0 0 0 .689.403 2.258 2.258 0 0 0 1.012-1.745.535.535 0 0 0-.184-.484.337.337 0 0 0-.132-.036h-.014zM174.41 117.587c2.016 0 3.329 1.994 3.329 5.088a16.862 16.862 0 0 1-2.368 8.064 16.217 16.217 0 0 1-1.811 2.574 10.352 10.352 0 0 1-2.617 2.243 4.626 4.626 0 0 1-2.302.733c-2.016 0-3.329-1.994-3.329-5.08a16.92 16.92 0 0 1 2.36-8.065 13.064 13.064 0 0 1 4.436-4.81 4.64 4.64 0 0 1 2.302-.732m0-.63a5.315 5.315 0 0 0-2.617.791 13.68 13.68 0 0 0-4.655 5.044 17.522 17.522 0 0 0-2.449 8.394c0 3.578 1.635 5.719 3.959 5.719a5.271 5.271 0 0 0 2.617-.792 11.092 11.092 0 0 0 2.779-2.375 18.328 18.328 0 0 0 4.34-11.078c0-3.578-1.635-5.718-3.966-5.718l-.008.014z" fill="#407BFF"/>
            <path d="m169.821 124.808 4.905.44-.11.147-4.978 6.195v-6.21a.784.784 0 0 1 .183-.572m0-.63c-.447 0-.806.52-.806 1.202v6.76c0 .396.124.593.315.593.19 0 .337-.124.542-.38l5.257-6.533c.469-.594.469-1.1 0-1.144l-5.257-.469-.051-.03z" fill="#407BFF"/>
        </g>
        <g>
            <path fill="#EBEBEB" d="m195.048 206.882 44.596 25.791v-27.346l-44.596-25.798z"/>
            <path fill="#F5F5F5" d="m270.552 214.829-30.908 17.844v-27.346l30.908-17.851z"/>
            <path fill="#FAFAFA" d="m195.048 179.529 30.916-17.844 44.588 25.79-30.908 17.852z"/>
            <path fill="#000" opacity=".1" d="m218.288 202.146 21.356 12.33 12.807-7.396-12.807 8.16z"/>
            <path fill="#000" opacity=".1" d="m205.473 201.64 34.17 19.72 25.624-14.786-25.623 15.535zM199.337 189.683s-.734 3.988-.352 6.004c0 0 5.593-.14 15.029 2.47l-14.677-8.474z"/>
            <path fill="#FAFAFA" d="m199.337 189.683 14.677 8.475-16.239-4.692z"/>
            <path d="m218.288 213.319 16.092 14.794s.447-2.03 3.534-3.46l-19.626-11.334z" fill="#000" opacity=".1"/>
            <path fill="#FAFAFA" d="m218.288 213.319 15.11 12.727 4.516-1.393z"/>
            <path d="m265.406 198.355-.14-.197-10.168 5.865 11.444-.939a6.943 6.943 0 0 0-1.136-4.729z" fill="#000" opacity=".1"/>
            <path fill="#FAFAFA" d="m255.098 204.023 10.169-5.865 3.387 1.781z"/>
            <g opacity=".3" fill="#455A64">
                <path d="M202.907 181.435a.396.396 0 0 1-.198-.733l25.623-14.795a.403.403 0 0 1 .542.147.396.396 0 0 1-.146.543l-25.623 14.794a.499.499 0 0 1-.198.044zM207.174 183.898a.396.396 0 0 1-.198-.733l25.66-14.794a.396.396 0 1 1 .388.681L207.4 183.847a.381.381 0 0 1-.227.051zM211.448 186.39a.396.396 0 0 1-.345-.19.403.403 0 0 1 .147-.542l25.623-14.795a.396.396 0 0 1 .581.445.389.389 0 0 1-.186.237l-25.622 14.795a.396.396 0 0 1-.198.05zM215.722 188.832a.396.396 0 0 1-.198-.733l25.623-14.794a.396.396 0 0 1 .535.146.403.403 0 0 1-.14.543l-25.659 14.794a.352.352 0 0 1-.161.044zM219.989 191.295a.403.403 0 0 1-.345-.197.396.396 0 0 1 .147-.536l25.622-14.794a.396.396 0 0 1 .582.445.389.389 0 0 1-.186.237l-25.659 14.794a.381.381 0 0 1-.161.051zM224.263 193.766a.396.396 0 0 1-.198-.733l25.623-14.794a.396.396 0 0 1 .395.681l-25.622 14.802a.41.41 0 0 1-.198.044zM228.53 196.23a.418.418 0 0 1-.345-.199.396.396 0 0 1 .147-.535l25.622-14.794a.396.396 0 1 1 .396.682l-25.622 14.794a.382.382 0 0 1-.198.051zM232.804 198.693a.389.389 0 0 1-.345-.198.389.389 0 0 1 .147-.535l25.66-14.795a.396.396 0 1 1 .395.682l-25.66 14.794a.396.396 0 0 1-.197.052zM237.07 201.163a.396.396 0 0 1-.197-.733l25.659-14.794a.396.396 0 0 1 .574.445.389.389 0 0 1-.185.237l-25.623 14.794a.389.389 0 0 1-.227.051z"/>
            </g>
        </g>
        <g>
            <path d="m176.045 143.54-51.099 29.508a2.64 2.64 0 0 0-1.195 2.067v48.665c.046.842.49 1.613 1.195 2.075l1.965 1.129a2.64 2.64 0 0 0 2.39 0l51.099-29.508a2.647 2.647 0 0 0 1.195-2.068v-48.664a2.654 2.654 0 0 0-1.195-2.075l-1.965-1.13a2.64 2.64 0 0 0-2.39 0z" fill="#407BFF"/>
            <path d="m176.045 143.54-51.099 29.508a2.64 2.64 0 0 0-1.195 2.067v48.665c.046.842.49 1.613 1.195 2.075l1.965 1.129a2.64 2.64 0 0 0 2.39 0l51.099-29.508a2.647 2.647 0 0 0 1.195-2.068v-48.664a2.654 2.654 0 0 0-1.195-2.075l-1.965-1.13a2.64 2.64 0 0 0-2.39 0z" fill="#000" opacity=".3"/>
            <path d="M181.551 146.384c-.154-.498-.608-.652-1.151-.33l-51.099 29.509a2.368 2.368 0 0 0-.843.894l-4.325-2.53c.195-.368.486-.677.843-.894l51.106-29.508a2.64 2.64 0 0 1 2.39 0l1.957 1.136c.591.4.996 1.021 1.122 1.723z" fill="#407BFF"/>
            <path d="M181.551 146.384c-.154-.498-.608-.652-1.151-.33l-51.099 29.509a2.368 2.368 0 0 0-.843.894l-4.325-2.53c.195-.368.486-.677.843-.894l51.106-29.508a2.64 2.64 0 0 1 2.39 0l1.957 1.136c.591.4.996 1.021 1.122 1.723z" fill="#000" opacity=".2"/>
            <path d="m180.4 146.069-51.099 29.516a2.64 2.64 0 0 0-1.195 2.067v48.687c0 .733.535 1.07 1.195.689L180.4 197.52a2.647 2.647 0 0 0 1.195-2.068v-48.708c0-.763-.535-1.078-1.195-.675z" fill="#407BFF"/>
            <path d="M150.43 204.844a7.288 7.288 0 0 1-3.666-.968c-3.064-1.774-4.824-5.792-4.824-11.034a30.461 30.461 0 0 1 4.106-14.72 27.214 27.214 0 0 1 2.932-4.128 19.633 19.633 0 0 1 4.898-4.164c3.291-1.9 6.524-2.126 9.09-.646 3.072 1.775 4.832 5.792 4.832 10.997a30.395 30.395 0 0 1-4.113 14.729 22.47 22.47 0 0 1-7.845 8.343 10.866 10.866 0 0 1-5.41 1.59zm-.125-29.685a25.307 25.307 0 0 0-2.727 3.85 28.68 28.68 0 0 0-3.87 13.833c0 4.59 1.465 8.065 3.936 9.487 1.994 1.151 4.59.924 7.331-.645a20.784 20.784 0 0 0 7.17-7.64 28.658 28.658 0 0 0 3.871-13.833c0-4.582-1.466-8.065-3.937-9.48-1.994-1.15-4.59-.923-7.331.645a17.595 17.595 0 0 0-4.443 3.783z" fill="#FFF"/>
            <path d="m161.69 183.759-10.036 12.463c-.902 1.122-1.635.946-1.635-.403v-12.837c0-1.356.733-2.383 1.635-2.302l10.037.894c.901.08.901 1.063 0 2.185z" fill="#FFF"/>
        </g>
        <g>
            <path d="M110.108 183.356v44.361a1.62 1.62 0 0 1-.733 1.268l-44.098 25.477c-.403.227-.733.044-.733-.426v-2.316l43.21-24.963v-42.895l1.606-.924c.418-.213.748-.044.748.418z" fill="#263238"/>
            <path d="M107.762 183.862v42.895l-43.21 24.963v-42.038c0-.26.074-.513.212-.733a1.4 1.4 0 0 1 .513-.557l42.485-24.53z" fill="#407BFF"/>
            <path d="M107.762 183.862v42.895l-43.21 24.963v-42.038c0-.26.074-.513.212-.733a1.4 1.4 0 0 1 .513-.557l42.485-24.53z" fill="#FFF" opacity=".8"/>
            <path d="M97.102 202.204a1.144 1.144 0 0 0-.146-.117h-.037l-2.734-1.583a.931.931 0 0 0-1.232.307l-9.736 23.996-6.466-4.253-.132-.087-2.705-1.562a.916.916 0 0 0-1.247.271l-9.494 19.061v12.669l2.75 1.59 42.425-24.508c.491-.278.794-.799.792-1.363v-12.016l-12.038-12.405z" fill="#407BFF"/>
            <path d="M97.102 202.204a1.144 1.144 0 0 0-.146-.117h-.037l-2.734-1.583a.931.931 0 0 0-1.232.307l-9.736 23.996-6.466-4.253-.132-.087-2.705-1.562a.916.916 0 0 0-1.247.271l-9.494 19.061v12.669l2.75 1.59 42.425-24.508c.491-.278.794-.799.792-1.363v-12.016l-12.038-12.405z" fill="#000" opacity=".15"/>
            <path d="M65.923 252.511v-12.683l9.428-19.112a.924.924 0 0 1 1.378-.19l9.047 5.952 9.904-24.112a.931.931 0 0 1 1.422-.162l12.038 12.405v12.03c.002.565-.3 1.086-.792 1.364l-42.425 24.508z" fill="#407BFF"/>
            <path fill="#000" opacity=".15" d="m85.776 226.478-2.852 6.943 1.81-7.625z"/>
            <path d="M111.882 180.629v-.088a1.642 1.642 0 0 0-.733-1.063l-1.29-.734a1.613 1.613 0 0 0-1.467 0l-47.235 27.28a1.569 1.569 0 0 0-.52.55 1.54 1.54 0 0 0-.22.733v55.475c.028.516.3.987.733 1.269l1.283.733c.403.202.872.232 1.298.08h.05l.118-.058 47.25-27.287c.433-.285.705-.758.733-1.276v-55.497c.007-.037 0-.08 0-.117zm-1.774 47.088c-.03.515-.302.985-.733 1.268l-44.098 25.477c-.403.227-.733.044-.733-.426v-44.354c.008-.258.081-.51.213-.733.121-.222.298-.409.513-.542l44.098-25.476c.403-.235.733-.052.733.425l.007 44.361z" fill="#37474F"/>
            <path d="M63.738 264.872a1.657 1.657 0 0 1-1.298-.08l-1.283-.734a1.62 1.62 0 0 1-.733-1.268V207.3c.007-.26.083-.513.22-.734l2.75 1.591a1.503 1.503 0 0 0-.213.733v55.476c-.008.403.234.601.557.506z" fill="#263238"/>
            <path d="M111.882 180.629a.44.44 0 0 1 0-.088c-.095-.308-.381-.411-.733-.213l-47.243 27.324a1.62 1.62 0 0 0-.733 1.26v55.483c0 .404.25.594.565.506h.059l.117-.058 47.25-27.287c.431-.283.703-.754.733-1.269V180.63h-.015zm-1.774 47.088a1.62 1.62 0 0 1-.733 1.268l-44.098 25.477c-.403.227-.733.044-.733-.426v-44.354c.001-.26.075-.513.213-.733a1.4 1.4 0 0 1 .513-.557l42.485-24.545 1.605-.924c.41-.242.733-.044.733.418l.015 44.376z" fill="#455A64"/>
            <path d="m81.802 208.942 1.07-1.811-2.199-1.276a2.067 2.067 0 0 0-2.09.213 6.525 6.525 0 0 0-2.932 5.132c-.077.74.247 1.464.85 1.899l2.12 1.224 1.018-1.723a6.87 6.87 0 0 0 2.163-3.658z" fill="#407BFF"/>
            <path d="m81.802 208.942 1.07-1.811-2.199-1.276a2.067 2.067 0 0 0-2.09.213 6.525 6.525 0 0 0-2.932 5.132c-.077.74.247 1.464.85 1.899l2.12 1.224 1.018-1.723a6.87 6.87 0 0 0 2.163-3.658z" fill="#000" opacity=".15"/>
            <path d="M80.746 207.314c1.635-.945 2.933-.176 2.933 1.708a6.547 6.547 0 0 1-2.933 5.132c-1.635.939-2.932.176-2.932-1.715a6.547 6.547 0 0 1 2.932-5.125z" fill="#407BFF"/>
        </g>
        <g>
            <path fill="#407BFF" d="m190.964 281.118-35.63 20.571-40.13-23.218L150.84 257.9z"/>
            <path fill="#000" opacity=".5" d="m190.964 281.118-35.63 20.571-40.13-23.218L150.84 257.9z"/>
            <path fill="#407BFF" d="M150.84 230.012V257.9l-35.637 20.571v-27.888z"/>
            <path fill="#000" opacity=".23" d="M150.84 230.012V257.9l-35.637 20.571v-27.888z"/>
            <path fill="#407BFF" d="M190.964 253.23v27.888L150.84 257.9v-27.888z"/>
            <path fill="#000" opacity=".4" d="M190.964 253.23v27.888L150.84 257.9v-27.888z"/>
            <path fill="#407BFF" d="m150.84 230.012.052-15.44 40.028 23.248.044 15.41z"/>
            <path fill="#000" opacity=".2" d="m150.84 230.012.052-15.44 40.028 23.248.044 15.41z"/>
            <path fill="#407BFF" d="m115.203 250.583-4.245-14.01 35.63-20.571 4.252 14.01z"/>
            <path fill="#000" opacity=".1" d="m115.203 250.583-4.245-14.01 35.63-20.571 4.252 14.01z"/>
            <path d="M123.7 277.394a1.708 1.708 0 0 1-.733-1.24l-2.991-49.082a1.466 1.466 0 0 1 .638-1.224l30.549-17.537c.435-.223.95-.223 1.386 0 .414.282.683.733.733 1.232l2.99 49.12c.014.488-.227.949-.637 1.216l-30.55 17.522a1.54 1.54 0 0 1-1.385-.007z" fill="#F0F0F0"/>
            <path d="m125.086 277.401 30.571-17.536c.41-.268.651-.728.638-1.217l-2.991-49.12c0-.454-.36-.652-.733-.432l-30.55 17.536c-.41.27-.65.734-.638 1.224l2.992 49.083c-.008.491.33.682.71.462z" fill="#FAFAFA"/>
            <path d="M152.842 209.396c.044 0 .073.11.073.184l2.991 49.119c.006.35-.165.681-.454.88l-30.55 17.536a.3.3 0 0 1-.124.044c-.044 0-.066-.11-.073-.183l-2.992-49.083c0-.353.173-.684.462-.887l30.55-17.566a.3.3 0 0 1 .124-.044m0-.359a.608.608 0 0 0-.3.088l-30.55 17.536c-.41.271-.65.734-.638 1.225l2.992 49.082c0 .33.198.521.432.521a.66.66 0 0 0 .308-.088l30.564-17.536c.41-.268.651-.728.638-1.217l-2.991-49.12c0-.33-.198-.52-.44-.52l-.015.03z" fill="#EBEBEB"/>
            <path d="M124.99 277.445a1.525 1.525 0 0 1-1.29-.051 1.708 1.708 0 0 1-.733-1.24l-2.991-49.082a1.386 1.386 0 0 1 .168-.733l1.393.814a1.29 1.29 0 0 0-.168.696l2.99 49.12c.008.425.294.615.631.476zM137.417 222.666l10.762-6.261c.337-.19.63 0 .653.381v.257c.011.433-.202.84-.565 1.078l-10.762 6.26c-.337.191-.63 0-.653-.38v-.257c-.01-.433.203-.84.565-1.078zM137.673 226.94l10.77-6.26c.337-.191.63 0 .653.388v.249c.009.432-.204.839-.565 1.078l-10.77 6.26c-.33.191-.623 0-.652-.38v-.257a1.268 1.268 0 0 1 .564-1.078zM137.937 231.214l10.763-6.26c.337-.191.63 0 .652.388v.25c.012.43-.198.837-.557 1.077l-10.733 6.26c-.337.191-.63 0-.652-.38v-.257c-.018-.425.18-.83.527-1.078zM127.065 246.258l22.148-12.75c.337-.197.63 0 .652.382v.25c.007.43-.206.836-.564 1.077l-22.126 12.756c-.33.191-.623 0-.652-.38v-.25c-.017-.43.188-.84.542-1.085zM126.816 241.984l22.148-12.75c.337-.197.63 0 .652.382v.25c.01.431-.204.838-.564 1.077l-22.133 12.749c-.338.19-.63 0-.653-.381v-.25c-.015-.43.193-.837.55-1.077zM127.336 250.561l22.148-12.749c.337-.19.63 0 .653.381v.25c.011.433-.202.84-.565 1.077l-22.148 12.75c-.337.197-.63 0-.652-.382v-.249a1.261 1.261 0 0 1 .564-1.078zM127.6 254.835l22.148-12.727c.337-.19.623 0 .653.382v.249c.009.432-.205.839-.565 1.078l-22.148 12.749c-.337.198-.63 0-.652-.382v-.249c-.02-.44.195-.859.564-1.1zM127.857 259.11l22.148-12.75c.337-.19.63 0 .652.382v.249c.012.433-.202.84-.564 1.078l-22.148 12.756c-.337.19-.63 0-.653-.389v-.249a1.261 1.261 0 0 1 .565-1.077zM128.12 263.369l22.149-12.75c.337-.19.623 0 .652.382v.25c.007.433-.205.842-.564 1.084l-22.148 12.75c-.337.19-.63 0-.653-.382v-.256c-.011-.433.202-.841.565-1.078zM128.377 267.658l22.148-12.75c.337-.19.63 0 .653.382v.25c.01.434-.203.843-.565 1.084l-22.148 12.75c-.337.19-.623 0-.652-.382v-.257a1.261 1.261 0 0 1 .564-1.077z" fill="#E0E0E0"/>
            <path fill="#407BFF" d="m125.548 228.78 8.944-5.124.652 10.733-8.944 5.117z"/>
            <path d="m127 229.887.197 3.219.279-.162-.059-.99c.019-.629.356-1.206.894-1.532l1.32-.733.293 4.788a1.847 1.847 0 0 1-.733 1.612l-.828.477v.345l4.472-2.56v-.344l-.829.477c-.461.264-.865-.037-.901-.667l-.294-4.788 1.327-.733c.52-.3.975-.102 1.012.44l.059.99.278-.161-.198-3.219-6.29 3.541z" fill="#FAFAFA"/>
            <g>
                <path d="M136.427 284.74a1.708 1.708 0 0 1-.733-1.24l-2.991-49.082c-.013-.491.228-.954.638-1.224l30.549-17.537c.435-.223.95-.223 1.386 0 .412.284.68.734.733 1.232l2.99 49.083c.004.49-.238.95-.644 1.224l-30.55 17.536a1.525 1.525 0 0 1-1.378.008z" fill="#F0F0F0"/>
                <path d="m137.805 284.747 30.55-17.536c.406-.275.648-.734.645-1.225l-2.991-49.082c0-.455-.36-.653-.733-.433l-30.557 17.573a1.466 1.466 0 0 0-.645 1.224l2.991 49.083c.03.418.36.616.74.396z" fill="#FAFAFA"/>
                <path d="M165.569 216.742c.044 0 .066.11.073.184l2.992 49.119a1.05 1.05 0 0 1-.455.887l-30.55 17.536a.3.3 0 0 1-.124.044c-.044 0-.066-.11-.073-.183l-2.992-49.12a1.05 1.05 0 0 1 .455-.886l30.55-17.537a.3.3 0 0 1 .124-.044m0-.359a.608.608 0 0 0-.3.088l-30.55 17.573a1.466 1.466 0 0 0-.645 1.224l2.991 49.083c0 .33.198.52.44.52a.608.608 0 0 0 .3-.087l30.55-17.537c.406-.274.648-.734.645-1.224l-2.991-49.083c0-.33-.198-.52-.44-.52v-.037z" fill="#EBEBEB"/>
                <path d="M137.717 284.79c-.416.182-.892.16-1.29-.058a1.679 1.679 0 0 1-.733-1.231l-2.991-49.083a1.386 1.386 0 0 1 .169-.733l1.385.814a1.342 1.342 0 0 0-.168.696l2.99 49.12c.015.417.301.615.638.476zM150.137 230.012l10.77-6.232c.336-.19.63 0 .652.381v.257c.012.433-.202.841-.565 1.078l-10.762 6.26c-.337.191-.63 0-.653-.38v-.257c-.022-.442.19-.862.558-1.107zM150.4 234.286l10.77-6.261c.33-.19.623 0 .653.381v.257c.009.432-.204.839-.565 1.078L150.525 236c-.337.191-.63 0-.652-.38v-.257c-.018-.426.181-.831.528-1.078zM150.664 238.56l10.763-6.26c.337-.191.63 0 .652.38v.257c.024.442-.188.863-.557 1.107l-10.762 6.26c-.337.191-.63 0-.653-.38v-.257c-.022-.441.19-.862.557-1.107zM139.8 253.604l22.147-12.757c.337-.19.63 0 .653.389v.25c.012.432-.202.84-.565 1.077l-22.133 12.742c-.337.19-.63 0-.652-.382v-.249c-.01-.427.197-.83.55-1.07zM139.528 249.322l22.155-12.749c.33-.19.623 0 .653.381v.257c.009.432-.204.84-.565 1.078l-22.147 12.749c-.338.19-.63 0-.653-.381v-.25c-.01-.432.2-.841.557-1.085zM140.063 257.907l22.148-12.749c.337-.19.63 0 .653.381v.25c.009.432-.204.839-.565 1.077l-22.148 12.75c-.337.197-.63 0-.652-.382v-.25c-.012-.432.202-.84.564-1.077zM140.32 262.181l22.148-12.741c.337-.191.63 0 .66.38v.25c.009.432-.204.84-.565 1.078l-22.155 12.749c-.33.198-.623 0-.652-.381v-.25a1.261 1.261 0 0 1 .564-1.085zM140.584 266.455l22.148-12.749c.337-.19.63 0 .652.382v.249c.01.432-.204.839-.564 1.078l-22.148 12.749c-.337.198-.63 0-.653-.382v-.249a1.261 1.261 0 0 1 .565-1.078zM140.84 270.7l22.148-12.72c.33-.19.623 0 .653.382v.249c.009.432-.204.839-.565 1.078l-22.155 12.749c-.33.198-.623 0-.652-.381v-.25a1.276 1.276 0 0 1 .572-1.107zM141.105 275.004l22.147-12.75c.337-.19.63 0 .653.382v.25c.012.432-.202.84-.565 1.077l-22.133 12.749c-.337.198-.63 0-.652-.381v-.25c-.013-.43.195-.835.55-1.077z" fill="#E0E0E0"/>
                <path fill="#407BFF" d="m138.275 236.126 8.944-5.124.652 10.732-8.944 5.118z"/>
                <path d="m139.726 237.233.198 3.219.279-.162-.059-.99c.015-.63.353-1.209.895-1.532l1.32-.733.292 4.78c.046.63-.23 1.24-.733 1.62l-.828.477v.344l4.472-2.558v-.345l-.829.477c-.461.264-.865 0-.901-.667l-.294-4.788 1.32-.733c.528-.3.982-.102 1.02.44l.058.982.278-.153-.198-3.219-6.29 3.541z" fill="#FAFAFA"/>
            </g>
            <g>
                <path d="M149.118 292.078a1.723 1.723 0 0 1-.734-1.239l-2.99-49.12c-.014-.49.227-.953.637-1.224l30.55-17.536c.434-.223.95-.223 1.385 0 .412.284.68.734.733 1.232l2.991 49.082c.003.49-.239.95-.645 1.225l-30.52 17.587a1.54 1.54 0 0 1-1.407-.007z" fill="#F0F0F0"/>
                <path d="m150.525 292.085 30.55-17.536c.406-.274.648-.734.645-1.224l-2.992-49.083c0-.454-.366-.652-.733-.432l-30.578 17.565a1.422 1.422 0 0 0-.645 1.225l3.02 49.053c0 .454.33.652.733.432z" fill="#FAFAFA"/>
                <path d="M178.267 224.08c.044 0 .066.11.073.184l2.976 49.083a1.07 1.07 0 0 1-.454.887l-30.55 17.536a.3.3 0 0 1-.124.044c-.044 0-.073-.11-.073-.183l-2.992-49.12c-.005-.35.166-.68.455-.88l30.55-17.536a.3.3 0 0 1 .124-.043m0-.36a.608.608 0 0 0-.3.088l-30.535 17.595a1.422 1.422 0 0 0-.645 1.225l3.02 49.053c0 .33.198.52.44.52a.608.608 0 0 0 .3-.088l30.55-17.536c.406-.274.648-.734.645-1.224l-2.991-49.083c0-.33-.198-.52-.44-.52l-.044-.03z" fill="#EBEBEB"/>
                <path d="M150.415 292.13c-.42.175-.896.154-1.297-.06a1.708 1.708 0 0 1-.734-1.23l-2.99-49.12c-.011-.254.044-.507.16-.733l1.394.813a1.342 1.342 0 0 0-.17.697l2.992 49.12c.022.454.308.652.645.512zM162.834 237.35l10.77-6.239c.337-.19.63 0 .652.382v.256c.01.433-.204.84-.564 1.078l-10.762 6.26c-.338.192-.63 0-.66-.38v-.257c-.014-.44.2-.855.564-1.1zM163.098 241.625l10.763-6.261c.337-.191.63 0 .66.38v.257c.008.433-.205.84-.565 1.078l-10.77 6.261c-.337.19-.63 0-.652-.381v-.257a1.261 1.261 0 0 1 .564-1.077zM163.355 245.899l10.77-6.261c.337-.19.63 0 .652.381v.257c.012.432-.202.84-.565 1.077l-10.762 6.261c-.337.19-.63 0-.652-.381v-.257a1.29 1.29 0 0 1 .557-1.077zM152.497 260.935l22.148-12.749c.337-.19.63 0 .652.381v.257c.012.433-.201.84-.564 1.077L152.6 262.636c-.337.19-.63 0-.653-.381v-.25c-.005-.426.2-.827.55-1.07zM152.233 256.66l22.155-12.748c.33-.19.624 0 .653.381v.257c.009.432-.204.839-.565 1.077l-22.147 12.75c-.338.19-.63 0-.66-.382v-.25c-.004-.432.208-.838.564-1.084zM152.761 265.246l22.148-12.75c.337-.197.63 0 .652.382v.25c.01.431-.204.838-.564 1.077l-22.148 12.749c-.337.198-.63 0-.652-.381v-.25c-.012-.432.202-.84.564-1.077zM153.018 269.52l22.147-12.75c.338-.19.631 0 .653.382v.25c.012.43-.198.838-.557 1.077l-22.155 12.75c-.33.197-.623 0-.653-.382v-.25a1.261 1.261 0 0 1 .565-1.077zM153.282 273.794l22.17-12.749c.337-.19.63 0 .652.381v.25c.009.432-.204.838-.565 1.077l-22.155 12.75c-.337.197-.63 0-.652-.382v-.25c-.015-.43.193-.837.55-1.077zM153.538 278.068l22.148-12.749c.337-.19.63 0 .653.381v.25c.006.431-.207.837-.565 1.077l-22.155 12.75c-.33.197-.623 0-.653-.382v-.25c-.007-.433.209-.84.572-1.077zM153.802 282.342l22.148-12.749c.337-.19.63 0 .652.381v.25c.01.432-.204.839-.564 1.077l-22.148 12.75c-.337.197-.63 0-.652-.382v-.25c-.012-.432.202-.84.564-1.077z" fill="#E0E0E0"/>
                <path fill="#407BFF" d="m150.965 243.465 8.951-5.125.653 10.733-8.944 5.117z"/>
                <path d="m152.424 244.572.198 3.218.278-.169-.058-.982c.014-.63.352-1.21.894-1.532l1.32-.733.293 4.78c.046.63-.23 1.239-.733 1.62l-.828.476v.345l4.472-2.559v-.344l-.836.476c-.455.264-.858-.036-.895-.667l-.293-4.787 1.32-.733c.528-.3.982-.103 1.012.44l.066.982.278-.154-.198-3.218-6.29 3.54z" fill="#FAFAFA"/>
            </g>
            <path fill="#407BFF" d="M155.334 273.801v27.888l-40.13-23.218v-27.888z"/>
            <path fill="#000" opacity=".38" d="M155.334 273.801v27.888l-40.13-23.218v-27.888z"/>
            <path fill="#407BFF" d="M190.964 281.118V253.23l-35.63 20.571v27.888z"/>
            <path fill="#000" opacity=".23" d="M190.964 281.118V253.23l-35.63 20.571v27.888z"/>
            <path fill="#FFF" opacity=".7" d="m190.964 253.23-35.63 20.571v27.888l.66-27.33z"/>
            <path fill="#407BFF" d="m155.334 273.801 3.344-13.504 35.307-20.388-3.02 13.32z"/>
            <path fill="#000" opacity=".3" d="m155.334 273.801 3.344-13.504 35.307-20.388-3.02 13.32z"/>
            <path fill="#407BFF" d="m115.203 250.583-8.38-11.576 40.132 23.218 8.38 11.576z"/>
            <path fill="#000" opacity=".45" d="m115.203 250.583-8.38-11.576 40.132 23.218 8.38 11.576z"/>
            <path fill="#FFF" opacity=".7" d="m106.824 239.007 40.13 23.218 8.38 11.576-8.826-11.172z"/>
            <g opacity=".7" fill="#FFF">
                <path d="M165.825 293.427a.22.22 0 0 1-.22-.22v-4.912a.22.22 0 0 1 .22-.22c.12.004.217.1.22.22v4.912a.227.227 0 0 1-.22.22z"/>
                <path d="M165.188 289.967h-.081a.22.22 0 0 1-.117-.294l.777-1.796.872 1.005a.22.22 0 0 1-.154.374.213.213 0 0 1-.154-.066l-.418-.477-.498 1.158a.227.227 0 0 1-.227.096zM167.849 292.24a.22.22 0 0 1-.22-.22v-4.905c.004-.12.1-.216.22-.22a.22.22 0 0 1 .22.22v4.904a.213.213 0 0 1-.22.22z"/>
                <path d="M167.211 288.816h-.088a.22.22 0 0 1-.117-.286l.784-1.796.865.997a.213.213 0 0 1 0 .308.22.22 0 0 1-.308 0l-.41-.484-.506 1.165a.22.22 0 0 1-.22.096z"/>
            </g>
            <g opacity=".7" fill="#FFF">
                <path d="M159.982 296.726a.455.455 0 0 1-.234-.066.565.565 0 0 1-.264-.52v-.602a.213.213 0 0 1 .22-.22.22.22 0 0 1 .22.22v.602a.22.22 0 0 0 .036.146.213.213 0 0 0 .147-.044c.273-.255.42-.616.403-.99v-2.507a.22.22 0 0 1 .22-.22.213.213 0 0 1 .22.22v2.508c.024.53-.208 1.04-.623 1.37a.69.69 0 0 1-.345.103z"/>
                <path d="M157.68 294.703v-.381a6.202 6.202 0 0 1 2.801-4.854 1.855 1.855 0 0 1 3.02 1.76v.132l-5.82 3.343zm4.113-5.19a2.2 2.2 0 0 0-1.092.336 5.784 5.784 0 0 0-2.566 4.084l4.927-2.845a1.635 1.635 0 0 0-.682-1.43 1.202 1.202 0 0 0-.587-.146z"/>
            </g>
        </g>
        <g>
            <path d="M275.89 242.365c-.294 0-.286.836-.198 1.21.088.374 1.239 1.65 3.335 2.155 2.097.506 5.022.198 6.276.19 1.253-.007 3.394.66 4.633.88 1.24.22 3.497-.132 4.26-.806.254-.278.377-.652.337-1.026 0-.829-.066-.997-.161-.997l-18.483-1.606z" fill="#37474F"/>
            <path d="M294.174 241.493c.036.168.066.33.088.498.156.842.18 1.702.073 2.551-.34.566-.906.958-1.554 1.078a7.764 7.764 0 0 1-4.245-.095 12.463 12.463 0 0 0-3.211-.44c-1.452.102-2.91.102-4.362 0a10.506 10.506 0 0 1-3.175-.785 4.003 4.003 0 0 1-1.877-1.81 2.932 2.932 0 0 1 1.745-2.838 6.525 6.525 0 0 1 3.263-.564c1.224.051 2.133.25 3.218.212a5.25 5.25 0 0 0 2.2-.44c.327-.234.582-.557.733-.93.183-.382.264-.734.608-.734 0 0 5.132.088 5.623.154.491.066.616 2.141.675 2.544.058.404.044.653.11.96.066.309.051.433.088.639z" fill="#455A64"/>
            <path d="M283.22 239.088a.836.836 0 0 0-.263-.11c-.491-.095-.887.381-1.115.733a3.174 3.174 0 0 0-.285.733 1.716 1.716 0 0 0-.052.96c0 .081.08.177.162.162.08-.015.095-.11.11-.183.06-.452.201-.89.417-1.29.079-.173.188-.33.323-.463.145-.133.318-.233.506-.293.073 0 .403 0 .33-.161l-.066-.066-.066-.022zM284.636 239.176a.916.916 0 0 0-.66.161c-.199.168-.344.39-.418.638a2.06 2.06 0 0 0-.095 1.664c.088.154.22.073.278-.058.044-.168.068-.34.074-.514.072-.374.19-.739.351-1.085.055-.141.129-.275.22-.396a.667.667 0 0 1 .36-.249h.139c0-.066-.073-.11-.147-.124l-.102-.037zM286.095 238.78a.894.894 0 0 0-.433.271c-.097.13-.169.277-.213.433-.118.349-.197.71-.234 1.077-.021.255.032.51.154.734.051.088.154.183.249.139.095-.044.095-.205.11-.3.015-.096 0-.353 0-.521a3.02 3.02 0 0 1 .652-1.76s.044-.058.037-.088c-.007-.029-.08-.051-.124-.044l-.198.059z" fill="#FAFAFA"/>
            <path d="M281.681 239.176c-.506 0-1.59.623-2.155 2.155a8.732 8.732 0 0 0-.345 3.483 4.978 4.978 0 0 1-2.756-1.415 2.932 2.932 0 0 1-.667-.91 3.072 3.072 0 0 1 .6-2.338 4.787 4.787 0 0 1 3.666-1.422c2.01-.037 2.163.498 2.163.498l-.506-.051z" fill="#FAFAFA"/>
            <path d="M293.528 233.927s-.16 2.624-.366 3.841c-.117.69-.785 1.745-2.933 1.701a2.463 2.463 0 0 1-2.507-1.642 44.09 44.09 0 0 1-.117-4.802l5.923.902zM329.59 227.446l-3.174-7.889-6.913 2.368s4.824 6.965 5.396 7.728c.946 1.275 4.692-2.207 4.692-2.207z" fill="#FFA8A7"/>
            <path d="M332.729 229.645c.036.317.036.637 0 .953-.088 1.1-.169 2.2-.25 3.307a8.38 8.38 0 0 1-.183 1.297 8.622 8.622 0 0 0-.059 1.57c0 .55 0 1.099-.036 1.649-.028.243-.028.49 0 .733.058.227-3.475 2.25-4.905 3.028-.08.05-.167.092-.256.124a2.243 2.243 0 0 1-2.317-.542 3.937 3.937 0 0 1 .96-4.326s.184 0 .147-1.385c0-.99 0-2.002-.103-2.991a6.48 6.48 0 0 0-.476-1.811 4.399 4.399 0 0 1-.601-1.68c.078-.43.27-.833.557-1.165a3.6 3.6 0 0 1 .858-.938 6.298 6.298 0 0 1 2.5-1.232c.185-.047.379-.047.564 0 .279.088.447.367.638.601a6.437 6.437 0 0 0 1.598 1.188 2.852 2.852 0 0 1 1.305 1.466c.03.03.051.103.059.154z" fill="#455A64"/>
            <path d="M325.698 237.431a4.978 4.978 0 0 0-.953 4.333c-2.493-.227-3.145-1.664-3.145-1.664a2.397 2.397 0 0 1 1.29-2.148c.172-.111.354-.207.543-.286a3.666 3.666 0 0 1 2.265-.235z" fill="#FAFAFA"/>
            <path d="M333.425 230.026c.653.257.484 2.06.066 3.79s-.638 2.34-.425 3.784c.212 1.444.33 2.09-.257 2.617-.586.528-5.27 2.712-5.27 2.712a17.2 17.2 0 0 0 1.047-5.417c.125-3.197.338-5.257 1.819-6.708a2.823 2.823 0 0 1 3.02-.778z" fill="#407BFF"/>
            <path d="M333.425 230.026c.653.257.484 2.06.066 3.79s-.638 2.34-.425 3.784c.212 1.444.33 2.09-.257 2.617-.586.528-5.27 2.712-5.27 2.712a17.2 17.2 0 0 0 1.047-5.417c.125-3.197.338-5.257 1.819-6.708a2.823 2.823 0 0 1 3.02-.778z" fill="#000" opacity=".3"/>
            <path d="M321.585 240.092a8.71 8.71 0 0 0 3.908 1.701c2.09.235 2.2-.564 2.412-3.035.212-2.47.308-5.902 1.275-7.405.968-1.502 2.618-2.199 3.263-2.023.132-.066.77.41.982.696a3.578 3.578 0 0 0-2.734 1.1c-1.305 1.276-1.547 3.966-1.606 6.408-.059 2.441-.169 5.285-2.111 5.579a7.082 7.082 0 0 1-5.316-1.613.99.99 0 0 1-.073-1.408z" fill="#37474F"/>
            <path d="M325.852 236.522a.682.682 0 0 0-.293.454 1.4 1.4 0 0 0 .733 1.283c.264.147.484.088.066-.425a2.661 2.661 0 0 1-.506-1.312zM325.808 234.777a.565.565 0 0 0-.176.374c.1.544.407 1.028.858 1.349.454.205.212-.3 0-.535a8.996 8.996 0 0 1-.682-1.188zM325.69 232.9a.433.433 0 0 0-.212.308c0 .198.931.91 1.224.88.294-.03.367-.117 0-.36-.366-.241-1.011-.828-1.011-.828z" fill="#FAFAFA"/>
            <path d="M321.724 225.562s-15.102-22.53-15.556-24.296c-.455-1.767-3.322-20.16-3.322-20.16l-5.909 21.67a35.55 35.55 0 0 1 .536 6.092 54.141 54.141 0 0 1-1.203 10.645c-1.576 7.442-2.47 14.575-2.47 14.575a5.96 5.96 0 0 1-3.233.733 6.81 6.81 0 0 1-3.16-.902s-.821-20.131-1.056-24.75c-.234-4.619-.381-6.679-.124-9.721.351-4.142.542-8.438 1.341-17.405.697-7.873 2.126-24.633 2.126-24.633l24.26-1.605s2.045 3.87 2.287 13.93c.19 7.851.183 29.398.183 29.398 3.6 2.258 4.7 4.604 6.415 9.017 1.085 2.786 3.878 11.444 4.7 14.003-3.036.806-5.815 3.409-5.815 3.409z" fill="#455A64"/>
            <path d="m252.576 168.95-17.558 5.066-3.505 1.011a.953.953 0 0 1-1.121-.505.924.924 0 0 1 .066-.975l2.426-3.285 10.675-14.457 3.614 5.286 5.403 7.859z" fill="#F28F8F"/>
            <path d="m247.188 161.069-14.113 11.305-2.69 2.148a.924.924 0 0 1 .065-.975l2.427-3.285 10.674-14.457 3.637 5.264z" fill="#FFA8A7"/>
            <path d="m235.018 174.016-3.505 1.011a.953.953 0 0 1-1.121-.505.924.924 0 0 1 .066-.975l2.426-3.285a3.798 3.798 0 0 0 .176 2.134 3.028 3.028 0 0 0 1.958 1.62z" fill="#37474F"/>
            <path d="m322.267 101.019-1.723 1.202-2.09 1.466-74.88 52.089a10.19 10.19 0 0 0 1.26 7.33c1.884 3.395 5.19 5.91 7.742 5.866l74.324-51.737 3.981-2.771c-2.676 1.628-11.275-11.752-8.614-13.445z" fill="#407BFF"/>
            <path d="m322.267 101.019-1.723 1.202-2.09 1.466-74.88 52.089a10.19 10.19 0 0 0 1.26 7.33c1.884 3.395 5.19 5.91 7.742 5.866l74.324-51.737 3.981-2.771c-2.676 1.628-11.275-11.752-8.614-13.445z" fill="#000" opacity=".2"/>
            <path d="m320.544 102.22-2.09 1.467-74.88 52.089a10.19 10.19 0 0 0 1.26 7.33l77.044-54.287-1.334-6.598z" fill="#407BFF"/>
            <path d="m315.683 105.571-3.87 2.69c-1.144.734-.198 3.622 1.466 6.548 2.2 3.885 5.682 7.83 7.2 6.847l2.829-1.987 1.019-.733c-1.518.982-5-2.97-7.207-6.855-1.598-2.8-2.522-5.579-1.576-6.436a.242.242 0 0 1 .14-.074z" fill="#E0E0E0"/>
            <path d="M317.142 112.103c-1.598-2.8-2.522-5.579-1.576-6.436a.242.242 0 0 1 .103-.088l-3.856 2.683c-1.144.733-.198 3.621 1.466 6.547l3.841-2.706h.022z" fill="#FAFAFA"/>
            <path d="M314.745 106.253c-2.654 1.723 6.012 15.11 8.673 13.387l3.864-2.676c-2.662 1.715-11.327-11.671-8.673-13.387l-3.864 2.676z" fill="#407BFF"/>
            <path d="m322.267 101.019-3.812 2.646c-2.625 1.672 5.623 14.663 8.445 13.54a.528.528 0 0 0 .162-.072l3.82-2.698c-2.677 1.657-11.276-11.723-8.615-13.416z" fill="#E0E0E0"/>
            <path d="m338.447 89.787-16.18 11.232c-1.136.733-.22 3.577 1.415 6.488 2.2 3.893 5.667 7.88 7.2 6.928l15.563-10.807c3.835-2.199.63-10.175-3.445-13.137-1.496-1.13-3.116-1.54-4.553-.704z" fill="#F28F8F"/>
            <path d="m338.447 89.787-16.18 11.232c-1.136.733-.22 3.577 1.415 6.488l16.32-10.8s-2.046-4.031-1.218-5.674c.829-1.642 2.464-1.532 4.238-.55-1.518-1.121-3.138-1.532-4.575-.696z" fill="#FFA8A7"/>
            <path d="m318.587 103.548-3.842 2.705c-1.136.733-.19 3.614 1.466 6.525l3.85-2.705c-1.65-2.904-2.603-5.792-1.474-6.525z" fill="#FFF" opacity=".4"/>
            <path d="m322.267 101.019-3.812 2.646c-1.144.733-.22 3.6 1.407 6.525l3.82-2.683c-1.606-2.91-2.551-5.763-1.415-6.488z" fill="#FAFAFA"/>
            <path fill="#FFA8A7" d="m297.685 123.166.821 8.944 7.999-.462-.601-9.919z"/>
            <path d="M291.791 113.328s-1.774 2.624-1.547 2.932c.415.27.874.467 1.356.58l.191-3.512z" fill="#F28F8F"/>
            <path d="M311.175 106.722c-.25-.234-.52-.447-.733-.733a2.61 2.61 0 0 1-.286-.352c-.572-.85-.8-1.818-1.467-2.61a6.708 6.708 0 0 0-2.536-1.76 13.49 13.49 0 0 0-5.491-.732 42.83 42.83 0 0 1-5.572 0 4.927 4.927 0 0 0-2.493.088 2.595 2.595 0 0 0-1.407 2.5c.1 1.019.545 1.973 1.26 2.705a1.686 1.686 0 0 0-1.18 1.774c.108.773.454 1.493.99 2.06.858 1.041 1.518 1.76 1.774 3.116.345 1.855 2.354 2.844 3.622 4.164.483.464.94.953 1.37 1.466l.082.11a2.397 2.397 0 0 1-1.13-.095s-.234 3.966 2.566 5.256c1.837.35 3.731.25 5.52-.293a19.897 19.897 0 0 0 4.92-5.667c1.848-3.057 3.27-8.108.19-10.997z" fill="#263238"/>
            <path d="M300.486 117.726a2.097 2.097 0 0 1-1.466.873c-.379.063-.767.03-1.13-.095 0 0-.175 3.005 1.628 4.626-.374.146-.733.263-.997.351-1.606.477-4.7.257-5.293-.307-.887-.844-2.331-3.065-1.518-9.465a13.108 13.108 0 0 1 1.892-5.674c.14.921.735 1.71 1.583 2.096a2.647 2.647 0 0 0-.44 2.2 5.271 5.271 0 0 0 1.562 2.28.3.3 0 0 0 .14.095c.095.037.505 0 .564-.08.572-.83 1.356-1.797 2.888-1.284 1.804.609 1.701 2.772.587 4.384z" fill="#FFA8A7"/>
            <path d="M293.418 123.29c.734.404 2.779.573 4.311.36l-.044-1.15c-.658.279-1.34.497-2.038.652a7.397 7.397 0 0 1-2.229.139z" fill="#F28F8F"/>
            <path d="M296.204 116.89a1.466 1.466 0 0 1-.901-1.905 1.518 1.518 0 0 1 1.942-.888l-1.04 2.794z" fill="#263238"/>
            <path d="m302.824 181.186 2.053-8.798s3.497.25 7.793-3.189c0 0-.498 3.072-6.561 4.502l-2.009 8.621.63 10.682s-1.876-11.62-1.906-11.818z" fill="#37474F"/>
            <path d="M313.323 129.332c-.77-2.31-1.928-3.167-3.05-3.38a24.002 24.002 0 0 0-4.135 0c-.25 1.283-4.399 2.2-8.108.873l-3.74.586c-3.298 1.525-4.046 5.33-5.798 9.223a6.327 6.327 0 0 0 1.789 7.742s-.323 4.677-.499 7.33c-.25 3.91-.52 7.82-.814 11.73 0 0 3.666 3.351 15.015 2.933 8.306-.308 11.275-3.086 11.73-4.355-.447-5.22-3.072-10.139-3.578-11.73a9.795 9.795 0 0 1-.498-5.014c2.038-7.888 2.749-12.727 1.686-15.938z" fill="#407BFF"/>
            <path d="M313.323 129.332c-.77-2.31-1.928-3.167-3.05-3.38a24.002 24.002 0 0 0-4.135 0c-.25 1.283-4.399 2.2-8.108.873l-3.74.586c-3.298 1.525-4.046 5.33-5.798 9.223a6.327 6.327 0 0 0 1.789 7.742s-.323 4.677-.499 7.33c-.25 3.91-.52 7.82-.814 11.73 0 0 3.666 3.351 15.015 2.933 8.306-.308 11.275-3.086 11.73-4.355-.447-5.22-3.072-10.139-3.578-11.73a9.795 9.795 0 0 1-.498-5.014c2.038-7.888 2.749-12.727 1.686-15.938z" fill="#FFF" opacity=".4"/>
            <path d="M295.684 127.264c-6.43.345-6.848 1.76-9.795 7.75-1.554 3.167-4.01 9.53-5.483 12.595-3.24 1.466-10.719 2.668-13.666 2.03a2.397 2.397 0 0 1-1.466-.923c-.939-1.32-1.862-1.51-2.999-2.456-.88-.733-1.136-1.393-1.393-1.269a1.305 1.305 0 0 0-.476 1.709c.257.564.593 1.09.997 1.561a13.446 13.446 0 0 1-3.292-1.745c-2.434-1.723-3.856-1.708-3.629 2.09.14 2.375 1.738 4.178 7.097 5.608 1.965.571 3.97.997 5.997 1.276 5.14.366 10.307.035 15.359-.983a5.638 5.638 0 0 0 2.852-1.774c2.06-2.126 6.796-11.459 6.796-11.459 3.636-5.66 3.944-10.82 3.1-14.01z" fill="#FFA8A7"/>
        </g>
        <g>
            <path d="M299.137 82.566a.513.513 0 0 1-.198-.198l-2.493-4.31v-2.369l7.332-2.866v2.375l-.888 2.566 4.355-2.515.264 1.466-2.595 8.505a.543.543 0 0 1-.785.293l-4.992-2.947z" fill="#407BFF"/>
            <path d="M299.137 82.566a.513.513 0 0 1-.198-.198l-2.493-4.31v-2.369l7.332-2.866v2.375l-.888 2.566 4.355-2.515.264 1.466-2.595 8.505a.543.543 0 0 1-.785.293l-4.992-2.947z" fill="#000" opacity=".3"/>
            <path d="m307.245 75.242.264 1.466-2.588 8.512a.55.55 0 0 1-.99.095l-2.815-4.875.33-1.811 5.8-3.387z" fill="#407BFF"/>
            <path d="m307.245 75.242.264 1.466-2.588 8.512a.55.55 0 0 1-.99.095l-2.815-4.875.33-1.811 5.8-3.387z" fill="#000" opacity=".2"/>
            <path d="M316.329 50.704a5.25 5.25 0 0 0-2.368-4.105 5.25 5.25 0 0 0-4.744 0l-22.235 12.749a5.235 5.235 0 0 0-2.376 4.105v18.328c.09 1.672.973 3.2 2.376 4.113a5.205 5.205 0 0 0 4.743 0l22.456-12.903c2.133-1.217 2.148-2.434 2.148-3.951V50.704z" fill="#407BFF"/>
            <path d="M316.329 50.704a5.25 5.25 0 0 0-2.368-4.105 5.25 5.25 0 0 0-4.744 0l-22.235 12.749a5.235 5.235 0 0 0-2.376 4.105v18.328c.09 1.672.973 3.2 2.376 4.113a5.205 5.205 0 0 0 4.743 0l22.456-12.903c2.133-1.217 2.148-2.434 2.148-3.951V50.704z" fill="#000" opacity=".2"/>
            <path d="M284.606 81.76c.09 1.67.973 3.2 2.376 4.112 1.35.687 2.93.761 4.34.205-1.115.418-1.965-.22-1.965-1.568V66.18a4.86 4.86 0 0 1 .69-2.338l-4.744-2.742a4.92 4.92 0 0 0-.697 2.339v18.32z" fill="#000" opacity=".2"/>
            <path d="M316.255 50.03c-.278-1.005-1.195-1.327-2.294-.733l-22.236 12.785a4.714 4.714 0 0 0-1.672 1.774l-4.743-2.734a4.824 4.824 0 0 1 1.672-1.774l22.228-12.75a5.308 5.308 0 0 1 4.75 0 5.242 5.242 0 0 1 2.295 3.432z" fill="#407BFF"/>
            <path d="M307.59 65.33c0 1.122.792 1.576 1.76 1.012a3.886 3.886 0 0 0 1.759-3.043c0-1.121-.792-1.576-1.76-1.011a3.886 3.886 0 0 0-1.76 3.042zM301.087 69.09c0 1.123.784 1.577 1.752 1.02a3.886 3.886 0 0 0 1.76-3.042c0-1.122-.785-1.577-1.76-1.02a3.9 3.9 0 0 0-1.752 3.043zM294.577 72.845c0 1.121.792 1.576 1.76 1.011a3.886 3.886 0 0 0 1.759-3.042c0-1.122-.792-1.576-1.76-1.012a3.886 3.886 0 0 0-1.76 3.043z" fill="#FAFAFA"/>
        </g>
    </g>
</svg>
